<?xml version="1.0" encoding="utf-8"?>
<!-- Generator: Adobe Illustrator 18.0.0, SVG Export Plug-In . SVG Version: 6.00 Build 0)  -->
<!DOCTYPE svg PUBLIC "-//W3C//DTD SVG 1.1//EN" "http://www.w3.org/Graphics/SVG/1.1/DTD/svg11.dtd">
<svg version="1.1" id="Layer_1" xmlns="http://www.w3.org/2000/svg" xmlns:xlink="http://www.w3.org/1999/xlink" x="0px" y="0px"
	 viewBox="0 0 72 50" enable-background="new 0 0 72 50" xml:space="preserve">
<rect x="19.7" y="9.2" fill="#FFFFFF" width="11.2" height="31"/>
<rect x="32.1" y="8.8" fill="#FFFFFF" width="16.9" height="32.1"/>
<rect x="56.5" y="15.6" fill="#FFFFFF" width="4" height="5.1"/>
<rect x="50.1" y="12.3" fill="#FFFFFF" width="8.4" height="12.1"/>
<g>
	<path fill="#73CCF3" d="M13.9,25c0-13.5,10.9-24.4,24.4-24.4S62.7,11.5,62.7,25S51.8,49.4,38.3,49.4S13.9,38.5,13.9,25L13.9,25
		L13.9,25z M32.8,13v8.2l1.7,1.7l-1.7,1.8V36l3,3.1h9.6l3-3V24.6L46.7,23l1.7-1.6V13l-3-3h-9.7L32.8,13L32.8,13L32.8,13z M19.9,11.6
		v2.8h3.6V39h5.7V9.9h-4.5L19.9,11.6L19.9,11.6L19.9,11.6z M50.4,19.3h3.3v3.3h2.8v-3.3h3.3v-2.8h-3.3v-3.3h-2.8v3.3h-3.3V19.3
		L50.4,19.3L50.4,19.3z M38.6,26.5h4.2v7.6h-4.2V26.5L38.6,26.5z M38.6,14.8h4.2v6.8h-4.2V14.8L38.6,14.8z"/>
</g>
</svg>
