<?xml version="1.0" encoding="utf-8"?>
<!-- Generator: Adobe Illustrator 20.0.0, SVG Export Plug-In . SVG Version: 6.00 Build 0)  -->
<svg version="1.1" id="Layer_1" xmlns="http://www.w3.org/2000/svg" xmlns:xlink="http://www.w3.org/1999/xlink" x="0px" y="0px"
	 viewBox="0 0 18 16" style="enable-background:new 0 0 18 16;" xml:space="preserve">
<style type="text/css">
	.st0{fill:#838589;}
</style>
<g>
	<g>
		<path class="st0" d="M17.3,7.3c-0.8-4.3-2.5-5.6-3.4-5.6c-1.4,0-1.8,1.1-4.9,1.1c-3,0-3.4-1.1-4.8-1.1C3.3,1.7,1.5,3,0.8,7.3
			c-0.5,2.5-1,6.2,0.2,6.6c1.4,0.5,1.9-0.8,3.5-2C6,10.7,6.8,10.5,9,10.5s3,0.3,4.6,1.5s2,2.5,3.5,2C18.2,13.5,17.8,9.8,17.3,7.3
			L17.3,7.3z M5.5,7.9c-1,0-1.8-0.8-1.8-1.8s0.8-1.8,1.8-1.8s1.8,0.8,1.8,1.8S6.5,7.9,5.5,7.9z M11.7,7.9c-0.5,0-0.9-0.4-0.9-0.9
			s0.4-0.9,0.9-0.9s0.9,0.4,0.9,0.9S12.1,7.9,11.7,7.9z M13.4,6.1c-0.5,0-0.9-0.4-0.9-0.9s0.4-0.9,0.9-0.9s0.9,0.4,0.9,0.9
			S13.9,6.1,13.4,6.1z"/>
	</g>
</g>
</svg>
