
<svg width="32px" height="13px" viewBox="0 0 32 13" version="1.1" xmlns="http://www.w3.org/2000/svg" xmlns:xlink="http://www.w3.org/1999/xlink">
	<!-- Generator: Sketch 46.2 (44496) - http://www.bohemiancoding.com/sketch -->
	<desc>Created with Sketch.</desc>
	<defs></defs>
	<g id="Page-1" stroke="none" stroke-width="1" fill="none" fill-rule="evenodd">
		<g id="BBIN" fill-rule="nonzero" fill="#6ACFFF">
			<path d="M1.80869565,1.33217384 L1.80869565,3.69739123 C1.80869565,3.69739123 3.06086957,2.67710137 4.63768116,2.67710137 C6.21449275,2.67710137 7.51304348,3.55826079 7.51304348,3.55826079 C7.51304348,3.55826079 12.9855072,9.03072456 13.5884058,9.63362311 C14.1913043,10.2365217 14.7942029,10.4220289 15.8144928,10.4220289 C16.8347826,10.4220289 17.3913043,10.0046376 17.3913043,10.0046376 C17.3913043,10.0046376 17.5304348,9.91188398 18.3652174,9.03072456 C19.2,8.14956514 18.5043478,6.34086949 18.5043478,6.34086949 C18.5043478,6.34086949 17.9014493,4.3930434 15.8144928,4.3930434 C13.7275362,4.3930434 13.2173913,5.78434775 13.0318841,5.87710137 C12.8463768,5.969855 10.8985507,6.06260862 10.7130435,5.87710137 C10.5275362,5.69159413 10.7130435,1.37855065 10.7130435,0.0799999237 C12.1043478,0.0799999237 12.5217391,1.47130427 12.5217391,1.47130427 L12.3826087,3.9756521 C12.3826087,3.9756521 13.6811594,2.67710137 15.7681159,2.67710137 C20.1275362,2.67710137 20.2202899,7.08289847 20.2202899,7.08289847 L22.2608696,5.36695645 C22.2608696,5.36695645 22.2608696,3.79014485 22.2608696,3.04811587 C23.2811594,3.04811587 23.8376812,3.83652166 23.8376812,3.83652166 C23.8376812,3.83652166 25.3681159,2.58434775 27.0376812,2.58434775 C31.3971014,2.58434775 31.5826087,6.75826079 31.5826087,6.75826079 C31.5826087,6.75826079 31.5826087,11.395942 31.5826087,11.9988405 C30.6550725,11.9988405 30.1913043,10.4684057 30.1913043,10.4684057 C30.1913043,10.4684057 30.1913043,7.91768108 30.1913043,7.03652166 C30.1913043,6.15536224 29.3565217,5.36695645 29.3565217,5.36695645 C29.3565217,5.36695645 28.5217391,4.30028978 27.0376812,4.30028978 C25.5536232,4.30028978 24.0231884,6.10898543 24.0231884,6.10898543 C24.0231884,6.10898543 24.0231884,8.89159413 24.0231884,10.4220289 C24.0231884,11.9524637 22.2608696,12.3234782 22.2608696,12.3234782 L22.2608696,7.5930434 L18.4115942,11.1176811 C18.4115942,11.1176811 17.3449275,11.9524637 15.7681159,11.9524637 C14.1913043,11.9524637 12.7536232,10.9321738 12.7536232,10.9321738 C12.7536232,10.9321738 8.57971014,6.94376804 7.37391304,5.73797094 C6.16811594,4.53217384 5.70434783,4.30028978 4.77681159,4.30028978 C2.55072464,4.30028978 1.71594203,5.69159413 1.71594203,7.63942021 C1.71594203,9.5872463 3.38550725,10.3756521 4.77681159,10.3756521 C6.16811594,10.3756521 6.63188406,9.67999992 7.32753623,9.12347818 C8.02318841,8.52057963 9.55362319,8.98434775 9.55362319,8.98434775 C9.55362319,8.98434775 8.02318841,12.1379709 4.54492754,12.1379709 C1.06666667,12.1379709 0,9.30898543 0,7.68579703 C0,6.57275355 0,0.26550717 0,0.26550717 C1.29855072,0.26550717 1.80869565,1.33217384 1.80869565,1.33217384 Z"/>
		</g>
	</g>
</svg>