<?xml version="1.0" encoding="utf-8"?>
<!-- Generator: Adobe Illustrator 19.0.0, SVG Export Plug-In . SVG Version: 6.00 Build 0)  -->
<svg version="1.1" id="Слой_1" xmlns="http://www.w3.org/2000/svg" xmlns:xlink="http://www.w3.org/1999/xlink" x="0px" y="0px"
	 viewBox="0 0 758.7 289" style="enable-background:new 0 0 758.7 289;" xml:space="preserve">
<style type="text/css">
	.st0{fill:#FFFFFF;}
	.st1{fill:#FCDE00;}
</style>
<g id="XMLID_320_">
	<polygon id="XMLID_373_" points="76,0 52.7,96.3 25.1,67.8 0,170.6 41.6,142.1 6,289 690.7,289 758.7,0 	"/>
	<g id="white">
		<polygon id="XMLID_365_" class="st0" points="261.4,124 263.7,115.4 286.9,115.4 311.9,12.5 202.3,12.5 177.6,115.4 203,115.4 
			200.5,124 175.5,124 150.4,228.6 259.5,228.6 284.9,124 		"/>
		<path id="XMLID_378_" class="st0" d="M739.6,12.5H317.3l-24.7,102.9h39.5l-2.5,8.6h-39.1l-25.1,104.6h422.9L739.6,12.5z
			 M429.2,124.2H361l2.3-8.6h68.3L429.2,124.2z"/>
		<path id="XMLID_379_" class="st0" d="M146.3,124c0,0-0.2-3.7-1.1-4.1c-0.6-0.2-0.5-1.1,0-1.2c1.7-0.6,2.4-3.3,2.4-3.3h24.3
			l24.9-102.9H87.1L62.2,115.4h22l-2.1,8.6H60.2L34.9,228.6h109.6L169.9,124H146.3z"/>
	</g>
	<polygon id="soft_bg" points="675.6,215.1 377.2,215.1 423.5,27.1 721.9,27.1 	"/>
	<polygon id="XMLID_327_" class="st1" points="15,149.6 30.1,88.8 58,118.2 	"/>
	<polygon id="XMLID_328_" class="st1" points="446.5,87.8 430.2,151.9 402.7,120.2 	"/>
	<g id="gaming">
		<path id="XMLID_345_" class="st0" d="M360.4,263.1h10.4c0.2,0,0.3,0.1,0.2,0.3l-1.4,5.8c0,0.1-0.1,0.2-0.2,0.2h-21.2
			c-0.2,0-0.3-0.1-0.2-0.3l4.5-16.7c0-0.1,0.1-0.2,0.2-0.2h21.1c0.1,0,0.3,0.1,0.2,0.3l-0.5,3.2c0,0.2,0.1,0.3,0.3,0.3l4.7-0.7
			c0.1,0,0.2-0.1,0.2-0.2c0.3-1.2,0.5-2.2,0.7-3c0.8-4.2-4-3.5-4-3.5h-21.9c-5,0-5.6,3.8-5.6,3.8s-2.5,8.9-4.2,15.2s3.5,5.6,3.5,5.6
			s15.7,0,21.5,0c5.8,0,6.2-4.1,6.2-4.1s1.4-5.2,2.7-10c0-0.1-0.1-0.3-0.2-0.3h-16.2c-0.1,0-0.2,0.1-0.2,0.2l-0.9,3.8
			C360.1,263,360.3,263.1,360.4,263.1z"/>
		<path id="XMLID_332_" class="st0" d="M664.4,263.1h10.4c0.2,0,0.3,0.1,0.2,0.3l-1.4,5.8c0,0.1-0.1,0.2-0.2,0.2h-21.2
			c-0.2,0-0.3-0.1-0.2-0.3l4.5-16.7c0-0.1,0.1-0.2,0.2-0.2h21.1c0.1,0,0.3,0.1,0.2,0.3l-0.5,3.2c0,0.2,0.1,0.3,0.3,0.3l4.7-0.7
			c0.1,0,0.2-0.1,0.2-0.2c0.3-1.2,0.5-2.2,0.7-3c0.8-4.2-4-3.5-4-3.5h-21.9c-5,0-5.6,3.8-5.6,3.8s-2.5,8.9-4.2,15.2s3.5,5.6,3.5,5.6
			s15.7,0,21.5,0c5.8,0,6.2-4.1,6.2-4.1s1.4-5.2,2.7-10c0-0.1-0.1-0.3-0.2-0.3h-16.2c-0.1,0-0.2,0.1-0.2,0.2l-0.9,3.8
			C664.1,263,664.3,263.1,664.4,263.1z"/>
		<path id="XMLID_334_" class="st0" d="M430.3,248.8l8.7,24.1c0.1,0.1-0.1,0.3-0.2,0.3h-4.5c-0.1,0-0.2-0.1-0.2-0.2l-1.8-6.1
			c0-0.1-0.1-0.2-0.2-0.2h-17.9c-0.1,0-0.1,0-0.2,0.1l-5.7,6.3c0,0-0.1,0.1-0.2,0.1H404c-0.2,0-0.3-0.2-0.2-0.4l21.7-24.1
			c0,0,0.1-0.1,0.2-0.1h4.4C430.2,248.7,430.2,248.7,430.3,248.8z M416.8,263.8h14.2c0.2,0,0.3-0.2,0.2-0.3l-4.3-11.5
			c-0.1-0.2-0.3-0.2-0.4-0.1l-9.9,11.5C416.5,263.5,416.6,263.8,416.8,263.8z"/>
		<path id="XMLID_337_" class="st0" d="M499.1,272.9l4.8-17.9c0.1-0.2-0.2-0.4-0.4-0.2l-14.8,14.4c-0.7,0.7-1.9,0.5-2.3-0.4
			l-7.7-14.5c-0.1-0.2-0.4-0.2-0.4,0.1l-5,18.6c0,0.1-0.1,0.2-0.2,0.2h-3.6c-0.2,0-0.3-0.1-0.2-0.3l6.6-24.1c0-0.1,0.1-0.2,0.2-0.2
			h3.5c0.1,0,0.2,0,0.2,0.1l8.8,15.7c0.1,0.1,0.3,0.2,0.4,0.1l16.7-15.9c0,0,0.1-0.1,0.2-0.1h3.8c0.2,0,0.3,0.1,0.2,0.3l-6.6,24.1
			c0,0.1-0.1,0.2-0.2,0.2h-3.5C499.2,273.2,499.1,273.1,499.1,272.9z"/>
		<path id="XMLID_339_" class="st0" d="M539.8,272.9l6.8-24.1c0-0.1,0.1-0.2,0.2-0.2h3.9c0.2,0,0.3,0.1,0.2,0.3l-6.8,24.1
			c0,0.1-0.1,0.2-0.2,0.2H540C539.8,273.2,539.7,273.1,539.8,272.9z"/>
		<path id="XMLID_341_" class="st0" d="M608.5,273.2l-18-18.1c-0.1-0.1-0.3-0.1-0.4,0.1l-4.6,17.9c0,0.1-0.1,0.2-0.2,0.2h-4
			c-0.1,0-0.3-0.1-0.2-0.3l6-24c0-0.1,0.1-0.2,0.2-0.2h3.8c0.1,0,0.1,0,0.2,0.1l17.5,17.7c0.1,0.1,0.3,0.1,0.4-0.1l4.5-17.5
			c0-0.1,0.1-0.2,0.2-0.2h4c0.1,0,0.3,0.1,0.2,0.3l-6,24c0,0.1-0.1,0.2-0.2,0.2h-3.3C608.6,273.2,608.5,273.2,608.5,273.2z"/>
	</g>
	<g id="soft">
		<path id="XMLID_348_" class="st1" d="M529.3,68.2c0.8-4.1,2.2-8,4.2-11.7c2-3.7,5.5-6.9,8.3-9.6c2.8-2.7,6-4.9,9.4-6.4
			c3.5-1.5,7-2.3,10.7-2.3c6.7,0,12.2,1.2,16.4,5.7c4.3,4.5,6.4,10.3,6.4,17.3c0,2.1-2.2,8.1-2.6,10l-25.1,101.3
			c-0.5,2.8-1.8,7.9-3.7,11.4c-2,3.5-4.3,6.7-6.9,9.6c-6.4,6.9-16.8,10.4-25.2,10.4c-8.4,0-14.3-3.4-17.7-10.2
			c-1.2-2.2-2.1-4.6-2.7-7.2c-0.6-2.6,0.1-5.1,0.1-7.6c0-2.4,1.2-4.6,1.6-6.6L529.3,68.2z M565.1,66.1c0.1-0.7,0.2-1.3,0.3-1.8
			c0.1-0.4,0.1-0.9,0.1-1.3c0-3.7-2.7-6.5-6.1-6.5c-4.2,0-10.8,4.9-11.9,10.6l-27.3,108.9c-0.3,0.9-0.4,1.5-0.4,2c0,0.4,0,1,0,1.5
			c0,3.7,2.1,6.4,5.2,6.4c7.1,0,11.5-4.7,12.8-9.9L565.1,66.1z"/>
		<path id="XMLID_351_" class="st1" d="M642.6,56.2h-29.7l-13.2,55.6h28.3l-4.6,18.6h-28.3l-18.4,73.7h-18.9l41.5-165.9h47.1
			L642.6,56.2z"/>
		<path id="XMLID_353_" class="st1" d="M647.8,203.6h-18.3L666.4,56h-18.3l4.9-17.9h52.6C705.5,38.5,701,56,701,56h-16.3
			L647.8,203.6z"/>
		<g id="XMLID_363_">
			<path id="XMLID_364_" class="st1" d="M473.8,176.6c0,0,6.8-23,6.8-27.6c0-4.4,0-6.7-1-9c-0.9-2.3-2.2-4.6-3.8-6.9
				c-1.6-2.3-9.1-8.5-11.6-11.4c-2.5-2.8-4.2-5.9-5.2-9c-1-3.2-1-7.3-0.7-11.6c0.1-1.6,0.3-3.4,0.7-5.5c0.3-2,8.2-31.5,8.2-31.5
				c0.8-2.6,2.3-5.4,4.3-8.5c2-3,4.5-5.9,7.6-8.7c6.7-6.2,13.9-9,21.6-8.4c6.1,0.4,12.7,2.3,16.6,6.9c6.2,7.5,3.9,18.7,3.9,18.7
				c-0.4,2-4.1,14.5-4.1,14.5l-18.3-0.5l3-9.6c2.6-11.2-4.3-11.6-7.6-11.7c-0.6,0-4,0.7-5.6,2.7c-1.3,1.5-2.7,3.6-3.6,6.5
				c-1.7,5.6-5.7,20.9-5.8,21.7c-0.5,4.1-1.6,8.8-0.4,12.2c1.2,3.4,3.6,9.6,10,14.8c6,5,7.6,7.1,9.5,11.7c1.9,4.6,2.5,9.4,2.5,13.5
				c0,7.4-7.2,31-9.4,39.9c-0.7,2.6-2.2,5.5-4.5,8.6c-2.3,3.1-5,6-8.1,8.7c-6.7,5.6-13.7,8.1-21,7.6c-6.5-0.5-13.4-3.9-16.6-8.3
				c-3.2-4.4-5.2-9.4-4-16.8c0.7-4,4.1-15.9,4.1-15.9l18.7,0.1c0,0-4.5,12.2-3.5,16.2C458.2,188.3,469.6,187.8,473.8,176.6z
				 M498.7,68.6"/>
		</g>
	</g>
	<g id="bet">
		<path id="XMLID_330_" d="M334.8,204h-18.3l36.9-150.6h-18.3l4.9-17.9h52.6c-0.1,0.3-4.6,17.9-4.6,17.9h-16.3L334.8,204z"/>
		<path id="XMLID_360_" d="M242.7,53.5L229,110.1h29.4l-4.2,18.7h-29.9l-13.9,56.6h29.3l-4.5,18h-47.2l41.4-168.5H277l-4.3,18.6
			H242.7z"/>
		<path id="XMLID_356_" d="M147.7,100.6c-0.8,3.7-5.4,14-9.8,16.8c-0.7,0.5-0.8,1.5-0.2,2.1c5.3,5.1,3,16.4,3,16.4l-7.2,32.1
			c-1.7,9-8.5,35.4-39.8,35.4l-24.2,0.1L110,35.1h29.6c5.1,0.1,11.4,3.3,14.1,6.3c2.7,3.1,5.4,12,4.2,17.4
			C155.3,70.7,147.7,100.6,147.7,100.6z M91.6,185.1l6.5,0.2c5,0.4,9.7-1.7,11.4-3.3c1.6-1.6,2.7-3.6,3.2-6l8.3-35.2
			c0,0,1.3-6.1,1.3-6.8c0.1-2.6-2.8-5.9-6-6c-2.8-0.1-10.3,0-10.3,0L91.6,185.1z M110.8,109.2c0,0,7.1,0.5,9.4,0
			c3.8-0.9,7.5-3,9.1-8.5l9.7-39.9c0.7-5.1-4.6-8-8-8.1h-6.5L110.8,109.2z"/>
	</g>
</g>
<path id="heart" class="st1" d="M232.6,243.3c-6,0.2-10.4,3.9-12.2,7.7c0,0,0.5-8-9.8-8c-7,0-13,10.8-13,16.9c0,13.3,16,20,16,20
	s21.8-8.4,25.9-20.8C241.2,253.9,241.7,243,232.6,243.3z"/>
<path id="XMLID_325_" class="st1" d="M78,260.9c-10.1,2.4-18.9,9.6-22.8,18.8c-0.3,0.7-1.2,0.5-1.3-0.2c-1.1-9.8-8.8-16.5-13.4-18.6
	c-0.7-0.3-0.7-1,0-1.3c7.8-3,17.3-9.5,22.7-17.9c0.4-0.6,1.5-0.6,1.6,0.1c1.1,6.8,6.5,14.9,13.2,17.8
	C78.8,259.9,78.7,260.7,78,260.9z"/>
<path id="XMLID_329_" class="st1" d="M146.6,255.3c-0.4,0.2,9-11.8-4.9-11.8c-14.5,0-11.8,10.4-11.7,12.2c0,0,0,0,0,0
	c-12.3-8.4-20.6,20-6.4,18.8c1.2-0.1,5.5-0.1,8.9-4.3c0.2-0.3,0.1,0.7-0.1,1.2c-1.3,3.1-4,5.8-5.1,7.4c-0.2,0.3,0.3,0.7,0.3,0.7h9.2
	c0,0,0.5-0.2,0.3-0.5c-0.7-1.3-1.6-6-2.1-7.7c-0.1-0.3-0.2-1.4,0.2-1.2c0.7,0.3,1.2,4.8,8,4.7C158.4,274.6,160.2,249.2,146.6,255.3z
	 M137.5,259.8C137.5,259.8,137.5,259.8,137.5,259.8C137.5,259.8,137.5,259.8,137.5,259.8C137.5,259.8,137.5,259.8,137.5,259.8
	C137.5,259.8,137.5,259.8,137.5,259.8z"/>
<path id="XMLID_355_" class="st1" d="M304.5,242c0,0-23.6,10.5-26.3,20.2c-2,7.1-0.5,13.7,7.5,13.7c7,0,9.8-4.7,10-4.5
	c0.3,0.3-4.1,5.3-5.4,6.7c-0.3,0.4-0.1,0.9,0.4,0.9l8.9-0.1c0.4,0,0.7-0.4,0.5-0.8c-0.6-1.6-2.4-6.6-2-6.8c0,0,2.4,4.6,8,4.4
	c8.9-0.4,13-6.5,14.1-11.6C322.7,252.5,304.5,242,304.5,242z"/>
</svg>
