<?xml version="1.0" encoding="utf-8"?>
<!-- Generator: Adobe Illustrator 20.0.0, SVG Export Plug-In . SVG Version: 6.00 Build 0)  -->
<svg version="1.1" id="Layer_2" xmlns="http://www.w3.org/2000/svg" xmlns:xlink="http://www.w3.org/1999/xlink" x="0px" y="0px"
	 viewBox="0 0 40 45" style="enable-background:new 0 0 40 45;" xml:space="preserve">
<style type="text/css">
	.st0{fill:#838589;}
</style>
<g>
	<g id="XMLID_1_">
		<g>
			<path class="st0" d="M5.4,44.3h23.2l4.9-20.6l0,0c0-0.1,0-0.1,0.1-0.3l5-21.7h-23l-4.1,17l-4.9-5.2L2.2,32l7.5-5.2L5.4,44.3z
				 M13.3,22.2l4.4-18.3H37l-4.4,18.3h-4.1c0,0-0.3,0.5-0.5,0.5c0,0-0.3,0.3,0,0.3s0.3,0.8,0.3,0.8h4.1l-4.6,18.6H8.2l4.6-18.6h3.9
				l0.5-1.5h-3.9V22.2z M5.1,28.4l2.6-10.8l4.9,5.2L5.1,28.4z"/>
			<path class="st0" d="M29.6,9c0.5,0.5,1,2.1,0.8,3.1c-0.5,2.1-1.8,7.2-1.8,7.2c-0.3,0.8-1,2.6-1.8,3.1c0,0-0.3,0.3,0,0.3
				c1,0.8,0.5,2.8,0.5,2.8L26,31.2c-0.3,1.5-1.5,6.4-7.2,6.2h-4.4l7.2-29.9h5.2C27.8,7.7,29,8.2,29.6,9z M27,12.4
				c0-1-0.8-1.3-1.3-1.5h-1.3L22.1,21c0,0,1.3,0,1.5,0c0.8-0.3,1.3-0.5,1.5-1.5L27,12.4z M23.9,26.5c0,0,0.3-1,0.3-1.3
				c0-0.5-0.5-1-1-1s-1.8,0-1.8,0l-2.6,10.1H20c0.8,0,1.8-0.3,2.1-0.5c0.3-0.3,0.5-0.8,0.5-1L23.9,26.5z"/>
		</g>
	</g>
</g>
</svg>
