<?xml version="1.0" encoding="utf-8"?>
<!-- Generator: Adobe Illustrator 20.0.0, SVG Export Plug-In . SVG Version: 6.00 Build 0)  -->
<svg version="1.1" id="Layer_1" xmlns="http://www.w3.org/2000/svg" xmlns:xlink="http://www.w3.org/1999/xlink" x="0px" y="0px"
	 viewBox="0 0 18 16" style="enable-background:new 0 0 18 16;" xml:space="preserve">
<style type="text/css">
	.st0{fill:#838589;}
</style>
<g>
	<g id="XMLID_2_">
		<g>
			<path class="st0" d="M1.6,3.7C1.1,3.7,1,4,1,4.3v7.8c0,0.4,0.3,0.6,0.6,0.5l0,0l0,0h7.6c0.1,0.2,0.2,0.4,0.3,0.6H0.7
				c-0.2,0-0.3-0.2-0.3-0.3V1.1c0-0.2,0.1-0.3,0.3-0.3h10.8c0.2,0,0.3,0.2,0.3,0.3v4.8c-0.2,0.1-0.4,0.2-0.5,0.3v-2
				c0-0.4-0.3-0.5-0.6-0.5c0,0-0.1,0-0.2,0L1.6,3.7C1.6,3.5,1.6,3.7,1.6,3.7z"/>
		</g>
	</g>
</g>
<rect x="3.2" y="1.9" class="st0" width="0.4" height="10.9"/>
<rect x="5.8" y="1.9" class="st0" width="0.4" height="10.9"/>
<rect x="8.5" y="1.9" class="st0" width="0.4" height="10.9"/>
<rect x="0.6" y="5.4" class="st0" width="10.9" height="0.4"/>
<path class="st0" d="M9.5,8c0-0.1,0.1-0.1,0.1-0.2h-9v0.4h8.8C9.5,8.1,9.5,8.1,9.5,8z"/>
<path class="st0" d="M8.9,10.6c0-0.1,0-0.2,0-0.3H0.6v0.4L8.9,10.6C8.9,10.7,8.9,10.7,8.9,10.6z"/>
<g id="XMLID_3_">
	<g>
		<path class="st0" d="M12.6,5.1c2.8,0,5.1,2.3,5.1,5.1s-2.3,5.1-5.1,5.1S7.5,13,7.5,10.2S9.8,5.1,12.6,5.1z M15.9,11
			c0.5-0.5,0.8-1.3,0.8-1.9c0-0.7-0.3-1.4-0.8-1.9c-0.5-0.5-1.2-0.8-1.9-0.8s-1.4,0.3-1.9,0.8s-0.8,1.3-0.8,1.9
			c0,0.7,0.3,1.4,0.8,1.9s1.2,0.8,1.9,0.8C14.6,11.8,15.4,11.5,15.9,11z"/>
	</g>
</g>
</svg>
