<?xml version="1.0" encoding="utf-8"?>
<!-- Generator: Adobe Illustrator 20.0.0, SVG Export Plug-In . SVG Version: 6.00 Build 0)  -->
<svg version="1.1" id="Layer_1" xmlns="http://www.w3.org/2000/svg" xmlns:xlink="http://www.w3.org/1999/xlink" x="0px" y="0px"
	 viewBox="0 0 18 16" style="enable-background:new 0 0 18 16;" xml:space="preserve">
<style type="text/css">
	.st0{fill:#FFFFFF;}
</style>
<g>
	<g>
		<circle id="XMLID_6_" class="st0" cx="9" cy="7.1" r="2"/>
		<path id="XMLID_5_" class="st0" d="M10.2,9.4L9,11.2L7.8,9.4C6.1,9.7,4.7,11.2,4.7,13h8.6C13.3,11.2,12,9.7,10.2,9.4z"/>
	</g>
	<g>
		<circle id="XMLID_4_" class="st0" cx="13.4" cy="4.9" r="2"/>
		<circle id="XMLID_3_" class="st0" cx="4.6" cy="4.9" r="2"/>
	</g>
	<g>
		<path id="XMLID_2_" class="st0" d="M10.3,9.1L10.3,9.1c1,0.2,1.8,0.6,2.5,1.3c0.1,0.1,0.2,0.3,0.3,0.4h4.7c0-1.8-1.3-3.3-3.1-3.6
			L13.4,9l-1.2-1.8c-0.3,0-0.6,0.1-0.9,0.3C11.2,8.1,10.8,8.7,10.3,9.1z"/>
	</g>
	<g>
		<path id="XMLID_1_" class="st0" d="M5.4,10.4C6,9.7,6.8,9.2,7.8,9.1l0,0c-0.6-0.3-1-0.9-1.1-1.6C6.5,7.4,6.2,7.3,5.9,7.2L4.6,9
			L3.4,7.2C1.7,7.5,0.3,9,0.3,10.8H5C5.1,10.7,5.2,10.6,5.4,10.4z"/>
	</g>
</g>
</svg>
