<?xml version="1.0" encoding="utf-8"?>
<!-- Generator: Adobe Illustrator 17.0.0, SVG Export Plug-In . SVG Version: 6.00 Build 0)  -->
<!DOCTYPE svg PUBLIC "-//W3C//DTD SVG 1.1//EN" "http://www.w3.org/Graphics/SVG/1.1/DTD/svg11.dtd">
<svg version="1.1" id="Layer_1" xmlns="http://www.w3.org/2000/svg" xmlns:xlink="http://www.w3.org/1999/xlink" x="0px" y="0px"
	 width="130.887px" height="95px" viewBox="0 0 130.887 95" enable-background="new 0 0 130.887 95" xml:space="preserve">
<path id="XMLID_322_" fill="#D0D0D0" d="M85.765,22.304c-1.47,0.176-16.741-0.56-24.585-0.175c-0.035-0.001-0.035-0.001-0.052-0.018
	l-17.23-17.23c-4.272-4.272-11.242-4.273-15.515,0L2.975,30.288c-3.975,3.975-3.958,10.471,0,14.429L43.39,85.133
	c4.272,4.272,11.242,4.272,15.514-0.001l9.263-9.263c0.315-0.315,0.297-0.857-0.053-1.137l-3.835-3.029
	c-0.316-0.246-0.735-0.211-1.015,0.069l-1.104,1.104c-0.297,0.297-0.788,0.298-1.086,0L15.161,26.962
	c-0.297-0.297-0.296-0.788,0.001-1.085L32.323,8.716c1.733-1.733,4.569-1.734,6.303,0l41.202,41.202
	c1.191,1.191,1.384,3.029,0.596,4.449l-0.035,0.035c-2.889,0.858-9.439-1.278-10.454-1.629c-0.088-0.018-0.174-0.07-0.227-0.123
	c-1.225-0.981-13.151-10.418-18.842-4.727c-0.157,0.157-0.315,0.315-0.454,0.49c0,0-4.168,4.938,12.572,14.149
	c0.035,0.035,0.069,0.035,0.104,0.07l16.04,12.712c0.018,0.018,0.035,0.035,0.087,0.053c0.683,0.403,9.911,5.848,19.998,6.164
	c0.192,0.018,0.368,0.087,0.508,0.228l1.243,1.243c0.035,0.035,0.034,0.07-0.001,0.105l-0.438,0.438
	c-1.068,1.068-1.068,2.819,0.001,3.888l5.06,5.06c1.069,1.069,2.82,1.069,3.888,0.001l20.61-20.61c1.069-1.069,1.069-2.82,0-3.888
	l-5.025-5.025c-1.069-1.069-2.82-1.069-3.889,0c-0.035,0.035-0.069,0.035-0.104,0c-5.656-7.022-24.883-31.152-25.268-34.164
	c-0.017-0.087-0.035-0.176-0.087-0.262C95.152,27.557,91.474,21.603,85.765,22.304L85.765,22.304z M54.246,79.774
	c0.28,0.28,0.262,0.717,0,0.98c-1.716,1.716-4.518,1.717-6.234,0.001L7.265,40.007c-1.716-1.716-1.715-4.518,0.001-6.234
	c0.28-0.28,0.717-0.262,0.98,0L54.246,79.774z M54.246,79.774"/>
</svg>
