<?xml version="1.0" encoding="UTF-8"?>
<!DOCTYPE svg PUBLIC "-//W3C//DTD SVG 1.1//EN" "http://www.w3.org/Graphics/SVG/1.1/DTD/svg11.dtd">
<!-- Creator: CorelDRAW X7 -->
<svg xmlns="http://www.w3.org/2000/svg" xml:space="preserve" width="2906px" height="2906px" version="1.1" style="shape-rendering:geometricPrecision; text-rendering:geometricPrecision; image-rendering:optimizeQuality; fill-rule:evenodd; clip-rule:evenodd"
viewBox="0 0 29060 29060"
 xmlns:xlink="http://www.w3.org/1999/xlink">
 <defs>
  <style type="text/css">
   <![CDATA[
    .fil0 {fill:#FEFEFE}
    .fil2 {fill:#1691CE}
    .fil1 {fill:#FF3D00;fill-rule:nonzero}
   ]]>
  </style>
 </defs>
 <g id="Layer_x0020_1">
  <metadata id="CorelCorpID_0Corel-Layer"/>
  <circle class="fil0" cx="14530" cy="14530" r="14349"/>
  <g id="_1342187360">
   <g id="_915973440">
    <path class="fil1" d="M19763 976c-3742,-1445 -7723,-1230 -11119,276 -3396,1506 -6224,4303 -7668,8045 -1445,3742 -1230,7715 276,11119 1506,3396 4303,6224 8045,7668 3742,1445 7715,1230 11119,-276 3396,-1506 6224,-4303 7668,-8045 1445,-3742 1230,-7723 -276,-11119 -1506,-3396 -4303,-6224 -8045,-7668zm-10742 1114c3181,-1406 6900,-1606 10404,-254 3503,1353 6131,4004 7537,7185 1414,3181 1614,6900 262,10404 -1353,3503 -4004,6131 -7185,7537 -3181,1414 -6900,1614 -10404,262 -3511,-1353 -6131,-4004 -7545,-7185 -1406,-3181 -1606,-6900 -254,-10404 1353,-3511 4004,-6131 7185,-7545z"/>
    <path class="fil2" d="M8721 11364l11618 0c446,0 853,177 1145,477 299,292 484,699 484,1145l0 7706c0,446 -185,853 -484,1145 -292,300 -699,477 -1145,477l-11618 0c-446,0 -853,-177 -1153,-477 -291,-292 -476,-699 -476,-1145l0 -7706c0,-446 185,-853 476,-1145 300,-300 707,-477 1153,-477zm5809 2029c1906,0 3450,1544 3450,3450 0,1898 -1544,3442 -3450,3442 -1906,0 -3450,-1544 -3450,-3442 0,-1906 1544,-3450 3450,-3450z"/>
    <path class="fil2" d="M10849 10842l0 -1721c0,-892 246,-1760 907,-2398 669,-645 1614,-899 2528,-899l492 0c884,0 1798,238 2466,838l0 7 62 54c653,638 907,1506 907,2398l0 1721 1290 0 0 -1721c0,-1253 -384,-2436 -1298,-3320l-77 -77 -115 -100c-899,-760 -2067,-1091 -3235,-1091l-492 0c-1260,0 -2512,385 -3427,1268 -914,884 -1298,2067 -1298,3320l0 1721 1290 0z"/>
    <path class="fil1" d="M14722 18034c192,230 500,338 838,338 584,0 1037,-469 1037,-1030 0,-1037 -1921,-2343 -2067,-2912 -161,569 -2067,1875 -2067,2912 0,561 453,1030 1030,1030 345,0 645,-108 845,-338 -69,676 -453,1083 -776,1083 0,31 0,85 0,131 323,0 645,0 968,0 323,0 645,0 968,0 0,-46 0,-100 0,-131 -323,0 -707,-407 -776,-1083l0 0z"/>
   </g>
  </g>
 </g>
</svg>
