<?xml version="1.0" encoding="UTF-8"?>
<!DOCTYPE svg PUBLIC "-//W3C//DTD SVG 1.1//EN" "http://www.w3.org/Graphics/SVG/1.1/DTD/svg11.dtd">
<!-- Creator: CorelDRAW X7 -->
<svg xmlns="http://www.w3.org/2000/svg" xml:space="preserve" width="2906px" height="2906px" version="1.1" style="shape-rendering:geometricPrecision; text-rendering:geometricPrecision; image-rendering:optimizeQuality; fill-rule:evenodd; clip-rule:evenodd"
viewBox="0 0 29060 29060"
 xmlns:xlink="http://www.w3.org/1999/xlink">
 <defs>
  <style type="text/css">
   <![CDATA[
    .fil0 {fill:#FEFEFE}
    .fil1 {fill:#1691CE;fill-rule:nonzero}
    .fil2 {fill:#FF3D00;fill-rule:nonzero}
   ]]>
  </style>
 </defs>
 <g id="Layer_x0020_1">
  <metadata id="CorelCorpID_0Corel-Layer"/>
  <circle class="fil0" cx="14530" cy="14530" r="14079"/>
  <g id="_1315686640">
   <path class="fil1" d="M19760 978c-3742,-1444 -7716,-1235 -11115,271 -3399,1506 -6223,4309 -7667,8051 -1444,3742 -1235,7716 271,11115 1506,3399 4309,6223 8051,7667 3742,1444 7716,1235 11115,-271 3399,-1507 6223,-4309 7667,-8051 1444,-3742 1235,-7716 -271,-11115 -1507,-3399 -4309,-6223 -8051,-7667zm-10741 1115c3183,-1411 6904,-1606 10408,-254 3505,1352 6130,3997 7540,7180 1411,3183 1606,6904 254,10408 -1353,3505 -3997,6130 -7180,7540 -3183,1410 -6904,1607 -10409,254 -3504,-1353 -6129,-3997 -7539,-7180 -1411,-3183 -1607,-6904 -254,-10409 1352,-3504 3997,-6129 7180,-7539z"/>
   <path class="fil2" d="M8281 25434c-188,17 -365,-43 -501,-150 -140,-112 -235,-277 -253,-462l-875 -9436c-17,-186 46,-364 163,-500 114,-131 277,-223 465,-240l14547 -1350c183,-17 359,45 494,155l0 2c135,111 228,274 245,456l875 9436c18,182 -45,359 -156,493l-1 2c-111,134 -273,226 -456,244l-14547 1350 0 0zm-1002 -9283l14811 -1375 -76 -816c-3,-32 -20,-61 -45,-82l-1 -1c-25,-21 -57,-33 -90,-30l-14546 1350c-41,4 -76,23 -99,50 -21,24 -33,56 -30,88l76 816 0 0zm15006 732l-14811 1375 605 6513c3,31 20,60 46,80 28,23 65,35 105,31l14547 -1349c33,-3 62,-21 83,-46l0 -2c21,-24 33,-56 30,-89l-605 -6513z"/>
   <path class="fil1" d="M11498 6062l3003 7676 355 -33 -3371 -8616c-147,-381 -576,-575 -959,-429l-4451 1717c-382,146 -574,577 -429,958 886,2325 1790,4654 2705,6973l359 -33c-819,-2074 -1629,-4153 -2427,-6234l725 -1657 2778 -1072 1712 750zm9107 -764l-239 7896 343 -33 266 -8763c15,-409 -305,-755 -713,-771l-4606 -162c18,58 30,118 36,179l79 731 578 -543 2976 104 1280 1362 0 0zm-5340 -692l960 8972 342 -32 -1059 -9882c-41,-406 -405,-706 -811,-666l-4747 485c-406,41 -706,405 -666,811 20,208 41,415 61,623l799 -308 704 -873 2963 -304 1454 1174z"/>
   <path class="fil1" d="M11033 9249c547,143 985,494 1250,946 265,452 358,1006 215,1553 -143,548 -494,985 -946,1250 -453,265 -1006,358 -1553,215 -548,-143 -985,-494 -1251,-947 -264,-451 -357,-1005 -214,-1553 143,-547 493,-984 946,-1250 452,-264 1005,-357 1553,-214zm-1573 2535l275 -108c176,291 449,380 690,286 243,-95 341,-283 329,-650 -4,-264 16,-380 105,-415 76,-30 174,-3 242,173 77,195 63,344 61,426l336 -42c9,-106 -1,-242 -64,-427l239 -93 -104 -265 -257 101c-170,-267 -423,-362 -661,-269 -262,103 -320,353 -304,680 11,227 -21,339 -123,380 -109,41 -210,-41 -269,-195 -69,-176 -75,-357 -57,-496l-349 43c-19,126 1,322 64,506l-257 100 104 265 0 0zm2527 -1415c-221,-377 -585,-669 -1040,-788 -456,-119 -917,-42 -1294,178 -376,221 -668,586 -787,1041 -119,456 -42,917 179,1293 220,377 584,669 1040,788 456,119 917,42 1293,-179 377,-220 669,-585 788,-1041 119,-456 42,-916 -179,-1292l0 0z"/>
   <path class="fil1" d="M13978 7558c490,282 820,736 957,1242 137,506 81,1064 -201,1555 -177,308 -423,553 -706,726l-127 -325c214,-142 399,-334 535,-572 235,-408 282,-873 168,-1294 -114,-422 -388,-799 -797,-1034 -353,-203 -748,-266 -1121,-205l-127 -326c468,-93 972,-24 1419,233l0 0zm-699 1608c28,-39 59,-59 98,-64 80,-8 168,44 188,232 23,208 -30,348 -53,426l335 49c36,-100 63,-235 50,-429l254 -27 -30 -284 -274 30c-93,-303 -313,-460 -567,-434 -67,8 -125,27 -175,55l174 446z"/>
   <path class="fil1" d="M18927 8046c448,347 712,842 778,1361 67,521 -65,1066 -411,1513 -346,448 -841,712 -1361,779 -483,61 -987,-48 -1415,-340l-51 -487c51,51 105,99 163,143 372,288 826,398 1259,343 433,-55 845,-275 1133,-648 288,-373 398,-827 343,-1259 -55,-433 -275,-845 -648,-1133 -373,-289 -827,-399 -1259,-343 -433,55 -845,276 -1133,648 -31,39 -59,80 -86,121l-53 -487c335,-353 771,-564 1228,-623 520,-65 1066,66 1513,412l0 0zm-2442 1716l296 9c48,335 263,524 522,533 261,7 424,-127 557,-469 101,-244 164,-344 260,-341 82,3 162,66 156,255 -7,208 -77,340 -112,415l325 94c50,-94 95,-223 110,-418l254 8 9 -285 -275 -9c-52,-312 -247,-498 -502,-506 -282,-8 -434,199 -547,506 -80,214 -152,304 -263,301 -116,-4 -176,-119 -171,-284 6,-189 72,-358 142,-479l-337 -97c-68,109 -125,296 -140,490l-275 -8 -9 285 0 0z"/>
  </g>
 </g>
</svg>
