<?xml version="1.0" encoding="utf-8"?>
<!-- Generator: Adobe Illustrator 18.0.0, SVG Export Plug-In . SVG Version: 6.00 Build 0)  -->
<!DOCTYPE svg PUBLIC "-//W3C//DTD SVG 1.1//EN" "http://www.w3.org/Graphics/SVG/1.1/DTD/svg11.dtd">
<svg version="1.1" id="Layer_1" xmlns="http://www.w3.org/2000/svg" xmlns:xlink="http://www.w3.org/1999/xlink" x="0px" y="0px"
	 viewBox="0 0 296.3 190" enable-background="new 0 0 296.3 190" xml:space="preserve">
<g>
	<path id="path22" fill="#94C2FF" d="M281.3,0.5l-72.8,0c0,0,0,0,0,0c-0.1,0-0.1,0-0.2,0c-10,0.3-22.4,8.3-24.7,18.2l-34.4,152.3
		c-2.3,10,3.9,18.1,13.8,18.2h76.4c9.8-0.5,19.3-8.4,21.5-18.2l34.4-152.3C297.7,8.7,291.3,0.5,281.3,0.5"/>
	<path id="path20" fill="#94DAFF" d="M149.2,170.9l34.4-152.3c2.3-9.9,14.7-17.9,24.7-18.2l-28.9,0l-52.1,0
		c-10,0.2-22.6,8.3-24.9,18.2L67.9,170.9c-2.3,10,3.9,18.1,13.8,18.2H163C153.1,189,146.9,180.9,149.2,170.9"/>
	<path id="path16" fill="#6ACFFF" d="M67.9,170.9l34.4-152.3c2.3-10,14.9-18,24.9-18.2l-66.8,0c-10.1,0-23,8.2-25.3,18.3L0.7,170.9
		c-0.2,0.9-0.3,1.8-0.4,2.7v2.8c0.7,7.3,6.2,12.6,14.2,12.7h67.2C71.8,189,65.6,180.9,67.9,170.9"/>
	<path id="path24" fill="#FFFFFF" d="M128.7,111.4h1.3c1.2,0,1.9-0.4,2.3-1.2l3.3-4.9h8.8l-1.8,3.2H153l-1.3,5h-12.5
		c-1.4,2.2-3.2,3.2-5.4,3.1h-6.5L128.7,111.4 M127.2,118.5h23.1l-1.5,5.4h-9.3l-1.4,5.2h9l-1.5,5.4h-9l-2.1,7.7
		c-0.5,1.3,0.2,1.9,2,1.7h7.4l-1.4,5h-14.1c-2.7,0-3.6-1.5-2.8-4.6l2.7-9.8h-5.8l1.5-5.4h5.8l1.4-5.2h-5.5L127.2,118.5z
		 M164.1,105.3l-0.4,3.1c0,0,4.4-3.3,8.3-3.3h14.6l-5.6,20.2c-0.5,2.3-2.5,3.5-6,3.5h-16.6l-3.9,14.2c-0.2,0.8,0.1,1.2,0.9,1.2h3.3
		l-1.2,4.4h-8.3c-3.2,0-4.5-1-4-2.9l11-40.5H164.1L164.1,105.3z M176.5,111h-13.1l-1.6,5.5c0,0,2.2-1.6,5.8-1.6c3.6-0.1,7.8,0,7.8,0
		L176.5,111z M171.7,123.7c1,0.1,1.5-0.3,1.6-1.2l0.8-2.9H161l-1.1,4H171.7z M162.9,130.2h7.5l-0.1,3.3h2c1,0,1.5-0.3,1.5-1l0.6-2.1
		h6.3l-0.8,3.1c-0.7,2.6-2.6,3.9-5.6,4h-4l0,5.6c-0.1,0.9,0.7,1.3,2.4,1.3h3.8l-1.2,4.4h-9c-2.5,0.1-3.8-1.1-3.8-3.7L162.9,130.2"/>
	<path id="path28" fill="#FFFFFF" d="M71.6,78.3c-1,5-3.4,8.9-7.1,11.6c-3.6,2.7-8.3,4-14.1,4c-5.4,0-9.4-1.4-11.9-4.1
		c-1.8-2-2.6-4.5-2.6-7.5c0-1.2,0.1-2.6,0.4-4l6.1-29.5h9.3l-6,29.2c-0.2,0.8-0.3,1.6-0.3,2.2c0,1.5,0.4,2.7,1.1,3.7
		c1.1,1.4,2.9,2.1,5.4,2.1c2.8,0,5.2-0.7,7-2.1c1.8-1.4,3-3.4,3.5-5.9l6.1-29.2h9.2L71.6,78.3"/>
	<path id="path34" fill="#FFFFFF" d="M110.5,66.7h7.2L112,93h-7.2L110.5,66.7 M112.8,57.1h7.3l-1.4,6.4h-7.3L112.8,57.1"/>
	<path id="path36" fill="#FFFFFF" d="M124.1,91c-1.9-1.8-2.9-4.3-2.9-7.4c0-0.5,0-1.1,0.1-1.8c0.1-0.7,0.2-1.3,0.3-1.9
		c0.9-4.3,2.7-7.7,5.5-10.2c2.8-2.5,6.2-3.8,10.2-3.8c3.3,0,5.8,0.9,7.7,2.7c1.9,1.8,2.8,4.3,2.8,7.4c0,0.5,0,1.2-0.1,1.8
		c-0.1,0.7-0.2,1.3-0.3,2c-0.8,4.2-2.7,7.6-5.5,10c-2.8,2.5-6.2,3.7-10.2,3.7C128.6,93.7,126,92.8,124.1,91 M137.9,85.8
		c1.3-1.4,2.2-3.5,2.8-6.3c0.1-0.4,0.2-0.9,0.2-1.3c0-0.4,0.1-0.9,0.1-1.2c0-1.6-0.4-2.9-1.2-3.8c-0.8-0.9-2-1.3-3.5-1.3
		c-2,0-3.6,0.7-4.9,2.1c-1.3,1.4-2.2,3.5-2.8,6.4c-0.1,0.4-0.1,0.9-0.2,1.3c0,0.4-0.1,0.8-0.1,1.2c0,1.6,0.4,2.9,1.2,3.7
		c0.8,0.9,2,1.3,3.5,1.3C135,87.9,136.7,87.2,137.9,85.8"/>
	<path id="path14" fill="#E02F41" d="M208.5,0.5l-29.1,0l28.9,0C208.4,0.5,208.4,0.5,208.5,0.5"/>
	<path id="path18" fill="#2E4F7D" d="M179.4,0.4l-51.7,0c-0.1,0-0.3,0-0.4,0L179.4,0.4"/>
	<path id="path26" fill="#FFFFFF" d="M194.9,111.6l1.7-6.2h8.8l-0.4,2.3c0,0,4.5-2.3,7.8-2.3c3.3,0,10.9,0,10.9,0l-1.7,6.2h-1.7
		l-8.2,29h1.7l-1.6,5.8h-1.7l-0.7,2.5h-8.6l0.7-2.5h-16.9l1.6-5.8h1.7l8.2-29H194.9 M204.5,111.6l-2.2,7.8c0,0,3.8-1.5,7.2-1.9
		c0.7-2.7,1.7-6,1.7-6H204.5z M201.2,123.1l-2.3,8.2c0,0,4.3-2.1,7.2-2.3c0.8-3.2,1.7-5.9,1.7-5.9H201.2z M202.8,140.6l1.7-6h-6.6
		l-1.7,6H202.8z M224.2,105.1h8.3l0.4,3.1c-0.1,0.8,0.4,1.2,1.4,1.2h1.5l-1.5,5.2h-6.1c-2.3,0.1-3.5-0.8-3.6-2.7L224.2,105.1z
		 M221.8,116.2h26.9l-1.6,5.6h-8.6l-1.5,5.2h8.6l-1.6,5.6h-9.5l-2.2,3.3h4.7l1.1,6.5c0.1,0.7,0.7,1,1.7,1h1.4l-1.5,5.4h-5.1
		c-2.7,0.1-4-0.8-4.1-2.7l-1.2-6l-4.2,6.3c-1,1.8-2.5,2.6-4.6,2.5h-7.8l1.5-5.4h2.4c1,0,1.8-0.4,2.6-1.3l6.6-9.6h-8.6l1.6-5.6h9.3
		l1.5-5.2h-9.3L221.8,116.2"/>
	<path id="path30" fill="#FFFFFF" d="M80.1,66.7h6.5l-0.7,3.8l0.9-1.1c2.1-2.3,4.7-3.4,7.7-3.4c2.8,0,4.7,0.8,6,2.4
		c1.2,1.6,1.6,3.8,1,6.7l-3.6,18h-6.7l3.3-16.3c0.3-1.7,0.2-2.9-0.3-3.7c-0.5-0.8-1.5-1.2-2.9-1.2c-1.7,0-3.2,0.5-4.4,1.6
		c-1.2,1.1-2,2.6-2.4,4.5l-3,15.2h-6.7L80.1,66.7"/>
	<path id="path32" fill="#FFFFFF" d="M155.1,66.7h6.5l-0.7,3.8l0.9-1.1c2.1-2.3,4.7-3.4,7.7-3.4c2.8,0,4.7,0.8,6,2.4
		c1.2,1.6,1.6,3.8,1,6.7l-3.6,18h-6.7l3.3-16.3c0.3-1.7,0.2-2.9-0.3-3.7c-0.5-0.8-1.5-1.2-2.9-1.2c-1.7,0-3.2,0.5-4.4,1.6
		c-1.2,1.1-2,2.6-2.4,4.5l-3,15.2h-6.7L155.1,66.7"/>
	<path id="path38" fill="#FFFFFF" d="M187.4,50.3h19c3.7,0,6.5,0.8,8.4,2.5c1.9,1.6,2.9,4,2.9,7.1v0.1c0,0.6,0,1.2-0.1,2
		c-0.1,0.7-0.2,1.4-0.4,2.2c-0.8,4.1-2.8,7.3-5.8,9.8c-3,2.5-6.6,3.7-10.7,3.7h-10.2l-3.1,15.5h-8.8L187.4,50.3 M192.2,70.2h8.4
		c2.2,0,3.9-0.5,5.2-1.5c1.3-1,2.1-2.6,2.6-4.7c0.1-0.4,0.1-0.7,0.2-1.1c0-0.3,0.1-0.6,0.1-0.9c0-1.5-0.5-2.6-1.6-3.3
		c-1.1-0.7-2.8-1-5.1-1h-7.2L192.2,70.2"/>
	<path id="path40" fill="#FFFFFF" d="M257.2,98.2c-2.8,5.9-5.4,9.4-7,11c-1.6,1.6-4.7,5.3-12.1,5l0.6-4.5
		c6.3-1.9,9.7-10.6,11.6-14.5L248,66.7l4.9-0.1h4.1l0.4,17.8l7.6-17.8h7.7L257.2,98.2"/>
	<path id="path42" fill="#FFFFFF" d="M235.6,68.8l-3.1,2.1c-3.2-2.5-6.1-4.1-11.8-1.4c-7.7,3.6-14.1,30.9,7.1,21.9l1.2,1.4l8.3,0.2
		l5.5-24.9L235.6,68.8 M230.9,82.4c-1.3,3.9-4.3,6.6-6.7,5.8c-2.3-0.7-3.2-4.5-1.8-8.5c1.3-4,4.3-6.6,6.7-5.8
		C231.4,74.7,232.2,78.5,230.9,82.4"/>
</g>
</svg>
