<?xml version="1.0" encoding="utf-8"?>
<!-- Generator: Adobe Illustrator 20.0.0, SVG Export Plug-In . SVG Version: 6.00 Build 0)  -->
<svg version="1.1" id="Layer_2" xmlns="http://www.w3.org/2000/svg" xmlns:xlink="http://www.w3.org/1999/xlink" x="0px" y="0px"
	 viewBox="0 0 40 45" style="enable-background:new 0 0 40 45;" xml:space="preserve">
<style type="text/css">
	.st0{fill:#838589;}
</style>
<g>
	<g>
		<g>
			<path id="SVGID_1_" class="st0" d="M13.8,35.4c-1.1-1.5-1.2-3.1,0.1-5.3s5.4-4.9,5.4-4.9s2.4-1.3,2.4-2.5v-0.1v-0.1
				c0-1.3-2.4-2.5-2.4-2.5l0,0c-0.2-0.1-4.2-2.8-5.4-4.9c-1.3-2.2-1.2-3.8-0.1-5.3s3.7-2.5,7.7-2.3c4,0.3,8.4,1.5,11.7,4.4
				c0,0-2.8-5-10-6.4S10.5,6.9,7.4,9.8C6.5,10.6,6.1,11.3,6,12c-0.4,1.9,1.4,3.6,3,5c2,1.9,2.9,3.8,2.9,5.5S11,26.1,9,28
				c-1.5,1.4-3.3,3.1-3,5c0.1,0.7,0.6,1.4,1.4,2.2c3.2,2.9,8.7,5.7,15.8,4.3c7.2-1.4,10-6.4,10-6.4c-3.3,3-7.7,4.2-11.7,4.4
				S14.9,36.9,13.8,35.4z"/>
		</g>
	</g>
</g>
</svg>
