<?xml version="1.0" encoding="utf-8"?>
<!-- Generator: Adobe Illustrator 20.0.0, SVG Export Plug-In . SVG Version: 6.00 Build 0)  -->
<svg version="1.1" id="Layer_2" xmlns="http://www.w3.org/2000/svg" xmlns:xlink="http://www.w3.org/1999/xlink" x="0px" y="0px"
	 viewBox="0 0 40 45" style="enable-background:new 0 0 40 45;" xml:space="preserve">
<style type="text/css">
	.st0{fill:#FFFFFF;}
</style>
<g>
	<path class="st0" d="M20,13.7c-0.7-0.1-1.3-0.2-1.8-0.7c-2.3-2.3-4.6-4.6-6.9-6.9C11.2,6,11,5.9,11.2,5.8c0.3-0.2,0.5-0.4,0.9-0.2
		c0.1,0.1,0.2,0.2,0.3,0.3c2.1,2.1,4.2,4.1,6.2,6.3c0.8,0.8,2,0.8,2.8,0c2.1-2.1,4.2-4.2,6.3-6.3c0.1-0.1,0.2-0.2,0.3-0.3
		c0.3-0.1,0.6,0,0.8,0.3c0.2,0-0.1,0.1-0.3,0.2c-2.2,2.2-4.4,4.4-6.6,6.7C21.4,13.3,20.7,13.6,20,13.7z"/>
	<path class="st0" d="M20.1,31.7c0.7,0,1.3,0.3,1.8,0.9c2.2,2.2,4.4,4.4,6.6,6.6c0.1,0.1,0.5,0.2,0.2,0.4c-0.2,0.2-0.5,0.5-0.9,0.2
		c-0.1-0.1-0.2-0.2-0.3-0.3c-2.1-2.1-4.1-4.1-6.2-6.2c-0.9-0.9-1.9-0.9-2.8,0c-2.1,2.1-4.2,4.2-6.3,6.3c-0.3,0.3-0.8,0.3-1.1,0
		c-0.2-0.2,0.1-0.3,0.2-0.4c1.2-1.3,2.5-2.5,3.7-3.7c1.1-1.1,2.2-2.3,3.4-3.3C18.9,31.8,19.4,31.7,20.1,31.7z"/>
	<path class="st0" d="M20,30c1.2,0,2.2,0.5,3,1.3c2.3,2.3,4.7,4.7,7,7c0.1,0.1,0.5,0.2,0.2,0.5c-0.2,0.2-0.4,0.4-0.8,0.1
		c-2.3-2.3-4.6-4.6-6.9-6.9c-1.4-1.5-3.7-1.5-5.1,0c-2.2,2.3-4.6,4.6-6.9,6.9C10.4,39,10.3,39.2,10,39c-0.4-0.2-0.4-0.3-0.1-0.6
		c2.3-2.3,4.6-4.6,6.9-6.9C17.7,30.6,18.8,30.1,20,30z"/>
	<path class="st0" d="M20,15.2c-1.2,0-2.2-0.4-3-1.2c-2.3-2.3-4.7-4.7-7-7C9.9,6.8,9.5,6.7,9.7,6.5s0.5-0.4,0.8,0
		c2.2,2.3,4.5,4.5,6.7,6.7c1.7,1.7,3.7,1.7,5.4,0c2.2-2.2,4.3-4.3,6.5-6.5c0.1-0.1,0.2-0.2,0.3-0.3c0.3-0.5,0.5,0,0.7,0.1
		c0.3,0.2-0.1,0.3-0.2,0.4c-2.4,2.4-4.7,4.7-7.1,7.1C22.2,14.8,21.2,15.2,20,15.2z"/>
	<path class="st0" d="M19.8,16.7c-1.4,0-2.7-0.6-3.8-1.7c-2.5-2.4-4.9-4.9-7.3-7.3c-0.1,0-0.4-0.1-0.2-0.4C8.7,7,8.9,7.2,9.1,7.4
		c2.4,2.4,4.7,4.8,7.1,7.1c1.7,1.7,3.6,2.1,5.8,1.2c0.6-0.2,1.1-0.6,1.6-1.1c2.4-2.4,4.7-4.7,7.1-7.1c0.1-0.1,0.2-0.2,0.3-0.3
		c0.2-0.2,0.3-0.1,0.5,0.1s0,0.3-0.1,0.4c-2.5,2.5-5,5.1-7.6,7.5C22.8,16.2,21.5,16.7,19.8,16.7z"/>
	<path class="st0" d="M19.9,28.5c1.5,0.1,2.7,0.5,3.8,1.5c2.6,2.4,5,5,7.6,7.5c0.1,0.1,0.4,0.2,0.2,0.5c-0.3,0.3-0.4,0-0.6-0.1
		c-2.4-2.4-4.7-4.7-7.1-7.1c-1-1-2.2-1.6-3.7-1.6s-2.8,0.6-3.9,1.6c-2.4,2.4-4.8,4.9-7.2,7.3c-0.2,0.2-0.3,0.1-0.4,0
		c-0.3-0.2,0-0.3,0.1-0.4c1.8-1.9,3.6-3.7,5.5-5.6c0.9-0.9,1.8-1.9,2.9-2.6C17.9,28.8,18.9,28.6,19.9,28.5z"/>
	<path class="st0" d="M20.1,18.2c-2.1,0-3.9-0.8-5.3-2.2c-2.3-2.2-4.5-4.5-6.8-6.8C7.8,9,7.6,8.7,7.4,8.5c-0.1-0.1-0.1-0.2,0-0.3
		s0.2-0.1,0.3,0C7.8,8.3,7.9,8.4,8,8.5c2.5,2.5,4.9,4.9,7.4,7.4c1.3,1.3,2.9,1.9,4.7,1.9s3.4-0.7,4.7-2c2.4-2.4,4.9-4.9,7.3-7.3
		c0.1-0.1,0.2-0.2,0.3-0.3s0.2,0,0.2,0c0.1,0.1,0.1,0.1,0,0.2c-0.1,0.1-0.1,0.1-0.2,0.2c-2.5,2.5-5,5-7.6,7.6
		C23.5,17.6,21.8,18.1,20.1,18.2z"/>
	<path class="st0" d="M20,27.6c-2-0.1-3.6,0.7-4.9,2c-2.4,2.3-4.7,4.7-7.1,7.1c-0.1,0.1-0.2,0.3-0.3,0.4c-0.1,0.1-0.2,0.1-0.3,0
		c-0.1-0.1-0.1-0.2,0-0.3s0.2-0.2,0.3-0.3c2.4-2.4,4.9-4.8,7.3-7.3c2.5-2.6,6.8-2.8,9.5-0.6c0.3,0.2,0.5,0.5,0.8,0.8
		c2.4,2.4,4.8,4.8,7.2,7.2c0.1,0.1,0.5,0.2,0.2,0.5c-0.3,0.2-0.4-0.1-0.5-0.2c-2.3-2.5-4.8-4.8-7.1-7.2c-0.8-0.9-1.8-1.5-3-1.9
		C21.3,27.6,20.6,27.6,20,27.6z"/>
	<path class="st0" d="M9.9,27c0,0.2-0.2,0.3-0.3,0.4c-1.8,1.8-3.5,3.5-5.3,5.3c-0.1,0.1-0.2,0.5-0.5,0.2c-0.2-0.2-0.4-0.4,0-0.7
		c1.7-1.6,3.3-3.3,4.9-4.9C9.1,26.9,9.4,27,9.9,27z"/>
	<path class="st0" d="M30.2,27c0.7-0.2,1.1,0.1,1.6,0.6c1.5,1.5,3,3.2,4.6,4.6c0.3,0.3,0,0.5-0.1,0.7s-0.2,0.1-0.4,0
		c-1.9-1.9-3.8-3.8-5.7-5.7C30.2,27.1,30.2,27.1,30.2,27z"/>
	<path class="st0" d="M32.2,26.9c0.9-0.4,0.9-0.4,1.6,0.3c1.1,1.1,2.2,2.2,3.2,3.2c0.3,0.3,0.2,0.8-0.1,1.1c-0.1,0.1-0.2,0-0.3-0.1
		C35.2,29.9,33.8,28.5,32.2,26.9z"/>
	<path class="st0" d="M9.9,18.2c-0.7,0.2-1.1,0-1.5-0.5c-1.5-1.6-3.1-3.1-4.6-4.6c-0.3-0.3,0-0.5,0.1-0.7c0.2-0.3,0.3,0,0.4,0.1
		C6,14.4,7.8,16.2,9.6,18C9.7,18,9.8,18.1,9.9,18.2z"/>
	<path class="st0" d="M28.1,27c0.4-0.1,0.6-0.1,0.9,0.2c2.1,2.2,4.3,4.3,6.5,6.5c0.2,0.2,0.1,0.3,0,0.5c-0.2,0.2-0.3,0.1-0.4,0
		c-1.4-1.4-2.8-2.8-4.2-4.2c-0.8-0.8-1.7-1.7-2.5-2.5C28.3,27.3,28.1,27.3,28.1,27z"/>
	<path class="st0" d="M30.2,18.2c1.2-1.2,2.3-2.3,3.5-3.5c0.7-0.7,1.5-1.5,2.2-2.2c0.1-0.1,0.3-0.3,0.4-0.1c0.1,0.2,0.4,0.3,0.1,0.6
		c-1.6,1.5-3.1,3.1-4.7,4.7C31.3,18.2,30.8,18.4,30.2,18.2z"/>
	<path class="st0" d="M28.1,18.2c1.1-1.1,2.3-2.3,3.4-3.4c1.2-1.2,2.3-2.3,3.5-3.5c0.1-0.1,0.2-0.3,0.4-0.1c0.1,0.2,0.2,0.3,0,0.5
		c-2.1,2.1-4.3,4.3-6.4,6.4C28.7,18.4,28.4,18.3,28.1,18.2z"/>
	<path class="st0" d="M11.9,18.2c-0.4,0.1-0.7,0.1-0.9-0.2c-2.1-2.1-4.2-4.2-6.2-6.3c-0.2-0.2-0.4-0.3-0.1-0.5
		c0.3-0.3,0.4,0,0.5,0.1c2.2,2.2,4.3,4.3,6.5,6.5C11.7,17.9,11.9,18,11.9,18.2z"/>
	<path class="st0" d="M7.6,27c0,0.2-0.1,0.3-0.3,0.4C6,28.7,4.8,30,3.5,31.2c-0.1,0.1-0.2,0.4-0.5,0.2c-0.3-0.2-0.4-0.7-0.1-0.9
		c0.3-0.3,0.6-0.6,0.9-0.9c0.7-0.7,1.5-1.4,2.1-2.1C6.5,26.9,7,27,7.6,27z"/>
	<path class="st0" d="M7.6,18.2c-0.8,0.1-1.3,0-1.9-0.6c-0.8-1-1.8-1.8-2.7-2.7c-0.2-0.2-0.4-0.3-0.3-0.6c0.1-0.2,0.2-0.5,0.3-0.6
		c0.2-0.1,0.3,0.2,0.4,0.3c1.2,1.2,2.5,2.5,3.7,3.7C7.4,18,7.5,18.1,7.6,18.2z"/>
	<path class="st0" d="M12,27c0,0.2-0.1,0.2-0.2,0.3c-2.2,2.2-4.4,4.4-6.6,6.6L5.1,34c-0.1,0.1-0.3,0.3-0.5,0
		c-0.1-0.2-0.1-0.3,0.1-0.5c2.2-2.1,4.3-4.3,6.5-6.5C11.4,26.9,11.7,27,12,27z"/>
	<path class="st0" d="M32.4,18.2c1.5-1.5,2.9-2.9,4.3-4.3c0.1-0.1,0.2-0.2,0.3-0.1c0.2,0.2,0.4,0.5,0.2,0.8
		c-0.1,0.1-0.2,0.3-0.3,0.4c-0.9,0.9-1.7,1.7-2.6,2.6C33.6,18.3,33.6,18.3,32.4,18.2z"/>
	<path class="st0" d="M26.1,18.2c0.1-0.1,0.2-0.3,0.3-0.4c2.5-2.6,5-5.1,7.6-7.7c0.1-0.1,0.2-0.4,0.4-0.2c0.3,0.2,0,0.4-0.1,0.5
		c-2.5,2.5-5,5-7.5,7.5C26.6,18.2,26.4,18.3,26.1,18.2z"/>
	<path class="st0" d="M13.9,18.2c-0.3,0.1-0.4,0-0.6-0.1c-2.5-2.5-5.1-5.1-7.6-7.6c-0.1-0.1-0.3-0.3-0.1-0.5c0.2-0.2,0.3,0,0.4,0.1
		c2.6,2.6,5.2,5.3,7.8,7.9C13.8,18,13.8,18.1,13.9,18.2z"/>
	<path class="st0" d="M13.9,27c0,0.3-0.2,0.4-0.4,0.6c-2.5,2.5-5,5-7.5,7.5l-0.1,0.1c-0.1,0.1-0.2,0.3-0.4,0.1
		c-0.2-0.2,0-0.3,0.1-0.4c0.5-0.5,1-1,1.5-1.4c1.5-1.5,3-3,4.4-4.5c0.6-0.6,1.1-1.2,1.7-1.8C13.5,27.1,13.6,26.9,13.9,27z"/>
	<path class="st0" d="M26.1,27c0.2-0.1,0.4,0,0.6,0.2c1.2,1.3,2.5,2.6,3.8,3.8c1.3,1.3,2.6,2.6,3.9,3.9c0.1,0.1,0.3,0.2,0.2,0.4
		c-0.2,0.2-0.3,0-0.4-0.1c-2.6-2.6-5.1-5.1-7.7-7.7C26.3,27.4,26.2,27.2,26.1,27z"/>
</g>
</svg>
