<?xml version="1.0" encoding="utf-8"?>
<!-- Generator: Adobe Illustrator 20.0.0, SVG Export Plug-In . SVG Version: 6.00 Build 0)  -->
<svg version="1.1" id="Layer_1" xmlns="http://www.w3.org/2000/svg" xmlns:xlink="http://www.w3.org/1999/xlink" x="0px" y="0px"
	 viewBox="0 0 18 16" style="enable-background:new 0 0 18 16;" xml:space="preserve">
<style type="text/css">
	.st0{fill:#E5D577;}
</style>
<g>
	<path class="st0" d="M9.1,11.1c-1.4,0-2.8-0.6-3.8-1.6c-1-1-1.6-2.4-1.6-3.8S4.3,3,5.3,1.9c1-1,2.4-1.6,3.8-1.6
		c1.4,0,2.8,0.6,3.8,1.6s1.6,2.4,1.6,3.8s-0.6,2.8-1.6,3.8S10.5,11.1,9.1,11.1z M9.1,0.7c-2.8,0-5,2.3-5,5s2.3,5,5,5s5-2.3,5-5
		S11.9,0.7,9.1,0.7z"/>
</g>
<path class="st0" d="M9.1,1.3c-2.4,0-4.4,2-4.4,4.4s2,4.4,4.4,4.4s4.4-2,4.4-4.4S11.5,1.3,9.1,1.3z M11.8,6.9
	c-0.1,0.4-0.3,0.7-0.6,1c-0.3,0.3-0.6,0.5-1,0.6C9.9,8.7,9.5,8.8,9,8.8C8.5,8.8,8,8.6,7.5,8.3C7.3,8.2,7.1,8,6.9,7.9
	C6.5,7.5,6.2,7,6.1,6.5C6,6.2,6,6,6,5.7C6,5.3,6,4.9,6.2,4.5c0.1-0.4,0.3-0.7,0.6-1c0.3-0.3,0.6-0.5,1-0.6C8.2,2.7,8.6,2.6,9,2.6
	c0.6,0,1.1,0.1,1.5,0.4c0.2,0.2,0.4,0.3,0.6,0.5c0.4,0.4,0.6,0.8,0.8,1.4c0,0.3,0.1,0.5,0.1,0.8C12.1,6.1,12,6.5,11.8,6.9z"/>
<polygon class="st0" points="11.8,15.8 8.9,13.8 6.1,15.8 6.1,8.8 11.8,8.8 "/>
<polygon class="st0" points="9.1,3.5 9.8,4.9 11.3,5.1 10.2,6.2 10.4,7.7 9.1,6.9 7.7,7.7 8,6.2 6.9,5.1 8.4,4.9 "/>
</svg>
