<?xml version="1.0" encoding="utf-8"?>
<!-- Generator: Adobe Illustrator 18.0.0, SVG Export Plug-In . SVG Version: 6.00 Build 0)  -->
<!DOCTYPE svg PUBLIC "-//W3C//DTD SVG 1.1//EN" "http://www.w3.org/Graphics/SVG/1.1/DTD/svg11.dtd">
<svg version="1.1" id="Layer_1" xmlns="http://www.w3.org/2000/svg" xmlns:xlink="http://www.w3.org/1999/xlink" x="0px" y="0px"
	 viewBox="0 0 72 50" enable-background="new 0 0 72 50" xml:space="preserve">
<rect x="21.4" y="1.7" fill="#6ACFFF" width="35.8" height="45.5"/>
<rect x="23.2" y="3.5" fill="#00769F" width="32.2" height="41.8"/>
<path fill="#94DAFF" d="M30.8,30.2c0,0,1.2-1.1,0.1-2.3s-2.3,0-2.8,0.6s-4,5.3-4,5.3s-0.4,0.6-0.3,0.8s0.2,0.2,0.2,0.2l1.8-0.8
	C25.7,34,30.5,30.5,30.8,30.2z"/>
<path fill="#94DAFF" d="M37.4,21.5c0,0-0.6-0.5-1.1,0s0.4,1.4,0.4,1.4s0.8,0.7,2,0.7s2.2-0.6,2.4-1s0.8-1,0.5-2.1S40,18.2,39.2,18
	s-2.3-0.4-3.7,0.4s-2.6,2.1-2.8,3.1s0.4,2.7,1,3.4s2,2.2,3.4,2.4s2.8-0.1,4.5-1s3.2-2.8,3.5-3.4s0.7-2.3,0.2-3.6s-2.2-3.2-3.2-3.7
	s-3.3-1.5-5.4-1.3s-3.9,1.1-5.5,2.5s-2.1,2.7-2.1,2.7s-0.5-0.5-1.1-0.5c-0.6-0.1-8.5,1.1-8.8,1.2c-0.4,0-1,0.8-0.1,1
	s8.2,1.2,8.2,1.2s0.6,0.1,1.3-0.2c0,0.4,0.3,3,1.8,4.8S34,30.5,37,31c-0.1,0.3-0.3,0.6,0,2.4s0.6,4.1,0.6,4.1l0.2,0.9l1.4-0.2
	l0.3-0.7l0-0.4l0.7-5c0,0,0.1-0.9-0.3-1.1c0.2-0.1,2.8-0.4,4.6-1.6c0.1,0.1,0.3,0.6,0.7,0.9s3.3,2.4,3.3,2.4l2.6,0l-3.5-4.5
	c0,0-0.4-0.5-0.7-0.6c0.3-0.4,3-2.7,2.9-6.7s-2.6-6.5-2.6-6.5s0.2,0.1,0.7-0.7s4.2-5.4,4.4-5.8c0.5-0.7,0.1-1.3-0.9-0.8
	c-5.7,4.3-6.5,4.2-6.5,4.9c-0.6-0.7-3.8-2.2-4.9-2.2c0.4-0.3,0-0.9-1.1-8.3c-0.2-1.1-1-1.3-1.2,0.2c0,0-1.3,7.5-1.1,8
	c-0.9,0.3-4.5,1.3-4.4,2.9c0.4,0.9,3.2,0,3.6,0s3.6-0.5,6.1,0.8s4.2,3.5,4.5,4.5s1.6,3.5-0.2,6s-3.4,3.3-5,3.8s-1.4,0.5-2.8,0.5
	s-2.9-0.5-4-1.2s-2.3-2.1-2.7-3.4s-0.3-3.6,0.6-4.8s2.2-2,3.8-2.2s2.8-0.2,4.2,0.4s2,1.5,2.4,2.1s0.6,1.9,0,2.9s-1.6,1.8-2.5,2
	s-2.6,0.4-3.6-0.2s-1.3-1.4-1.3-2s0.7-1.3,1.3-1.6c0.5-0.4,1-0.4,1.3-0.4s1,0.2,1.3,0.5s0.1,0.5-0.2,0.8s-1,0.3-1.2,0.2
	S37.4,21.5,37.4,21.5z"/>
<path fill="#6ACFFF" d="M55.7,35.7c0,0-3-3.3-6.5-3.3s-6,2.6-6.5,3s-3.1,2.2-4.6,2.1s-3.5-1.8-4.3-2.4c-0.8-0.5-3.2-1.9-5.2-1.8
	s-4.5,1-5.8,2.4S22.2,38,22.2,38l1-0.4c0,0,2.3-2.1,5-2.1s3.6,0.9,4.3,1.3c0.7,0.4,3.4,3,5.5,2.9c2.1-0.1,4.5-1.9,5.6-2.6
	s3.6-2.6,5.6-2.6s5.2,1.8,6.3,3.3S55.7,35.7,55.7,35.7z"/>
<path fill="#94DAFF" d="M56,39.9l-0.8,1.5c0,0-3.5-3.3-6.7-3.3c-3.9,0-5.8,4.7-10.6,4.7c-4.5,0-5.6-4.5-9.8-4.5
	c-2.9,0-7.5,4.8-7.5,4.8l-0.8-1.6c0,0,5.3-5,8.5-5c3.8,0,5.8,4.3,9.7,4.3s6.4-4.7,10.6-4.7C52.5,36.2,56,39.9,56,39.9z"/>
<path fill="#6AA5FF" d="M58.7,46.8l-0.8,1.5c0,0-5.3-6.9-8.9-6.9c-2,0-3.3,1.2-4.5,2c-1.3,0.8-4.1,2.8-6.6,2.8
	c-2.5,0-4.2-1.7-5.2-2.4c-1-0.8-2.6-2.5-4.1-2.4c-1.5,0.1-3.7,1.8-3.7,1.8l-0.8-1.5c0,0,2.8-2.1,4.3-2.1c1.6,0,2.7,1,5.3,2.9
	c0.8,0.6,2.5,2,4.5,1.8s3.8-1.2,5.5-2.4s3-2.2,4.9-2.2c1.9,0.1,3.5,0.5,6,2.5C57,44.1,58.7,46.8,58.7,46.8z"/>
<path fill="#94DAFF" d="M51.8,18.9c0,0-1.6,0-1.6,1.5s1.6,1.5,1.6,1.5s7.5-1,7.7-1c0.5-0.1,0.7-0.7,0-1
	C58.4,19.7,51.8,18.9,51.8,18.9z"/>
<path fill="#94DAFF" d="M31.2,11.7c0,0,1.1,1,0,2.1s-1.9,0.3-2.3,0C27.9,13,24.3,8,24,7.5s0.3-0.9,0.7-0.5
	C25.2,7.1,30.6,10.8,31.2,11.7z"/>
</svg>
