<?xml version="1.0" encoding="utf-8"?>
<!-- Generator: Adobe Illustrator 20.0.0, SVG Export Plug-In . SVG Version: 6.00 Build 0)  -->
<svg version="1.1" id="Layer_2" xmlns="http://www.w3.org/2000/svg" xmlns:xlink="http://www.w3.org/1999/xlink" x="0px" y="0px"
	 viewBox="0 0 40 45" style="enable-background:new 0 0 40 45;" xml:space="preserve">
<style type="text/css">
	.st0{fill:#FFFFFF;}
</style>
<path class="st0" d="M3.7,23.2c-0.2,0-0.3,0-0.4-0.1c-1-0.1-1.4-0.4-1.4-1.5c0-2.4,0-4.9,0-7.3c0-0.6,0-1.1,0-1.7
	c0-0.9,0.4-1.3,1.3-1.3c1.1,0,2.3,0,3.5,0c-0.2-0.2-0.3-0.3-0.4-0.5c-1.5-1.9-1.9-4-1-6.2c0.9-2,2.5-3.3,4.7-3.7
	c2.6-0.5,4.7,0.4,6.2,2.7c1.4,2,2.5,4.2,3.4,6.5c0.1,0.2,0.2,0.4,0.3,0.7c0.2-0.5,0.4-0.9,0.5-1.2c0.9-2.1,1.9-4.1,3.2-5.9
	c1.3-1.9,3.2-2.9,5.5-2.8c2.8,0.2,5.3,2.5,5.6,5.3c0.2,1.9-0.3,3.6-1.5,5c-0.1,0.1-0.1,0.2-0.3,0.3c0.8,0,1.5,0,2.1,0
	c0.5,0,1,0,1.5,0c0.8,0,1.2,0.5,1.2,1.3c0,3.1,0,6.2,0,9.2c0,0.8-0.4,1.2-1.2,1.3c-0.2,0-0.3,0-0.6,0c0,0.2,0,0.5,0,0.7
	c0,6.4,0,12.9,0,19.3c0,1.2-0.4,1.6-1.6,1.6c-9.8,0-19.5,0-29.3,0c-1.2,0-1.6-0.4-1.6-1.6c0-6.4,0-12.9,0-19.3
	C3.7,23.7,3.7,23.4,3.7,23.2z M6,23.2C6,29.6,6,36,6,42.4c2.9,0,5.8,0,8.7,0c0-6.4,0-12.8,0-19.2C11.8,23.2,8.9,23.2,6,23.2z
	 M33.9,23.2c-2.9,0-5.8,0-8.7,0c0,6.4,0,12.8,0,19.2c2.9,0,5.8,0,8.7,0C33.9,36,33.9,29.6,33.9,23.2z M22.9,42.4
	c0-6.4,0-12.8,0-19.2c-2,0-4,0-5.9,0c0,6.4,0,12.8,0,19.2C19,42.4,20.9,42.4,22.9,42.4z M14.7,13.7c-3.5,0-7,0-10.5,0
	c0,2.4,0,4.8,0,7.2c3.5,0,7,0,10.5,0C14.7,18.5,14.7,16.1,14.7,13.7z M35.6,13.7c-3.5,0-7,0-10.4,0c0,2.4,0,4.8,0,7.2
	c3.5,0,7,0,10.4,0C35.6,18.5,35.6,16.1,35.6,13.7z M17.6,11c0-0.1-0.1-0.2-0.1-0.3c-0.7-1.4-1.3-2.8-2.1-4.2c-0.5-0.9-1-1.8-1.7-2.5
	c-1.9-1.9-5.4-1-6.3,1.6c-0.8,2.3,0.7,4.8,2.7,5c0.8,0.1,1.6,0.3,2.4,0.3C14.2,11,15.9,11,17.6,11z M22.2,11.1c0.9,0,1.6,0,2.4,0
	c1.3,0,2.6-0.1,3.8-0.2c0.8-0.1,1.8-0.3,2.5-0.7c1.6-0.9,2.1-2.8,1.5-4.5c-0.5-1.4-1.5-2.3-3-2.6c-1.4-0.3-2.8,0.1-3.6,1.3
	c-1,1.5-1.8,3.1-2.7,4.7C22.8,9.7,22.6,10.3,22.2,11.1z M22.9,20.9c0-2.4,0-4.8,0-7.2c-2,0-4,0-5.9,0c0,2.4,0,4.8,0,7.2
	C19,20.9,20.9,20.9,22.9,20.9z"/>
</svg>
