<?xml version="1.0" encoding="utf-8"?>
<!-- Generator: Adobe Illustrator 19.0.0, SVG Export Plug-In . SVG Version: 6.00 Build 0)  -->
<svg version="1.1" xmlns="http://www.w3.org/2000/svg" xmlns:xlink="http://www.w3.org/1999/xlink" x="0px" y="0px"
	 viewBox="-288 510.3 702.1 261.7" style="enable-background:new -288 510.3 702.1 261.7;" xml:space="preserve">
<style type="text/css">
	.st0{fill:url(#XMLID_2_);}
	.st1{fill:#231F20;stroke:#231F20;stroke-width:3.1484;stroke-miterlimit:10;}
	.st2{fill:#231F20;}
</style>
<g id="simbat">
</g>
<g id="habanero">
	<linearGradient id="XMLID_2_" gradientUnits="userSpaceOnUse" x1="-281.827" y1="641.208" x2="-127.0116" y2="641.208">
		<stop  offset="0" style="stop-color:#EE4651"/>
		<stop  offset="1" style="stop-color:#F68D2E"/>
	</linearGradient>
	<path id="XMLID_3188_" class="st0" d="M-278.2,637.5C-278.3,637.5-278.3,637.5-278.2,637.5c-1.7,0-3-1.4-3-3.1l0.1-20.3
		c0-1.7,1.4-3,3-3c0,0,0,0,0,0c1.7,0,3,1.4,3,3.1l-0.1,20.3C-275.2,636.1-276.6,637.5-278.2,637.5z M-275.8,715.5l0.5-69.2
		c0-1.7-1.3-3-3-3.1c0,0,0,0,0,0c-1.7,0-3,1.3-3,3l-0.5,69.2c0,1.7,1.3,3,3,3.1c0,0,0,0,0,0C-277.1,718.5-275.8,717.2-275.8,715.5z
		 M-264.5,583.8l0-0.8c0-1.7-1.3-3-3-3c0,0,0,0,0,0c-1.7,0-3,1.3-3,3l0,0.8c0,1.7,1.3,3,3,3c0,0,0,0,0,0
		C-265.8,586.8-264.5,585.4-264.5,583.8z M-264.6,614.2l0.1-20.3c0-1.7-1.3-3-3-3c0,0,0,0,0,0c-1.7,0-3,1.3-3,3l-0.1,20.3
		c0,1.7,1.3,3,3,3c0,0,0,0,0,0C-266,617.2-264.6,615.9-264.6,614.2z M-265.1,721.7l0.5-96.4c0-1.7-1.3-3-3-3c0,0,0,0,0,0
		c-1.7,0-3,1.3-3,3l-0.5,96.4c0,1.7,1.3,3,3,3c0,0,0,0,0,0C-266.5,724.7-265.1,723.3-265.1,721.7z M-253.8,599.8l0-0.5
		c0-1.7-1.3-3-3-3c0,0,0,0,0,0c-1.7,0-3,1.3-3,3l0,0.5c0,1.7,1.3,3,3,3c0,0,0,0,0,0C-255.2,602.8-253.8,601.5-253.8,599.8z
		 M-254.5,727.9l0.6-118.8c0-1.7-1.3-3-3-3c0,0,0,0,0,0c-1.7,0-3,1.3-3,3l-0.6,118.8c0,1.7,1.3,3,3,3c0,0,0,0,0,0
		C-255.9,730.9-254.5,729.6-254.5,727.9z M-243.2,543l0-0.8c0-1.7-1.3-3-3-3c0,0,0,0,0,0c-1.7,0-3,1.4-3,3l0,0.8c0,1.7,1.3,3,3,3
		c0,0,0,0,0,0C-244.6,546-243.2,544.6-243.2,543z M-243.3,567.9l0.1-16.2c0-1.7-1.3-3-3-3c0,0,0,0,0,0c-1.7,0-3,1.3-3,3l-0.1,16.2
		c0,1.7,1.3,3,3,3c0,0,0,0,0,0C-244.7,571-243.3,569.6-243.3,567.9z M-243.4,609.1l0.1-31.6c0-1.7-1.3-3-3-3c0,0,0,0,0,0
		c-1.7,0-3,1.3-3,3l-0.1,31.6c0,1.7,1.3,3,3,3c0,0,0,0,0,0C-244.8,612.1-243.4,610.8-243.4,609.1z M-243.9,734l0.4-114.3
		c0-1.7-1.3-3-3-3c0,0,0,0,0,0c-1.7,0-3,1.3-3,3L-250,734c0,1.7,1.3,3,3,3c0,0,0,0,0,0C-245.3,737-243.9,735.7-243.9,734z
		 M-232.8,639.8l0.2-52.8c0-1.7-1.3-3-3-3c0,0,0,0,0,0c-1.7,0-3,1.3-3,3l-0.2,52.8c0,1.7,1.3,3,3,3c0,0,0,0,0,0
		C-234.2,642.8-232.8,641.5-232.8,639.8z M-233.3,740.2l0.1-32.6c0-1.7-1.3-3-3-3c0,0,0,0,0,0c-1.7,0-3,1.3-3,3l-0.1,32.6
		c0,1.7,1.3,3,3,3c0,0,0,0,0,0C-234.6,743.2-233.3,741.8-233.3,740.2z M-222,577l0-0.8c0-1.7-1.3-3-3-3c0,0,0,0,0,0
		c-1.7,0-3,1.3-3,3l0,0.8c0,1.7,1.3,3,3,3c0,0,0,0,0,0C-223.3,580-222,578.6-222,577z M-222,593.8l0-6.8c0-1.7-1.3-3-3-3
		c0,0,0,0,0,0c-1.7,0-3,1.3-3,3l0,6.8c0,1.7,1.3,3,3,3c0,0,0,0,0,0C-223.4,596.8-222,595.5-222,593.8z M-222.2,639.8l0.1-37.2
		c0-1.7-1.3-3-3-3c-1.6,0-3,1.3-3,3l-0.1,37.2c0,1.7,1.3,3,3,3c0,0,0,0,0,0C-223.6,642.8-222.2,641.5-222.2,639.8z M-222.6,746.5
		l0.2-39c0-1.7-1.3-3-3-3c-1.6,0-3,1.3-3,3l-0.2,39c0,1.7,1.3,3,3,3c0,0,0,0,0,0C-224,749.5-222.6,748.2-222.6,746.5z M-211.7,661.1
		l0.3-83.5c0-1.7-1.3-3-3-3c0,0,0,0,0,0c-1.7,0-3,1.3-3,3l-0.3,83.5c0,1.7,1.3,3,3,3c0,0,0,0,0,0
		C-213,664.1-211.7,662.7-211.7,661.1z M-212,752.4l0.3-64.4c0-1.7-1.3-3-3-3c0,0,0,0,0,0c-1.7,0-3,1.3-3,3l-0.3,64.4
		c0,1.7,1.3,3,3,3c0,0,0,0,0,0C-213.4,755.5-212,754.1-212,752.4z M-200.7,524.7l0-0.9c0-1.7-1.3-3-3-3c0,0,0,0,0,0
		c-1.7,0-3,1.4-3,3l0,0.9c0,1.7,1.3,3,3,3c0,0,0,0,0,0C-202.1,527.7-200.7,526.4-200.7,524.7z M-200.8,555.3l0.1-19.1
		c0-1.7-1.3-3-3-3c0,0,0,0,0,0c-1.7,0-3,1.4-3,3l-0.1,19.1c0,1.7,1.3,3,3,3c0,0,0,0,0,0C-202.2,558.4-200.8,557-200.8,555.3z
		 M-201.1,661.1l0.3-94.5c0-1.7-1.3-3-3-3c0,0,0,0,0,0c-1.7,0-3,1.4-3,3l-0.3,94.5c0,1.7,1.3,3,3,3c0,0,0,0,0,0
		C-202.5,664.1-201.1,662.7-201.1,661.1z M-201.4,758.6l0.2-70.5c0-1.7-1.3-3-3-3c0,0,0,0,0,0c-1.7,0-3,1.4-3,3l-0.2,70.5
		c0,1.7,1.3,3,3,3c0,0,0,0,0,0C-202.8,761.6-201.4,760.2-201.4,758.6z M-190.4,661.1l0.3-78.1c0-1.7-1.3-3-3-3c0,0,0,0,0,0
		c-1.7,0-3,1.3-3,3l-0.3,78.1c0,1.7,1.3,3,3,3c0,0,0,0,0,0C-191.8,664.1-190.4,662.7-190.4,661.1z M-190.8,752.4l0.3-64.4
		c0-1.7-1.3-3-3-3c0,0,0,0,0,0c-1.7,0-3,1.3-3,3l-0.3,64.4c0,1.7,1.3,3,3,3c0,0,0,0,0,0C-192.1,755.5-190.8,754.1-190.8,752.4z
		 M-179.7,639.8l0.2-47.7c0-1.7-1.3-3-3-3c0,0,0,0,0,0c-1.7,0-3,1.3-3,3l-0.2,47.7c0,1.7,1.3,3,3,3c0,0,0,0,0,0
		C-181,642.8-179.7,641.5-179.7,639.8z M-180.1,746.3l0.2-38.8c0-1.7-1.3-3-3-3c0,0,0,0,0,0c-1.7,0-3,1.3-3,3l-0.2,38.8
		c0,1.7,1.3,3,3,3c0,0,0,0,0,0C-181.5,749.3-180.1,748-180.1,746.3z M-169.5,568.5V567c0-1.7-1.4-3-3-3c-1.7,0-3,1.4-3,3v1.5
		c0,1.7,1.4,3,3,3C-170.9,571.5-169.5,570.1-169.5,568.5z M-169.5,598.8v-19.2c0-1.7-1.4-3-3-3c-1.7,0-3,1.4-3,3v19.2
		c0,1.7,1.4,3,3,3C-170.9,601.8-169.5,600.5-169.5,598.8z M-169.5,639.8v-30.1c0-1.7-1.4-3-3-3c-1.7,0-3,1.4-3,3v30.1
		c0,1.7,1.4,3,3,3C-170.9,642.8-169.5,641.5-169.5,639.8z M-169.5,740.2v-32.6c0-1.7-1.4-3-3-3c-1.7,0-3,1.4-3,3v32.6
		c0,1.7,1.4,3,3,3C-170.9,743.2-169.5,741.8-169.5,740.2z M-158.9,735.5l0.7-178.3c0-1.7-1.3-3-3-3c0,0,0,0,0,0c-1.7,0-3,1.3-3,3
		l-0.7,178.3c0,1.7,1.3,3,3,3c0,0,0,0,0,0C-160.3,738.5-158.9,737.2-158.9,735.5z M-147.6,580.7l0-1c0-1.7-1.3-3-3-3c0,0,0,0,0,0
		c-1.7,0-3,1.3-3,3l0,1c0,1.7,1.3,3,3,3c0,0,0,0,0,0C-148.9,583.7-147.6,582.3-147.6,580.7z M-147.7,600.1l0-9.3c0-1.7-1.3-3-3-3
		c0,0,0,0,0,0c-1.7,0-3,1.3-3,3l0,9.3c0,1.7,1.3,3,3,3c0,0,0,0,0,0C-149,603.1-147.7,601.7-147.7,600.1z M-148.3,727.9l0.5-118.2
		c0-1.7-1.3-3-3-3c0,0,0,0,0,0c-1.7,0-3,1.3-3,3l-0.5,118.2c0,1.7,1.3,3,3,3c0,0,0,0,0,0C-149.6,730.9-148.3,729.6-148.3,727.9z
		 M-137.6,721.7V599.2c0-1.7-1.4-3-3-3s-3,1.4-3,3v122.4c0,1.7,1.4,3,3,3S-137.6,723.3-137.6,721.7z M-127,597.9v-1c0-1.7-1.4-3-3-3
		s-3,1.4-3,3v1c0,1.7,1.4,3,3,3S-127,599.6-127,597.9z M-127,615v-6.1c0-1.7-1.4-3-3-3s-3,1.4-3,3v6.1c0,1.7,1.4,3,3,3
		S-127,616.7-127,615z M-127,715.5v-88.6c0-1.7-1.4-3-3-3s-3,1.4-3,3v88.6c0,1.7,1.4,3,3,3S-127,717.2-127,715.5z"/>
	<path class="st1" d="M-55.6,616.8v59.4H-67V651h-27.5v25.3h-11.4v-59.4h11.4v24.4H-67v-24.4H-55.6z M-4.8,664.9h-26.6l-3.8,11.4
		h-12.4l20.5-59.4h17.5l20.9,59.4H-0.8L-4.8,664.9z M-7.5,656.4l-10.6-30.9l-10.5,30.9H-7.5z M17.8,676.3v-59.4h30.4
		c7.2,0,12,1.1,14.6,3.3c2.6,2.2,3.8,6.3,3.8,12.4c0,4.1-0.7,7.1-2,9.1c-1.4,2-3.7,3.3-7,4c3.9,0.8,6.7,2.2,8.2,4.2
		c1.5,2,2.3,5.4,2.3,10.1c0,6.1-1.3,10.4-4,12.8c-2.7,2.4-7.4,3.6-14.2,3.6H17.8z M29.6,641.8h14.3c4.7,0,7.8-0.5,9-1.4
		c1.3-1,1.9-3.2,1.9-6.9c0-3-0.5-4.9-1.6-5.9c-1.1-0.9-3.4-1.4-6.9-1.4H29.6V641.8z M29.6,666.8h12.9c6.2,0,10-0.4,11.6-1.3
		c1.5-0.9,2.3-3.1,2.3-6.8c0-3.7-0.6-6.1-1.9-7c-1.3-0.9-4.6-1.4-9.8-1.4h-15V666.8z M115,664.9H88.3l-3.8,11.4H72.2l20.5-59.4h17.5
		l20.9,59.4H119L115,664.9z M112.3,656.4l-10.6-30.9l-10.5,30.9H112.3z M194.8,616.8v59.4h-19.9l-17.7-32.6l-4.1-8.6l-1.9-4.3
		l-2-4.2h-0.4l0.1,3.8c0,2.4,0,4.8,0.1,7.3c0.1,2.5,0.1,4,0.1,4.4v34.1h-11.7v-59.4h19.8l16.1,30.2l4.9,9.7l2.3,4.8l2.4,4.9h0.4
		l-0.1-3.8c0-2.3,0-4.6-0.1-7.1c-0.1-2.5-0.1-3.9-0.1-4.4v-34.3H194.8z M217.3,626.3v15.6h28.8v8.4h-28.8v16.6h30.6v9.4h-42.5v-59.4
		h42.2v9.4H217.3z M257.8,676.3v-59.4h30.3c7.5,0,12.7,1.3,15.6,3.9c2.9,2.6,4.4,7.2,4.4,13.8c0,6-0.7,10.1-2.2,12.3
		c-1.4,2.2-4.4,3.7-8.9,4.5v0.4c3.5,0,6.1,1,7.9,2.9c1.7,2,2.6,4.8,2.6,8.6v12.9h-11.9v-10.7c0-3.5-0.7-5.9-2-7.2
		c-1.3-1.3-3.7-1.9-7.3-1.9h-16.7v19.7H257.8z M269.7,646.7h16.6c4,0,6.7-0.7,8-2c1.3-1.4,1.9-4.2,1.9-8.4c0-4-0.6-6.7-1.7-7.9
		c-1.1-1.2-3.6-1.8-7.4-1.8h-17.4V646.7z M342.4,616.4c8.3,0,14.1,0.6,17.5,1.8c3.4,1.2,5.9,3.2,7.4,6c1.5,2.8,2.5,5.6,2.8,8.4
		c0.4,2.8,0.6,7.3,0.6,13.5c0,7.3-0.2,12.3-0.6,15c-0.4,2.7-1.3,5.4-2.8,8.1c-1.5,2.7-4.1,4.6-7.7,5.9s-8.9,1.9-15.9,1.9
		c-12,0-19.7-1.7-23.1-5.1c-3.4-3.4-5-11.1-5-23.2c0-7.9,0.2-13.3,0.6-16.4c0.4-3,1.5-5.8,3.1-8.4c1.7-2.5,4.3-4.4,7.8-5.6
		C330.8,617,335.9,616.4,342.4,616.4z M358.7,648.3v-9.3c0-5.7-0.9-9.3-2.8-10.7c-1.9-1.5-6.5-2.2-13.7-2.2c-7.1,0-11.3,1-12.5,3.1
		c-1.3,2-1.9,8.7-1.9,20.1c0,8.5,0.8,13.6,2.4,15.3c1.6,1.6,6.4,2.4,14.6,2.4c6.4,0,10.4-1,11.8-2.9
		C357.9,662.1,358.7,656.9,358.7,648.3z"/>
	<path class="st2" d="M387,618.6v12.8h-3.5v-12.8h-4.8v-2.9h13.1v2.9H387z M412.8,615.7v15.7h-3.4v-8.5v-2.3l0.1-1.2V619l-0.1,0.4
		l-0.4,1.1l-0.8,2.2l-3.7,8.8h-3l-3.7-8.7l-0.8-2.1l-0.4-1.1l-0.2-0.4l0,0.4l0.1,3.4v8.5h-3.4v-15.7l5.3,0l3,7.2l0.7,2.2l0.4,1.1
		l0.3,0.8l0.3-0.8l0.4-1.1l0.8-2.1l2.9-7.2L412.8,615.7z"/>
</g>
</svg>
