<?xml version="1.0" encoding="utf-8"?>
<!-- Generator: Adobe Illustrator 21.1.0, SVG Export Plug-In . SVG Version: 6.00 Build 0)  -->
<svg version="1.1" id="Layer_1" xmlns="http://www.w3.org/2000/svg" xmlns:xlink="http://www.w3.org/1999/xlink" x="0px" y="0px"
	 viewBox="0 0 185 193" style="enable-background:new 0 0 185 193;" xml:space="preserve">
<style type="text/css">
	.st0{fill:#F1F1F1;}
	.st1{fill:#FFFFFF;}
	.st2{fill:#DDE2E6;}
	.st3{fill:#BF3B24;}
</style>
<circle class="st0" cx="92.5" cy="100.5" r="92.5"/>
<g>
	<path class="st1" d="M92.5,184C42,184,1,143,1,92.5S42,1,92.5,1S184,42,184,92.5S143,184,92.5,184z"/>
	<path class="st2" d="M92.5,2C142.4,2,183,42.6,183,92.5S142.4,183,92.5,183S2,142.4,2,92.5S42.6,2,92.5,2 M92.5,0
		C41.4,0,0,41.4,0,92.5S41.4,185,92.5,185S185,143.6,185,92.5S143.6,0,92.5,0L92.5,0z"/>
</g>
<g transform="translate(0,-952.36218)">
	<path class="st3" d="M92.3,1004.6c-0.3,0-0.6,0.1-0.9,0.3l-4.6,3.1l-5.5-1.1c-0.8-0.2-1.5,0.1-2,0.8l-3,4.7l-5.5,1.1
		c-0.8,0.1-1.4,0.7-1.5,1.5l-1.1,5.5l-4.7,3.1c-0.6,0.4-1,1.2-0.8,2l1.1,5.5l-3.1,4.6c-0.4,0.6-0.4,1.5,0,2.1l3.1,4.6l-1.1,5.4
		c-0.2,0.8,0.1,1.5,0.8,2l2.6,1.7l-15.8,24.6c-0.6,0.9-0.3,2,0.6,2.6c0.4,0.3,0.9,0.4,1.4,0.3l12.4-2.5l3.3,11.5
		c0.3,1,1.3,1.6,2.3,1.3c0.5-0.1,0.9-0.4,1.1-0.9l13.7-22.9l1.5-0.3l4.6,3.1c0.3,0.2,0.7,0.3,1.1,0.4c0.4,0,0.7-0.1,1.1-0.4l4.6-3.1
		l1.5,0.3l13.7,22.9c0.5,0.9,1.7,1.2,2.6,0.7c0.4-0.3,0.7-0.7,0.9-1.1l3.3-11.5l12.4,2.5c1,0.2,2-0.4,2.2-1.5c0.1-0.5,0-1-0.3-1.4
		l-15.8-24.6l2.6-1.7c0.6-0.4,1-1.2,0.8-2l-1.1-5.4l3.1-4.6c0.4-0.6,0.4-1.5,0-2.1l-3.1-4.6l1.1-5.5c0.2-0.8-0.1-1.5-0.8-2l-4.7-3.1
		l-1.1-5.5c-0.1-0.8-0.7-1.4-1.5-1.5l-5.5-1.1l-3.1-4.7c-0.4-0.6-1.2-1-2-0.8l-5.5,1.1l-4.6-3.1
		C93.2,1004.7,92.8,1004.6,92.3,1004.6z M92.5,1008.7l4.2,2.9c0.4,0.3,1,0.4,1.5,0.3l5-1.1l2.8,4.3c0.3,0.4,0.7,0.7,1.2,0.8l5,0.9
		l0.9,5c0.1,0.5,0.4,1,0.8,1.2l4.3,2.8l-1.1,5c-0.1,0.5,0,1,0.3,1.5l2.9,4.2l-2.9,4.2c-0.3,0.4-0.4,1-0.3,1.5l1.1,4.9l-4.3,2.8
		c-0.4,0.3-0.7,0.7-0.8,1.2l-0.9,5l-5,0.9c-0.5,0.1-1,0.4-1.2,0.8l-2.8,4.3l-5-1.1c-0.5-0.1-1,0-1.5,0.3l-4.2,2.9l-4.2-2.9
		c-0.4-0.3-1-0.4-1.5-0.3l-5,1.1l-2.8-4.3c-0.3-0.4-0.7-0.7-1.2-0.8l-5-0.9l-0.9-5c-0.1-0.5-0.4-1-0.8-1.2l-4.3-2.8l1.1-4.9
		c0.1-0.5,0-1-0.3-1.5l-2.9-4.2l2.9-4.2c0.3-0.4,0.4-1,0.3-1.5l-1.1-5l4.3-2.8c0.4-0.3,0.7-0.7,0.8-1.2l0.9-5l5-0.9
		c0.5-0.1,0.9-0.4,1.2-0.8l2.8-4.3l5,1.1c0.5,0.1,1,0,1.5-0.3L92.5,1008.7z M92.5,1015.9c-11.4,0-20.7,9.3-20.7,20.7
		s9.3,20.7,20.7,20.7s20.7-9.3,20.7-20.7C113.2,1025.1,103.9,1015.9,92.5,1015.9z M92.5,1019.6c9.4,0,16.9,7.5,16.9,16.9
		c0,9.4-7.5,16.9-16.9,16.9s-16.9-7.5-16.9-16.9C75.6,1027.2,83.1,1019.6,92.5,1019.6z M68.7,1054.5l0.7,3.6
		c0.1,0.8,0.7,1.4,1.5,1.5l5.5,1.1l3,4.7c0.2,0.4,0.6,0.6,1.1,0.8l-9.9,16.5l-2.6-9c-0.3-1-1.2-1.5-2.2-1.3l-9.7,1.9L68.7,1054.5z
		 M116.3,1054.5l12.6,19.6l-9.7-1.9c-1-0.2-1.9,0.4-2.2,1.3l-2.6,9l-9.9-16.5c0.4-0.1,0.8-0.4,1-0.8l3.1-4.7l5.5-1.1
		c0.8-0.1,1.4-0.7,1.5-1.5L116.3,1054.5z"/>
</g>
</svg>
