<?xml version="1.0" encoding="utf-8"?>
<!-- Generator: Adobe Illustrator 21.1.0, SVG Export Plug-In . SVG Version: 6.00 Build 0)  -->
<svg version="1.1" id="Layer_1" xmlns="http://www.w3.org/2000/svg" xmlns:xlink="http://www.w3.org/1999/xlink" x="0px" y="0px"
	 viewBox="0 0 185 193" style="enable-background:new 0 0 185 193;" xml:space="preserve">
<style type="text/css">
	.st0{fill:#F1F1F1;}
	.st1{fill:#FFFFFF;}
	.st2{fill:#DDE2E6;}
	.st3{fill:#BF3B24;}
</style>
<circle class="st0" cx="92.5" cy="100.5" r="92.5"/>
<g>
	<path class="st1" d="M92.5,184C42,184,1,143,1,92.5S42,1,92.5,1S184,42,184,92.5S143,184,92.5,184z"/>
	<path class="st2" d="M92.5,2C142.4,2,183,42.6,183,92.5S142.4,183,92.5,183S2,142.4,2,92.5S42.6,2,92.5,2 M92.5,0
		C41.4,0,0,41.4,0,92.5S41.4,185,92.5,185S185,143.6,185,92.5S143.6,0,92.5,0L92.5,0z"/>
</g>
<g>
	<path class="st3" d="M123.2,74.8c0-0.4-0.2-1-0.5-1.3l-22.2-20.9c-0.4-0.3-0.8-0.4-1.2-0.4l0,0H65.4c-1.9,0-3.5,1.6-3.5,3.5v73
		c0,1.9,1.6,3.5,3.5,3.5h54.2c1.9,0,3.5-1.6,3.5-3.5V74.8L123.2,74.8z M101,57.8l16,15.1h-14.2c-1,0-1.8-0.8-1.8-1.8V57.8z
		 M65.4,128.6v-73h32v15.6c0,2.9,2.4,5.3,5.3,5.3h16.9v52L65.4,128.6z"/>
	<rect x="70.8" y="91.2" class="st3" width="21.7" height="3.5"/>
	<rect x="70.8" y="103.5" class="st3" width="42.7" height="3.5"/>
	<rect x="70.8" y="116" class="st3" width="42.7" height="3.5"/>
</g>
</svg>
