<?xml version="1.0" encoding="utf-8"?>
<!-- Generator: Adobe Illustrator 21.1.0, SVG Export Plug-In . SVG Version: 6.00 Build 0)  -->
<svg version="1.1" id="Layer_1" xmlns="http://www.w3.org/2000/svg" xmlns:xlink="http://www.w3.org/1999/xlink" x="0px" y="0px"
	 viewBox="0 0 42 42" style="enable-background:new 0 0 42 42;" xml:space="preserve">
<style type="text/css">
	.st0{fill:#BF3B24;}
</style>
<g transform="translate(0,-952.36218)">
	<path class="st0" d="M41,952.5c-4.8,0-11.2,1.7-17,5.2c-2.3,1.4-4.4,3-6.4,5c-1-0.1-2-0.2-2.9-0.2c-3-0.1-5.4,0.3-7.5,1.2
		c-2.7,1.3-4.8,3.5-6.9,6.5c-0.3,0.5-0.2,1.1,0.2,1.5c0.1,0.1,0.2,0.1,0.3,0.2l10.5,3.1l8.2,8.2l3.1,10.5c0.2,0.6,0.8,0.9,1.3,0.7
		c0.1,0,0.2-0.1,0.3-0.2c3-2.2,5.2-4.2,6.5-6.9c1.2-2.7,1.5-5.9,1-10.5c1.7-1.7,3.2-3.5,4.5-5.5c3.7-5.6,5.8-12.1,5.8-17.7
		C42,953,41.6,952.5,41,952.5z M39.8,954.7c-0.3,4.9-2.1,10.5-5.3,15.4c-3.3,5.1-8.1,9.3-13.7,11.2l-7.6-7.6
		c2.1-6.3,6.7-11,11.9-14.2C30.1,956.5,35.6,955,39.8,954.7z M29.7,960c-2.7,0-4.8,2.2-4.8,4.8c0,2.7,2.2,4.8,4.8,4.8
		s4.8-2.2,4.8-4.8C34.5,962.2,32.3,960,29.7,960z M29.7,962.2c1.5,0,2.7,1.2,2.7,2.7s-1.2,2.7-2.7,2.7c-1.5,0-2.7-1.2-2.7-2.7
		C27,963.4,28.2,962.2,29.7,962.2z M13.3,964.6c0.8,0,1.6,0,2.5,0.1c-1.9,2.3-3.5,5-4.5,8L3,970.2c1.7-2.1,3.2-3.7,5.1-4.6
		C9.5,965,11.2,964.6,13.3,964.6z M8.6,978.3c-0.2,0-0.5,0.1-0.6,0.3l-3.2,3.2c-0.4,0.4-0.4,1.1,0,1.5c0.4,0.4,1.1,0.4,1.5,0
		c0,0,0,0,0,0l3.2-3.2c0.4-0.4,0.5-1.1,0-1.5C9.3,978.4,8.9,978.2,8.6,978.3z M29.9,978.6c0.3,3.5-0.1,5.9-1,7.8
		c-0.9,1.9-2.5,3.4-4.6,5.1l-2.5-8.2C24.8,982.3,27.5,980.6,29.9,978.6z M12.3,981c-0.2,0-0.5,0.1-0.6,0.3l-6.5,6.5
		c-0.4,0.4-0.4,1.1,0,1.5c0.4,0.4,1.1,0.4,1.5,0c0,0,0,0,0,0l6.5-6.5c0.4-0.4,0.5-1.1,0-1.5C13,981.1,12.7,980.9,12.3,981z
		 M15,984.7c-0.2,0-0.5,0.1-0.6,0.3l-3.2,3.2c-0.4,0.4-0.4,1.1,0,1.5c0.4,0.4,1.1,0.4,1.5,0c0,0,0,0,0,0l3.2-3.2
		c0.4-0.4,0.5-1.1,0-1.5C15.7,984.8,15.4,984.7,15,984.7z"/>
</g>
</svg>
