<?xml version="1.0" encoding="utf-8"?>
<!-- Generator: Adobe Illustrator 21.1.0, SVG Export Plug-In . SVG Version: 6.00 Build 0)  -->
<svg version="1.1" id="Layer_1" xmlns="http://www.w3.org/2000/svg" xmlns:xlink="http://www.w3.org/1999/xlink" x="0px" y="0px"
	 viewBox="0 0 185 193" style="enable-background:new 0 0 185 193;" xml:space="preserve">
<style type="text/css">
	.st0{fill:#F1F1F1;}
	.st1{fill:#FFFFFF;}
	.st2{fill:#DDE2E6;}
	.st3{fill:#BF3B24;}
</style>
<circle class="st0" cx="92.5" cy="100.5" r="92.5"/>
<g>
	<path class="st1" d="M92.5,184C42,184,1,143,1,92.5S42,1,92.5,1S184,42,184,92.5S143,184,92.5,184z"/>
	<path class="st2" d="M92.5,2C142.4,2,183,42.6,183,92.5S142.4,183,92.5,183S2,142.4,2,92.5S42.6,2,92.5,2 M92.5,0
		C41.4,0,0,41.4,0,92.5S41.4,185,92.5,185S185,143.6,185,92.5S143.6,0,92.5,0L92.5,0z"/>
</g>
<path class="st3" d="M70.6,128.5c-0.1,0-0.2,0-0.3,0c-1.1-0.2-1.9-1.3-1.7-2.4l3.8-23.4L55.7,86c-0.3-0.3-0.5-0.7-0.6-1.2
	c-0.2-1.1,0.6-2.2,1.7-2.4l23.3-3.6l10.6-21.2c0.2-0.4,0.5-0.7,0.9-0.9c0.3-0.1,0.6-0.2,0.9-0.2c0.8,0,1.5,0.4,1.8,1.1l10.6,21.2
	l23.3,3.6c0.4,0.1,0.8,0.3,1.1,0.6c0.8,0.8,0.8,2.1,0,2.9l-16.8,16.7l3.8,23.5c0.1,1.1-0.7,2.2-1.8,2.3c-0.1,0-0.2,0-0.3,0
	c-0.3,0-0.7-0.1-1-0.2l-20.9-10.9l-20.9,10.9C71.3,128.4,70.9,128.5,70.6,128.5z M83.3,81.7c-0.3,0.6-0.9,1-1.5,1.1l-20.3,3.1
	L76,100.5c0.5,0.5,0.7,1.2,0.6,1.8l-3.3,20.4l18.3-9.5c0.3-0.2,0.6-0.2,0.9-0.2c0.3,0,0.7,0.1,0.9,0.2l18.3,9.5l-3.3-20.4
	c-0.1-0.7,0.1-1.3,0.6-1.8l14.6-14.6l-20.3-3.1c-0.7-0.1-1.2-0.5-1.5-1.1l-9.2-18.5L83.3,81.7z"/>
</svg>
