<?xml version="1.0" encoding="utf-8"?>
<!-- Generator: Adobe Illustrator 21.1.0, SVG Export Plug-In . SVG Version: 6.00 Build 0)  -->
<svg version="1.1" id="Layer_1" xmlns="http://www.w3.org/2000/svg" xmlns:xlink="http://www.w3.org/1999/xlink" x="0px" y="0px"
	 viewBox="0 0 42 42" style="enable-background:new 0 0 42 42;" xml:space="preserve">
<style type="text/css">
	.st0{fill:#BF3B24;}
</style>
<g>
	<path class="st0" d="M21,0C9.4,0,0,9.4,0,21s9.4,21,21,21s21-9.5,21-21S32.6,0,21,0z M21,40C10.5,40,2,31.5,2,21S10.5,2,21,2
		s19,8.5,19,19S31.5,40,21,40z"/>
	<path class="st0" d="M28.6,19.8l-12.8-6.4c-0.9-0.5-2,0.2-2,1.2v12.8c0,1,1.1,1.7,2,1.2l12.8-6.4C29.6,21.7,29.6,20.3,28.6,19.8z"
		/>
</g>
</svg>
