<?xml version="1.0" encoding="utf-8"?>
<!-- Generator: Adobe Illustrator 21.1.0, SVG Export Plug-In . SVG Version: 6.00 Build 0)  -->
<svg version="1.1" id="Layer_1" xmlns="http://www.w3.org/2000/svg" xmlns:xlink="http://www.w3.org/1999/xlink" x="0px" y="0px"
	 viewBox="0 0 42 42" style="enable-background:new 0 0 42 42;" xml:space="preserve">
<style type="text/css">
	.st0{fill:#BF3B24;}
</style>
<path class="st0" d="M9.9,21.1c2.2,3.1,5.7,5.3,9.7,5.7v2.3h-7.3c-0.8,0-1.5,0.7-1.5,1.5v7.6c0,0.8,0.7,1.5,1.5,1.5h17.6
	c0.8,0,1.5-0.7,1.5-1.5v-7.6c0-0.8-0.7-1.5-1.5-1.5h-7.3v-2.3c4-0.4,7.5-2.6,9.7-5.8C41,19.2,42.4,9.7,41.9,4.7
	c-0.1-0.6-0.5-1.1-1-1.3c-0.6-0.2-1.2,0-1.6,0.4c-1.5,1.6-3.4,1.6-4.6,1.5V3.7c0-0.8-0.7-1.5-1.5-1.5H9c-0.8,0-1.5,0.7-1.5,1.5v1.6
	C6.3,5.5,4.3,5.5,2.7,3.8c-0.4-0.4-1-0.6-1.6-0.4c-0.6,0.2-1,0.7-1,1.3C-0.4,9.7,1,19.4,9.9,21.1z M28.4,36.8H13.8v-4.5h14.6V36.8z
	 M38.9,7.7c-0.2,2.9-1.1,7.4-4.8,9.5c0.4-1.2,0.6-2.5,0.6-3.9v-5C35.8,8.5,37.4,8.4,38.9,7.7z M10.5,5.2h21.1v8.2
	c0,5.8-4.7,10.6-10.6,10.6s-10.6-4.7-10.6-10.6V5.2L10.5,5.2z M7.5,8.3v5c0,1.4,0.2,2.7,0.6,4c-3.9-2.1-4.8-6.6-5-9.6
	C4.7,8.4,6.3,8.5,7.5,8.3z"/>
</svg>
