<svg width="47px" height="32px" viewBox="0 0 47 32" version="1.1" xmlns="http://www.w3.org/2000/svg" xmlns:xlink="http://www.w3.org/1999/xlink">
    <!-- Generator: Sketch 46.2 (44496) - http://www.bohemiancoding.com/sketch -->
    <desc>Created with Sketch.</desc>
    <defs></defs>
    <g id="Page-1" stroke="none" stroke-width="1" fill="none" fill-rule="evenodd">
        <g id="59823d86b58f32f6dfee1ca5c5de5770" fill-rule="nonzero">
            <polygon id="Shape" points="23.2925816 8.52225519 20.7857567 7.04094955 16.3560831 14.547181 15.9525223 14.547181 10.6207715 7.25459941 8.27062315 8.97329377 12.3489614 14.547181 8.7264095 14.547181 8.7264095 17.4575668 14.5424332 17.4575668 14.5424332 20.3679525 8.7264095 20.3679525 8.7264095 23.2783383 14.5424332 23.2783383 14.5424332 26.188724 17.452819 26.188724 17.452819 23.2783383 23.264095 23.2783383 23.264095 20.3679525 17.4480712 20.3679525 17.4480712 17.4575668 23.264095 17.4575668 23.264095 14.547181 19.7317507 14.547181"></polygon>
            <path d="M40.7121662,0.00474777448 L5.81602374,0.00474777448 C2.60652819,0.00474777448 0,2.61602374 0,5.82077151 L0,26.1792285 C0,29.388724 2.60652819,31.9952522 5.81602374,31.9952522 L40.7121662,31.9952522 C43.9216617,31.9952522 46.5281899,29.388724 46.5281899,26.1792285 L46.5281899,24.6979228 L46.5281899,21.7875371 L43.6178042,21.5501484 C41.3388724,20.7620178 39.6913947,18.6160237 39.6913947,16.0759644 C39.6913947,13.535905 41.3388724,11.389911 43.6178042,10.6017804 L46.5281899,10.3596439 L46.5281899,7.44925816 L46.5281899,5.82077151 C46.5281899,2.61602374 43.9216617,0.00474777448 40.7121662,0.00474777448 Z M5.81602374,29.0848665 C4.21602374,29.0848665 2.90563798,27.7839763 2.90563798,26.1744807 L2.90563798,5.82077151 C2.90563798,4.22077151 4.21127596,2.91038576 5.81602374,2.91038576 L29.0801187,2.91038576 L29.0801187,29.0848665 L5.81602374,29.0848665 L5.81602374,29.0848665 Z M43.6225519,7.56795252 C39.7198813,8.43679525 36.7905045,11.9121662 36.7905045,16.0712166 C36.7905045,20.2302671 39.7198813,23.705638 43.6225519,24.5792285 L43.6225519,26.1792285 C43.6225519,27.7839763 42.3216617,29.0896142 40.7121662,29.0896142 L31.9905045,29.0896142 L31.9905045,2.91513353 L40.7169139,2.91513353 C42.3216617,2.91513353 43.6272997,4.22077151 43.6272997,5.82551929 L43.6272997,7.56795252 L43.6225519,7.56795252 Z" id="Shape"></path>
        </g>
    </g>
</svg>