
<svg viewBox="0 0 21 20" xmlns="http://www.w3.org/2000/svg">
            <g id="Group" transform="translate(10.110410, 10.000000) scale(-1, 1) rotate(-180.000000) translate(-10.110410, -10.000000) translate(0.000000, 0.000000)">
                <path d="M10.8675079,19.9211356 C9.33753943,19.7318612 8.0126183,19.1167192 6.54574132,17.9179811 C6.16719243,17.6182965 5.86750789,17.3028391 5.86750789,17.2082019 C5.86750789,16.9242902 7.42902208,17.2239748 7.77602524,17.5709779 C8.65930599,18.4542587 11.1987382,19.1955836 12.6340694,18.9905363 L13.2649842,18.8958991 L12.7287066,18.0283912 C12.0031546,16.8611987 11.8927445,16.3722397 12.3028391,16.1514196 C12.5867508,15.9936909 12.6656151,16.0725552 13.0914826,16.9716088 C13.3596215,17.5078864 13.7066246,18.1230284 13.8801262,18.3280757 C14.1640379,18.6750789 14.2271293,18.6908517 14.7003155,18.5173502 C15.3312303,18.3123028 16.6088328,17.5078864 16.9716088,17.0977918 C17.2239748,16.829653 17.1608833,16.7665615 15.7255521,15.9621451 C14.2429022,15.126183 14.0378549,14.9053628 14.4321767,14.5899054 C14.5741325,14.4794953 15.0315457,14.6529968 16.1198738,15.2839117 C16.9400631,15.7570978 17.6656151,16.1356467 17.7287066,16.1356467 C18.1388013,16.1356467 19.4952681,12.9968454 19.2113565,12.6971609 C19.148265,12.6498423 18.4384858,12.5709779 17.6182965,12.5394322 C16.7981073,12.4921136 16.1198738,12.4290221 16.1198738,12.3659306 C16.1198738,12.3028391 16.214511,12.1135647 16.340694,11.955836 C16.5299685,11.70347 16.70347,11.6876972 17.9337539,11.7665615 L19.3217666,11.8611987 L19.2271293,10.8359621 C19.1324921,9.65299685 18.4384858,8.07570978 17.5867508,7.12933754 C17.0662461,6.5615142 16.7507886,5.82018927 16.7507886,5.17350158 C16.7507886,4.93690852 16.9873817,5.11041009 17.7760252,5.88328076 C19.4794953,7.57097792 20.2208202,9.3533123 20.2208202,11.7981073 C20.2208202,14.1324921 19.4794953,15.9305994 17.8706625,17.5394322 C15.9936909,19.4164038 13.533123,20.2523659 10.8675079,19.9211356 Z"/>
                <path d="M6.26182965,16.2302839 C4.1955836,15.7097792 1.84542587,13.8958991 0.94637224,12.1135647 C-0.173501577,9.90536278 -0.299684543,7.23974763 0.615141956,5.01577287 C1.23028391,3.51735016 2.6340694,1.94006309 4.13249211,1.04100946 C5.86750789,1.73472348e-18 8.75394322,-0.299684543 10.7570978,0.362776025 C16.5930599,2.30283912 18.3596215,9.57413249 14.0694006,13.9432177 C12.0189274,16.0410095 9.02208202,16.9085174 6.26182965,16.2302839 Z M9.43217666,15.3785489 C9.52681388,15.3154574 9.63722397,15.1892744 9.66876972,15.1104101 C9.70031546,15.0157729 10.0946372,14.3217666 10.5205047,13.5646688 L11.3091483,12.192429 L12.8391167,12.192429 L14.3690852,12.192429 L14.7634069,11.340694 C15.126183,10.5678233 15.4731861,9.40063091 15.488959,8.92744479 C15.488959,8.80126183 15.2996845,8.72239748 15.0630915,8.72239748 C14.6687697,8.72239748 14.5268139,8.5488959 13.785489,7.22397476 L12.9337539,5.72555205 L13.4384858,4.84227129 C13.8485804,4.11671924 13.9116719,3.88012618 13.785489,3.59621451 C13.5962145,3.18611987 12.4921136,2.2555205 11.7507886,1.87697161 L11.2460568,1.62460568 L10.8832808,2.30283912 L10.5205047,2.96529968 L8.75394322,3.0126183 L7.00315457,3.05993691 L6.49842271,2.17665615 C6.07255521,1.43533123 5.94637224,1.30914826 5.66246057,1.40378549 C4.93690852,1.60883281 3.59621451,2.52365931 2.93375394,3.26498423 L2.23974763,4.02208202 L2.87066246,5.17350158 L3.50157729,6.30914826 L2.61829653,7.83911672 C1.89274448,9.0851735 1.67192429,9.3533123 1.35646688,9.3533123 C1.02523659,9.3533123 0.977917981,9.40063091 1.07255521,9.79495268 C1.11987382,10.0315457 1.37223975,10.6624606 1.60883281,11.214511 L2.06624606,12.192429 L3.26498423,12.192429 C4.43217666,12.192429 4.4637224,12.2082019 4.7318612,12.6656151 C5.94637224,14.8264984 6.27760252,15.2681388 6.73501577,15.362776 C7.41324921,15.5047319 9.22712934,15.5205047 9.43217666,15.3785489 Z"/>
                <path d="M5.63091483,9.87381703 C5.20504732,9.13249211 4.82649842,8.45425868 4.79495268,8.39116719 C4.76340694,8.32807571 5.14195584,7.58675079 5.63091483,6.76656151 L6.51419558,5.25236593 L8.21766562,5.25236593 L9.93690852,5.25236593 L10.8044164,6.78233438 L11.6876972,8.31230284 L11.1987382,9.1955836 C10.9148265,9.66876972 10.5362776,10.3312303 10.3312303,10.6624606 L9.96845426,11.2460568 L8.18611987,11.2460568 L6.41955836,11.2460568 L5.63091483,9.87381703 Z"/>
            </g>
</svg>