<svg width="11px" height="17px" viewBox="0 0 11 17" version="1.1" xmlns="http://www.w3.org/2000/svg" xmlns:xlink="http://www.w3.org/1999/xlink">
    <!-- Generator: Sketch 46.2 (44496) - http://www.bohemiancoding.com/sketch -->
    <desc>Created with Sketch.</desc>
    <defs></defs>
    <g id="Page-2" stroke="none" stroke-width="1" fill="none" fill-rule="evenodd">
        <path d="M0.254152824,8.23878738 C0.247093023,8.23878738 0.247093023,8.23878738 0.254152824,8.23878738 C0.134136213,8.23878738 0.042358804,8.13995017 0.042358804,8.01993355 L0.0494186047,6.58679402 C0.0494186047,6.46677741 0.148255814,6.375 0.261212625,6.375 C0.261212625,6.375 0.261212625,6.375 0.261212625,6.375 C0.381229236,6.375 0.473006645,6.47383721 0.473006645,6.59385382 L0.465946844,8.02699336 C0.465946844,8.13995017 0.367109635,8.23878738 0.254152824,8.23878738 Z M0.42358804,13.7454319 L0.458887043,8.86004983 C0.458887043,8.74003322 0.367109635,8.64825581 0.247093023,8.64119601 C0.247093023,8.64119601 0.247093023,8.64119601 0.247093023,8.64119601 C0.127076412,8.64119601 0.0352990033,8.73297342 0.0352990033,8.85299003 L0,13.7383721 C0,13.8583887 0.0917774086,13.9501661 0.21179402,13.9572259 C0.21179402,13.9572259 0.21179402,13.9572259 0.21179402,13.9572259 C0.331810631,13.9572259 0.42358804,13.8654485 0.42358804,13.7454319 Z M1.22134551,4.44767442 L1.22134551,4.39119601 C1.22134551,4.2711794 1.12956811,4.17940199 1.0095515,4.17940199 C1.0095515,4.17940199 1.0095515,4.17940199 1.0095515,4.17940199 C0.889534884,4.17940199 0.797757475,4.2711794 0.797757475,4.39119601 L0.797757475,4.44767442 C0.797757475,4.56769103 0.889534884,4.65946844 1.0095515,4.65946844 C1.0095515,4.65946844 1.0095515,4.65946844 1.0095515,4.65946844 C1.12956811,4.65946844 1.22134551,4.56063123 1.22134551,4.44767442 Z M1.21428571,6.59385382 L1.22134551,5.16071429 C1.22134551,5.04069767 1.12956811,4.94892027 1.0095515,4.94892027 C1.0095515,4.94892027 1.0095515,4.94892027 1.0095515,4.94892027 C0.889534884,4.94892027 0.797757475,5.04069767 0.797757475,5.16071429 L0.790697674,6.59385382 C0.790697674,6.71387043 0.882475083,6.80564784 1.00249169,6.80564784 C1.00249169,6.80564784 1.00249169,6.80564784 1.00249169,6.80564784 C1.1154485,6.80564784 1.21428571,6.71387043 1.21428571,6.59385382 Z M1.17898671,14.1831395 L1.21428571,7.37749169 C1.21428571,7.25747508 1.12250831,7.16569767 1.00249169,7.16569767 C1.00249169,7.16569767 1.00249169,7.16569767 1.00249169,7.16569767 C0.882475083,7.16569767 0.790697674,7.25747508 0.790697674,7.37749169 L0.755398671,14.1831395 C0.755398671,14.3031561 0.84717608,14.3949336 0.967192691,14.3949336 C0.967192691,14.3949336 0.967192691,14.3949336 0.967192691,14.3949336 C1.0801495,14.3949336 1.17898671,14.2960963 1.17898671,14.1831395 Z M1.97674419,5.57724252 L1.97674419,5.54194352 C1.97674419,5.42192691 1.88496678,5.3301495 1.76495017,5.3301495 C1.76495017,5.3301495 1.76495017,5.3301495 1.76495017,5.3301495 C1.64493355,5.3301495 1.55315615,5.42192691 1.55315615,5.54194352 L1.55315615,5.57724252 C1.55315615,5.69725914 1.64493355,5.78903654 1.76495017,5.78903654 C1.76495017,5.78903654 1.76495017,5.78903654 1.76495017,5.78903654 C1.87790698,5.78903654 1.97674419,5.69725914 1.97674419,5.57724252 Z M1.92732558,14.6208472 L1.96968439,6.23380399 C1.96968439,6.11378738 1.87790698,6.02200997 1.75789037,6.02200997 C1.75789037,6.02200997 1.75789037,6.02200997 1.75789037,6.02200997 C1.63787375,6.02200997 1.54609635,6.11378738 1.54609635,6.23380399 L1.50373754,14.6208472 C1.50373754,14.7408638 1.59551495,14.8326412 1.71553156,14.8326412 C1.71553156,14.8326412 1.71553156,14.8326412 1.71553156,14.8326412 C1.82848837,14.8326412 1.92732558,14.7408638 1.92732558,14.6208472 Z M2.72508306,1.56727575 L2.72508306,1.51079734 C2.72508306,1.39078073 2.63330565,1.29900332 2.51328904,1.29900332 C2.51328904,1.29900332 2.51328904,1.29900332 2.51328904,1.29900332 C2.39327243,1.29900332 2.30149502,1.39784053 2.30149502,1.51079734 L2.30149502,1.56727575 C2.30149502,1.68729236 2.39327243,1.77906977 2.51328904,1.77906977 C2.51328904,1.77906977 2.51328904,1.77906977 2.51328904,1.77906977 C2.62624585,1.77906977 2.72508306,1.68023256 2.72508306,1.56727575 Z M2.71802326,3.32516611 L2.72508306,2.18147841 C2.72508306,2.06146179 2.63330565,1.96968439 2.51328904,1.96968439 C2.51328904,1.96968439 2.51328904,1.96968439 2.51328904,1.96968439 C2.39327243,1.96968439 2.30149502,2.06146179 2.30149502,2.18147841 L2.29443522,3.32516611 C2.29443522,3.44518272 2.38621262,3.53696013 2.50622924,3.53696013 C2.50622924,3.53696013 2.50622924,3.53696013 2.50622924,3.53696013 C2.61918605,3.54401993 2.71802326,3.44518272 2.71802326,3.32516611 Z M2.71096346,6.23380399 L2.71802326,4.00290698 C2.71802326,3.88289037 2.62624585,3.79111296 2.50622924,3.79111296 C2.50622924,3.79111296 2.50622924,3.79111296 2.50622924,3.79111296 C2.38621262,3.79111296 2.29443522,3.88289037 2.29443522,4.00290698 L2.28737542,6.23380399 C2.28737542,6.3538206 2.37915282,6.44559801 2.49916944,6.44559801 C2.49916944,6.44559801 2.49916944,6.44559801 2.49916944,6.44559801 C2.61212625,6.44559801 2.71096346,6.3538206 2.71096346,6.23380399 Z M2.67566445,15.051495 L2.70390365,6.98214286 C2.70390365,6.86212625 2.61212625,6.77034884 2.49210963,6.77034884 C2.49210963,6.77034884 2.49210963,6.77034884 2.49210963,6.77034884 C2.37209302,6.77034884 2.28031561,6.86212625 2.28031561,6.98214286 L2.24501661,15.051495 C2.24501661,15.1715116 2.33679402,15.263289 2.45681063,15.263289 C2.45681063,15.263289 2.45681063,15.263289 2.45681063,15.263289 C2.57682724,15.263289 2.67566445,15.1715116 2.67566445,15.051495 Z M3.45930233,8.40116279 L3.47342193,4.67358804 C3.47342193,4.55357143 3.38164452,4.46179402 3.26162791,4.46179402 C3.26162791,4.46179402 3.26162791,4.46179402 3.26162791,4.46179402 C3.1416113,4.46179402 3.04983389,4.55357143 3.04983389,4.67358804 L3.03571429,8.40116279 C3.03571429,8.5211794 3.12749169,8.61295681 3.24750831,8.61295681 C3.24750831,8.61295681 3.24750831,8.61295681 3.24750831,8.61295681 C3.36046512,8.61295681 3.45930233,8.5211794 3.45930233,8.40116279 Z M3.42400332,15.4892027 L3.43106312,13.1877076 C3.43106312,13.067691 3.33928571,12.9759136 3.2192691,12.9759136 C3.2192691,12.9759136 3.2192691,12.9759136 3.2192691,12.9759136 C3.09925249,12.9759136 3.00747508,13.067691 3.00747508,13.1877076 L3.00041528,15.4892027 C3.00041528,15.6092193 3.09219269,15.7009967 3.2122093,15.7009967 C3.2122093,15.7009967 3.2122093,15.7009967 3.2122093,15.7009967 C3.33222591,15.7009967 3.42400332,15.6021595 3.42400332,15.4892027 Z M4.2217608,3.96760797 L4.2217608,3.91112957 C4.2217608,3.79111296 4.12998339,3.69933555 4.00996678,3.69933555 C4.00996678,3.69933555 4.00996678,3.69933555 4.00996678,3.69933555 C3.88995017,3.69933555 3.79817276,3.79111296 3.79817276,3.91112957 L3.79817276,3.96760797 C3.79817276,4.08762458 3.88995017,4.17940199 4.00996678,4.17940199 C4.00996678,4.17940199 4.00996678,4.17940199 4.00996678,4.17940199 C4.12998339,4.17940199 4.2217608,4.08056478 4.2217608,3.96760797 Z M4.2217608,5.15365449 L4.2217608,4.67358804 C4.2217608,4.55357143 4.12998339,4.46179402 4.00996678,4.46179402 C4.00996678,4.46179402 4.00996678,4.46179402 4.00996678,4.46179402 C3.88995017,4.46179402 3.79817276,4.55357143 3.79817276,4.67358804 L3.79817276,5.15365449 C3.79817276,5.2736711 3.88995017,5.3654485 4.00996678,5.3654485 C4.00996678,5.3654485 4.00996678,5.3654485 4.00996678,5.3654485 C4.12292359,5.3654485 4.2217608,5.2736711 4.2217608,5.15365449 Z M4.2076412,8.40116279 L4.214701,5.77491694 C4.214701,5.65490033 4.12292359,5.56312292 4.00290698,5.56312292 C3.88995017,5.56312292 3.79111296,5.65490033 3.79111296,5.77491694 L3.78405316,8.40116279 C3.78405316,8.5211794 3.87583056,8.61295681 3.99584718,8.61295681 C3.99584718,8.61295681 3.99584718,8.61295681 3.99584718,8.61295681 C4.10880399,8.61295681 4.2076412,8.5211794 4.2076412,8.40116279 Z M4.17940199,15.9339701 L4.19352159,13.1806478 C4.19352159,13.0606312 4.10174419,12.9688538 3.98172757,12.9688538 C3.86877076,12.9688538 3.76993355,13.0606312 3.76993355,13.1806478 L3.75581395,15.9339701 C3.75581395,16.0539867 3.84759136,16.1457641 3.96760797,16.1457641 C3.96760797,16.1457641 3.96760797,16.1457641 3.96760797,16.1457641 C4.08056478,16.1457641 4.17940199,16.0539867 4.17940199,15.9339701 Z M4.94892027,9.90490033 L4.97009967,4.00996678 C4.97009967,3.88995017 4.87832226,3.79817276 4.75830565,3.79817276 C4.75830565,3.79817276 4.75830565,3.79817276 4.75830565,3.79817276 C4.63828904,3.79817276 4.54651163,3.88995017 4.54651163,4.00996678 L4.52533223,9.90490033 C4.52533223,10.0249169 4.61710963,10.1166944 4.73712625,10.1166944 C4.73712625,10.1166944 4.73712625,10.1166944 4.73712625,10.1166944 C4.85714286,10.1166944 4.94892027,10.0178571 4.94892027,9.90490033 Z M4.92774086,16.3504983 L4.94892027,11.8039867 C4.94892027,11.6839701 4.85714286,11.5921927 4.73712625,11.5921927 C4.73712625,11.5921927 4.73712625,11.5921927 4.73712625,11.5921927 C4.61710963,11.5921927 4.52533223,11.6839701 4.52533223,11.8039867 L4.50415282,16.3504983 C4.50415282,16.470515 4.59593023,16.5622924 4.71594684,16.5622924 C4.71594684,16.5622924 4.71594684,16.5622924 4.71594684,16.5622924 C4.82890365,16.5693522 4.92774086,16.470515 4.92774086,16.3504983 Z M5.72549834,0.275332226 L5.72549834,0.21179402 C5.72549834,0.0917774086 5.63372093,0 5.51370432,0 C5.51370432,0 5.51370432,0 5.51370432,0 C5.39368771,0 5.3019103,0.0988372093 5.3019103,0.21179402 L5.3019103,0.275332226 C5.3019103,0.395348837 5.39368771,0.487126246 5.51370432,0.487126246 C5.51370432,0.487126246 5.51370432,0.487126246 5.51370432,0.487126246 C5.62666113,0.487126246 5.72549834,0.395348837 5.72549834,0.275332226 Z M5.71843854,2.43563123 L5.72549834,1.0872093 C5.72549834,0.967192691 5.63372093,0.875415282 5.51370432,0.875415282 C5.51370432,0.875415282 5.51370432,0.875415282 5.51370432,0.875415282 C5.39368771,0.875415282 5.3019103,0.974252492 5.3019103,1.0872093 L5.2948505,2.43563123 C5.2948505,2.55564784 5.38662791,2.64742525 5.50664452,2.64742525 C5.50664452,2.64742525 5.50664452,2.64742525 5.50664452,2.64742525 C5.61960133,2.65448505 5.71843854,2.55564784 5.71843854,2.43563123 Z M5.69725914,9.90490033 L5.71843854,3.2333887 C5.71843854,3.11337209 5.62666113,3.02159468 5.50664452,3.02159468 C5.50664452,3.02159468 5.50664452,3.02159468 5.50664452,3.02159468 C5.38662791,3.02159468 5.2948505,3.12043189 5.2948505,3.2333887 L5.2736711,9.90490033 C5.2736711,10.0249169 5.3654485,10.1166944 5.48546512,10.1166944 C5.48546512,10.1166944 5.48546512,10.1166944 5.48546512,10.1166944 C5.59842193,10.1166944 5.69725914,10.0178571 5.69725914,9.90490033 Z M5.67607973,16.788206 L5.69019934,11.8110465 C5.69019934,11.6910299 5.59842193,11.5992525 5.47840532,11.5992525 C5.47840532,11.5992525 5.47840532,11.5992525 5.47840532,11.5992525 C5.3583887,11.5992525 5.2666113,11.6980897 5.2666113,11.8110465 L5.25249169,16.788206 C5.25249169,16.9082226 5.3442691,17 5.46428571,17 C5.46428571,17 5.46428571,17 5.46428571,17 C5.57724252,17 5.67607973,16.9011628 5.67607973,16.788206 Z M6.45265781,9.90490033 L6.47383721,4.39119601 C6.47383721,4.2711794 6.3820598,4.17940199 6.26204319,4.17940199 C6.26204319,4.17940199 6.26204319,4.17940199 6.26204319,4.17940199 C6.14202658,4.17940199 6.05024917,4.2711794 6.05024917,4.39119601 L6.02906977,9.90490033 C6.02906977,10.0249169 6.12084718,10.1166944 6.24086379,10.1166944 C6.24086379,10.1166944 6.24086379,10.1166944 6.24086379,10.1166944 C6.3538206,10.1166944 6.45265781,10.0178571 6.45265781,9.90490033 Z M6.4244186,16.3504983 L6.44559801,11.8039867 C6.44559801,11.6839701 6.3538206,11.5921927 6.23380399,11.5921927 C6.23380399,11.5921927 6.23380399,11.5921927 6.23380399,11.5921927 C6.11378738,11.5921927 6.02200997,11.6839701 6.02200997,11.8039867 L6.00083056,16.3504983 C6.00083056,16.470515 6.09260797,16.5622924 6.21262458,16.5622924 C6.21262458,16.5622924 6.21262458,16.5622924 6.21262458,16.5622924 C6.3326412,16.5693522 6.4244186,16.470515 6.4244186,16.3504983 Z M7.20805648,8.40116279 L7.22217608,5.03363787 C7.22217608,4.91362126 7.13039867,4.82184385 7.01038206,4.82184385 C7.01038206,4.82184385 7.01038206,4.82184385 7.01038206,4.82184385 C6.89036545,4.82184385 6.79858804,4.91362126 6.79858804,5.03363787 L6.78446844,8.40116279 C6.78446844,8.5211794 6.87624585,8.61295681 6.99626246,8.61295681 C6.99626246,8.61295681 6.99626246,8.61295681 6.99626246,8.61295681 C7.11627907,8.61295681 7.20805648,8.5211794 7.20805648,8.40116279 Z M7.17981728,15.9198505 L7.19393688,13.1806478 C7.19393688,13.0606312 7.10215947,12.9688538 6.98214286,12.9688538 C6.98214286,12.9688538 6.98214286,12.9688538 6.98214286,12.9688538 C6.86212625,12.9688538 6.77034884,13.0606312 6.77034884,13.1806478 L6.75622924,15.9198505 C6.75622924,16.0398671 6.84800664,16.1316445 6.96802326,16.1316445 C6.96802326,16.1316445 6.96802326,16.1316445 6.96802326,16.1316445 C7.08098007,16.1316445 7.17981728,16.0398671 7.17981728,15.9198505 Z M7.92815615,3.36752492 L7.92815615,3.26162791 C7.92815615,3.1416113 7.82931894,3.04983389 7.71636213,3.04983389 C7.59634551,3.04983389 7.50456811,3.1486711 7.50456811,3.26162791 L7.50456811,3.36752492 C7.50456811,3.48754153 7.60340532,3.57931894 7.71636213,3.57931894 C7.82931894,3.57931894 7.92815615,3.48048173 7.92815615,3.36752492 Z M7.92815615,5.50664452 L7.92815615,4.15116279 C7.92815615,4.03114618 7.82931894,3.93936877 7.71636213,3.93936877 C7.59634551,3.93936877 7.50456811,4.03820598 7.50456811,4.15116279 L7.50456811,5.50664452 C7.50456811,5.62666113 7.60340532,5.71843854 7.71636213,5.71843854 C7.82931894,5.71843854 7.92815615,5.62666113 7.92815615,5.50664452 Z M7.92815615,8.40116279 L7.92815615,6.27616279 C7.92815615,6.15614618 7.82931894,6.06436877 7.71636213,6.06436877 C7.59634551,6.06436877 7.50456811,6.16320598 7.50456811,6.27616279 L7.50456811,8.40116279 C7.50456811,8.5211794 7.60340532,8.61295681 7.71636213,8.61295681 C7.82931894,8.61295681 7.92815615,8.5211794 7.92815615,8.40116279 Z M7.92815615,15.4892027 L7.92815615,13.1877076 C7.92815615,13.067691 7.82931894,12.9759136 7.71636213,12.9759136 C7.59634551,12.9759136 7.50456811,13.0747508 7.50456811,13.1877076 L7.50456811,15.4892027 C7.50456811,15.6092193 7.60340532,15.7009967 7.71636213,15.7009967 C7.82931894,15.7009967 7.92815615,15.6021595 7.92815615,15.4892027 Z M8.67649502,15.157392 L8.72591362,2.56976744 C8.72591362,2.44975083 8.63413621,2.35797342 8.5141196,2.35797342 C8.5141196,2.35797342 8.5141196,2.35797342 8.5141196,2.35797342 C8.39410299,2.35797342 8.30232558,2.44975083 8.30232558,2.56976744 L8.25290698,15.157392 C8.25290698,15.2774086 8.34468439,15.369186 8.464701,15.369186 C8.464701,15.369186 8.464701,15.369186 8.464701,15.369186 C8.57765781,15.369186 8.67649502,15.2774086 8.67649502,15.157392 Z M9.47425249,4.2288206 L9.47425249,4.15822259 C9.47425249,4.03820598 9.38247508,3.94642857 9.26245847,3.94642857 C9.26245847,3.94642857 9.26245847,3.94642857 9.26245847,3.94642857 C9.14244186,3.94642857 9.05066445,4.03820598 9.05066445,4.15822259 L9.05066445,4.2288206 C9.05066445,4.34883721 9.14244186,4.44061462 9.26245847,4.44061462 C9.26245847,4.44061462 9.26245847,4.44061462 9.26245847,4.44061462 C9.38247508,4.44061462 9.47425249,4.34177741 9.47425249,4.2288206 Z M9.46719269,5.59842193 L9.46719269,4.94186047 C9.46719269,4.82184385 9.37541528,4.73006645 9.25539867,4.73006645 C9.25539867,4.73006645 9.25539867,4.73006645 9.25539867,4.73006645 C9.13538206,4.73006645 9.04360465,4.82184385 9.04360465,4.94186047 L9.04360465,5.59842193 C9.04360465,5.71843854 9.13538206,5.81021595 9.25539867,5.81021595 C9.25539867,5.81021595 9.25539867,5.81021595 9.25539867,5.81021595 C9.37541528,5.81021595 9.46719269,5.71137874 9.46719269,5.59842193 Z M9.42483389,14.6208472 L9.46013289,6.27616279 C9.46013289,6.15614618 9.36835548,6.06436877 9.24833887,6.06436877 C9.24833887,6.06436877 9.24833887,6.06436877 9.24833887,6.06436877 C9.12832226,6.06436877 9.03654485,6.15614618 9.03654485,6.27616279 L9.00124585,14.6208472 C9.00124585,14.7408638 9.09302326,14.8326412 9.21303987,14.8326412 C9.21303987,14.8326412 9.21303987,14.8326412 9.21303987,14.8326412 C9.33305648,14.8326412 9.42483389,14.7408638 9.42483389,14.6208472 Z M10.1802326,14.1831395 L10.1802326,5.53488372 C10.1802326,5.41486711 10.0813953,5.3230897 9.96843854,5.3230897 C9.85548173,5.3230897 9.75664452,5.42192691 9.75664452,5.53488372 L9.75664452,14.1760797 C9.75664452,14.2960963 9.85548173,14.3878738 9.96843854,14.3878738 C10.0813953,14.3878738 10.1802326,14.2960963 10.1802326,14.1831395 Z M10.9285714,5.44310631 L10.9285714,5.37250831 C10.9285714,5.25249169 10.8297342,5.16071429 10.7167774,5.16071429 C10.6038206,5.16071429 10.5049834,5.2595515 10.5049834,5.37250831 L10.5049834,5.44310631 C10.5049834,5.56312292 10.6038206,5.65490033 10.7167774,5.65490033 C10.8297342,5.65490033 10.9285714,5.56312292 10.9285714,5.44310631 Z M10.9285714,6.65033223 L10.9285714,6.21968439 C10.9285714,6.09966777 10.8297342,6.00789037 10.7167774,6.00789037 C10.6038206,6.00789037 10.5049834,6.10672757 10.5049834,6.21968439 L10.5049834,6.65033223 C10.5049834,6.77034884 10.6038206,6.86212625 10.7167774,6.86212625 C10.8297342,6.86212625 10.9285714,6.77034884 10.9285714,6.65033223 Z M10.9285714,13.7454319 L10.9285714,7.4904485 C10.9285714,7.37043189 10.8297342,7.27865449 10.7167774,7.27865449 C10.6038206,7.27865449 10.5049834,7.37749169 10.5049834,7.4904485 L10.5049834,13.7454319 C10.5049834,13.8654485 10.6038206,13.9572259 10.7167774,13.9572259 C10.8297342,13.9572259 10.9285714,13.8654485 10.9285714,13.7454319 Z"/>
    </g>
</svg>