<svg id="Layer_1" data-name="Layer 1" xmlns="http://www.w3.org/2000/svg" viewBox="0 0 125 63.78026">
  <title>malta</title>
  <path d="M4.917,284h125v12h-125V284Z" transform="translate(-4.91699 -232.21974)" style="fill: #00a99d"/>
  <path d="M86.54,286.865H85.28v6.75h3.6v-0.99H86.54v-5.76Zm3.923,0h1.26v6.75h-1.26v-6.75Zm5.887,4.555c0,0.167-.006.322-0.02,0.463a2.07529,2.07529,0,0,1-.08.414,0.823,0.823,0,0,1-.19.333,0.44979,0.44979,0,0,1-.34.13,0.78328,0.78328,0,0,1-.49-0.14,0.82983,0.82983,0,0,1-.276-0.36,1.65783,1.65783,0,0,1-.115-0.453,4.07555,4.07555,0,0,1-.028-0.514v-1.872c0-.25.008-0.47,0.027-0.66a2.04585,2.04585,0,0,1,.114-0.522,0.83827,0.83827,0,0,1,.275-0.378,0.78985,0.78985,0,0,1,.49-0.14,0.48816,0.48816,0,0,1,.306.09,0.547,0.547,0,0,1,.176.244,1.61149,1.61149,0,0,1,.084.3,3.40794,3.40794,0,0,1,.045.393c0.01,0.108.015,0.18,0.02,0.216h1.243c0-.168-0.01-0.34-0.027-0.513a1.685,1.685,0,0,0-1.846-1.746,2.68241,2.68241,0,0,0-1.17.216,1.438,1.438,0,0,0-.652.607,2.67625,2.67625,0,0,0-.283.892,11.675,11.675,0,0,0-.1,1.28v0.964a11.303,11.303,0,0,0,.063,1.328,2.665,2.665,0,0,0,.28.93,1.469,1.469,0,0,0,.665.63,2.69526,2.69526,0,0,0,1.197.227,2.06362,2.06362,0,0,0,.865-0.163,1.45935,1.45935,0,0,0,.566-0.454,1.98624,1.98624,0,0,0,.32-0.68,4.27645,4.27645,0,0,0,.13-0.882c0-.023.006-0.09,0.018-0.197,0.006-.108.01-0.17,0.01-0.19h-1.27c0,0.04-.003.11-0.008,0.206Zm2.923,2.195h3.547v-0.99h-2.287v-2.08h2.108v-0.988h-2.107v-1.702h2.287v-0.99H99.274Zm8.227-5.427q0,0.765.063,1.898c0.03,0.553.072,1.19,0.127,1.917h-0.02c-0.148-.54-0.295-1.02-0.436-1.444s-0.297-.836-0.463-1.238l-0.98-2.457h-1.306v6.75h1.26v-1.27c0-.24-0.004-0.517-0.014-0.832q-0.012-.471-0.05-1.058-0.0255-.45-0.058-0.887l-0.076-1.04h0.018q0.234,0.82951.445,1.464,0.21,0.63451.454,1.22l0.98,2.402h1.314v-6.75h-1.26v1.324Zm6.553,2.232a3.06018,3.06018,0,0,0-.328-0.278c-0.137-.103-0.27-0.2-0.4-0.293-0.133-.094-0.262-0.183-0.39-0.267-0.124-.084-0.263-0.174-0.413-0.27l-0.018-.01a2.77877,2.77877,0,0,1-.535-0.427,0.76159,0.76159,0,0,1-.167-0.526,0.5826,0.5826,0,0,1,.18-0.48,0.77989,0.77989,0,0,1,.514-0.15,0.58935,0.58935,0,0,1,.594.307,2.15836,2.15836,0,0,1,.144.89h1.217v-0.07a5.36457,5.36457,0,0,0-.044-0.712,1.88414,1.88414,0,0,0-.23-0.656,1.4145,1.4145,0,0,0-.594-0.555,2.3108,2.3108,0,0,0-1.094-.22,2.12247,2.12247,0,0,0-1.484.454,1.70808,1.70808,0,0,0-.496,1.326,1.8204,1.8204,0,0,0,.324,1.035,3.184,3.184,0,0,0,.527.53,9.33582,9.33582,0,0,0,.776.55c0.313,0.205.54,0.363,0.686,0.478a1.23358,1.23358,0,0,1,.377.387,0.99724,0.99724,0,0,1,.126.504,0.69546,0.69546,0,0,1-.783.79,0.66528,0.66528,0,0,1-.607-0.286,1.58339,1.58339,0,0,1-.186-0.847v-0.396h-1.26v0.496a2.865,2.865,0,0,0,.113.84,1.65007,1.65007,0,0,0,.355.645,1.58285,1.58285,0,0,0,.64.42,2.658,2.658,0,0,0,.944.148,2.19377,2.19377,0,0,0,1.512-.504,1.82836,1.82836,0,0,0,.566-1.44,2.14494,2.14494,0,0,0-.125-0.778,1.83516,1.83516,0,0,0-.442-0.636Zm2.25,3.195h3.545v-0.99h-2.285v-2.08h2.105v-0.988h-2.105v-1.702h2.285v-0.99h-3.545v6.75Zm9.467-5.098a2.31882,2.31882,0,0,0-.287-0.887,1.593,1.593,0,0,0-.684-0.62,1.27266,1.27266,0,0,0-.325-0.113,1.65978,1.65978,0,0,0-.297-0.03h-2.63v6.75h2.33a3.34054,3.34054,0,0,0,.524-0.037,1.19937,1.19937,0,0,0,.414-0.144,1.62122,1.62122,0,0,0,.584-0.585,2.63236,2.63236,0,0,0,.31-0.832,5.9962,5.9962,0,0,0,.118-0.922c0.016-.307.023-0.685,0.023-1.135a10.071,10.071,0,0,0-.08-1.443v-0.002Zm-1.247,2.843a2.30777,2.30777,0,0,1-.148.733,0.78194,0.78194,0,0,1-.355.405,1.43792,1.43792,0,0,1-.662.126h-0.55v-4.77h0.83a0.71455,0.71455,0,0,1,.733.49,5.5466,5.5466,0,0,1,.185,1.732q0,0.831-.032,1.284h-0.001Z" transform="translate(-4.91699 -232.21974)" style="fill: #fff"/>
  <path d="M25.546,273.945l7.373-20.22L12,260.85c-2.38.812-.844-1.122-0.844-1.122l3.235-4.067a5.633,5.633,0,0,1,4.062-1.935,5.62721,5.62721,0,0,1-4.06-1.934l-3.236-4.066s-1.537-1.935.843-1.122l20.92,7.123V267.71a5.27387,5.27387,0,0,1-2,3.926l-4.21,3.125c-0.002,0-2,1.487-1.164-.815m7.373-34.202v13.982l-7.374-20.22c-0.84-2.3,1.162-.814,1.162-0.814l4.21,3.127a5.27521,5.27521,0,0,1,2,3.926" transform="translate(-4.91699 -232.21974)" style="fill: #d2282c"/>
  <path d="M37.858,265.418h7.413V249.512a7.91221,7.91221,0,0,1,4.468-1.52c2.75,0,3.044,1.962,3.044,4.22v13.206h7.412V249.512a7.76109,7.76109,0,0,1,4.418-1.52c2.75,0,3.093,1.864,3.093,4.122v13.304h7.413V250.2c0-6.48-3.978-8.59-8.248-8.59a13.46563,13.46563,0,0,0-8.15,3.287,6.94306,6.94306,0,0,0-6.33-3.288,13.061,13.061,0,0,0-7.61,2.945l-0.685-2.356H37.86v23.218H37.858v0.002Zm50.498,11.633c8.836,0,13.01-3.778,13.01-7.95,0-8.69-15.266-4.91-15.266-8.838a2.57116,2.57116,0,0,1,.194-1.03,10.36858,10.36858,0,0,0,2.65.295c5.94,0,10.114-3.387,10.114-8.737a8.52683,8.52683,0,0,0-1.67-5.156,4.92442,4.92442,0,0,1,1.375-.196,9.4461,9.4461,0,0,1,1.963.246l1.374-5.105c-0.393-.048-1.18-0.1-1.67-0.1-3.338,0-4.858.834-6.184,2.063a0.4232,0.4232,0,0,1-.59.148,9.86421,9.86421,0,0,0-4.86-1.08c-7.167,0-10.062,4.663-10.062,8.737a8.013,8.013,0,0,0,4.074,7.315c-1.865,1.03-3.094,2.65-3.094,4.27a3.2,3.2,0,0,0,1.52,2.85,5.83182,5.83182,0,0,0-4.12,5.35c0.002,3.876,3.928,6.92,11.242,6.92m1.08-5.007c-3.682,0-5.794-1.325-5.794-3.24a2.9065,2.9065,0,0,1,.98-2.16c2.357,1.228,9.77.54,9.77,3.29,0.002,1.422-2.354,2.11-4.957,2.11m-0.54-17.918a3.2826,3.2826,0,0,1-3.29-3.533c0-2.454,1.425-3.585,3.193-3.585a3.40993,3.40993,0,0,1,3.387,3.633,3.14823,3.14823,0,0,1-3.29,3.484m29.185,11.29h6.085a17.377,17.377,0,0,1-.393-4.564V250.446c0-5.646-2.945-8.836-10.11-8.836a21.03215,21.03215,0,0,0-9.574,2.258l2.308,4.664a13.34421,13.34421,0,0,1,5.89-1.424c2.503,0,4.074.884,4.074,3.044v0.247l-3.682.145a14.51581,14.51581,0,0,0-6.136,1.424,6.63464,6.63464,0,0,0-3.877,6.33c0,4.47,3.337,7.61,7.902,7.61a9.38576,9.38576,0,0,0,6.48-2.456l1.033,1.964v0.001Zm-1.72-10.358v4.32a6.66445,6.66445,0,0,1-3.386.833c-1.767,0-2.895-.784-2.895-2.404a2.14381,2.14381,0,0,1,1.03-2.014,5.81051,5.81051,0,0,1,2.747-.64l2.504-.097v0.002Z" transform="translate(-4.91699 -232.21974)" style="fill: #858488"/>
</svg>
