<?xml version="1.0" encoding="utf-8"?>
<!-- Generator: Adobe Illustrator 18.0.0, SVG Export Plug-In . SVG Version: 6.00 Build 0)  -->
<!DOCTYPE svg PUBLIC "-//W3C//DTD SVG 1.1//EN" "http://www.w3.org/Graphics/SVG/1.1/DTD/svg11.dtd">
<svg version="1.1" id="Layer_1" xmlns="http://www.w3.org/2000/svg" xmlns:xlink="http://www.w3.org/1999/xlink" x="0px" y="0px"
	 viewBox="0 0 300 180" enable-background="new 0 0 300 180" xml:space="preserve">
<g id="layer1">
	<g id="g10305">
		<path id="path2268" fill="#94DAFF" d="M298,90.5c0,48.9-39.6,88.6-88.6,88.6c-48.9,0-88.6-39.6-88.6-88.6c0,0,0,0,0,0
			c0-48.9,39.6-88.6,88.6-88.6C258.3,1.9,298,41.5,298,90.5C298,90.5,298,90.5,298,90.5z"/>
		<path id="path1350" fill="#6ACFFF" d="M90,1.9C41.4,2.2,2,41.8,2,90.5c0,48.9,39.7,88.6,88.6,88.6c23,0,43.9-8.7,59.6-23.1
			c0,0,0,0,0,0h0c3.2-2.9,6.2-6.1,9-9.5h-18.2c-2.4-2.9-4.6-6-6.6-9.1h31.3c1.9-3,3.6-6.2,5.2-9.5h-41.6c-1.4-3-2.7-6.2-3.7-9.3h49
			c3-8.8,4.6-18.3,4.6-28.1c0-6.5-0.7-12.9-2-19H123c0.7-3.1,1.5-6.3,2.5-9.3h49.1c-1.1-3.3-2.4-6.4-3.8-9.5h-41.5
			c1.5-3.2,3.2-6.3,5.1-9.3h31.3c-2.1-3.3-4.4-6.5-6.9-9.5h-17.4c2.7-3.2,5.7-6.2,8.9-9C134.5,10.6,113.5,1.9,90.6,1.9
			C90.4,1.9,90.2,1.9,90,1.9z"/>
	</g>
	<g id="g16480">
		<g id="g13802" transform="translate(-13.74405,15.9939)">
			<path id="path13804" fill="#55B1FF" d="M133.7,99.9l1.2-8c-0.6,0-1.6,0.3-2.4,0.3c-3.3,0-3.7-1.8-3.4-3l3.2-16.1h5l1-9.1h-4.7
				l1-5.5h-9.8c-0.2,0.2-5.6,31-5.6,34.8c0,5.6,3.1,8,7.5,8C130.1,101.1,132.8,100.2,133.7,99.9z"/>
			<path id="path13806" fill="#55B1FF" d="M136.7,84.6c0,13.3,8.8,16.5,16.3,16.5c6.9,0,10.6-1.6,10.6-1.6l1.7-9.1
				c0,0-5.8,2.4-10.6,2.4c-10.1,0-8.4-7.6-8.4-7.6l19.5,0.1c0,0,1.2-6.1,1.2-8.6c0-6.2-3.4-13.8-13.7-13.8
				C143.7,62.9,136.7,73.1,136.7,84.6z M153.3,71.3c5.3,0,4.3,6,4.3,6.5h-10.5C147.1,77.2,148.1,71.3,153.3,71.3z"/>
			<path id="path13808" fill="#55B1FF" d="M213,99.9l1.7-10.3c0,0-4.6,2.3-7.8,2.3c-6.7,0-9.4-5.1-9.4-10.6
				c0-11.1,5.8-17.3,12.2-17.3c4.8,0,8.7,2.7,8.7,2.7l1.5-10c0,0-4.6-3.3-9.5-3.3c-14.7-0.1-23.2,10.2-23.2,28
				c0,11.8,6.2,19.8,17.5,19.8C207.9,101.2,213,99.9,213,99.9z"/>
			<path id="path13810" fill="#55B1FF" d="M81.8,63c-6.5,0-11.4,2.1-11.4,2.1L69,73.2c0,0,4.1-1.7,10.3-1.7c3.5,0,6.1,0.4,6.1,3.3
				c0,1.7-0.3,2.4-0.3,2.4s-2.8-0.2-4.1-0.2c-9.2,0-16.7,3.5-16.7,14c0,8.3,5.6,10.2,9.1,10.2c6.7,0,9.3-4.2,9.4-4.2l-0.1,3.5
				c0,0,8.3,0,8.3,0l3.7-26C94.8,63.4,85.2,63,81.8,63z M83.3,84.1c0.2,1.6-0.4,9.1-6.1,9.1c-2.9,0-3.7-2.2-3.7-3.6
				c0-2.6,1.4-5.7,8.3-5.7C83.4,83.9,83,84.1,83.3,84.1z"/>
			<path id="path13812" fill="#55B1FF" d="M103.6,100.9c2.1,0,14.3,0.5,14.3-12c0-11.7-11.2-9.4-11.2-14.1c0-2.3,1.8-3.1,5.2-3.1
				c1.3,0,6.4,0.4,6.4,0.4l1.2-8.3c0,0-3.3-0.7-8.7-0.7c-7,0-14.1,2.8-14.1,12.3c0,10.8,11.8,9.7,11.8,14.3c0,3-3.3,3.3-5.8,3.3
				c-4.4,0-8.4-1.5-8.4-1.4L93,99.7C93.3,99.8,95.7,100.9,103.6,100.9z"/>
			<path id="path13814" fill="#55B1FF" d="M290.8,55.5l-1.7,12.7c0,0-3.6-4.9-9.1-4.9c-10.5,0-15.8,10.4-15.8,22.4
				c0,7.7,3.8,15.3,11.7,15.3c5.7,0,8.8-3.9,8.8-3.9l-0.4,3.4h9.2l7.2-44.9L290.8,55.5z M286.8,80.2c0,5-2.5,11.6-7.6,11.6
				c-3.4,0-5-2.9-5-7.3c0-7.3,3.3-12.1,7.4-12.1C285,72.3,286.8,74.7,286.8,80.2z"/>
			<path id="path13816" fill="#55B1FF" d="M30.7,100.4l5.7-33.9l0.8,33.9h6.5L56,66.6l-5.4,33.9h9.7l7.4-44.9l-15.3-0.1l-9.1,27.5
				L43,55.5H28.9l-7.5,44.9L30.7,100.4L30.7,100.4z"/>
			<path id="path13818" fill="#55B1FF" d="M176.1,100.5c2.7-15.6,3.7-27.9,11.7-25.4c1.1-6,3.9-11.3,5.1-13.9c0,0-0.4-0.6-2.9-0.6
				c-4.2,0-9.9,8.6-9.9,8.6l0.8-5.3h-8.8l-5.9,36.6L176.1,100.5L176.1,100.5z"/>
			<g id="use14699" transform="translate(845.3001,0)">
				<path id="path13810_1_" fill="#55B1FF" d="M-612.5,63c-6.5,0-11.4,2.1-11.4,2.1l-1.4,8.1c0,0,4.1-1.7,10.3-1.7
					c3.5,0,6.1,0.4,6.1,3.3c0,1.7-0.3,2.4-0.3,2.4s-2.8-0.2-4.1-0.2c-9.2,0-16.7,3.5-16.7,14c0,8.3,5.6,10.2,9.1,10.2
					c6.7,0,9.3-4.2,9.4-4.2l-0.1,3.5h8.3l3.7-26C-599.6,63.4-609.2,63-612.5,63z M-611.1,84.1c0.2,1.6-0.4,9.1-6.1,9.1
					c-2.9,0-3.7-2.2-3.7-3.6c0-2.6,1.4-5.7,8.3-5.7C-611,83.9-611.4,84.1-611.1,84.1z"/>
			</g>
			<path id="use14701" fill="#55B1FF" d="M255.3,100.5c1.5-11.5,4.3-27.6,11.7-25.4c1.1-6,0-6-2.4-6c-4.2,0-5.2,0.2-5.2,0.2l0.8-5.3
				h-8.8l-5.9,36.6L255.3,100.5L255.3,100.5z"/>
		</g>
		<g id="g10289">
			<path id="path4157" fill="#FFFFFF" d="M122.4,113.1l1.2-8c-0.6,0-1.6,0.3-2.4,0.3c-3.3,0-3.6-1.7-3.4-3l2.7-16.4h5l1.2-8.9h-4.7
				l1-5.5h-9.4c-0.2,0.2-5.6,31-5.6,34.8c0,5.6,3.1,8,7.5,8C118.8,114.3,121.5,113.3,122.4,113.1z"/>
			<path id="path4155" fill="#FFFFFF" d="M125.4,97.8c0,13.3,8.8,16.5,16.3,16.5c6.9,0,10-1.5,10-1.5l1.7-9.1c0,0-5.3,2.3-10,2.3
				c-10.1,0-8.4-7.6-8.4-7.6h19.2c0,0,1.2-6.1,1.2-8.6c0-6.2-3.1-13.8-13.5-13.8C132.4,76,125.4,86.2,125.4,97.8z M142,84.4
				c5.3,0,4.3,6,4.3,6.5h-10.5C135.8,90.3,136.8,84.4,142,84.4z"/>
			<path id="path4151" fill="#FFFFFF" d="M201.7,113.1l1.7-10.3c0,0-4.6,2.3-7.8,2.3c-6.7,0-9.4-5.1-9.4-10.6
				c0-11.1,5.8-17.3,12.2-17.3c4.8,0,8.7,2.7,8.7,2.7l1.5-10c0,0-5.7-2.3-10.6-2.3c-10.9,0-21.5,9.4-21.5,27.2
				c0,11.8,5.7,19.5,17,19.5C196.6,114.3,201.7,113.1,201.7,113.1z"/>
			<path id="path4149" fill="#FFFFFF" d="M70.5,76.1c-6.5,0-11.4,2.1-11.4,2.1l-1.4,8.1c0,0,4.1-1.7,10.3-1.7c3.5,0,6.1,0.4,6.1,3.3
				c0,1.7-0.3,2.4-0.3,2.4s-2.8-0.2-4.1-0.2c-8.2,0-16.7,3.5-16.7,14c0,8.3,5.6,10.2,9.1,10.2c6.7,0,9.5-4.3,9.7-4.3l-0.3,3.6h8.3
				l3.7-26C83.5,76.5,73.9,76.1,70.5,76.1z M72.6,97.3c0.2,1.6-1,9-6.7,9c-2.9,0-3.7-2.2-3.7-3.6c0-2.6,1.4-5.7,8.3-5.7
				C72.1,97.1,72.3,97.3,72.6,97.3z"/>
			<path id="path4145" fill="#FFFFFF" d="M92.3,114c2.1,0,14.3,0.5,14.3-12c0-11.7-11.2-9.4-11.2-14.1c0-2.3,1.8-3.1,5.2-3.1
				c1.3,0,6.4,0.4,6.4,0.4l1.2-8.3c0,0-3.3-0.7-8.7-0.7c-7,0-14.1,2.8-14.1,12.3c0,10.8,11.8,9.7,11.8,14.3c0,3-3.3,3.3-5.8,3.3
				c-4.4,0-8.4-1.5-8.4-1.4l-1.3,8.2C82,112.9,84.4,114,92.3,114z"/>
			<path id="path4139" fill="#FFFFFF" d="M279.9,68.7l-2,12.6c0,0-3.6-4.9-9.1-4.9c-8.6,0-15.8,10.4-15.8,22.4
				c0,7.7,3.8,15.3,11.7,15.3c5.7,0,8.8-3.9,8.8-3.9l-0.4,3.4h9.2l7.2-44.9L279.9,68.7z M275.5,93.3c0,5-2.5,11.6-7.6,11.6
				c-3.4,0-5-2.8-5-7.3c0-7.3,3.3-12.1,7.4-12.1C273.7,85.5,275.5,87.8,275.5,93.3z"/>
			<path id="path4133" fill="#FFFFFF" d="M19.5,113.6l5.7-33.9l0.8,33.9h6.5l12.1-33.9l-5.4,33.9H49l7.4-44.9H41.5l-9.3,27.6
				l-0.5-27.6H17.9l-7.5,44.9C10.4,113.6,19.5,113.6,19.5,113.6z"/>
			<path id="path4131" fill="#FFFFFF" d="M164.8,113.6c2.7-15.6,3.3-28.3,9.8-26c1.1-6,2.3-8.4,3.5-10.9c0,0-0.6-0.1-1.8-0.1
				c-4.2,0-7.4,5.8-7.4,5.8l0.8-5.3H161l-5.9,36.6H164.8z"/>
			<g id="use8523" transform="translate(847.0062,0)">
				<path id="path4149_1_" fill="#FFFFFF" d="M-623.5,76.1c-6.5,0-11.4,2.1-11.4,2.1l-1.4,8.1c0,0,4.1-1.7,10.3-1.7
					c3.5,0,6.1,0.4,6.1,3.3c0,1.7-0.3,2.4-0.3,2.4s-2.8-0.2-4.1-0.2c-8.2,0-16.7,3.5-16.7,14c0,8.3,5.6,10.2,9.1,10.2
					c6.7,0,9.5-4.3,9.7-4.3l-0.3,3.6c0,0,8.3,0,8.3,0l3.7-26C-610.6,76.5-620.2,76.1-623.5,76.1z M-621.5,97.3c0.2,1.6-1,9-6.7,9
					c-2.9,0-3.7-2.2-3.7-3.6c0-2.6,1.4-5.7,8.3-5.7C-622,97.1-621.8,97.3-621.5,97.3z"/>
			</g>
			<g id="use8525" transform="translate(442.2857,0)">
				<path id="path4131_1_" fill="#FFFFFF" d="M-198.3,113.6c2.7-15.6,3.3-28.3,9.8-26c1.1-6,2.3-8.4,3.5-10.9c0,0-0.6-0.1-1.8-0.1
					c-4.2,0-7.4,5.8-7.4,5.8l0.8-5.3h-8.8l-5.9,36.6H-198.3z"/>
			</g>
			<path id="text9407" fill="#FFFFFF" d="M289.1,108c0.5,0,1,0.1,1.4,0.4c0.5,0.2,0.8,0.6,1.1,1.1c0.3,0.5,0.4,0.9,0.4,1.4
				c0,0.5-0.1,1-0.4,1.4c-0.3,0.5-0.6,0.8-1.1,1.1c-0.5,0.3-0.9,0.4-1.4,0.4c-0.5,0-1-0.1-1.4-0.4c-0.5-0.3-0.8-0.6-1.1-1.1
				c-0.3-0.5-0.4-0.9-0.4-1.4c0-0.5,0.1-1,0.4-1.4c0.3-0.5,0.6-0.8,1.1-1.1C288.2,108.1,288.6,108,289.1,108 M289.1,108.4
				c-0.4,0-0.8,0.1-1.2,0.3c-0.4,0.2-0.7,0.5-0.9,0.9c-0.2,0.4-0.3,0.8-0.3,1.2s0.1,0.8,0.3,1.2c0.2,0.4,0.5,0.7,0.9,0.9
				c0.4,0.2,0.8,0.3,1.2,0.3c0.4,0,0.8-0.1,1.2-0.3c0.4-0.2,0.7-0.5,0.9-0.9c0.2-0.4,0.3-0.8,0.3-1.2s-0.1-0.8-0.3-1.2
				c-0.2-0.4-0.5-0.7-0.9-0.9C289.9,108.6,289.5,108.4,289.1,108.4 M287.9,112.4v-3.1h1.1c0.4,0,0.6,0,0.8,0.1
				c0.2,0.1,0.3,0.2,0.4,0.3c0.1,0.1,0.1,0.3,0.1,0.5c0,0.2-0.1,0.4-0.2,0.6c-0.2,0.2-0.4,0.3-0.6,0.3c0.1,0,0.2,0.1,0.3,0.2
				c0.1,0.1,0.3,0.3,0.5,0.6l0.4,0.6h-0.6l-0.3-0.5c-0.2-0.4-0.4-0.6-0.5-0.7c-0.1-0.1-0.2-0.1-0.4-0.1h-0.3v1.3L287.9,112.4
				 M288.3,110.7h0.6c0.3,0,0.5,0,0.6-0.1c0.1-0.1,0.2-0.2,0.2-0.3c0-0.1,0-0.2-0.1-0.2c-0.1-0.1-0.1-0.1-0.2-0.2
				c-0.1,0-0.3-0.1-0.5-0.1h-0.6L288.3,110.7"/>
		</g>
	</g>
</g>
</svg>
