<svg viewBox="0 0 24 24" version="1.1" xmlns="http://www.w3.org/2000/svg">
            <path d="M11.978543,-5.74481361e-15 C8.20670219,-0.000229986088 4.65508522,1.77622243 2.39304016,4.79448934 C0.130995089,7.81275625 -0.577203262,11.7202134 0.481674894,15.3403736 C3.59678672,11.5219254 6.15921307,7.28421655 8.09362213,2.75182979 C8.67263234,1.37634128 9.89160511,2.75352 9.87421787,3.72306383 C9.85683064,4.69260766 9.63140936,16.3491064 9.87421787,17.1584681 C10.1170264,17.9678298 10.5217072,18.1297021 11.4120051,17.1584681 C12.302303,16.187234 15.2969413,9.63140426 16.4300477,7.76987234 C17.563154,5.90834043 18.3725157,7.76987234 18.3725157,7.76987234 L20.0721753,14.3257021 C20.0721753,14.3257021 20.0535013,16.3615532 19.0200051,14.8113191 C17.9865089,13.2610851 17.8603226,10.659166 17.077537,11.897617 C16.2947515,13.1360681 12.8857072,18.3403583 12.4359626,18.958417 C11.3310536,20.4768281 9.98836596,19.8894689 9.98836596,19.8894689 C9.98836596,19.8894689 8.66016255,19.1818519 8.57922638,17.7250009 C8.49205532,16.1559243 8.41735404,7.28423489 7.36518383,9.22670298 C7.36518383,9.22670298 3.8552834,14.2204749 1.79877191,18.2905966 C4.83716984,23.1906954 10.9353674,25.2309244 16.3107703,23.1457689 C21.6861733,21.0606134 24.8133722,15.4417902 23.752626,9.77454682 C22.6918798,4.1073034 17.7442026,-0.000133458293 11.978543,-5.74481361e-15 Z"/>
        </g>
    </g>
</svg>