<?xml version="1.0" encoding="utf-8"?>
<!-- Generator: Adobe Illustrator 20.0.0, SVG Export Plug-In . SVG Version: 6.00 Build 0)  -->
<svg version="1.1" id="Layer_2" xmlns="http://www.w3.org/2000/svg" xmlns:xlink="http://www.w3.org/1999/xlink" x="0px" y="0px"
	 viewBox="0 0 40 45" style="enable-background:new 0 0 40 45;" xml:space="preserve">
<style type="text/css">
	.st0{fill:#838589;}
</style>
<path class="st0" d="M20.2,5.3c-9.4,0-17,7.6-17,17s7.6,17,17,17s17-7.6,17-17S29.6,5.3,20.2,5.3z M32.2,28.4c0,1-0.8,1.8-1.8,1.8
	s-1.8-0.9-1.8-1.8l-0.2-7.9c-0.6-1.5-1.9-2.3-3-2.3s-2.3,0.7-2.8,2.3l-0.2,7.7c0,1.1-0.9,2-2,2s-2-1-2-2L18,20.4
	c-0.1-1.2-1.4-2.3-3-2.3c-1.9,0.1-2.8,1.7-2.8,2.3v8c0,1-0.8,1.8-1.8,1.8s-1.8-0.9-1.8-1.8v-8c0-0.6,0-1.8,0.7-2.3
	C8.5,17.8,8,17,8,16.2c-0.1-1.2,1-2.3,2.2-2.3c0.8,0,1.5,0.4,1.9,1.1c1-0.6,2.1-0.9,3.2-0.9c1.7,0,3.2,0.7,4.5,1.9
	c0.1,0.1,0.3,0.3,0.4,0.4c0-0.1,0.1-0.1,0.1-0.1c1.2-1.2,3-2,4.8-2c0.1,0,0.2,0,0.3,0c0.1,0,0.2,0,0.3,0c1.7,0.1,3.3,0.9,4.5,2
	c1.1,1,1.7,2.3,1.9,3.7c0,0.1,0,0.2,0.1,0.3c0,0.4,0,0.6,0,0.9c0,0.4,0,0.6,0,1.1C32.2,22.3,32.2,28.4,32.2,28.4z"/>
</svg>
