<?xml version="1.0" encoding="utf-8"?>
<!-- Generator: Adobe Illustrator 17.0.0, SVG Export Plug-In . SVG Version: 6.00 Build 0)  -->
<!DOCTYPE svg PUBLIC "-//W3C//DTD SVG 1.1//EN" "http://www.w3.org/Graphics/SVG/1.1/DTD/svg11.dtd">
<svg version="1.1" id="Layer_1" xmlns="http://www.w3.org/2000/svg" xmlns:xlink="http://www.w3.org/1999/xlink" x="0px" y="0px"
	 width="72px" height="76px" viewBox="0 0 72 76" enable-background="new 0 0 72 76" xml:space="preserve">
<g id="XMLID_350_">
	<path id="XMLID_353_" fill="#A6D300" d="M65.5,29.366H45.747v2H65.5c1.795,0,3.256,1.461,3.256,3.256v29.93
		c0,1.795-1.461,3.256-3.256,3.256H35.569c-1.795,0-3.256-1.461-3.256-3.256V51.078h-2v13.474c0,2.898,2.357,5.256,5.256,5.256H65.5
		c2.898,0,5.256-2.358,5.256-5.256v-29.93C70.756,31.724,68.398,29.366,65.5,29.366z"/>
	<path id="XMLID_392_" fill="#A6D300" d="M41.689,39.136V13.691c0-4.136-3.364-7.5-7.5-7.5H8.744c-4.136,0-7.5,3.364-7.5,7.5v25.445
		c0,4.136,3.364,7.5,7.5,7.5h25.445C38.325,46.636,41.689,43.272,41.689,39.136z M3.244,39.136V13.691c0-3.033,2.468-5.5,5.5-5.5
		h25.445c3.032,0,5.5,2.467,5.5,5.5v25.445c0,3.033-2.468,5.5-5.5,5.5H8.744C5.712,44.636,3.244,42.169,3.244,39.136z"/>
	<path id="XMLID_393_" fill="#A6D300" d="M21.422,23.427c-1.646,0-2.986,1.34-2.986,2.987s1.34,2.987,2.986,2.987
		c1.647,0,2.987-1.34,2.987-2.987S23.069,23.427,21.422,23.427z"/>
	<circle id="XMLID_394_" fill="#A6D300" cx="12.463" cy="17.455" r="2.987"/>
	<path id="XMLID_406_" fill="#A6D300" d="M30.471,14.378c-1.646,0-2.986,1.34-2.986,2.987s1.34,2.987,2.986,2.987
		c1.647,0,2.987-1.34,2.987-2.987S32.118,14.378,30.471,14.378z"/>
	<circle id="XMLID_424_" fill="#A6D300" cx="12.463" cy="36.439" r="2.987"/>
	<path id="XMLID_427_" fill="#A6D300" d="M30.471,33.363c-1.646,0-2.986,1.34-2.986,2.987s1.34,2.987,2.986,2.987
		c1.647,0,2.987-1.34,2.987-2.987S32.118,33.363,30.471,33.363z"/>
	<circle id="XMLID_435_" fill="#A6D300" cx="59.539" cy="40.051" r="2.987"/>
	<circle id="XMLID_463_" fill="#A6D300" cx="59.539" cy="49.588" r="2.987"/>
	<path id="XMLID_464_" fill="#A6D300" d="M38.544,49.587c0,1.647,1.34,2.987,2.986,2.987c1.647,0,2.987-1.34,2.987-2.987
		s-1.34-2.987-2.987-2.987C39.884,46.601,38.544,47.94,38.544,49.587z"/>
	<path id="XMLID_465_" fill="#A6D300" d="M41.53,56.138c-1.646,0-2.986,1.34-2.986,2.987s1.34,2.987,2.986,2.987
		c1.647,0,2.987-1.34,2.987-2.987S43.178,56.138,41.53,56.138z"/>
	<circle id="XMLID_466_" fill="#A6D300" cx="59.539" cy="59.035" r="2.987"/>
</g>
</svg>
