<?xml version="1.0" encoding="utf-8"?>
<!DOCTYPE svg PUBLIC "-//W3C//DTD SVG 1.1//EN" "http://www.w3.org/Graphics/SVG/1.1/DTD/svg11.dtd">
<svg version="1.1" id="Layer_1" xmlns="http://www.w3.org/2000/svg" xmlns:xlink="http://www.w3.org/1999/xlink" x="0px" y="0px"
	 width="90px" height="95px" viewBox="0 0 90 95" enable-background="new 0 0 90 95" xml:space="preserve">
<g id="XMLID_345_">
	<g id="XMLID_356_">
		<path id="XMLID_357_" fill="#D0D0D0" d="M36.671,30.288c0,8.884-1.49,15.596-4.471,20.135c-2.981,4.54-7.355,6.81-13.122,6.81
			c-5.455,0-9.693-2.318-12.712-6.956c-3.021-4.636-4.53-11.299-4.53-19.988c0-8.845,1.451-15.508,4.354-19.989
			c2.902-4.48,7.198-6.722,12.888-6.722c5.649,0,9.995,2.319,13.034,6.955C35.152,15.169,36.671,21.754,36.671,30.288z
			 M9.903,30.288c0,6.624,0.721,11.593,2.162,14.904s3.779,4.968,7.014,4.968c6.391,0,9.586-6.624,9.586-19.872
			c0-13.17-3.195-19.756-9.586-19.756c-3.234,0-5.572,1.637-7.014,4.91C10.624,18.714,9.903,23.664,9.903,30.288z M73.084,4.804
			l-47.401,85.45h-8.592l47.401-85.45H73.084z M88.164,64.538c0,8.846-1.49,15.538-4.471,20.076c-2.981,4.54-7.355,6.81-13.122,6.81
			c-5.533,0-9.79-2.317-12.771-6.955c-2.98-4.637-4.472-11.28-4.472-19.931c0-8.845,1.451-15.508,4.354-19.989
			c2.902-4.48,7.198-6.722,12.888-6.722c5.532,0,9.849,2.29,12.946,6.868C86.615,49.274,88.164,55.887,88.164,64.538z
			 M61.336,64.538c0,6.663,0.721,11.641,2.162,14.934s3.8,4.938,7.072,4.938c3.273,0,5.688-1.627,7.248-4.881
			c1.558-3.253,2.338-8.25,2.338-14.991c0-6.663-0.78-11.602-2.338-14.816c-1.56-3.215-3.975-4.822-7.248-4.822
			c-3.272,0-5.631,1.607-7.072,4.822S61.336,57.875,61.336,64.538z"/>
	</g>
</g>
</svg>
