
<svg viewBox="0 0 28 17" version="1.1" xmlns="http://www.w3.org/2000/svg">
		<g>
			<path d="M18.5495677,5.05603906 C17.8403932,7.35559896 17.1084193,9.64648177 16.3983151,11.9451563 C17.4382812,11.9309453 18.4791771,11.9337344 19.5191875,11.9422786 C20.2510729,9.65135156 20.9573698,7.35179167 21.6827474,5.05896094 C20.6380443,5.05130208 19.5932969,5.05603906 18.5495677,5.05603906 Z"/>
			<path d="M26.4223828,1.80952604 C25.8926823,0.975507812 25.0128438,0.401890625 24.0621719,0.164731771 C23.3476849,-0.0258098958 22.6039792,0.036921875 21.8730234,0.0282005208 C17.3351745,0.0301484375 12.7974141,0.0203645833 8.2595651,0.0282005208 C5.697125,0.16521875 3.41359115,2.01272917 2.47164063,4.35456771 C2.38119531,4.56936979 2.28163021,4.87382031 2.19286719,5.16946094 C2.04703906,5.65520052 0.223036458,11.408151 0.144190104,11.6921042 C0.0950494792,11.8690547 0.05684375,12.0379922 0.0394453125,12.1955521 C-0.052859375,13.0724245 -0.00137239583,13.9968437 0.391354167,14.8016875 C0.899760417,15.8962839 1.98563542,16.6661536 3.15991927,16.8869323 C3.68780469,17.0006198 4.2311849,16.9608646 4.76677344,16.9666641 C9.40086719,16.9608646 14.0348724,16.9880026 18.6688776,16.9666641 C21.0184193,16.8860026 23.1863177,15.3723828 24.300349,13.3357917 C24.4483464,13.1290026 24.5858073,12.835487 24.7054271,12.5262109 C24.9835807,11.8079167 26.9600521,5.13515104 26.9600521,5.13515104 C26.9600521,5.13515104 27.0756875,4.74725 27.0931745,4.44784635 C27.104862,3.53502604 26.9327813,2.5843099 26.4223828,1.80952604 Z M11.8468307,12.0983333 C11.1983073,13.8333516 9.65489323,15.1002943 8.00553906,15.2515677 C7.67735938,15.2582083 7.31978385,15.2559062 6.91253646,15.2559062 C6.5287526,15.2559062 4.99202344,15.2559062 4.60753125,15.2559062 C4.47166406,15.2559062 4.33557552,15.2507708 4.19957552,15.2515234 L4.17978646,15.251612 C3.33155729,15.251612 2.53468229,14.8241771 2.1491276,14.1617083 C1.78429167,13.5569245 1.72488021,12.7420313 1.98621094,11.9258984 C2.28610156,10.9853646 2.58740885,10.0280521 2.87879948,9.10226042 C3.1914401,8.10886719 3.51475,7.08169531 3.8369974,6.07316146 C3.87701823,5.94845052 3.91540104,5.82267708 3.95382812,5.69677083 C4.11895833,5.15582552 4.28966667,4.59646354 4.60173177,4.11577083 C5.32551563,2.98513802 6.46274479,2.15510417 7.72264844,1.83830208 C7.97844531,1.77034635 8.25558073,1.73798437 8.62125781,1.73329167 C8.70010417,1.73231771 9.29842448,1.73174219 10.3995286,1.73174219 C12.0947031,1.73174219 14.4519922,1.73298177 14.9343672,1.7332474 L13.9160938,4.98826042 L7.48535677,4.98826042 L7.47101302,5.03363802 C7.45649219,5.07954687 6.01308594,9.64754427 5.30169792,11.9133255 L5.27526823,11.9974844 L5.3635,11.9977057 C6.49758594,12.0004948 7.63078646,11.9995651 8.76496094,11.9986354 L8.8126849,11.9985911 L8.82689583,11.9530365 C9.00127865,11.3933646 9.18898698,10.8035443 9.38470833,10.1998229 L9.4119349,10.1158854 L9.32365885,10.1148672 C9.0379349,10.1116354 8.75247656,10.1122995 8.46701823,10.1130078 C8.34717708,10.1133177 8.22733594,10.1136276 8.10745052,10.1136276 C7.95135156,10.1136276 7.81791927,10.1130521 7.69502344,10.1119896 C7.85953385,9.58547656 8.02891406,9.05254427 8.19302604,8.53630208 C8.36554948,7.9934974 8.54378385,7.43271875 8.71652865,6.87889063 C9.41158073,6.88203385 10.1659115,6.88353906 11.0206927,6.88353906 C11.8494427,6.88353906 12.6783698,6.8821224 13.5071641,6.88070573 C13.2248932,7.74434115 12.948776,8.62413542 12.6814688,9.47572917 C12.4110625,10.3375052 12.1314036,11.2285 11.8468307,12.0983333 Z M25.1589375,4.9473099 C24.9732214,5.54014062 24.7872839,6.13288281 24.6013464,6.725625 C24.1104271,8.29055469 23.6027734,9.90874219 23.1068516,11.5039974 C22.5188906,13.6463516 20.4444036,15.2617943 18.2814193,15.2617057 C18.2135078,15.2617057 18.1447995,15.260112 18.0746302,15.2568802 C17.8417214,15.2554635 17.6089453,15.2550208 17.3761693,15.2550208 C17.1827943,15.2550208 16.9894193,15.2552865 16.7960443,15.2556406 C16.6028464,15.2559505 16.4096042,15.2562604 16.2164063,15.2562604 C15.8262474,15.2562604 15.5112161,15.2549766 15.2250052,15.2520547 C14.361237,15.2438646 13.5956615,14.8721224 13.176638,14.2569349 C12.7290599,13.6170885 12.6306458,12.7141849 12.9135365,11.840987 C13.1918229,10.9494609 13.4711719,10.0582448 13.7504766,9.16711719 C14.1467891,7.90269792 14.5566484,6.5952474 14.9572109,5.30563802 C15.4544167,3.427625 17.1527786,1.89054167 19.0882552,1.56758594 C19.251526,1.53779167 19.4670365,1.52791927 19.4663281,1.52791927 L22.7367917,1.52791927 C22.7370573,1.52791927 22.8794323,1.52632552 22.9511068,1.52915885 C23.7167266,1.55961719 24.395487,1.88000521 24.8138021,2.4083776 C25.3274323,3.04888802 25.4597578,4.02147396 25.1589375,4.9473099 Z"/>
		</g>
</svg>