<?xml version="1.0" encoding="utf-8"?>
<!-- Generator: Adobe Illustrator 17.1.0, SVG Export Plug-In . SVG Version: 6.00 Build 0)  -->
<!DOCTYPE svg PUBLIC "-//W3C//DTD SVG 1.1//EN" "http://www.w3.org/Graphics/SVG/1.1/DTD/svg11.dtd">
<svg version="1.1" id="Layer_1" xmlns="http://www.w3.org/2000/svg" xmlns:xlink="http://www.w3.org/1999/xlink" x="0px" y="0px"
	 viewBox="0 21 240 198" enable-background="new 0 21 240 198" xml:space="preserve">
<path id="playn-go_1_" fill="none" stroke="#1E2123" stroke-width="1.5" stroke-miterlimit="10" d="M218.4,137.5H13.2
	c-5.1,0-7.6-2.6-8.7-5.5c-0.6-1.8-0.6-3.8-0.1-5.7l3.8-13.7c1.1-3.7,4.2-9.8,12-9.8c0,0,154.7,0,206.3,0c7.1,0,10.3,4.9,9.1,10.4
	c-0.8,4-4.1,14.5-4.1,14.5C230.3,133.5,225.4,137.5,218.4,137.5z M189.2,151.9c-13.7,0-41,0-54.6,0c-8.2,0-16.1-7.6-15-15.7
	c1.2-8.7,6.1-22.3,8.8-30.7c3.3-10,13-17.3,21.3-17.3c14.1-0.1,42.4-0.3,56.6,0c11.9,0.3,16.9,11.3,14.5,19
	c-2.6,8.4-6.8,21.7-9.4,29.4C209,143.9,197.4,151.9,189.2,151.9z M207.1,93c0,0-9,0-12.3,0c-8.9-0.1-16.4,6-18.7,13l-6.3,19.9
	c-7,17.3,1.9,20.2,8.1,20.2c3.7,0,7.4,0,10.3,0c7.6,0,15.9-5.5,18.1-12.5l8.6-27.3C217.3,100,213.5,93,207.1,93z M193.3,133.1h-12
	l8.3-26.4h12L193.3,133.1z M151.6,113.4h18.6l-5.7,19.8c-2.2,7-8.9,12.9-18.1,12.9c-2.9,0-6.6,0-10.3,0c-5.6,0-16-1.7-8.1-20.2
	l6.3-19.9c1.6-5.6,8.9-12.4,17.8-12.3c3.3,0,23.8,0,23.8,0l-3.6,12.6l-0.1,0.4h-24.7l-2.1,6.6l-4.2,13.2l0,0l-0.3,1l0,0l-1.8,5.6
	h12.9l2.1-6.7h-6.6L151.6,113.4z M108.7,129.6l2.7-9.5l-5,0l-2.8,9.6l-5.6,0l3-9.9c0.9-2.6,3.6-5.1,7.2-5c1.3,0,5.2,0,5.2,0
	c2.9,0,4.3,2.4,3.7,5.2l-3,9.7L108.7,129.6z M104.2,109H97l-2.2,6.3h7.3L104.2,109z M85.1,119h-4.9l3.3-10.6h-5.6l-3.4,11
	c-0.6,2.8,0.8,5.2,3.7,5.2c0,0,0,0,0,0l-1.6,5h5.4l1.6-5c3.4-0.1,6-2.5,6.9-5l3.5-11.1h-5.4L85.1,119z M74.2,113.7l-5.3,15.9h-5.4
	l1.5-5.2l-4.9,0l-1.7,5.2h-5.5l5.3-16.1c0.9-2.6,3.6-5.1,7.2-5c1.3,0,5.2,0,5.2,0C73.5,108.5,74.9,110.9,74.2,113.7z M68.5,113.8
	h-5.2l-1.8,5.2h5.2L68.5,113.8z M41.3,108.5l-6.7,21.1h16.1l3.4-10.6h-5.4l-1.6,5.3h-5l4.9-15.8H41.3z M37.6,113.8
	c0,0-1.3,4-1.9,5.7c-2,5.2-7.1,5-7.1,5l-4.9,0l-1.7,5.2h-5.5l6.8-21.1h10.5C36.7,108.5,38.5,110.6,37.6,113.8z M32.2,113.8H27
	l-1.8,5.2h5.2L32.2,113.8z"/>
<g id="playn-go">
	<path id="XMLID_222_" fill="#007CBB" d="M218.4,137.5H13.2c-5.1,0-7.6-2.6-8.7-5.5c-0.6-1.8-0.6-3.8-0.1-5.7l3.8-13.7
		c1.1-3.7,4.2-9.8,12-9.8c0,0,154.7,0,206.3,0c7.1,0,10.3,4.9,9.1,10.4c-0.8,4-4.1,14.5-4.1,14.5
		C230.3,133.5,225.4,137.5,218.4,137.5z"/>
	<path id="XMLID_223_" d="M189.2,151.9c-13.7,0-41,0-54.6,0c-8.2,0-16.1-7.6-15-15.7c1.2-8.7,6.1-22.3,8.8-30.7
		c3.3-10,13-17.3,21.3-17.3c14.1-0.1,42.4-0.3,56.6,0c11.9,0.3,16.9,11.3,14.5,19c-2.6,8.4-6.8,21.7-9.4,29.4
		C209,143.9,197.4,151.9,189.2,151.9z"/>
	<path fill="#DD2027" d="M207.1,93c0,0-9,0-12.3,0c-8.9-0.1-16.4,6-18.7,13l-6.3,19.9c-7,17.3,1.9,20.2,8.1,20.2c3.7,0,7.4,0,10.3,0
		c7.6,0,15.9-5.5,18.1-12.5l8.6-27.3C217.3,100,213.5,93,207.1,93z M193.3,133.1h-12l8.3-26.4h12L193.3,133.1z M151.6,113.4h18.6
		l-5.7,19.8c-2.2,7-8.9,12.9-18.1,12.9c-2.9,0-6.6,0-10.3,0c-5.6,0-16-1.7-8.1-20.2l6.3-19.9c1.6-5.6,8.9-12.4,17.8-12.3
		c3.3,0,23.8,0,23.8,0l-3.6,12.6l-0.1,0.4h-24.7l-2.1,6.6l-4.2,13.2l0,0l-0.3,1l0,0l-1.8,5.6h12.9l2.1-6.7h-6.6L151.6,113.4z"/>
	<path fill="#FFFFFF" d="M108.7,129.6l2.7-9.5l-5,0l-2.8,9.6l-5.6,0l3-9.9c0.9-2.6,3.6-5.1,7.2-5c1.3,0,5.2,0,5.2,0
		c2.9,0,4.3,2.4,3.7,5.2l-3,9.7L108.7,129.6z M104.2,109H97l-2.2,6.3h7.3L104.2,109z M85.1,119h-4.9l3.3-10.6h-5.6l-3.4,11
		c-0.6,2.8,0.8,5.2,3.7,5.2c0,0,0,0,0,0l-1.6,5h5.4l1.6-5c3.4-0.1,6-2.5,6.9-5l3.5-11.1h-5.4L85.1,119z M74.2,113.7l-5.3,15.9h-5.4
		l1.5-5.2l-4.9,0l-1.7,5.2h-5.5l5.3-16.1c0.9-2.6,3.6-5.1,7.2-5c1.3,0,5.2,0,5.2,0C73.5,108.5,74.9,110.9,74.2,113.7z M68.5,113.8
		h-5.2l-1.8,5.2h5.2L68.5,113.8z M41.3,108.5l-6.7,21.1h16.1l3.4-10.6h-5.4l-1.6,5.3h-5l4.9-15.8H41.3z M37.6,113.8
		c0,0-1.3,4-1.9,5.7c-2,5.2-7.1,5-7.1,5l-4.9,0l-1.7,5.2h-5.5l6.8-21.1h10.5C36.7,108.5,38.5,110.6,37.6,113.8z M32.2,113.8H27
		l-1.8,5.2h5.2L32.2,113.8z"/>
</g>
</svg>
