<svg xmlns="http://www.w3.org/2000/svg" version="1.1" width="683" height="512" style=""><rect id="backgroundrect" width="100%" height="100%" x="0" y="0" fill="none" stroke="none"/>
<title/>





<g class="currentLayer" style=""><title>Layer 1</title><g id="icomoon-ignore">
</g><path fill="#7a7a7d" d="M637.518 204.471c5.211 0 10.419-0.255 15.503 0 18.298 1.143 29.481 15.885 25.16 33.547-3.558 14.359-7.625 28.591-11.817 42.696-5.464 18.298-19.188 26.43-37.105 28.846-2.795 0.381-5.718 0.381-8.641 0-9.276-1.017-15.63 2.033-21.475 10.166-14.613 19.95-35.072 30.243-60.232 30.37-48.669 0.127-97.464 0.255-146.132 0.635-24.271 0.127-44.983-4.193-55.657-40.282-4.956-0.255-10.548-0.762-16.138-0.762-93.652 0-187.177 0-280.829-0.127-6.099 0-12.453-0.255-18.425-1.651-14.232-3.558-21.73-14.36-18.806-28.846 3.176-15.885 6.989-31.641 11.818-47.016 5.845-18.425 19.95-27.575 40.535-27.575 71.16-0.127 142.32 0 213.48 0 29.099 0 58.326-0.255 87.425 0.127 7.879 0.127 13.216-2.033 17.663-9.023 15.248-23.89 38.248-33.802 65.569-34.055 47.779-0.381 95.558-0.255 143.337 0.127 8.005 0 16.138 1.78 23.89 3.812 13.47 3.558 21.984 12.834 26.685 25.796 1.398 3.812 2.542 7.879 4.193 13.216zM525.186 332.813c0 0 0 0 0 0 3.812 0 7.625-0.127 11.437 0.127 18.553 1.271 33.547-6.226 45.365-19.823 4.574-5.211 9.023-11.437 11.182-18.044 8.894-26.685 16.9-53.625 25.034-80.436 6.735-22.237-9.912-39.138-28.465-37.105-10.801 1.143-21.856 0.255-32.912 0.255-24.144 0-41.933 12.326-50.32 33.547-11.31 28.718-19.442 58.707-27.829 88.442-4.575 16.265 8.005 31.896 24.906 32.911 7.243 0.508 14.359 0.127 21.603 0.127zM491.512 218.067c4.067-13.343 7.498-24.652 11.31-36.851-3.812-0.762-6.481-1.651-9.149-1.651-20.586-0.127-41.044-0.381-61.63 0-21.348 0.508-42.315 15.503-49.177 35.708-9.022 26.685-17.536 53.497-25.668 80.563-6.481 21.348 5.464 36.596 28.083 36.978 11.437 0.127 22.873-0.127 34.436 0.127 20.967 0.381 36.724-10.038 44.729-27.829 9.149-20.204 14.105-42.315 20.84-63.663 0.127-0.636-0.762-1.525-1.398-2.668-16.774 0-33.673 0-51.209 0-3.812 12.072-7.243 23.254-11.055 35.327 6.735 1.017 11.817 1.779 17.791 2.542-2.033 6.481-3.812 12.199-5.591 18.044-12.962 0-24.652 2.161-37.74-1.779 7.879-25.287 15.63-49.685 23.509-74.845 24.398 0 47.779 0 71.923 0zM191.495 283.382c4.066-12.199 7.751-23 11.182-33.928 6.988-22.619 3.304-27.066-20.204-26.177-10.674 0.381-18.679 4.956-22.365 14.74-4.956 13.343-8.513 27.193-12.58 40.79-0.381 1.144 0.508 2.542 1.017 4.448 3.812 0 7.37 0 11.182 0 2.287-4.575 4.32-8.768 6.607-13.469 4.448 0.255 8.513 0.635 12.962 0.889-0.636 4.702-1.143 8.387-1.78 12.58 4.829 0.127 8.894 0.127 13.978 0.127zM59.976 270.293c5.972-0.381 10.674-0.508 15.376-1.144 8.133-1.017 14.486-4.956 17.79-12.58 2.542-6.1 4.829-12.453 6.354-18.934 1.906-8.513-1.144-13.088-9.531-13.851-8.513-0.762-17.154-0.762-25.668 0-2.795 0.255-6.608 3.812-7.624 6.607-5.718 16.647-10.674 33.547-15.757 50.32-0.127 0.635 0.636 1.525 1.398 3.050 3.812-0.127 7.879-0.381 11.818-0.508 2.033-4.575 3.812-8.387 5.845-12.962zM218.434 270.548c-0.636 4.956-1.143 8.514-1.651 12.58 5.083 0 9.149 0 13.216 0 1.78-4.702 3.304-8.641 5.083-13.088 23.381-6.099 22.873-27.066 28.591-45.746-5.464 0-9.53 0-14.232 0-2.414 7.243-4.575 13.978-6.988 20.585-3.558 9.53-3.685 9.53-16.773 6.735 2.287-8.894 4.575-17.662 6.862-26.685-13.597-1.525-13.597-1.525-16.9 8.132-1.906 5.337-3.049 11.055-5.21 16.266-4.194 9.657-2.287 16.773 8.006 21.222zM125.29 226.072c-12.835-3.304-13.216-3.304-16.647 6.607-3.558 10.419-6.735 20.967-10.038 31.386-1.906 6.099-3.558 12.325-5.718 19.315 16.266 0 30.497 0 45.619 0 2.796-9.276 5.464-18.171 8.387-27.575-8.387-2.796-13.597-3.177-16.9 5.845-3.431 9.531-4.194 9.276-16.647 5.211 4.067-13.597 8.005-27.193 11.945-40.79zM323.522 282.747c1.651-5.464 3.176-10.928 4.956-16.265 8.514-25.415-1.271-25.668-20.077-25.034-9.404 0.381-17.154 3.304-20.84 12.199-3.685 9.022-6.099 18.68-9.531 29.353 5.973 0 10.038 0 14.486 0 2.923-8.894 5.845-17.281 8.768-25.923 4.956 0 9.404 0 14.868 0-2.414 9.276-4.448 17.409-6.735 26.43 3.431 0.255 5.845 0.508 8.132 0.381 1.651-0.127 3.431-0.635 5.973-1.144zM269.517 240.432c16.392 4.32 23.381 0.508 21.475-13.851-17.536-2.923-17.536-2.923-21.475 13.851z" id="svg_1" class="" fill-opacity="1"/><path fill="#7a7a7d" d="M554.284 295.2c-12.072 0-22.365 0-34.691 0 6.989-26.558 15.503-51.338 23.89-76.243 11.691 0 22.365 0 35.072 0-8.26 25.923-16.138 50.702-24.271 76.243z" id="svg_2" class="selected" fill-opacity="1"/><path fill="#7a7a7d" d="M174.976 238.907c3.177-0.381 5.464-0.889 7.879-0.889 1.78 0 3.685 0.508 6.735 1.143-1.143 4.829-2.161 9.149-3.304 13.978-4.956 0-9.023 0-14.486 0 1.143-5.337 2.161-9.785 3.177-14.232z" id="svg_3" class="" fill-opacity="1"/><path fill="#7a7a7d" d="M65.058 251.614c1.144-3.939 2.16-7.879 3.558-12.707 4.829 0 9.276 0 13.85 0-1.525 15.63-2.16 16.138-17.409 12.707z" id="svg_4" class="" fill-opacity="1"/></g></svg>