
<svg viewBox="0 0 25 17" xmlns="http://www.w3.org/2000/svg">
			<path d="M7.35434783,1.03478261 C7.65,-0.332608696 8.86956522,-0.0369565217 9.31304348,0.22173913 C9.75652174,0.480434783 11.1608696,1.33043478 11.8630435,1.66304348 C12.823913,1.21956522 16.0021739,0.62826087 17.8130435,0.554347826 C19.623913,0.480434783 24.723913,0.62826087 24.9826087,4.98913043 C24.6869565,9.23913043 19.4391304,12.676087 18.4043478,13.2673913 C11.7891304,17.0369565 6.98478261,16.7413043 6.65217391,16.7413043 C0.369565217,16.7413043 0.184782609,12.676087 0.184782609,12.5652174 C0.0739130435,7.68695652 7.35434783,3.7326087 7.35434783,3.7326087 C7.35434783,3.7326087 7.35434783,2.40217391 7.35434783,1.03478261 Z M13.0826087,2.51304348 L13.6369565,2.8826087 C13.6369565,2.8826087 16.8521739,2.18043478 18.626087,2.51304348 C20.4,2.84565217 21.5456522,3.4 22.1369565,4.69347826 C22.2108696,4.39782609 22.2108696,2.66086957 21.0282609,2.06956522 C19.8456522,1.47826087 19.1065217,1.3673913 17.7021739,1.3673913 C16.15,1.3673913 13.673913,2.14347826 13.0826087,2.51304348 Z M18.2565217,5.58043478 C19.6978261,6.39347826 18.5891304,7.53913043 18.5891304,7.53913043 C18.5891304,7.53913043 10.9391304,11.9369565 9.23913043,12.9347826 C7.53913043,13.9326087 7.35434783,12.0478261 7.35434783,12.0478261 L7.3173913,8.09347826 C7.3173913,8.09347826 6.20869565,9.31304348 5.83913043,10.3478261 C5.46956522,11.3826087 4.95217391,13.1934783 6.94782609,14.0434783 C8.94347826,14.8934783 11.4565217,13.8956522 13.3413043,13.1934783 C15.226087,12.4913043 17.7021739,10.3478261 18.1086957,9.83043478 C18.5521739,9.31304348 20.2521739,7.65 20.2521739,5.6173913 C20.2521739,3.58478261 18.3304348,3.14130435 17.1478261,3.14130435 C15.9652174,3.14130435 14.6347826,3.54782609 14.6347826,3.54782609 C14.6347826,3.54782609 16.8152174,4.7673913 18.2565217,5.58043478 Z M8.35217391,14.8565217 C3.58478261,14.7456522 3.4,12.3804348 3.25217391,11.5673913 C2.84565217,12.0478261 3.0673913,13.6369565 3.0673913,13.6369565 C3.0673913,13.6369565 3.21521739,16.076087 7.20652174,16.076087 C11.1978261,16.076087 15.0413043,13.4152174 15.0413043,13.4152174 C13.7847826,14.1913043 10.6434783,14.7826087 8.35217391,14.8565217 Z M8.64782609,2.66086957 L8.64782609,9.97826087 C8.64782609,9.97826087 8.53695652,11.4195652 10.0521739,10.8282609 C11.5673913,10.2369565 16.5565217,7.02173913 16.5565217,7.02173913 C16.5565217,7.02173913 17.0369565,6.31956522 16.2608696,5.91304348 C15.4847826,5.46956522 10.0521739,2.2173913 10.0521739,2.2173913 C10.0521739,2.2173913 8.98043478,1.47826087 8.64782609,2.66086957 Z"/>
</svg>