<?xml version="1.0" encoding="utf-8"?>
<!-- Generator: Adobe Illustrator 20.0.0, SVG Export Plug-In . SVG Version: 6.00 Build 0)  -->
<svg version="1.1" id="Layer_2" xmlns="http://www.w3.org/2000/svg" xmlns:xlink="http://www.w3.org/1999/xlink" x="0px" y="0px"
	 viewBox="0 0 40 45" style="enable-background:new 0 0 40 45;" xml:space="preserve">
<style type="text/css">
	.st0{fill-rule:evenodd;clip-rule:evenodd;fill:#EED376;}
</style>
<g>
	<polygon class="st0" points="7.8,1.4 9.5,4.9 13.3,5.5 10.5,8.2 11.2,12 7.8,10.2 4.3,12 5,8.2 2.2,5.5 6,4.9 	"/>
	<polygon class="st0" points="20.4,1.4 22.1,4.9 26,5.5 23.2,8.2 23.9,12 20.4,10.2 17,12 17.6,8.2 14.9,5.5 18.7,4.9 	"/>
	<polygon class="st0" points="33.1,1.4 34.8,4.9 38.6,5.5 35.9,8.2 36.5,12 33.1,10.2 29.6,12 30.3,8.2 27.5,5.5 31.4,4.9 	"/>
	<polygon class="st0" points="7.8,17.4 9.5,20.9 13.3,21.5 10.5,24.2 11.2,28 7.8,26.2 4.3,28 5,24.2 2.2,21.5 6,20.9 	"/>
	<polygon class="st0" points="20.4,17.4 22.1,20.9 26,21.5 23.2,24.2 23.9,28 20.4,26.2 17,28 17.6,24.2 14.9,21.5 18.7,20.9 	"/>
	<polygon class="st0" points="7.8,33.4 9.5,36.9 13.3,37.5 10.5,40.2 11.2,44 7.8,42.2 4.3,44 5,40.2 2.2,37.5 6,36.9 	"/>
</g>
</svg>
