<?xml version="1.0" encoding="utf-8"?>
<!-- Generator: Adobe Illustrator 20.0.0, SVG Export Plug-In . SVG Version: 6.00 Build 0)  -->
<svg version="1.1" id="Layer_2" xmlns="http://www.w3.org/2000/svg" xmlns:xlink="http://www.w3.org/1999/xlink" x="0px" y="0px"
	 viewBox="0 0 40 45" style="enable-background:new 0 0 40 45;" xml:space="preserve">
<style type="text/css">
	.st0{enable-background:new    ;}
	.st1{fill:#838589;}
</style>
<g class="st0">
	<path class="st1" d="M5.3,18c0-7.6,0-9-0.1-10.6C5.1,5.7,4.7,4.9,3,4.5c-0.4-0.1-1.3-0.2-2-0.2c-0.6,0-0.9-0.1-0.9-0.5
		c0-0.4,0.4-0.5,1.1-0.5c2.7,0,5.8,0.2,6.9,0.2c1.7,0,5.5-0.2,7.1-0.2c3.2,0,6.5,0.3,9.2,2.2c1.4,1,3.4,3.5,3.4,6.9
		c0,3.7-1.6,7.1-6.6,11.2c4.5,5.6,7.9,10.1,10.9,13.2c2.8,2.9,4.9,3.3,5.6,3.4c0.6,0.1,1,0.2,1.4,0.2s0.6,0.2,0.6,0.4
		c0,0.4-0.4,0.5-1,0.5h-4.8c-2.8,0-4.1-0.3-5.4-1c-2.2-1.2-4.1-3.5-6.9-7.4c-2-2.8-4.3-6.2-5-6.9c-0.3-0.3-0.6-0.4-0.9-0.4l-4.4-0.1
		c-0.3,0-0.4,0.1-0.4,0.4v0.7c0,4.7,0,8.6,0.3,10.7c0.2,1.5,0.5,2.6,2,2.8c0.8,0.1,1.9,0.2,2.5,0.2c0.4,0,0.6,0.2,0.6,0.4
		c0,0.4-0.4,0.5-1,0.5c-2.9,0-6.6-0.2-7.4-0.2c-1,0-4.1,0.2-6.1,0.2c-0.7,0-1-0.2-1-0.5c0-0.3,0.2-0.4,0.8-0.4
		c0.8,0,1.4-0.1,1.8-0.2c1-0.2,1.3-1.3,1.5-2.8c0.3-2.1,0.3-6.1,0.3-10.7V18z M11.2,22c0,0.6,0.1,0.8,0.5,0.9
		c1.1,0.4,2.6,0.5,3.8,0.5c2,0,2.7-0.2,3.6-0.9c1.5-1.1,3-3.4,3-7.5c0-7.1-4.7-9.2-7.7-9.2c-1.3,0-2.2,0.1-2.7,0.2
		c-0.4,0.1-0.5,0.3-0.5,0.7V22z"/>
</g>
</svg>
