<?xml version="1.0" encoding="UTF-8"?>
<!DOCTYPE svg PUBLIC "-//W3C//DTD SVG 1.1//EN" "http://www.w3.org/Graphics/SVG/1.1/DTD/svg11.dtd">
<!-- Creator: CorelDRAW X7 -->
<svg xmlns="http://www.w3.org/2000/svg" xml:space="preserve" width="930px" height="930px" version="1.1" style="shape-rendering:geometricPrecision; text-rendering:geometricPrecision; image-rendering:optimizeQuality; fill-rule:evenodd; clip-rule:evenodd"
viewBox="0 0 52428 52430"
 xmlns:xlink="http://www.w3.org/1999/xlink">
 <defs>
  <style type="text/css">
   <![CDATA[
    .fil0 {fill:#FEFEFE}
    .fil3 {fill:#1691CE}
    .fil2 {fill:#FF3D00}
    .fil1 {fill:#FF3D00}
    .fil4 {fill:#1691CE;fill-rule:nonzero}
    .fil5 {fill:#FF3D00;fill-rule:nonzero}
   ]]>
  </style>
 </defs>
 <g id="Layer_x0020_1">
  <metadata id="CorelCorpID_0Corel-Layer"/>
  <ellipse class="fil0" cx="26214" cy="26215" rx="26214" ry="26215"/>
  <g id="_1179191744">
   <path class="fil1" d="M7678 7678c10238,-10237 26836,-10237 37074,0 2135,2135 3823,4547 5067,7120 -159,-37 -319,-75 -478,-114l-799 -189c-286,-67 -573,-134 -859,-201 -1084,-1950 -2453,-3783 -4109,-5438 -4793,-4794 -11076,-7191 -17359,-7191 -6283,0 -12566,2397 -17359,7191 -4794,4793 -7191,11076 -7191,17359 0,6283 2397,12566 7191,17359 4793,4794 11076,7191 17359,7191 6283,0 12566,-2397 17359,-7191 4332,-4332 6707,-9880 7124,-15546l88 12 221 32 286 42 136 21c66,11 132,21 198,31 211,34 422,66 633,97l88 12c-471,6007 -3002,11882 -7596,16477 -10238,10237 -26836,10237 -37074,0 -10237,-10238 -10237,-26836 0,-37074z"/>
   <path class="fil2" d="M30071 21530c931,-2073 1713,-3424 2588,-3997 -637,791 -1247,2019 -1692,3021 -299,672 -476,1552 -1169,1700 -1500,321 -3117,744 -4508,1275 -1265,483 -2441,998 -3612,1638 -1314,718 -2314,2478 -1266,4058 825,1243 2223,927 3609,387 2544,-992 5014,-2426 8293,-1965 4196,589 5547,1048 10672,-622 1773,-578 5135,-379 7766,-25 554,74 1103,167 1656,248 151,-3844 -540,-7714 -2072,-11312 -629,-84 -1376,-289 -2029,-442 -4769,-1123 -9552,-2174 -14197,-3779 -4590,-1588 -5602,-531 -7273,1217 -2753,2880 -4732,6050 -6027,9388 846,368 1629,884 2313,1531 355,-156 751,-336 1303,-599 318,-152 1600,-2678 2535,-3625 -473,-23 -1060,-21 -1708,-5 429,-83 2060,-384 2439,-223 667,284 1855,1329 2379,2131zm-9445 6766c-170,-635 51,-1309 330,-1878 491,-227 1101,-420 1644,-302 547,118 859,517 1021,1026 173,547 -96,1164 -434,1589 -339,425 -872,827 -1441,803 -522,-270 -963,-651 -1120,-1238z"/>
   <path class="fil2" d="M29373 28110c-365,774 -955,1758 -1208,2248 -1232,2386 -2325,3218 -3508,3171 637,-1168 980,-2485 979,-3845 0,-100 -2,-201 -5,-301 1151,-474 2684,-1071 3742,-1273z"/>
   <path class="fil2" d="M32297 28040c-523,1096 -1218,2175 -1788,3161 -777,1344 -1674,2729 -2592,2529 -1552,-340 199,-2279 655,-3162 393,-762 847,-1483 1215,-2263l133 -283c735,-96 1506,-104 2340,13l37 5z"/>
   <path class="fil2" d="M27840 22313l753 -1714c125,74 251,167 309,214 322,257 616,587 841,932l63 97c-28,12 -58,22 -90,28 -622,133 -1251,279 -1876,443z"/>
   <g>
    <path class="fil3" d="M12710 24801c39,-38 78,-76 117,-114l1338 1338c681,-806 962,-1871 717,-2696 607,-259 1243,-428 1889,-506 201,837 978,1617 1970,1974l489 -1830c106,26 210,54 315,84l-490 1830c1038,186 2100,-103 2693,-726 128,96 254,198 378,304 -218,111 -434,224 -648,342 -646,353 -1173,881 -1509,1494 -1614,-1129 -3853,-972 -5294,469 -1614,1616 -1613,4235 3,5850 1616,1615 4235,1613 5849,-3 605,-605 983,-1351 1135,-2132 656,86 1371,-76 2052,-310 238,163 493,281 752,343 -77,645 -245,1282 -503,1889 -826,-244 -1890,38 -2696,719l1339 1338c-37,39 -75,78 -114,116 -38,39 -77,77 -116,114l-1339 -1337c-681,806 -962,1870 -717,2695 -607,260 -1243,428 -1888,506 -202,-836 -978,-1617 -1970,-1973l-490 1829c-105,-25 -210,-53 -314,-84l489 -1829c-1038,-187 -2100,102 -2692,726 -258,-194 -506,-408 -741,-642 -234,-235 -448,-482 -642,-740 623,-592 911,-1655 724,-2693l-1829 491c-31,-104 -59,-209 -85,-314l1829 -491c-357,-992 -1138,-1767 -1974,-1969 77,-645 245,-1281 503,-1888 826,243 1890,-38 2695,-720l-1338 -1337c37,-39 75,-78 113,-117z"/>
    <path class="fil4" d="M12213 24304c1487,-1488 3436,-2233 5385,-2234 1025,0 2051,205 3009,616l37 16c735,320 1413,755 2012,1287l30 27 31 27 30 28 59 55c-100,48 -200,95 -299,144 -1391,-1261 -3150,-1891 -4909,-1890 -1870,0 -3741,715 -5167,2142 -1426,1428 -2139,3299 -2138,5170 1,1869 715,3738 2140,5164l3 2c1427,1426 3298,2139 5169,2138 1869,-1 3738,-715 5164,-2140l2 -3c1421,-1422 2134,-3285 2138,-5148 104,-43 207,-85 309,-128 1,36 1,72 1,107 1,1940 -735,3880 -2207,5365l-22 22c-1487,1489 -3436,2233 -5386,2234 -1939,1 -3879,-734 -5365,-2207l-21 -21c-1489,-1487 -2233,-3437 -2234,-5386 -1,-1949 742,-3899 2229,-5387z"/>
    <path class="fil5" d="M15040 27129c707,-707 1634,-1061 2560,-1062 757,0 1514,236 2151,707 -37,104 -69,209 -96,315 -601,-475 -1328,-713 -2056,-713 -847,1 -1694,325 -2340,971 -646,647 -969,1495 -969,2343 0,847 324,1694 971,2341 646,646 1494,968 2342,968 848,0 1695,-324 2341,-971l1 -1c509,-509 816,-1143 924,-1804 95,53 192,97 291,134 -130,692 -462,1353 -998,1889l-4 5c-707,704 -1631,1057 -2556,1057 -925,1 -1852,-352 -2560,-1059 -707,-707 -1061,-1633 -1061,-2560 -1,-926 353,-1853 1059,-2560z"/>
    <path class="fil5" d="M19617 31303l-454 -454c423,-601 365,-1219 -31,-1615 -401,-400 -859,-432 -1575,-89 -521,236 -770,298 -917,151 -124,-124 -156,-342 134,-632 320,-320 627,-422 792,-489l-374 -632c-218,76 -481,214 -792,498l-392 -391 -436 436 423 423c-383,569 -351,1152 40,1544 432,431 979,329 1615,13 441,-218 690,-254 859,-85 178,178 102,450 -151,703 -289,290 -645,459 -935,543l387 654c267,-71 637,-280 948,-565l423 423 436 -436z"/>
   </g>
  </g>
 </g>
</svg>
