<?xml version="1.0" encoding="utf-8"?>
<!-- Generator: Adobe Illustrator 20.0.0, SVG Export Plug-In . SVG Version: 6.00 Build 0)  -->
<svg version="1.1" id="Layer_2" xmlns="http://www.w3.org/2000/svg" xmlns:xlink="http://www.w3.org/1999/xlink" x="0px" y="0px"
	 viewBox="0 0 40 45" style="enable-background:new 0 0 40 45;" xml:space="preserve">
<style type="text/css">
	.st0{fill:#838589;}
</style>
<g>
	<g id="XMLID_603_">
		<path id="XMLID_661_" class="st0" d="M10.7,31.8c1.8,1.1,4.7,4.2,8.8,4c4.2-0.2,6.5-2.2,6.5-5.3c0-3-1.7-4.6-5.9-6.2
			c-5.1-1.8-10.3-4.6-10.4-9c-0.1-2.2,0.7-4.1,1.9-5.7C7,11.9,4.2,16.4,4.2,22.2c0,4,1.4,7.6,3.6,10.4l2,0.2L10.7,31.8z"/>
		<path id="XMLID_668_" class="st0" d="M36,22.1c0-4.7-1.4-8-3.7-10.3h-2l-0.7,0.9c-1-0.6-3.8-4.2-8.7-4c-4.8,0.2-7.1,2.5-7.2,5.3
			c-0.1,3,3.4,5.2,7.7,6.9c5.3,2,9.1,4.1,9,8.7c-0.1,2.4-0.7,4.2-1.8,5.7C32.7,32.5,36,27.6,36,22.1z"/>
	</g>
	<g id="XMLID_600_">
		<path id="XMLID_679_" class="st0" d="M18.9,35.4c1.8,0,5.3-1.4,5.3-4.6c0-3-1.4-4.2-5.7-5.8c-5.1-1.8-8.6-5.3-8.7-9.7
			c-0.1-2.2,0.7-4.1,1.9-5.7c-4.6,2.3-7.5,6.7-7.5,12.6c0,4,1.4,7.6,3.6,10.4l1.8-1.9C11.4,31.8,14.7,35.4,18.9,35.4z"/>
		<path id="XMLID_680_" class="st0" d="M36,22.1c0-4.5-1.4-7.8-3.6-10.1l-2,1.9c-1-0.6-3.6-4.7-9.7-4.7c-2.5,0-5.1,2.1-5.1,4.9
			c-0.1,3,4.2,5.1,8.5,6.9c4.7,2,6.1,4.1,6.1,8.7c0,2.3-0.5,4.2-1.6,5.6C32.8,32.3,36,27.6,36,22.1z"/>
	</g>
</g>
</svg>
