<?xml version="1.0" encoding="utf-8"?>
<!-- Generator: Adobe Illustrator 21.1.0, SVG Export Plug-In . SVG Version: 6.00 Build 0)  -->
<svg version="1.1" id="Layer_1" xmlns="http://www.w3.org/2000/svg" xmlns:xlink="http://www.w3.org/1999/xlink" x="0px" y="0px"
	 viewBox="0 0 18 16" style="enable-background:new 0 0 18 16;" xml:space="preserve">
<style type="text/css">
	.st0{fill:#838589;}
</style>
<g>
	<path class="st0" d="M14.9,7.8c-0.1,0-0.2,0-0.3,0v2.8c0,1.1-0.9,2.1-2.1,2.1H3.1C2,12.7,1,11.8,1,10.6v-5c0-1.1,0.9-2.1,2.1-2.1
		h9.3c0.1-0.2,0.3-0.4,0.5-0.6L13,2.8c-0.1,0-0.3,0-0.4,0H3.1c-0.8,0-1.5,0.3-2,0.8s-0.8,1.3-0.8,2v5c0,0.8,0.3,1.5,0.8,2
		s1.3,0.8,2,0.8h9.4c0.8,0,1.5-0.3,2-0.8s0.8-1.3,0.8-2V7.8C15.2,7.8,15,7.8,14.9,7.8z"/>
</g>
<g>
	<path class="st0" d="M13.4,7.4C13.2,7.3,13,7.1,12.8,7c-0.1-0.1-0.1-0.3-0.2-0.4c-0.4,0.4-0.8,0.8-1.2,1.2C11.3,7.9,11.1,8,11,8.2
		c0-0.2-0.1-0.4-0.2-0.6c-0.1-0.2-0.2-0.4-0.3-0.7c-0.1-0.2-0.3-0.5-0.5-0.6C9.8,6.2,9.7,6.1,9.5,6.1S9.1,6.2,9,6.3
		C8.8,6.5,8.8,6.6,8.7,6.8C8.6,7.1,8.4,7.3,8.3,7.5C8.1,7.8,7.9,8,7.7,8.2c0-0.1,0-0.2,0.1-0.3C7.9,7.6,8,7.4,8,7.1s0-0.6-0.2-0.9
		C7.5,6,7.1,5.9,6.8,6.1C6.7,6.2,6.6,6.3,6.5,6.4C6.3,6.6,6.1,6.8,5.9,7C5.7,7.2,5.5,7.4,5.4,7.7l0,0c0-0.2,0-0.3,0-0.5
		c0,0,0,0,0,0.1c0-0.2,0-0.4,0.1-0.6l0,0c0-0.2,0-0.3,0-0.5c0-0.1-0.1-0.3-0.2-0.4C5.1,5.7,4.9,5.6,4.8,5.6c-0.2,0-0.3,0-0.5,0.1
		L4.2,5.8C4,5.8,3.9,5.9,3.8,6C3.6,6.1,3.4,6.2,3.2,6.3C3.1,6.4,3,6.5,2.9,6.5C2.8,6.6,2.7,6.6,2.6,6.7c0,0-0.1,0-0.1,0.1L2.4,6.9
		C2.3,6.9,2.2,7,2.1,7C1.9,7.1,1.7,7.3,1.5,7.4C1.4,7.6,1.3,7.7,1.3,7.9s0.1,0.3,0.2,0.5c0.3,0.2,0.7,0.3,0.9,0l0,0
		c0.1-0.1,0.2-0.1,0.3-0.2C2.9,8,3,8,3.1,7.9c0,0,0.1,0,0.1-0.1c0,0,0.1,0,0.1-0.1c0.1,0,0.1-0.1,0.2-0.1C3.7,7.5,3.9,7.4,4,7.4
		c0,0,0,0,0.1,0c0,0.3,0,0.7,0,1c0,0.2,0,0.4,0,0.6c0,0.1,0,0.2,0,0.3c0,0.2,0,0.3,0.1,0.4c0.1,0.2,0.2,0.3,0.4,0.4
		c0.2,0,0.3,0,0.5-0.1l0,0l0,0l0,0l0,0l0,0l0,0l0,0l0,0l0,0c0,0,0-0.1,0.1-0.1c0.1-0.1,0.2-0.2,0.2-0.3c0.1-0.1,0.1-0.2,0.2-0.3
		C5.9,9,6.1,8.7,6.4,8.5l0,0c0,0.3,0,0.5,0,0.8c0,0.1,0,0.2,0,0.4c0,0.1,0,0.1,0,0.2c0,0.1,0,0.2,0.1,0.3c0.1,0.3,0.3,0.5,0.6,0.6
		c0.3,0.1,0.6-0.1,0.7-0.3c0-0.1,0.1-0.1,0.1-0.2c0-0.1,0.1-0.2,0.2-0.3C8.3,9.5,8.7,9.1,9,8.6c0.2-0.2,0.4-0.5,0.5-0.7
		c0,0.1,0.1,0.2,0.1,0.3c0.1,0.2,0.2,0.3,0.3,0.5C10,8.8,10.1,9,10.1,9.1s0.1,0.2,0.1,0.4c0.2,0.4,0.7,0.5,1.1,0.2
		c0.2-0.1,0.3-0.3,0.5-0.5c0.4-0.3,0.7-0.6,1.1-1c0.2-0.2,0.4-0.4,0.7-0.7C13.5,7.5,13.5,7.5,13.4,7.4z M8,9.9L8,9.9
		C8,9.8,8,9.8,8,9.9C8,9.8,8,9.9,8,9.9z"/>
</g>
<path class="st0" d="M14.9,1.9c-1.7,0-3,1.4-3,3c0,1.6,1.4,3,3,3c1.6,0,3-1.4,3-3C17.9,3.3,16.5,1.9,14.9,1.9z M14.9,7.2
	c-1.3,0-2.3-1-2.3-2.3c0-1.3,1-2.3,2.3-2.3c1.3,0,2.3,1,2.3,2.3C17.2,6.2,16.2,7.2,14.9,7.2z"/>
</svg>
