<?xml version="1.0" encoding="utf-8"?>
<!-- Generator: Adobe Illustrator 21.1.0, SVG Export Plug-In . SVG Version: 6.00 Build 0)  -->
<svg version="1.1" id="Layer_1" xmlns="http://www.w3.org/2000/svg" xmlns:xlink="http://www.w3.org/1999/xlink" x="0px" y="0px"
	 viewBox="0 0 18 16" style="enable-background:new 0 0 18 16;" xml:space="preserve">
<style type="text/css">
	.st0{display:none;}
	.st1{fill:#FFFFFF;}
</style>
<rect x="-1.1" y="-0.8" class="st0" width="20.8" height="17.4"/>
<g>
	<path class="st1" d="M14.9,7.8c-0.1,0-0.2,0-0.3,0v2.8c0,1.1-0.9,2.1-2.1,2.1H3.1C2,12.7,1,11.8,1,10.6v-5c0-1.1,0.9-2.1,2.1-2.1
		h9.3c0.1-0.2,0.3-0.4,0.5-0.6L13,2.8c-0.1,0-0.3,0-0.4,0H3.1c-0.8,0-1.5,0.3-2,0.8s-0.8,1.3-0.8,2v5c0,0.8,0.3,1.5,0.8,2
		s1.3,0.8,2,0.8h9.4c0.8,0,1.5-0.3,2-0.8s0.8-1.3,0.8-2V7.8C15.2,7.8,15,7.8,14.9,7.8z"/>
</g>
<path class="st1" d="M14.8,7.5L13,6.6l-0.7-0.9l-0.1-1.2l0.6-1.3H12L2.3,3.3L0.8,4.4l-0.1,6.4l0.9,1.8l2.1,0.5l9.4-0.1l1.8-1.4
	L15,7.9L14.8,7.5z M12.9,8.2c-0.4,0.4-0.7,0.7-1.1,1c-0.2,0.2-0.3,0.4-0.5,0.5c-0.4,0.3-0.9,0.2-1.1-0.2c0-0.2-0.1-0.3-0.1-0.4
	c0-0.1-0.1-0.3-0.2-0.4C9.8,8.5,9.7,8.4,9.6,8.2c0-0.1-0.1-0.2-0.1-0.3C9.4,8.1,9.2,8.4,9,8.6C8.7,9.1,8.3,9.5,8.1,10
	c-0.1,0.1-0.2,0.2-0.2,0.3c0,0.1-0.1,0.1-0.1,0.2c-0.1,0.2-0.4,0.4-0.7,0.3c-0.3-0.1-0.5-0.3-0.6-0.6C6.4,10.1,6.4,10,6.4,9.9
	c0-0.1,0-0.1,0-0.2c0-0.2,0-0.3,0-0.4c0-0.3,0-0.5,0-0.8C6.1,8.7,5.9,9,5.6,9.3C5.5,9.4,5.5,9.5,5.4,9.6c0,0.1-0.1,0.2-0.2,0.3
	C5.1,9.9,5.1,10,5.1,10c-0.2,0.1-0.3,0.1-0.5,0.1C4.4,10,4.3,9.9,4.2,9.7C4.1,9.6,4.1,9.5,4.1,9.3c0-0.1,0-0.2,0-0.3
	c0-0.2,0-0.4,0-0.6c0-0.3,0-0.7,0-1C4,7.4,4,7.4,4,7.4c-0.1,0-0.3,0.1-0.5,0.2c-0.1,0-0.1,0.1-0.2,0.1c0,0.1-0.1,0.1-0.1,0.1
	c0,0.1-0.1,0.1-0.1,0.1C3,8,2.9,8,2.7,8.2C2.6,8.3,2.5,8.3,2.4,8.4c-0.2,0.3-0.6,0.2-0.9,0C1.4,8.2,1.3,8.1,1.3,7.9
	c0-0.2,0.1-0.3,0.2-0.5C1.7,7.3,1.9,7.1,2.1,7c0.1,0,0.2-0.1,0.3-0.1l0.1-0.1c0-0.1,0.1-0.1,0.1-0.1c0.1-0.1,0.2-0.1,0.3-0.2
	c0.1,0,0.2-0.1,0.3-0.2C3.4,6.2,3.6,6.1,3.8,6C3.9,5.9,4,5.8,4.2,5.8l0.1-0.1c0.2-0.1,0.3-0.1,0.5-0.1c0.1,0,0.3,0.1,0.5,0.2
	c0.1,0.1,0.2,0.3,0.2,0.4c0,0.2,0,0.3,0,0.5C5.4,6.9,5.4,7.1,5.4,7.3c0,0.1,0,0.2,0,0.4C5.5,7.4,5.7,7.2,5.9,7
	c0.2-0.2,0.4-0.4,0.6-0.6c0.1-0.1,0.2-0.2,0.3-0.3c0.3-0.2,0.7-0.1,1,0.1C8,6.5,8,6.8,8,7.1c0,0.3-0.1,0.5-0.2,0.8
	C7.7,8,7.7,8.1,7.7,8.2C7.9,8,8.1,7.8,8.3,7.5c0.1-0.2,0.3-0.4,0.4-0.7C8.8,6.6,8.8,6.5,9,6.3c0.1-0.1,0.3-0.2,0.5-0.2
	S9.8,6.2,10,6.3c0.2,0.1,0.4,0.4,0.5,0.6c0.1,0.3,0.2,0.5,0.3,0.7C10.9,7.8,11,8,11,8.2c0.1-0.2,0.3-0.3,0.4-0.4
	c0.4-0.4,0.7-0.7,1.1-1.1c0.1,0.1,0.2,0.2,0.3,0.3c0.2,0.1,0.4,0.3,0.6,0.4c0.1,0.1,0.1,0.1,0.2,0.1C13.3,7.8,13.1,8,12.9,8.2z"/>
<path class="st1" d="M14.9,1.9c-1.7,0-3,1.4-3,3c0,1.6,1.4,3,3,3c1.6,0,3-1.4,3-3C17.9,3.3,16.5,1.9,14.9,1.9z M14.9,7.2
	c-1.3,0-2.3-1-2.3-2.3c0-1.3,1-2.3,2.3-2.3c1.3,0,2.3,1,2.3,2.3C17.2,6.2,16.2,7.2,14.9,7.2z"/>
</svg>
