<?xml version="1.0" encoding="utf-8"?>
<!-- Generator: Adobe Illustrator 21.1.0, SVG Export Plug-In . SVG Version: 6.00 Build 0)  -->
<svg xmlns="http://www.w3.org/2000/svg" viewBox="0 0 19.5 12.8">
	<path d="M19.1,12.2V2.9h-2.5V2.1h-5.1c-0.1-0.4-0.3-0.8-0.7-1.1C10.4,0.7,10,0.6,9.5,0.6c-0.8,0-1.6,0.7-1.8,1.5H2.6 V3H0.4v9.3h18.7V12.2z M13.1,3.8h5.1v7.6h-5.1V3.8z M7.2,3.8h5.1v7.6H7.2V3.8z M1.3,3.8h5.1v7.6H1.3V3.8z"/>
	<path d="M4.7,7C4.4,7.8,4.2,8.4,4.2,9.1v0.6c0,0.5-0.2,0.7-0.6,0.7C3.2,10.4,3,10.1,3,9.6C3,8.9,3.4,7.9,4.2,7 l0.6-0.8l0.1-0.1H3.5c-0.8,0-1.2,0.3-1.3,1l0,0.1l-0.3,0L2,5h3.6v0.5C5.1,6.2,5,6.4,4.7,7z"/>
	<path d="M10.7,7c-0.3,0.7-0.5,1.4-0.5,2.1v0.6c0,0.5-0.2,0.7-0.6,0.7C9.2,10.4,9,10.1,9,9.6C9,8.9,9.4,7.9,10.2,7 l0.6-0.8l0.1-0.1H9.5c-0.8,0-1.2,0.3-1.3,1l0,0.1l-0.3,0L8,5h3.6v0.5C11.1,6.2,11,6.4,10.7,7z"/>
	<path d="M16.7,7c-0.3,0.7-0.5,1.4-0.5,2.1v0.6c0,0.5-0.2,0.7-0.6,0.7c-0.4,0-0.6-0.3-0.6-0.8c0-0.7,0.5-1.7,1.2-2.6 l0.6-0.8l0.1-0.1h-1.4c-0.8,0-1.2,0.3-1.3,1l0,0.1l-0.3,0L14,5h3.6v0.5C17.1,6.2,17,6.4,16.7,7z"/>
</svg>
