<?xml version="1.0" encoding="utf-8"?>
<!-- Generator: Adobe Illustrator 17.0.0, SVG Export Plug-In . SVG Version: 6.00 Build 0)  -->
<!DOCTYPE svg PUBLIC "-//W3C//DTD SVG 1.1//EN" "http://www.w3.org/Graphics/SVG/1.1/DTD/svg11.dtd">
<svg version="1.1" id="Layer_1" xmlns="http://www.w3.org/2000/svg" xmlns:xlink="http://www.w3.org/1999/xlink" x="0px" y="0px"
	 width="99.639px" height="76px" viewBox="-13.639 0 99.639 76" enable-background="new -13.639 0 99.639 76" xml:space="preserve">
<g id="XMLID_346_">
	<path id="XMLID_347_" fill="#A6D300" d="M12.01,30.075l-0.101,0.368c-0.039,0.144-0.086,0.36-0.129,0.631
		c-0.051,0.271-0.094,0.548-0.137,0.844l-0.253,1.843l1.46,0.529l0.172-0.465c0.121-0.327,0.228-0.564,0.321-0.72
		c0.12-0.189,0.203-0.282,0.241-0.315c0.053-0.044,0.081-0.056,0.079-0.056c0.064-0.012,0.124-0.021,0.185-0.021h3.261
		c-0.225,0.517-0.443,1.017-0.659,1.499c-0.312,0.693-0.635,1.394-0.982,2.108c-0.34,0.711-0.711,1.451-1.117,2.222
		c-0.365,0.694-0.777,1.448-1.238,2.262l-0.423,0.747h2.977l0.188-0.032l0.115-0.066c0.06-0.034,0.114-0.067,0.164-0.103l0.13-0.096
		l0.049-0.154c0.1-0.314,0.226-0.688,0.379-1.122c0.155-0.437,0.329-0.92,0.529-1.447c0.191-0.528,0.402-1.085,0.63-1.685
		c0.228-0.6,0.468-1.211,0.718-1.846l0.079-0.196c0.227-0.568,0.46-1.15,0.704-1.741c0.247-0.614,0.507-1.223,0.766-1.831
		l0.172-0.405l-0.657-0.75H12.01V30.075z"/>
	<path id="XMLID_475_" fill="#A6D300" d="M24.242,44.235V26.808c0-1.378-1.121-2.5-2.5-2.5H8.601c-1.379,0-2.5,1.122-2.5,2.5v17.427
		c0,1.378,1.121,2.5,2.5,2.5h13.142C23.121,46.735,24.242,45.614,24.242,44.235z M7.101,44.235V26.808c0-0.827,0.673-1.5,1.5-1.5
		h13.142c0.827,0,1.5,0.673,1.5,1.5v17.427c0,0.827-0.673,1.5-1.5,1.5H8.601C7.773,45.735,7.101,45.062,7.101,44.235z"/>
	<path id="XMLID_481_" fill="#A6D300" d="M53.451,30.075l-0.101,0.368c-0.039,0.144-0.087,0.36-0.131,0.633
		c-0.049,0.27-0.092,0.547-0.135,0.842l-0.253,1.843l1.461,0.529l0.172-0.467c0.116-0.317,0.226-0.562,0.321-0.72
		c0.118-0.188,0.201-0.28,0.239-0.313c0.054-0.045,0.082-0.056,0.08-0.056c0.063-0.012,0.124-0.021,0.184-0.021h3.262
		c-0.225,0.517-0.443,1.017-0.659,1.499c-0.312,0.693-0.635,1.394-0.982,2.107c-0.341,0.711-0.711,1.452-1.117,2.223
		c-0.365,0.694-0.777,1.448-1.238,2.262l-0.423,0.747h2.977l0.187-0.031l0.114-0.066c0.062-0.035,0.119-0.069,0.169-0.107
		l0.126-0.095l0.048-0.151c0.102-0.314,0.227-0.689,0.381-1.123c0.155-0.437,0.329-0.921,0.528-1.447
		c0.192-0.528,0.401-1.085,0.631-1.686c0.228-0.6,0.467-1.211,0.718-1.846l0.079-0.196c0.227-0.568,0.46-1.15,0.704-1.741
		c0.264-0.653,0.538-1.3,0.814-1.947l0.123-0.289l-0.657-0.75L53.451,30.075L53.451,30.075z"/>
	<path id="XMLID_484_" fill="#A6D300" d="M63.184,24.308H50.041c-1.379,0-2.5,1.122-2.5,2.5v17.427c0,1.378,1.121,2.5,2.5,2.5
		h13.143c1.379,0,2.5-1.122,2.5-2.5V26.808C65.684,25.429,64.563,24.308,63.184,24.308z M64.684,44.235c0,0.827-0.673,1.5-1.5,1.5
		H50.041c-0.827,0-1.5-0.673-1.5-1.5V26.808c0-0.827,0.673-1.5,1.5-1.5h13.143c0.827,0,1.5,0.673,1.5,1.5V44.235z"/>
	<path id="XMLID_485_" fill="#A6D300" d="M32.079,30.075l-0.101,0.368c-0.039,0.144-0.085,0.359-0.131,0.633
		c-0.049,0.27-0.092,0.547-0.135,0.842l-0.253,1.843l1.46,0.529l0.172-0.465c0.121-0.327,0.228-0.564,0.322-0.722
		c0.123-0.196,0.211-0.288,0.239-0.313c0.054-0.045,0.082-0.056,0.08-0.056c0.063-0.012,0.124-0.021,0.184-0.021h3.262
		c-0.225,0.517-0.443,1.017-0.659,1.499c-0.312,0.693-0.635,1.394-0.982,2.107c-0.341,0.711-0.711,1.452-1.117,2.223
		c-0.365,0.694-0.777,1.448-1.238,2.262l-0.423,0.747h2.977l0.188-0.032l0.115-0.066c0.06-0.034,0.114-0.067,0.164-0.103l0.13-0.096
		l0.049-0.154c0.1-0.314,0.226-0.688,0.379-1.122c0.155-0.437,0.329-0.921,0.528-1.447c0.192-0.528,0.401-1.085,0.631-1.686
		c0.228-0.6,0.467-1.211,0.718-1.846l0.079-0.196c0.227-0.568,0.46-1.15,0.704-1.741c0.264-0.653,0.538-1.3,0.814-1.947l0.123-0.289
		l-0.657-0.75L32.079,30.075L32.079,30.075z"/>
	<path id="XMLID_488_" fill="#A6D300" d="M44.963,26.808c0-1.378-1.121-2.5-2.5-2.5H29.321c-1.379,0-2.5,1.122-2.5,2.5v17.427
		c0,1.378,1.121,2.5,2.5,2.5h13.142c1.379,0,2.5-1.122,2.5-2.5C44.963,44.235,44.963,26.808,44.963,26.808z M43.963,44.235
		c0,0.827-0.673,1.5-1.5,1.5H29.321c-0.827,0-1.5-0.673-1.5-1.5V26.808c0-0.827,0.673-1.5,1.5-1.5h13.142c0.827,0,1.5,0.673,1.5,1.5
		C43.963,26.808,43.963,44.235,43.963,44.235z"/>
	<path id="XMLID_491_" fill="#A6D300" d="M85.489,30.583c0-2.715-2.209-4.924-4.925-4.924c-2.715,0-4.924,2.209-4.924,4.924
		c0,2.373,1.687,4.358,3.924,4.821v20.493c0,1.654-1.346,3-3,3H72.01V20.301c0-2.915-2.371-5.286-5.286-5.286H48.319
		c-1.805-5.254-6.808-8.86-12.425-8.86s-10.62,3.606-12.425,8.86H5.797c-2.915,0-5.286,2.371-5.286,5.286v44.26
		c0,2.914,2.371,5.285,5.286,5.285h60.928c2.915,0,5.286-2.371,5.286-5.285v-3.663h4.554c2.757,0,5-2.243,5-5V35.404
		C83.802,34.941,85.489,32.956,85.489,30.583z M70.011,64.56c0,1.812-1.475,3.285-3.286,3.285H5.797
		c-1.811,0-3.286-1.474-3.286-3.285V20.3c0-1.812,1.475-3.286,3.286-3.286h19.169l0.203-0.731c1.335-4.786,5.745-8.129,10.726-8.129
		s9.391,3.343,10.726,8.129l0.203,0.731h19.901c1.812,0,3.286,1.474,3.286,3.286C70.011,20.3,70.011,64.56,70.011,64.56z
		 M81.351,33.386h-1.573c-1.229-0.346-2.137-1.465-2.137-2.803c0-1.612,1.312-2.924,2.924-2.924s2.925,1.312,2.925,2.924
		C83.489,31.921,82.58,33.04,81.351,33.386z"/>
	<path id="XMLID_498_" fill="#A6D300" d="M48.261,53.662c-2.134,0-3.869,1.736-3.869,3.869s1.735,3.869,3.869,3.869
		s3.869-1.735,3.869-3.869S50.395,53.662,48.261,53.662z M48.261,60.4c-1.582,0-2.869-1.287-2.869-2.869s1.287-2.869,2.869-2.869
		s2.869,1.287,2.869,2.869C51.13,59.113,49.843,60.4,48.261,60.4z"/>
	<path id="XMLID_512_" fill="#A6D300" d="M35.952,53.662c-2.134,0-3.869,1.736-3.869,3.869s1.735,3.869,3.869,3.869
		s3.869-1.735,3.869-3.869S38.086,53.662,35.952,53.662z M35.952,60.4c-1.582,0-2.869-1.287-2.869-2.869s1.287-2.869,2.869-2.869
		s2.869,1.287,2.869,2.869C38.821,59.113,37.534,60.4,35.952,60.4z"/>
	<path id="XMLID_523_" fill="#A6D300" d="M23.644,53.662c-2.134,0-3.869,1.736-3.869,3.869S21.51,61.4,23.644,61.4
		c2.133,0,3.868-1.735,3.868-3.869S25.776,53.662,23.644,53.662z M23.644,60.4c-1.582,0-2.869-1.287-2.869-2.869
		s1.287-2.869,2.869-2.869c1.581,0,2.868,1.287,2.868,2.869C26.512,59.113,25.225,60.4,23.644,60.4z"/>
</g>
</svg>
