<svg viewBox="0 0 35 35" version="1.1" xmlns="http://www.w3.org/2000/svg">
        <g id="icon_sports" fill-rule="nonzero">
            <path d="M17.9321892,34.6630389 C15.1192968,33.9012139 14.4307242,33.022185 14.4307242,30.2385936 L14.4160737,28.6123901 L13.6835496,29.1544579 C13.0096275,29.6525743 11.8375889,30.3264964 11.6324822,30.3264964 C11.5885308,30.3264964 11.4273755,30.0627878 11.2955211,29.7258267 L11.0318125,29.125157 L9.21515278,29.125157 L7.39849309,29.125157 L6.59271662,29.7844286 L5.80159062,30.4437003 L5.27417329,30.2092926 C3.57471746,29.4328171 1.71410632,27.7626622 1.42109669,26.751779 C1.3331938,26.4148179 1.11343658,26.0192549 0.937630808,25.8580996 C0.439514441,25.4185852 0.117203851,24.2611972 0.0293009627,22.7082461 C-0.0732524069,20.847635 0.219757221,19.6023441 0.922980326,18.9723734 C1.20133947,18.7379657 1.62620343,18.1226455 1.8899121,17.6245291 C2.15362076,17.1264127 2.57848472,16.4524906 2.85684387,16.1448305 C3.12055253,15.8225199 3.31100879,15.5295103 3.26705735,15.4855588 C3.2231059,15.4416074 3.67727082,15.1339473 4.29259104,14.8116367 C5.99204688,13.8593554 8.55588112,13.331938 8.74633738,13.8740059 C8.77563834,13.9765592 8.71703642,14.0937631 8.59983257,14.123064 C8.4972792,14.152365 8.13101716,14.2549184 7.79405609,14.3428213 C7.4717455,14.4307242 7.04688154,14.6211804 6.88572625,14.7676852 L6.57806614,15.0167434 L7.14943491,15.8225199 L7.72080368,16.6282964 L9.50816241,16.6429468 L11.2808707,16.6575973 L11.4859774,16.2473838 C11.6031812,16.0276266 11.7057346,15.6320636 11.7057346,15.3976559 C11.7057346,15.0020929 11.6031812,14.8995396 10.9732105,14.577229 C10.255337,14.2109669 10.0941817,14.0205107 10.3871913,13.8447049 C10.592298,13.727501 13.2586856,14.8848891 13.2147342,15.0753453 C13.1854332,15.1632482 13.2733361,15.2365006 13.39054,15.2365006 C13.9033068,15.2365006 16.2473838,17.8589368 16.2473838,18.4303056 C16.2473838,18.5475094 16.3499372,18.7672666 16.4671411,18.899121 C16.6722478,19.1188782 17.0092089,20.3641691 17.1996651,21.5362076 L17.2729175,22.0489745 L18.6354123,20.7304311 C20.818334,18.5768104 23.0159062,17.2729175 25.5797405,16.6136459 C26.8689828,16.2766848 27.2205944,16.2473838 29.066555,16.3059858 C31.3520301,16.3792382 32.4068648,16.6575973 33.6521557,17.4926748 C34.208874,17.8589368 34.3846798,18.0933445 34.5897865,18.6793638 C34.9560486,19.8074508 34.9267476,21.6827124 34.4872332,23.5286731 C33.842612,26.2683131 32.5826706,28.5098368 30.6195061,30.4730013 C26.9861867,34.0770197 21.9024697,35.761825 17.9321892,34.6630389 Z M20.8622855,32.9049812 C20.452072,32.6412725 19.9686061,32.2457095 19.7781499,32.0259523 C19.5730431,31.8208455 19.3532859,31.6450398 19.294684,31.6450398 C19.2214316,31.6450398 18.8551695,31.8208455 18.474257,32.0406028 L17.8003349,32.4361658 L18.444956,32.7145249 C19.0016743,32.9635831 20.6864797,33.3444956 21.3750523,33.388447 C21.4922562,33.4030975 21.2578485,33.1833403 20.8622855,32.9049812 Z M26.326915,32.3043114 C26.8982838,32.0259523 27.7626622,31.5424864 28.2314776,31.2348263 C29.3595647,30.4583508 30.8685643,28.8321473 31.4106321,27.8066136 L31.835496,26.9861867 L31.498535,26.1218083 C31.0297195,24.9790707 30.0334868,23.1477606 29.8723315,23.1477606 C29.7990791,23.1477606 29.3009627,23.557974 28.7735454,24.0560904 L27.8066136,24.9497698 L28.4219339,25.5797405 C29.0372541,26.2097112 29.0372541,26.2243617 28.7735454,26.5173713 C28.4072834,26.9275848 28.2900795,26.8982838 27.6015069,26.2243617 L27.0008372,25.6236919 L26.722478,25.931352 C26.4587694,26.2243617 26.4587694,26.2390121 26.9129343,26.7078275 C27.4110506,27.2205944 27.4843031,27.5282545 27.2059439,27.8066136 C26.9275848,28.0849728 26.6931771,28.0117204 26.0925073,27.4696526 C25.5504395,26.9861867 25.5064881,26.9861867 25.198828,27.2059439 L24.8618669,27.4257011 L25.4185852,27.9970699 C25.8874006,28.4658853 25.960653,28.6270406 25.8287987,28.8321473 C25.5504395,29.2570113 25.1841775,29.2130599 24.6128087,28.6563416 C24.1000419,28.1582252 24.0707409,28.1435747 23.7484303,28.3926329 L23.4114692,28.6563416 L23.9388866,29.1544579 C24.5249058,29.7258267 24.5688573,29.886982 24.1586438,30.253244 C23.8656342,30.5169527 23.8509837,30.5169527 23.221013,29.9016325 L22.5763918,29.2716618 L22.034324,29.6818753 L21.4776057,30.0920887 L22.4445375,31.0150691 C23.3382168,31.8501465 24.7593135,32.8170783 25.1109251,32.8170783 C25.198828,32.8170783 25.7408958,32.5826706 26.326915,32.3043114 Z M17.6391796,31.1908748 L18.444956,30.7367099 L17.9614902,30.0627878 C17.712432,29.6818753 17.2582671,28.9200502 16.9652574,28.3633319 L16.4378401,27.3670992 L16.3352867,28.1875262 C16.2766848,28.6563416 16.2620343,29.3009627 16.3206362,29.6379238 C16.4524906,30.5169527 16.7015488,31.6450398 16.7748012,31.6450398 C16.8041021,31.6450398 17.1996651,31.439933 17.6391796,31.1908748 Z M21.3164504,28.8321473 C21.5508581,28.6563416 21.7706153,28.4951863 21.7852658,28.4805358 C21.8145668,28.4658853 21.668062,28.1875262 21.4629552,27.8798661 C21.0087903,27.2059439 20.9794893,26.8689828 21.3897028,26.6638761 C21.7413144,26.4734198 22.1368774,26.751779 22.5031394,27.4550021 L22.7228966,27.8798661 L23.0159062,27.5722059 L23.3089159,27.2791963 L22.9133529,26.6052742 C22.5324404,25.9460025 22.5177899,25.9020511 22.7668481,25.6383424 C23.1624111,25.198828 23.3821683,25.2720804 23.8363332,26.0046044 C24.2465467,26.6638761 24.2611972,26.6638761 24.5249058,26.3708665 C24.773964,26.0925073 24.773964,26.0632064 24.4370029,25.4185852 C24.1586438,24.9058183 24.1146923,24.7007116 24.2465467,24.5102553 C24.5102553,24.0853914 24.9351193,24.2025952 25.3160318,24.7886145 C25.6529929,25.3160318 25.6676434,25.3160318 25.989954,25.0816241 L26.3122645,24.8325659 L25.9753035,24.3197991 C25.5797405,23.7484303 25.535789,23.4407702 25.7994977,23.1770615 C26.1218083,22.8547509 26.5027208,22.9866053 26.8103809,23.5140226 C26.9861867,23.7923817 27.147342,24.0267895 27.1912934,24.0267895 C27.2352449,24.0267895 27.7187108,23.587275 28.275429,23.0598577 L29.2716618,22.0782754 L28.9786522,21.6534115 C28.30473,20.7157807 27.0301381,19.4851402 26.0485559,18.8112181 L25.0230222,18.107995 L24.3344496,18.2838008 C22.5177899,18.7526162 20.027208,20.4081206 18.7379657,22.0196735 C17.5805776,23.4554207 17.5805776,23.3235663 18.4010046,25.140226 C19.0895772,26.6931771 20.5546254,29.1544579 20.7890331,29.1544579 C20.847635,29.1544579 21.0820427,29.0079531 21.3164504,28.8321473 Z M6.31435747,24.9497698 C6.68061951,24.4809544 7.10548347,23.8949351 7.28128924,23.6312265 L7.61825031,23.1624111 L6.69526999,21.6827124 L5.77228966,20.2176643 L5.113018,20.3055672 C4.74675596,20.3641691 4.0874843,20.5399749 3.64796986,20.7157807 L2.84219339,21.0234408 L2.79824194,22.7521976 L2.7542905,24.4663039 L4.10213478,25.1255756 C4.84930933,25.4918376 5.508581,25.7848472 5.56718292,25.7848472 C5.62578485,25.7848472 5.96274592,25.4039347 6.31435747,24.9497698 Z M14.7969862,25.1841775 C15.5148598,24.8179154 15.6613646,24.4663039 15.763918,22.7814985 C15.8518208,21.1552951 15.7785684,21.0380913 14.4014232,20.5692758 C13.4637924,20.2616157 13.3758895,20.2469653 13.2586856,20.481373 C13.1854332,20.6132273 12.8045207,21.272499 12.4089577,21.9464211 L11.6910841,23.1624111 L12.3943072,24.407702 L13.0975303,25.6529929 L13.6542486,25.56509 C13.9765592,25.5211386 14.4893261,25.3453328 14.7969862,25.1841775 Z M32.8756802,21.3897028 L32.7731268,20.1883633 L32.3482629,20.5985768 L31.9380494,20.9941398 L32.4068648,21.8438677 C32.655923,22.2980326 32.9049812,22.6642947 32.9342821,22.6349937 C32.9635831,22.6056928 32.9342821,22.0489745 32.8756802,21.3897028 Z M31.8061951,18.86982 C31.4252825,18.6354123 30.0774383,18.1519464 29.2277103,17.9614902 C28.8467978,17.8589368 28.8760988,17.9175387 29.52072,18.4303056 C29.916283,18.7379657 30.4730013,19.265383 30.7513604,19.5876936 L31.2641272,20.1883633 L31.7329427,19.660946 L32.2017581,19.1188782 L31.8061951,18.86982 Z"/>
            <path d="M17.712432,20.2323148 C17.3315195,20.027208 17.1557137,19.7928003 16.9506069,19.1921306 C16.8041021,18.7672666 16.6136459,18.3277522 16.525743,18.2251988 C16.4231896,18.107995 16.3938887,17.9761406 16.4378401,17.9321892 C16.4817915,17.8735873 17.3022185,17.8589368 18.2544998,17.8735873 C21.3457514,17.9321892 21.3897028,17.9614902 20.1151109,18.9137715 C19.6462955,19.2507325 19.0309753,19.7488489 18.7379657,20.0125576 L18.1958979,20.4960234 L17.712432,20.2323148 Z"/>
            <path d="M19.1042277,17.4047719 L16.0276266,17.2729175 L15.7492675,16.8773545 C15.5881122,16.6575973 15.1339473,16.1741314 14.7383843,15.7932189 C14.3428213,15.4123064 14.0644621,15.0460444 14.0937631,14.9874424 C14.1377145,14.91419 14.3867727,14.8409376 14.6651319,14.8262871 C15.4416074,14.7676852 17.8149853,14.0937631 19.236082,13.5223943 C22.2833822,12.3210548 24.7007116,10.8706572 26.4587694,9.21515278 C27.0594391,8.64378401 27.5868564,8.21892005 27.6308079,8.26287149 C27.8066136,8.43867727 27.8945165,9.47886145 27.8798661,11.2808707 C27.8798661,12.8777731 27.8212641,13.2586856 27.4696526,14.2842193 C26.9129343,15.9250733 26.8250314,16.0276266 25.8141482,16.2473838 C25.0376727,16.4231896 23.9974885,16.7748012 22.6935956,17.316869 C22.2687317,17.4780243 21.638761,17.4926748 19.1042277,17.4047719 Z"/>
            <path d="M12.4236082,14.1670155 C11.9987442,13.8886563 11.8522394,13.6102972 11.4566764,12.4529092 C11.1929678,11.6910841 11.0025115,11.0025115 11.017162,10.9439096 C11.0318125,10.8706572 11.4273755,10.6655504 11.8961909,10.4750942 C12.3650063,10.2992884 12.965676,9.96232733 13.2586856,9.74257011 C13.8740059,9.27375471 14.9581415,7.85265802 15.4709083,6.81247384 C16.4817915,4.83465885 19.0456258,2.93009627 21.5948095,2.27082461 C23.1184596,1.8899121 23.2942654,1.93386354 24.4516534,3.01799916 C25.5064881,4.0142319 26.5027208,5.39137715 27.0740896,6.65131854 L27.4110506,7.36919213 L26.4001674,8.38007535 C23.6898284,11.1197154 19.236082,13.4051905 14.8995396,14.2842193 C13.39054,14.577229 13.0096275,14.5625785 12.4236082,14.1670155 Z"/>
            <path d="M10.9439096,13.6982001 C10.7827543,13.5370448 8.52658016,13.3758895 7.75010465,13.4637924 C6.65131854,13.5956467 6.2118041,13.3758895 6.07994977,12.6433654 C5.80159062,10.9146086 6.25575555,7.45709502 6.76852239,7.35454165 C6.91502721,7.32524069 7.04688154,7.41314357 7.09083298,7.57429887 C7.13478443,7.72080368 7.38384261,8.26287149 7.6329008,8.77563834 C8.13101716,9.80117204 8.90749267,10.4750942 9.74257011,10.6362495 C10.0062788,10.6802009 10.2846379,10.7974048 10.3578903,10.8999581 C10.592298,11.1929678 11.2515697,13.5516953 11.1343658,13.6688991 C11.0757639,13.727501 10.987861,13.7421515 10.9439096,13.6982001 Z"/>
            <path d="M9.58141482,10.0209293 C9.34700712,9.90372541 8.99539556,9.66931771 8.81958979,9.49351193 C8.40937631,9.11259941 7.64755128,7.66220176 7.36919213,6.73922143 L7.14943491,6.00669736 L7.69150272,5.17161992 C7.98451235,4.717455 8.59983257,3.95562997 9.05399749,3.47216409 C10.0502302,2.43197991 11.6764337,1.23064044 11.8522394,1.40644621 C11.9254918,1.47969862 11.7350356,2.03641691 11.3980745,2.71033905 C10.621599,4.29259104 10.3432398,5.65508581 10.2992884,8.13101716 C10.2846379,9.25910423 10.2113855,10.196735 10.1381331,10.2113855 C10.0795312,10.2406865 9.830473,10.1527836 9.58141482,10.0209293 Z"/>
            <path d="M10.8999581,10.1088321 C10.7534533,9.85977396 10.7974048,6.6073671 10.9732105,5.71368774 C11.3541231,3.67727082 12.2478024,1.91921306 13.4198409,0.864378401 C13.9179573,0.410213478 14.1963165,0.293009627 15.0899958,0.146504814 C16.7015488,-0.131854332 18.840519,0.0293009627 20.3202177,0.527417329 C21.638761,0.952281289 22.2247802,1.31854332 22.0489745,1.58225199 C21.9903725,1.68480536 21.7852658,1.75805776 21.5801591,1.75805776 C21.0087903,1.75805776 19.0456258,2.57848472 18.078694,3.2231059 C16.7161992,4.13143575 15.6320636,5.30347426 14.91419,6.62201758 C14.2402679,7.8673085 12.8338217,9.46421097 12.0719967,9.84512348 C11.383424,10.196735 11.0025115,10.2846379 10.8999581,10.1088321 Z"/>
        </g>
</svg>