<?xml version="1.0" encoding="utf-8"?>
<!-- Generator: Adobe Illustrator 19.1.0, SVG Export Plug-In . SVG Version: 6.00 Build 0)  -->
<svg version="1.1" xmlns="http://www.w3.org/2000/svg" xmlns:xlink="http://www.w3.org/1999/xlink" x="0px" y="0px"
	 viewBox="0 0 200 100" style="enable-background:new 0 0 200 100;" xml:space="preserve">
<style type="text/css">
	.st0{fill:#00579F;}
	.st1{fill:#FAA61A;}
	.st2{fill:#FFFFFF;}
	.st3{fill:#7673C0;}
	.st4{fill:#EB001B;}
	.st5{fill:#00A1DF;}
	.st6{fill:#231F20;}
	.st7{fill:#FF5F00;}
	.st8{fill:#F79E1B;}
	.st9{fill:#00599F;}
	.st10{fill:#01589F;}
	.st11{fill:#F9A731;}
	.st12{enable-background:new    ;}
	.st13{fill:none;}
	.st14{fill:#8CC643;}
	.st15{fill:#1F467F;}
	.st16{fill:#02AEEE;}
	.st17{fill:#03AEEE;}
	.st18{fill:#636568;}
	.st19{fill:#EB682E;}
	.st20{fill:#122D8E;}
	.st21{fill:#0F6A2A;}
	.st22{fill:#65AD23;}
	.st23{fill:#080808;}
	.st24{fill:#F20B21;}
	.st25{fill:#000268;}
	.st26{fill:#FF0007;}
	.st27{fill:#CD0067;}
	.st28{fill:#8CC640;}
	.st29{fill:#EC1C24;}
	.st30{fill:#0692D2;}
	.st31{fill:#852064;}
	.st32{fill:#ED7E15;}
	.st33{fill:#3B3D41;}
	.st34{fill:#62CE02;}
	.st35{fill:#16BFB8;}
	.st36{fill:#222222;}
	.st37{fill:#FB6719;}
	.st38{fill:url(#SVGID_1_);}
	.st39{fill:url(#SVGID_2_);}
	.st40{fill:url(#SVGID_3_);}
	.st41{fill:url(#SVGID_4_);}
	.st42{fill:url(#SVGID_5_);}
	.st43{fill:url(#SVGID_6_);}
	.st44{fill:url(#SVGID_7_);}
	.st45{fill:url(#SVGID_8_);}
	.st46{fill:url(#SVGID_9_);}
	.st47{fill:url(#SVGID_10_);}
	.st48{fill:#FBFCFC;}
	.st49{fill:#05B9ED;}
	.st50{fill:#06B9EC;}
	.st51{fill:#FBFDFE;}
	.st52{fill:#FAFDFD;}
	.st53{fill:#D60A0A;}
	.st54{fill:#D70909;}
	.st55{fill:#D50C0C;}
	.st56{fill:#005580;}
	.st57{fill:#03537D;}
	.st58{fill:#05537D;}
	.st59{fill:#09B4E5;}
	.st60{fill:#08BAED;}
</style>
<g id="Calque_21">
</g>
<g id="WHITEBG">
	<g id="VISA">
	</g>
	<g id="VISA_DEBIT">
	</g>
	<g id="Calque_23">
	</g>
	<g id="Calque_24">
	</g>
	<g id="MAESTRO">
	</g>
	<g id="MASTERCARD">
	</g>
	<g id="ALL_VISA">
	</g>
	<g id="ECOPAYZ">
	</g>
	<g id="ENTERCASH">
	</g>
	<g id="ENTROPAY">
	</g>
	<g id="EUTELLER">
	</g>
	<g id="GIROPAY">
	</g>
	<g id="IDEAL">
	</g>
	<g id="NETELLER">
	</g>
	<g id="PAYSAFECARD">
	</g>
	<g id="SKRILL">
	</g>
	<g id="SOFORT">
	</g>
	<g id="TRUSTLY">
	</g>
	<g id="UKASH">
	</g>
	<g id="ZIMPLER">
	</g>
	<g id="BOKU">
		<g>
			<g>
				<g>
					
						<linearGradient id="SVGID_1_" gradientUnits="userSpaceOnUse" x1="108.4277" y1="28.6217" x2="108.8431" y2="27.4604" gradientTransform="matrix(1 0 0 -1 0 104)">
						<stop  offset="0" style="stop-color:#BFBFBF"/>
						<stop  offset="0.1277" style="stop-color:#898989"/>
						<stop  offset="0.266" style="stop-color:#BFBFBF"/>
						<stop  offset="0.6064" style="stop-color:#E7E7E7"/>
						<stop  offset="0.7979" style="stop-color:#989898"/>
						<stop  offset="1" style="stop-color:#BFBFBF"/>
					</linearGradient>
					<path class="st38" d="M108.5,75.3c-0.8,0.2-1,0.4-0.8,1c0.1,0.5,0.3,0.5,1.1,0.2l0.9-0.3l-0.4-1.2L108.5,75.3z"/>
					
						<linearGradient id="SVGID_2_" gradientUnits="userSpaceOnUse" x1="102.129" y1="29.1814" x2="103.2274" y2="26.1107" gradientTransform="matrix(1 0 0 -1 0 104)">
						<stop  offset="0" style="stop-color:#BFBFBF"/>
						<stop  offset="0.1277" style="stop-color:#898989"/>
						<stop  offset="0.266" style="stop-color:#BFBFBF"/>
						<stop  offset="0.6064" style="stop-color:#E7E7E7"/>
						<stop  offset="0.7979" style="stop-color:#989898"/>
						<stop  offset="1" style="stop-color:#BFBFBF"/>
					</linearGradient>
					<path class="st39" d="M102.4,74.6c-0.7,0.1-1.3,0.3-1.1,1.8c0.1,1.2,0.5,1.6,1.5,1.5c0.9-0.1,1.3-0.5,1.1-1.8
						C103.8,74.7,103.3,74.5,102.4,74.6z"/>
					
						<linearGradient id="SVGID_3_" gradientUnits="userSpaceOnUse" x1="90.5997" y1="80.2782" x2="110.6438" y2="24.2457" gradientTransform="matrix(1 0 0 -1 0 104)">
						<stop  offset="0" style="stop-color:#BFBFBF"/>
						<stop  offset="0.1277" style="stop-color:#898989"/>
						<stop  offset="0.266" style="stop-color:#BFBFBF"/>
						<stop  offset="0.6064" style="stop-color:#E7E7E7"/>
						<stop  offset="0.7979" style="stop-color:#989898"/>
						<stop  offset="1" style="stop-color:#BFBFBF"/>
					</linearGradient>
					<path class="st40" d="M100,19c-17.1,0-31,13.9-31,31s13.9,31,31,31s31-13.9,31-31S117.1,19,100,19z M126.1,37.4
						c0.7,1.4,0.3,2.1-1.2,2.9c-1.5,0.7-2.4,0.5-3.1-0.8l-0.9-1.8l4.3-2.1L126.1,37.4z M123.9,33.6l-0.6,0.5l-1.6-2l-0.8,0.6
						l1.5,1.9l-0.6,0.5l-1.5-1.9l-1,0.8l1.7,2.1l-0.6,0.5l-2.3-2.9l3.8-3L123.9,33.6z M117.3,26.8l3,2.5l-0.5,0.6l-1.1-0.9l-2.6,3
						l-0.8-0.6l2.6-3l-1.1-0.9L117.3,26.8z M111.1,25.9c0.8-1.5,1.9-1.9,3.2-1.2c1,0.6,1.4,1.4,1,2.4l-0.9-0.5
						c0.1-0.4,0.1-0.8-0.6-1.2s-1.3-0.1-1.9,1c-0.5,0.9-0.5,1.5,0.3,2c0.6,0.3,1,0.3,1.3-0.2l0.9,0.5c-0.5,0.8-1.3,1.2-2.6,0.5
						C110.5,28.4,110.2,27.4,111.1,25.9z M107,21.9l3.4,1l-0.2,0.8l-2.4-0.8l-0.3,1l2.3,0.7l-0.2,0.8l-2.3-0.7l-0.4,1.2l2.5,0.8
						l-0.2,0.8l-3.5-1.1L107,21.9z M101.1,21.1l3.9,0.4l-0.1,0.8l-1.4-0.1l-0.4,4l-1-0.1l0.4-4L101,22L101.1,21.1z M97.2,21.2
						c1.1-0.1,2.4,0.1,2.6,2.3c0.2,2.1-0.9,2.6-2.1,2.7c-1.2,0.1-2.4-0.2-2.6-2.3C94.9,21.8,96.1,21.3,97.2,21.2z M91.1,22.6
						c0.9-0.3,1.8-0.6,2.2,0.8c0.3,0.9,0,1.4-0.4,1.7l1.8,1.5l-1.1,0.4l-1.7-1.4L91,25.7l0.6,1.8l-0.9,0.3l-1.5-4.6L91.1,22.6z
						 M85.5,25.2c0.9-0.5,1.7-0.9,2.4,0.3c0.7,1.2,0.1,1.8-0.7,2.2l-0.8,0.5l0.9,1.5l-0.9,0.5l-2.5-4.1L85.5,25.2z M79.4,29.9
						l2.8,2.8l1.7-1.7l0.6,0.6L82.1,34l-3.4-3.4L79.4,29.9z M76.5,33.3c0.8-1.2,1.6-1.1,2.3-0.6l-0.6,0.8c-0.3-0.2-0.6-0.3-1.1,0.4
						c-0.3,0.4-0.4,0.7,0,0.9c0.3,0.2,0.5,0.1,0.7-0.1l0.9-0.7c0.5-0.4,1.1-0.8,1.9-0.2c1.1,0.8,0.5,1.8,0.1,2.4
						c-0.9,1.3-1.7,1.3-2.5,0.7l0.6-0.8c0.4,0.3,0.7,0.3,1.3-0.4c0.3-0.4,0.4-0.8,0-1c-0.2-0.2-0.4-0.1-0.8,0.1l-0.9,0.8
						c-0.5,0.4-1,0.6-1.7,0.1C76,35.2,75.6,34.5,76.5,33.3z M73.9,37.7c0.6-1.3,1.4-1.4,2.2-1.1l-0.4,0.9c-0.4-0.1-0.6-0.2-1,0.5
						c-0.2,0.4-0.2,0.7,0.1,0.9c0.3,0.1,0.5,0,0.7-0.2l0.7-0.8c0.5-0.5,0.9-0.9,1.8-0.5c1.2,0.6,0.8,1.7,0.5,2.3
						c-0.7,1.4-1.4,1.6-2.3,1.2l0.4-0.9c0.5,0.2,0.7,0.2,1.2-0.6c0.2-0.4,0.3-0.8-0.1-1c-0.3-0.1-0.5-0.1-0.8,0.3l-0.8,0.9
						c-0.4,0.5-0.9,0.8-1.7,0.4C73.8,39.7,73.3,39.1,73.9,37.7z M71.6,52.1l0.7-2.1l-1.8-1.3h2.2l0.7-2.1l0.7,2.1h2.2L74.5,50
						l0.7,2.1l-1.8-1.3L71.6,52.1z M74,62.7c-0.7-1.4-0.3-2.1,1.2-2.9c1.5-0.7,2.4-0.6,3.1,0.8l0.9,1.8l-4.3,2.1L74,62.7z
						 M76.1,66.5l0.6-0.5l1.6,2l0.8-0.7l-1.5-1.9l0.6-0.5l1.5,1.9l1-0.8l-1.7-2.1l0.6-0.5l2.3,2.9l-3.8,3L76.1,66.5z M82.7,73.3
						l-3-2.5l0.5-0.6l1.1,0.9l2.6-3l0.8,0.6l-2.6,3l1.1,0.9L82.7,73.3z M89,74.2c-0.8,1.5-1.8,1.9-3.1,1.2c-1-0.6-1.4-1.4-1-2.4
						l0.9,0.5c-0.1,0.4-0.1,0.8,0.6,1.2c0.7,0.4,1.3,0.1,1.9-1c0.5-0.9,0.5-1.5-0.3-2c-0.6-0.3-1-0.3-1.3,0.2l-0.9-0.5
						c0.5-0.8,1.3-1.2,2.6-0.5C89.6,71.6,89.8,72.6,89,74.2z M93.1,78.1l-3.4-1l0.2-0.8l2.4,0.7l0.3-1l-2.3-0.7l0.2-0.8l2.3,0.7
						l0.4-1.2l-2.5-0.8l0.2-0.8l3.5,1.1L93.1,78.1z M99,78.9l-3.9-0.4l0.1-0.8l1.4,0.1l0.4-4l1,0.1l-0.4,4l1.5,0.1L99,78.9z
						 M77.8,50c0-12.3,10-22.2,22.2-22.2s22.2,10,22.2,22.2s-10,22.2-22.2,22.2C87.7,72.2,77.8,62.3,77.8,50z M102.9,78.8
						c-1.1,0.1-2.4-0.1-2.6-2.2c-0.2-2.1,0.9-2.6,2.1-2.8c1.2-0.1,2.4,0.2,2.6,2.3C105.2,78.2,104,78.7,102.9,78.8z M109,77.3
						c-0.9,0.3-1.8,0.6-2.2-0.8c-0.3-0.9,0-1.4,0.4-1.7l-1.8-1.5l1.1-0.4l1.7,1.4l0.8-0.3l-0.6-1.8l0.9-0.3l1.6,4.6L109,77.3z
						 M114.6,74.8c-0.9,0.5-1.7,0.9-2.4-0.3c-0.7-1.2-0.1-1.8,0.7-2.2l0.8-0.5l-0.9-1.5l0.9-0.5l2.5,4.1L114.6,74.8z M120.6,70
						l-2.8-2.8l-1.7,1.7l-0.6-0.6l2.4-2.4l3.4,3.4L120.6,70z M123.5,66.6c-0.8,1.2-1.6,1.1-2.3,0.7l0.6-0.8c0.3,0.2,0.6,0.3,1.1-0.4
						c0.3-0.4,0.4-0.7,0-0.9c-0.3-0.2-0.5-0.1-0.7,0.1l-0.9,0.7c-0.5,0.4-1.1,0.8-1.9,0.2c-1.1-0.8-0.5-1.8-0.1-2.4
						c0.9-1.3,1.7-1.3,2.5-0.7l-0.6,0.8c-0.4-0.2-0.7-0.3-1.3,0.4c-0.3,0.4-0.4,0.8,0,1c0.2,0.2,0.4,0.1,0.8-0.1l0.9-0.8
						c0.5-0.4,1-0.6,1.7-0.1C124,64.7,124.4,65.4,123.5,66.6z M126.1,62.2c-0.6,1.3-1.4,1.4-2.2,1.1l0.4-0.9c0.4,0.1,0.6,0.2,1-0.6
						c0.2-0.5,0.2-0.7-0.1-0.9c-0.3-0.1-0.5,0-0.7,0.2l-0.7,0.9c-0.4,0.5-0.9,1-1.8,0.5c-1.2-0.6-0.9-1.7-0.5-2.3
						c0.7-1.4,1.4-1.6,2.3-1.2l-0.4,0.9c-0.5-0.2-0.7-0.2-1.2,0.6c-0.2,0.5-0.3,0.8,0.1,1c0.3,0.1,0.5,0.1,0.8-0.3l0.8-0.9
						c0.4-0.5,0.9-0.8,1.7-0.4C126.2,60.2,126.7,60.8,126.1,62.2z M126.6,50.8l-1.8,1.3l0.7-2.1l-1.8-1.3h2.2l0.7-2.1l0.7,2.1h2.2
						l-1.8,1.3l0.7,2.1L126.6,50.8z"/>
					
						<linearGradient id="SVGID_4_" gradientUnits="userSpaceOnUse" x1="96.912" y1="81.7191" x2="98.0103" y2="78.6488" gradientTransform="matrix(1 0 0 -1 0 104)">
						<stop  offset="0" style="stop-color:#BFBFBF"/>
						<stop  offset="0.1277" style="stop-color:#898989"/>
						<stop  offset="0.266" style="stop-color:#BFBFBF"/>
						<stop  offset="0.6064" style="stop-color:#E7E7E7"/>
						<stop  offset="0.7979" style="stop-color:#989898"/>
						<stop  offset="1" style="stop-color:#BFBFBF"/>
					</linearGradient>
					<path class="st41" d="M97.6,25.4c0.7-0.1,1.3-0.3,1.1-1.8c-0.1-1.2-0.5-1.6-1.5-1.5c-0.9,0.1-1.3,0.5-1.1,1.8
						C96.2,25.3,96.7,25.5,97.6,25.4z"/>
					
						<linearGradient id="SVGID_5_" gradientUnits="userSpaceOnUse" x1="85.9898" y1="78.127" x2="86.5029" y2="76.6926" gradientTransform="matrix(1 0 0 -1 0 104)">
						<stop  offset="0" style="stop-color:#BFBFBF"/>
						<stop  offset="0.1277" style="stop-color:#898989"/>
						<stop  offset="0.266" style="stop-color:#BFBFBF"/>
						<stop  offset="0.6064" style="stop-color:#E7E7E7"/>
						<stop  offset="0.7979" style="stop-color:#989898"/>
						<stop  offset="1" style="stop-color:#BFBFBF"/>
					</linearGradient>
					<path class="st42" d="M87,26c-0.3-0.5-0.5-0.5-1.2,0l-0.6,0.3l0.7,1.2l0.5-0.3C87.1,26.8,87.3,26.6,87,26z"/>
					
						<linearGradient id="SVGID_6_" gradientUnits="userSpaceOnUse" x1="91.2439" y1="80.5185" x2="91.6606" y2="79.3536" gradientTransform="matrix(1 0 0 -1 0 104)">
						<stop  offset="0" style="stop-color:#BFBFBF"/>
						<stop  offset="0.1277" style="stop-color:#898989"/>
						<stop  offset="0.266" style="stop-color:#BFBFBF"/>
						<stop  offset="0.6064" style="stop-color:#E7E7E7"/>
						<stop  offset="0.7979" style="stop-color:#989898"/>
						<stop  offset="1" style="stop-color:#BFBFBF"/>
					</linearGradient>
					<path class="st43" d="M91.6,24.7c0.8-0.2,1-0.4,0.8-1c-0.1-0.5-0.3-0.5-1.1-0.2l-0.9,0.3l0.4,1.2L91.6,24.7z"/>
					
						<linearGradient id="SVGID_7_" gradientUnits="userSpaceOnUse" x1="75.8426" y1="43.3078" x2="76.58" y2="41.2465" gradientTransform="matrix(1 0 0 -1 0 104)">
						<stop  offset="0" style="stop-color:#BFBFBF"/>
						<stop  offset="0.1277" style="stop-color:#898989"/>
						<stop  offset="0.266" style="stop-color:#BFBFBF"/>
						<stop  offset="0.6064" style="stop-color:#E7E7E7"/>
						<stop  offset="0.7979" style="stop-color:#989898"/>
						<stop  offset="1" style="stop-color:#BFBFBF"/>
					</linearGradient>
					<path class="st44" d="M75.6,60.7c-1.2,0.6-1.3,0.8-0.8,1.9l0.3,0.7l2.8-1.4L77.6,61C77.2,60.2,76.7,60.2,75.6,60.7z"/>
					
						<linearGradient id="SVGID_8_" gradientUnits="userSpaceOnUse" x1="113.581" y1="31.2931" x2="114.0956" y2="29.8544" gradientTransform="matrix(1 0 0 -1 0 104)">
						<stop  offset="0" style="stop-color:#BFBFBF"/>
						<stop  offset="0.1277" style="stop-color:#898989"/>
						<stop  offset="0.266" style="stop-color:#BFBFBF"/>
						<stop  offset="0.6064" style="stop-color:#E7E7E7"/>
						<stop  offset="0.7979" style="stop-color:#989898"/>
						<stop  offset="1" style="stop-color:#BFBFBF"/>
					</linearGradient>
					<path class="st45" d="M113.1,73.9c0.3,0.5,0.5,0.5,1.2,0l0.6-0.3l-0.7-1.2l-0.5,0.3C112.9,73.1,112.7,73.4,113.1,73.9z"/>
					
						<linearGradient id="SVGID_9_" gradientUnits="userSpaceOnUse" x1="123.4677" y1="66.5192" x2="124.2023" y2="64.4656" gradientTransform="matrix(1 0 0 -1 0 104)">
						<stop  offset="0" style="stop-color:#BFBFBF"/>
						<stop  offset="0.1277" style="stop-color:#898989"/>
						<stop  offset="0.266" style="stop-color:#BFBFBF"/>
						<stop  offset="0.6064" style="stop-color:#E7E7E7"/>
						<stop  offset="0.7979" style="stop-color:#989898"/>
						<stop  offset="1" style="stop-color:#BFBFBF"/>
					</linearGradient>
					<path class="st46" d="M124.4,39.4c1.2-0.6,1.3-0.8,0.8-1.9l-0.3-0.7l-2.8,1.4l0.4,0.8C122.8,39.9,123.3,39.9,124.4,39.4z"/>
				</g>
				
					<linearGradient id="SVGID_10_" gradientUnits="userSpaceOnUse" x1="97.1113" y1="68.366" x2="107.0304" y2="40.6374" gradientTransform="matrix(1 0 0 -1 0 104)">
					<stop  offset="0" style="stop-color:#BFBFBF"/>
					<stop  offset="0.1277" style="stop-color:#898989"/>
					<stop  offset="0.266" style="stop-color:#BFBFBF"/>
					<stop  offset="0.6064" style="stop-color:#E7E7E7"/>
					<stop  offset="0.7979" style="stop-color:#989898"/>
					<stop  offset="1" style="stop-color:#BFBFBF"/>
				</linearGradient>
				<path class="st47" d="M108.2,47.1c0,0.3,0,0.6,0.1,0.9h-1.1v-6.9c0-3.9-3.2-7.1-7.1-7.1h-1.6c-4,0-7.1,3.2-7.1,7.1V48h-1.8
					c-0.6,0-1.2,0.5-1.2,1.2v11.9c0,0.6,0.5,1.2,1.2,1.2h3.3h12.8h3.3c0.6,0,1.2-0.5,1.2-1.2v-10c0.9,0.8,2.1,1.2,3.4,1.2
					c2.9,0,5.3-2.4,5.3-5.3s-2.4-5.3-5.3-5.3C110.6,41.8,108.2,44.1,108.2,47.1z M99.9,56v2.5c0,0.3-0.2,0.6-0.6,0.6
					s-0.6-0.2-0.6-0.6V56c-0.5-0.2-0.9-0.8-0.9-1.4c0-0.8,0.7-1.5,1.5-1.5c0.8,0,1.5,0.7,1.5,1.5C100.8,55.3,100.4,55.8,99.9,56z
					 M104.1,48h-9.6v-6.9c0-2.2,1.8-4,4-4h1.6c2.2,0,4,1.8,4,4L104.1,48L104.1,48z M116.5,44.2l0.8,0.8c0.1,0.1,0.1,0.2,0,0.3
					l-5.1,5.1c0,0-0.1,0.1-0.2,0.1c-0.1,0-0.1,0-0.2-0.1l-2-2c-0.1-0.1-0.2-0.3-0.4-0.4l0,0c-0.1-0.1-0.1-0.2,0-0.3l0.8-0.8
					c0.1-0.1,0.2-0.1,0.3,0l1.4,1.4l4.1-4.1C116.3,44.1,116.5,44.1,116.5,44.2z"/>
			</g>
		</g>
	</g>
</g>
</svg>
