<?xml version="1.0" encoding="UTF-8"?>
<!DOCTYPE svg PUBLIC "-//W3C//DTD SVG 1.1//EN" "http://www.w3.org/Graphics/SVG/1.1/DTD/svg11.dtd">
<!-- Creator: CorelDRAW X7 -->
<svg xmlns="http://www.w3.org/2000/svg" xml:space="preserve" width="2906px" height="2906px" version="1.1" style="shape-rendering:geometricPrecision; text-rendering:geometricPrecision; image-rendering:optimizeQuality; fill-rule:evenodd; clip-rule:evenodd"
viewBox="0 0 29060 29060"
 xmlns:xlink="http://www.w3.org/1999/xlink">
 <defs>
  <style type="text/css">
   <![CDATA[
    .fil0 {fill:#FEFEFE}
    .fil2 {fill:#1691CE}
    .fil1 {fill:#FF3D00;fill-rule:nonzero}
   ]]>
  </style>
 </defs>
 <g id="Layer_x0020_1">
  <metadata id="CorelCorpID_0Corel-Layer"/>
  <circle class="fil0" cx="14530" cy="14530" r="14267"/>
  <g id="_1324096304">
   <g id="_915965408">
    <path class="fil1" d="M14534 0c-4013,0 -7647,1623 -10275,4259 -2636,2628 -4259,6262 -4259,10275 0,4005 1623,7639 4259,10267 2628,2636 6262,4259 10275,4259 4005,0 7639,-1623 10267,-4259 2636,-2628 4259,-6262 4259,-10267 0,-4013 -1623,-7647 -4259,-10275 -2628,-2636 -6262,-4259 -10267,-4259zm-9627 4907c2464,-2457 5867,-3984 9627,-3984 3752,0 7155,1527 9619,3984 2465,2464 3984,5867 3984,9627 0,3752 -1519,7155 -3984,9619 -2464,2465 -5867,3984 -9619,3984 -3760,0 -7163,-1519 -9627,-3984 -2457,-2464 -3984,-5867 -3984,-9619 0,-3760 1527,-7163 3984,-9627z"/>
    <path class="fil2" d="M14534 3782l849 641 1533 -268 611 878 1541 224 313 1020 1400 685 -23 1064 1117 1087 -350 1013 730 1377 -648 849 268 1534 -879 610 -215 1542 -1020 312 -693 1400 -1065 -22 -1087 1117 -1005 -350 -1377 729 -856 -640 -1534 261 -611 -871 -1541 -224 -313 -1020 -1392 -692 15 -1065 -1117 -1087 350 -1005 -730 -1378 648 -856 -268 -1534 879 -610 223 -1541 1020 -313 685 -1392 1065 14 1087 -1116 1005 350 1385 -723 0 0zm0 1944c3186,0 5770,2583 5770,5777 0,3187 -2584,5778 -5770,5778 -3194,0 -5778,-2591 -5778,-5778 0,-3194 2584,-5777 5778,-5777z"/>
    <path class="fil1" d="M14936 15181l0 -923c1035,-178 1601,-863 1601,-1668 0,-811 -432,-1303 -1504,-1682 -767,-291 -1080,-477 -1080,-775 0,-253 186,-506 774,-506 648,0 1065,209 1296,305l268 -1020c-298,-141 -707,-268 -1311,-297l0 -790 -886 0 0 857c-960,186 -1518,811 -1518,1600 0,879 655,1326 1623,1653 662,224 953,440 953,782 0,365 -350,558 -864,558 -588,0 -1117,-186 -1497,-394l-268 1057c343,194 924,357 1527,387l0 856 886 0z"/>
    <path class="fil1" d="M14534 6842c-1288,0 -2457,522 -3299,1370 -841,842 -1362,2003 -1362,3291 0,1281 521,2450 1362,3291 842,842 2011,1363 3299,1363 1280,0 2449,-521 3291,-1363 841,-841 1362,-2010 1362,-3291 0,-1288 -521,-2449 -1362,-3291 -842,-848 -2011,-1370 -3291,-1370zm-3582 1080c916,-916 2182,-1482 3582,-1482 1392,0 2658,566 3574,1482 915,916 1489,2182 1489,3581 0,1400 -574,2666 -1489,3582 -916,916 -2182,1481 -3574,1481 -1400,0 -2666,-565 -3582,-1481 -915,-916 -1481,-2182 -1481,-3582 0,-1399 566,-2665 1481,-3581z"/>
    <polygon class="fil2" points="15762,19425 19038,25278 19761,22947 22106,23543 19291,18510 18316,18487 17125,19716 15971,19314 "/>
    <polygon class="fil2" points="13313,19411 10022,25278 9299,22947 6954,23543 9783,18480 11101,18673 11801,19671 "/>
   </g>
  </g>
 </g>
</svg>
