<?xml version="1.0" encoding="UTF-8"?>
<!DOCTYPE svg PUBLIC "-//W3C//DTD SVG 1.1//EN" "http://www.w3.org/Graphics/SVG/1.1/DTD/svg11.dtd">
<!-- Creator: CorelDRAW X7 -->
<svg xmlns="http://www.w3.org/2000/svg" xml:space="preserve" width="2907px" height="2907px" version="1.1" style="shape-rendering:geometricPrecision; text-rendering:geometricPrecision; image-rendering:optimizeQuality; fill-rule:evenodd; clip-rule:evenodd"
viewBox="0 0 29070 29070"
 xmlns:xlink="http://www.w3.org/1999/xlink">
 <defs>
  <style type="text/css">
   <![CDATA[
    .fil0 {fill:#FEFEFE}
    .fil2 {fill:#1691CE}
    .fil1 {fill:#FF3D00;fill-rule:nonzero}
   ]]>
  </style>
 </defs>
 <g id="Layer_x0020_1">
  <metadata id="CorelCorpID_0Corel-Layer"/>
  <circle class="fil0" cx="14535" cy="14535" r="14230"/>
  <g id="_1234509632">
   <path class="fil1" d="M29066 14849c90,-4023 -1465,-7686 -4036,-10373 -2571,-2686 -6170,-4383 -10181,-4473 -4023,-77 -7686,1465 -10373,4036 -2686,2584 -4383,6170 -4473,10193 -77,4011 1465,7674 4036,10361 2584,2687 6170,4383 10193,4473 4011,90 7674,-1465 10361,-4036 2687,-2571 4383,-6170 4473,-10181zm-4704 -9730c2403,2519 3856,5951 3779,9705 -77,3753 -1671,7121 -4191,9538 -2506,2403 -5951,3856 -9705,3779 -3753,-77 -7121,-1671 -9538,-4191 -2403,-2506 -3856,-5951 -3779,-9705 77,-3753 1671,-7121 4191,-9538 2519,-2403 5951,-3856 9705,-3779 3753,77 7121,1671 9538,4191z"/>
   <g>
    <path class="fil2" d="M14541 2779c6478,0 11749,5271 11749,11762 0,6479 -5270,11749 -11749,11749 -4152,0 -7790,-2147 -9885,-5386l77 -103 0 0 64 -103 0 0 78 -103 0 0 77 -102 0 0 64 -103 0 0 77 -116 0 0 77 -103 0 0 77 -116 0 0 77 -102 0 0 78 -116 0 0 77 -116 0 0 77 -115 0 0 77 -116 0 0 77 -129 0 0 77 -115 0 0 77 -129 0 0 77 -116 0 0 78 -128 0 0 90 -129 0 0 77 -128 0 0 77 -129 0 0 90 -128 0 0 77 -129 0 0 90 -141 0 0 77 -129 0 0 90 -141 0 0 77 -142 0 0 90 -141 0 0 90 -129 0 0 77 -154 0 0 90 -141 0 0 90 -142 0 0 90 -141 0 0 77 -154 13 0 77 -142 0 0 90 -154 0 0 90 -154 0 0 90 -154 0 0 90 -155 0 0 90 -154 0 0 103 -154 0 0 90 -154 0 0 90 -167 0 0 90 -155 0 0 90 -167 0 0 103 -167 0 0c64,-103 128,-218 193,-321l0 -13 90 -167 0 0 90 -167 0 0 102 -167 0 0 90 -168 0 0 103 -180 0 0 103 -167 0 0 90 -180 0 0 103 -180 0 0 103 -167 0 0 90 -180 0 0 102 -180 0 0 103 -192 0 0 103 -180 0 0 103 -180 103 -193 103 -180c-52,6838 964,10553 3380,10373 2160,-154 4281,-3535 6389,-8136 848,1773 1709,3380 2751,4319 527,488 861,372 424,-425 -1054,-1941 -1967,-4062 -2057,-6825 -38,-1247 -1658,-1581 -2224,51 -1195,3497 -2828,6325 -4679,8574 -282,347 -642,553 -899,0 -862,-1890 -1247,-6144 -643,-12906 116,-1272 -1234,-2378 -2108,-694l-116 232 -116 218 0 0 -102 219 0 0 -116 218 0 0 -116 219 0 0 -115 218 0 0 -116 219 0 0 -116 218 0 0 -103 206 0 0 -115 218 0 0 -116 206 0 0 -116 206 0 0 -103 205 0 0 -115 206 0 0 -116 206 0 0 -103 205 0 0 -116 206 0 0 -115 193 0 0 -103 206 0 0 -116 192 0 0 -103 193 -12 0 -103 206 0 0 -116 193 0 0 -103 193 0 0 -115 192 0 0 -116 193 0 0 -103 193 0 0 -116 180 0 0 -115 193 0 0 -103 180 0 0 -116 192 0 0 -116 180 0 0c-38,65 -64,129 -102,193l0 0c-39,52 -78,116 -116,180l0 0c-39,64 -77,116 -116,180l0 0 -103 180 0 0 -115 180 0 0 -116 180 0 0 -116 180 0 0 -103 180 0 0 -115 167 0 0c-39,64 -77,129 -116,180l0 0 -116 180 0 0c-38,51 -77,116 -115,167l0 0 -116 180 0 0c-39,51 -77,116 -116,167l0 0c-38,64 -64,116 -103,167l0 13c-38,52 -77,103 -115,167l0 0c-39,52 -77,116 -116,167l0 0 -116 167 0 0 -115 168 0 0 -129 167 0 0c-38,64 -77,115 -116,167l0 0c-38,64 -77,115 -115,167l0 0 -116 167 0 0c-38,64 -77,116 -116,167l0 0 -115 167 0 0c-90,103 -167,219 -245,322l0 0c-38,64 -77,115 -115,167l0 0c-52,51 -90,115 -129,167l0 0 -115 154 0 0 -129 167 0 0c-39,52 -77,103 -116,154 -334,-1079 -514,-2223 -514,-3406 0,-6491 5270,-11762 11762,-11762l0 0zm-10399 14037c-90,103 -167,219 -244,322l244 -322z"/>
   </g>
  </g>
 </g>
</svg>
