<?xml version="1.0" encoding="UTF-8"?>
<!DOCTYPE svg PUBLIC "-//W3C//DTD SVG 1.1//EN" "http://www.w3.org/Graphics/SVG/1.1/DTD/svg11.dtd">
<!-- Creator: CorelDRAW X7 -->
<svg xmlns="http://www.w3.org/2000/svg" xml:space="preserve" width="2907px" height="2907px" version="1.1" style="shape-rendering:geometricPrecision; text-rendering:geometricPrecision; image-rendering:optimizeQuality; fill-rule:evenodd; clip-rule:evenodd"
viewBox="0 0 29070 29070"
 xmlns:xlink="http://www.w3.org/1999/xlink">
 <defs>
  <style type="text/css">
   <![CDATA[
    .fil0 {fill:#FEFEFE}
    .fil2 {fill:#1691CE;fill-rule:nonzero}
    .fil1 {fill:#FF3D00;fill-rule:nonzero}
   ]]>
  </style>
 </defs>
 <g id="Layer_x0020_1">
  <metadata id="CorelCorpID_0Corel-Layer"/>
  <circle class="fil0" cx="14535" cy="14535" r="14230"/>
  <g id="_1229903008">
   <g id="_627945760">
    <path class="fil1" d="M29066 14849c90,-4023 -1465,-7686 -4036,-10373 -2571,-2686 -6170,-4383 -10181,-4473 -4023,-77 -7686,1465 -10373,4036 -2686,2584 -4383,6170 -4473,10193 -77,4011 1465,7674 4036,10361 2584,2687 6170,4383 10193,4473 4011,90 7674,-1465 10361,-4036 2687,-2571 4383,-6170 4473,-10181zm-4704 -9730c2403,2519 3856,5951 3779,9705 -77,3753 -1671,7121 -4191,9538 -2506,2403 -5951,3856 -9705,3779 -3753,-77 -7121,-1671 -9538,-4191 -2403,-2506 -3856,-5951 -3779,-9705 77,-3753 1671,-7121 4191,-9538 2519,-2403 5951,-3856 9705,-3779 3753,77 7121,1671 9538,4191z"/>
    <path class="fil2" d="M22896 11366c-231,-386 -475,-771 -848,-1028 -951,-733 -2198,-900 -3368,-952 -990,13 -1967,129 -2918,360 -296,90 -514,-193 -758,-308 1105,-502 2301,-797 3496,-964 1106,-77 2275,-65 3252,527 797,488 1247,1439 1144,2365l0 0zm-1697 1324c-295,1298 -1131,2391 -2031,3329 -1542,1530 -3470,2674 -5553,3304 -989,283 -2018,475 -3046,360 -656,-103 -1350,-335 -1748,-874 -424,-553 -463,-1299 -283,-1941 257,-965 810,-1839 1491,-2571 13,1067 0,2134 0,3200 0,309 52,656 270,900 270,257 707,386 1067,232 231,-78 437,-219 643,-335 2429,-1414 4846,-2815 7275,-4229 296,-167 669,-321 797,-681 193,-424 -26,-951 -424,-1157 -1093,-617 -2198,-1208 -3304,-1825 797,-283 1646,-373 2481,-334 772,25 1594,282 2057,925 360,489 398,1118 308,1697l0 0zm-5964 7031c-1517,733 -3149,1299 -4833,1427 -591,90 -1183,0 -1761,-103 -694,-141 -1401,-463 -1838,-1041 -566,-758 -617,-1825 -283,-2687 26,643 270,1286 745,1723 849,810 2057,1067 3188,1144 1967,90 3921,-360 5733,-1080 129,-51 257,-90 386,-128 -424,295 -874,514 -1337,745l0 0zm-3381 -10695c283,-38 502,142 720,270 1710,1029 3432,2057 5142,3085 218,116 411,335 386,592 25,295 -193,527 -437,642 -1800,1029 -3600,2083 -5399,3124 -334,231 -746,39 -977,-244 -52,-244 -64,-489 -64,-733 -39,-1967 -13,-3933 -26,-5913 -52,-386 257,-797 655,-823l0 0zm12829 733c-591,-861 -1581,-1362 -2558,-1632 -1414,-386 -2905,-386 -4358,-245 -1311,168 -2622,476 -3882,900 -719,-450 -1465,-874 -2185,-1311 -411,-283 -1028,-270 -1375,103 -219,206 -296,514 -296,797 0,707 0,1414 0,2108 -810,488 -1607,1003 -2352,1594 -1299,1028 -2494,2237 -3265,3715 -476,951 -759,2056 -463,3098 257,1002 1054,1761 1954,2185 1465,694 3136,784 4717,694 1736,-128 3432,-540 5052,-1118 2455,-900 4782,-2198 6710,-3972 1183,-1119 2275,-2430 2712,-4036 283,-952 180,-2057 -411,-2880l0 0z"/>
   </g>
  </g>
 </g>
</svg>
