<?xml version="1.0" encoding="UTF-8"?>
<!DOCTYPE svg PUBLIC "-//W3C//DTD SVG 1.1//EN" "http://www.w3.org/Graphics/SVG/1.1/DTD/svg11.dtd">
<!-- Creator: CorelDRAW X7 -->
<svg xmlns="http://www.w3.org/2000/svg" xml:space="preserve" width="930px" height="930px" version="1.1" style="shape-rendering:geometricPrecision; text-rendering:geometricPrecision; image-rendering:optimizeQuality; fill-rule:evenodd; clip-rule:evenodd"
viewBox="0 0 12461 12461"
 xmlns:xlink="http://www.w3.org/1999/xlink">
 <defs>
  <style type="text/css">
   <![CDATA[
    .fil0 {fill:#FEFEFE}
    .fil2 {fill:#1691CE;fill-rule:nonzero}
    .fil1 {fill:#FF3D00;fill-rule:nonzero}
    .fil3 {fill:#FF3D00;fill-rule:nonzero}
   ]]>
  </style>
 </defs>
 <g id="Layer_x0020_1">
  <metadata id="CorelCorpID_0Corel-Layer"/>
  <circle class="fil0" cx="6231" cy="6231" r="6042"/>
  <g id="_923895088">
   <path class="fil1" d="M12460 6363c36,-1720 -628,-3292 -1731,-4443 -1103,-1152 -2646,-1882 -4366,-1919 -1720,-36 -3292,628 -4443,1731 -1152,1104 -1882,2646 -1919,4366 -36,1720 628,3292 1731,4444 1104,1151 2646,1881 4366,1918 1720,36 3292,-628 4444,-1731 1151,-1103 1881,-2646 1918,-4366zm-2017 -4170c1033,1078 1655,2551 1621,4162 -34,1610 -718,3055 -1796,4088 -1078,1033 -2551,1655 -4161,1621 -1611,-34 -3056,-718 -4089,-1796 -1033,-1078 -1655,-2551 -1621,-4161 34,-1611 718,-3056 1796,-4089 1078,-1033 2551,-1655 4162,-1621 1610,34 3055,718 4088,1796z"/>
   <g>
    <path class="fil2" d="M8555 7613l0 560c0,196 -276,362 -722,470 -411,100 -976,162 -1599,162 -622,0 -1187,-62 -1598,-162 -446,-108 -722,-274 -722,-470l0 -560c0,-17 2,-33 6,-48 57,28 118,52 177,73 33,95 249,191 581,272 396,97 947,156 1556,156 610,0 1161,-59 1557,-156 362,-88 586,-194 586,-297 0,-53 -59,-107 -165,-159 48,-39 88,-82 115,-130 146,84 228,182 228,289z"/>
    <path class="fil2" d="M8297 6727l0 451c0,196 -276,361 -722,470 -411,99 -976,161 -1599,161 -622,0 -1187,-62 -1598,-161 -446,-109 -722,-274 -722,-470l0 -561c0,-156 175,-293 472,-397l0 13c0,57 17,109 46,156 -215,72 -340,151 -340,228 0,104 224,210 586,298 396,96 947,156 1556,156 610,0 1161,-60 1557,-156 98,-24 186,-49 261,-75 115,-19 228,-42 340,-69 46,-11 102,-25 163,-44z"/>
    <path class="fil2" d="M8839 5672l0 561c0,196 -276,361 -721,470 -411,100 -977,162 -1599,162 -623,0 -1188,-62 -1599,-162 -446,-109 -721,-274 -721,-470l0 -561c0,-20 2,-39 8,-58 56,27 114,50 171,71 17,99 237,200 584,285 397,96 947,156 1557,156 610,0 1160,-60 1557,-156 361,-88 585,-194 585,-298 0,-54 -62,-109 -173,-162 49,-38 90,-81 119,-129 149,85 232,184 232,291z"/>
    <path class="fil2" d="M8582 4665l0 561c0,196 -275,361 -721,470 -411,100 -977,161 -1599,161 -622,0 -1188,-61 -1599,-161 -445,-109 -721,-274 -721,-470l0 -517c129,60 268,102 373,129 98,44 231,86 390,125 397,96 947,156 1557,156 610,0 1160,-60 1557,-156 362,-88 585,-194 585,-298 0,-47 -45,-94 -129,-140 39,-44 68,-93 82,-147 144,84 225,181 225,287z"/>
    <path class="fil2" d="M8294 3750l0 560c0,197 -276,362 -721,470 -411,100 -977,162 -1599,162 -623,0 -1188,-62 -1599,-162 -446,-108 -721,-273 -721,-470l0 -560c0,-197 275,-362 721,-470 411,-100 976,-162 1599,-162 622,0 1188,62 1599,162 445,108 721,273 721,470zm-763 -298c-397,-96 -947,-156 -1557,-156 -610,0 -1160,60 -1557,156 -362,88 -585,194 -585,298 0,103 223,209 585,297 397,97 947,156 1557,156 610,0 1160,-59 1557,-156 361,-88 585,-194 585,-297 0,-104 -224,-210 -585,-298z"/>
   </g>
   <path class="fil3" d="M6096 11899c-564,-87 -984,-152 -1453,-224 -255,-74 -504,-166 -745,-275l1295 200 2529 -1921 -6205 -956 -273 207c-25,-47 -50,-94 -74,-141l130 -100 -194 -30c-27,-56 -53,-114 -78,-172l448 69 2015 -1530 0 152c0,15 1,29 3,44l-1802 1368 6205 956 2729 -2072 -2165 -334 0 -160 2341 361 1092 -829c-4,69 -9,139 -15,208l-861 654 742 115c-12,51 -24,103 -37,154l-880 -136 -2729 2073 2397 369c-41,48 -83,94 -126,141l-2446 -377 -2529 1920 1484 229c-258,30 -520,43 -784,37l-14 0zm-2528 -5513l-2999 -462c3,-53 6,-106 11,-159l3128 482c-55,41 -103,87 -140,139zm-79 -2574l-1494 -230 -1151 874c30,-91 63,-182 97,-272l838 -636 -503 -77c28,-49 56,-98 85,-147l593 91 2629 -1996 -1071 -165c79,-43 159,-84 239,-123l1007 155 920 -699c96,-9 192,-16 288,-20l-991 752 5014 773 64 -49c92,84 181,170 267,260l-290 -44 -1652 1254c-30,-42 -68,-80 -111,-114l1546 -1174 -5014 -773 -2629 1997 1331 205c-8,30 -12,62 -12,96l0 62zm5194 641l3066 472c13,55 25,110 36,166l-3040 -469c-8,-62 -30,-119 -62,-169z"/>
  </g>
 </g>
</svg>
