<?xml version="1.0" encoding="UTF-8"?>
<!DOCTYPE svg PUBLIC "-//W3C//DTD SVG 1.1//EN" "http://www.w3.org/Graphics/SVG/1.1/DTD/svg11.dtd">
<!-- Creator: CorelDRAW X7 -->
<svg xmlns="http://www.w3.org/2000/svg" xml:space="preserve" width="2906px" height="2906px" version="1.1" style="shape-rendering:geometricPrecision; text-rendering:geometricPrecision; image-rendering:optimizeQuality; fill-rule:evenodd; clip-rule:evenodd"
viewBox="0 0 29060 29060"
 xmlns:xlink="http://www.w3.org/1999/xlink">
 <defs>
  <style type="text/css">
   <![CDATA[
    .fil0 {fill:#FEFEFE}
    .fil2 {fill:#1691CE}
    .fil3 {fill:#FF3D00}
    .fil1 {fill:#FF3D00;fill-rule:nonzero}
   ]]>
  </style>
 </defs>
 <g id="Layer_x0020_1">
  <metadata id="CorelCorpID_0Corel-Layer"/>
  <circle class="fil0" cx="14530" cy="14530" r="14228"/>
  <g id="_1229560768">
   <path class="fil1" d="M19760 978c-3743,-1444 -7716,-1235 -11115,271 -3398,1506 -6223,4309 -7667,8051 -1444,3743 -1235,7716 271,11115 1506,3398 4309,6223 8051,7667 3743,1444 7716,1235 11115,-271 3398,-1506 6223,-4309 7667,-8051 1444,-3743 1235,-7716 -271,-11115 -1506,-3398 -4309,-6223 -8051,-7667zm-10741 1115c3183,-1410 6904,-1606 10408,-254 3505,1352 6130,3997 7540,7180 1410,3183 1606,6904 254,10408 -1352,3505 -3997,6130 -7180,7540 -3183,1410 -6904,1606 -10408,254 -3505,-1352 -6130,-3997 -7540,-7180 -1410,-3183 -1606,-6904 -254,-10408 1352,-3505 3997,-6130 7180,-7540z"/>
   <path class="fil2" d="M19380 21083l0 -15130 595 0 -3 16711c4,709 -569,1293 -1277,1299l-8280 35c-708,6 -1293,-569 -1299,-1277 -47,-5612 -27,-11172 -25,-16768l599 0c-2,5081 -20,10125 9,15225l2219 2220 5168 -22 2294 -2293 0 0z"/>
   <path class="fil2" d="M12471 13939l514 2c99,580 481,899 929,901 454,1 732,-240 946,-839 163,-427 270,-604 436,-603 141,0 282,107 281,434 -2,363 -119,595 -175,726l570 148c81,-166 152,-393 169,-730l443 1 2 -494 -479 -1c-104,-540 -450,-854 -894,-856 -489,-1 -742,366 -926,904 -127,373 -249,534 -440,533 -202,-1 -312,-198 -311,-485 1,-328 108,-625 225,-836l-590 -153c-111,191 -203,518 -219,856l-479 -2 -2 494 0 0zm4397 -2898c739,646 1147,1530 1208,2438 62,907 -223,1839 -869,2578 -645,739 -1530,1147 -2437,1209 -908,61 -1839,-224 -2578,-869 -740,-646 -1147,-1530 -1209,-2438 -61,-907 223,-1839 869,-2578 646,-739 1530,-1147 2438,-1209 907,-61 1838,224 2578,870l0 -1zm614 2478c-51,-755 -390,-1492 -1006,-2029 -615,-538 -1391,-775 -2146,-723 -756,51 -1492,390 -2029,1006 -538,615 -775,1391 -724,2146 51,756 391,1492 1006,2029 616,538 1391,775 2147,724 755,-52 1491,-391 2029,-1007 537,-615 774,-1390 723,-2146z"/>
   <path class="fil3" d="M5415 6546l3476 0 -1 738 -4975 0c1335,-1960 3196,-3522 5409,-4502 3118,-1382 6651,-1468 9832,-240 2458,948 4532,2603 5989,4742l-4971 0 0 -738 3471 0c-483,-552 -1013,-1057 -1585,-1511 -947,-749 -2012,-1361 -3169,-1807 -1500,-579 -3082,-848 -4657,-809 -1572,38 -3140,385 -4613,1037 -1043,462 -2000,1058 -2850,1766 -486,405 -939,847 -1356,1324l0 0z"/>
   <path class="fil3" d="M8641 5791l11783 0c592,0 528,-511 0,-810 -3891,-2204 -7936,-2186 -11783,0 -532,302 -586,810 0,810z"/>
  </g>
 </g>
</svg>
