<?xml version="1.0" encoding="utf-8"?>
<!-- Generator: Adobe Illustrator 17.0.0, SVG Export Plug-In . SVG Version: 6.00 Build 0)  -->
<!DOCTYPE svg PUBLIC "-//W3C//DTD SVG 1.1//EN" "http://www.w3.org/Graphics/SVG/1.1/DTD/svg11.dtd">
<svg version="1.1" id="Layer_1" xmlns="http://www.w3.org/2000/svg" xmlns:xlink="http://www.w3.org/1999/xlink" x="0px" y="0px"
	 width="72px" height="76px" viewBox="0 0 72 76" enable-background="new 0 0 72 76" xml:space="preserve">
<g id="XMLID_340_">
	<path id="XMLID_364_" fill="#A6D300" d="M2.84,62.515V12.728c0-1.423,1.157-2.581,2.58-2.581H37.86c1.423,0,2.58,1.158,2.58,2.581
		v21.976h2V12.728c0-2.526-2.055-4.581-4.58-4.581H5.421c-2.525,0-4.58,2.055-4.58,4.581v49.787c0,2.526,2.055,4.581,4.58,4.581
		h26.462v-2H5.421C3.998,65.096,2.84,63.938,2.84,62.515z"/>
	<path id="XMLID_431_" fill="#A6D300" d="M30.59,41.095c1.444-2.521-0.344-4.756-2.304-6.579c-2.499-2.338-5.559-4.573-6.648-7.771
		c-1.077,3.198-4.149,5.433-6.648,7.771c-1.948,1.822-3.748,4.057-2.304,6.579c1.02,1.799,3.68,2.935,5.583,2.052
		c0,0,1.609-0.224,2.742-0.846c-0.803,1.965-2.461,5.221-5.665,6.198h12.63c-3.237-1-4.873-4.282-5.651-6.23
		c1.36,0.72,3.806,1.184,3.806,1.184C27.874,43.866,29.719,42.642,30.59,41.095z"/>
	<path id="XMLID_433_" fill="#A6D300" d="M12.256,18.1c0.479-0.841-0.118-1.586-0.768-2.193c-0.834-0.779-1.854-1.524-2.215-2.589
		c-0.361,1.065-1.381,1.81-2.215,2.589C6.408,16.514,5.81,17.259,6.29,18.1c0.342,0.6,1.137,0.888,1.773,0.594
		c0.435-0.201,0.831-0.558,1.223-0.833c0.466,0.334,0.908,0.778,1.483,0.913C11.349,18.911,11.963,18.614,12.256,18.1z"/>
	<path id="XMLID_434_" fill="#A6D300" d="M9.286,18.707c-0.024,0.347-2.109,1.571-2.109,1.571h4.207
		C11.383,20.278,9.31,19.035,9.286,18.707z"/>
	<path id="XMLID_438_" fill="#A6D300" d="M68.403,14.962L36.978,3.851c-1.033-0.366-2.098-0.387-2.993-0.056
		c-0.994,0.367-1.747,1.148-2.119,2.201l1.885,0.667c0.176-0.496,0.487-0.83,0.927-0.991c0.457-0.168,1.037-0.146,1.635,0.065
		l31.425,11.111c1.109,0.393,1.692,1.615,1.301,2.724l-6.154,17.405l1.885,0.667l6.154-17.405
		C71.683,18.09,70.552,15.723,68.403,14.962z"/>
	<path id="XMLID_441_" fill="#A6D300" d="M50.113,52.969c-1.101-0.455-1.183-0.655-1.183-0.909c0-0.335,0.29-0.535,0.775-0.535
		c0.667,0,1.072,0.232,1.268,0.343l0.509,0.291l0.657-1.737l-0.364-0.213c-0.396-0.232-0.83-0.38-1.317-0.449v-1.208h-1.745v1.317
		c-1.117,0.333-1.817,1.214-1.817,2.334c0,1.449,1.164,2.101,2.298,2.545c0.967,0.392,1.048,0.705,1.048,0.968
		c0,0.412-0.366,0.679-0.933,0.679c-0.504,0-1.048-0.162-1.455-0.433l-0.533-0.354l-0.63,1.763l0.307,0.22
		c0.41,0.293,1.007,0.505,1.631,0.586v1.251h1.758v-1.354c1.153-0.348,1.901-1.287,1.901-2.442
		C52.287,54.057,51.124,53.381,50.113,52.969z"/>
	<circle id="XMLID_443_" fill="#A6D300" cx="49.537" cy="39.706" r="1.169"/>
	<circle id="XMLID_444_" fill="#A6D300" cx="61.955" cy="46.931" r="1.169"/>
	<circle id="XMLID_445_" fill="#A6D300" cx="61.88" cy="61.18" r="1.169"/>
	<circle id="XMLID_446_" fill="#A6D300" cx="49.537" cy="68.274" r="1.169"/>
	<circle id="XMLID_447_" fill="#A6D300" cx="37.224" cy="61.231" r="1.169"/>
	<path id="XMLID_450_" fill="#A6D300" d="M54.925,36.355c-4.709-1.438-9.698-0.958-14.048,1.355
		c-4.349,2.313-7.536,6.181-8.975,10.892v0c-1.44,4.711-0.959,9.7,1.354,14.048c2.313,4.349,6.182,7.536,10.893,8.976
		c1.78,0.544,3.601,0.813,5.411,0.813c2.979,0,5.932-0.73,8.637-2.169c4.349-2.313,7.536-6.181,8.975-10.891
		c1.44-4.711,0.959-9.7-1.354-14.048C63.504,40.982,59.636,37.794,54.925,36.355z M65.259,58.794
		c-1.283,4.199-4.125,7.648-8.002,9.71c-3.876,2.062-8.322,2.493-12.524,1.208c-4.199-1.283-7.648-4.125-9.71-8.001
		c-2.063-3.877-2.491-8.325-1.208-12.524v0c1.283-4.199,4.125-7.648,8.002-9.71c2.411-1.283,5.044-1.934,7.7-1.934
		c1.613,0,3.236,0.24,4.824,0.726c4.199,1.283,7.648,4.125,9.71,8.001C66.114,50.146,66.543,54.595,65.259,58.794z"/>
	<circle id="XMLID_451_" fill="#A6D300" cx="37.095" cy="46.973" r="1.169"/>
	<path id="XMLID_454_" fill="#A6D300" d="M59.598,48.819c-1.38-2.684-3.726-4.67-6.605-5.595c-2.88-0.924-5.944-0.674-8.627,0.706
		c-5.548,2.852-7.741,9.685-4.89,15.231c1.38,2.684,3.726,4.67,6.605,5.595c1.142,0.366,2.313,0.548,3.477,0.548
		c1.772,0,3.531-0.421,5.15-1.254c2.684-1.379,4.67-3.725,5.595-6.605S60.977,51.502,59.598,48.819z M53.795,62.272
		c-0.65,0.334-1.329,0.577-2.021,0.749V61.94h-2v1.35c-0.33,0.008-0.661-0.001-0.992-0.029V61.94h-2v0.936
		c-0.029-0.009-0.059-0.014-0.088-0.024c-2.371-0.761-4.303-2.396-5.438-4.604c-0.308-0.599-0.541-1.217-0.709-1.843h1.041v-2
		h-1.343c-0.015-0.358-0.009-0.715,0.017-1.07h1.326v-2h-0.963c0.7-2.348,2.31-4.42,4.656-5.626c0.486-0.25,0.99-0.438,1.501-0.598
		v0.8h2v-1.19c0.245-0.02,0.491-0.044,0.737-0.044c0.085,0,0.17,0.008,0.255,0.01v1.333h2v-1.061
		c0.204,0.051,0.407,0.105,0.608,0.17c2.371,0.761,4.303,2.396,5.438,4.604c0.267,0.518,0.477,1.055,0.641,1.602h-1.085v2h1.449
		c0.016,0.237,0.025,0.474,0.023,0.711h-1.419v2h1.182c-0.06,0.264-0.128,0.527-0.212,0.788
		C57.638,59.205,56.003,61.137,53.795,62.272z"/>
</g>
</svg>
