<?xml version="1.0" encoding="utf-8"?>
<!-- Generator: Adobe Illustrator 20.0.0, SVG Export Plug-In . SVG Version: 6.00 Build 0)  -->
<svg version="1.1" id="Layer_1" xmlns="http://www.w3.org/2000/svg" xmlns:xlink="http://www.w3.org/1999/xlink" x="0px" y="0px"
	 viewBox="0 0 18 16" style="enable-background:new 0 0 18 16;" xml:space="preserve">
<style type="text/css">
	.st0{fill:#838589;}
</style>
<path class="st0" d="M6.6,6.7c0-0.4,0.4-0.8,0.8-0.8c0.1,0,0.3,0,0.4,0.1l2-2.1V1.1c0-0.4-0.3-0.7-0.7-0.7h-7
	c-0.4,0-0.7,0.3-0.7,0.7v7c0,0.4,0.3,0.7,0.7,0.7H5l0,0l1.7-1.7C6.7,7,6.6,6.9,6.6,6.7 M3.9,7.5c-0.4,0-0.8-0.4-0.8-0.8
	s0.4-0.8,0.8-0.8s0.8,0.4,0.8,0.8C4.7,7.2,4.4,7.5,3.9,7.5 M3.1,4.6c0-0.4,0.4-0.8,0.8-0.8s0.8,0.4,0.8,0.8S4.3,5.4,3.9,5.4
	S3.1,5.1,3.1,4.6 M3.9,3.3C3.5,3.3,3.1,3,3.1,2.5c0-0.4,0.4-0.8,0.8-0.8s0.8,0.4,0.8,0.8C4.7,3,4.4,3.3,3.9,3.3 M7.4,1.7
	c0.4,0,0.8,0.4,0.8,0.8S7.9,3.3,7.4,3.3C7,3.3,6.6,3,6.6,2.5S7,1.7,7.4,1.7 M7.4,3.8c0.4,0,0.8,0.4,0.8,0.8S7.8,5.4,7.4,5.4
	C7,5.4,6.6,5.1,6.6,4.6C6.6,4.2,7,3.8,7.4,3.8 M16.6,9.6l-4.9-4.9c-0.3-0.3-0.7-0.3-1,0L5.8,9.6c-0.3,0.3-0.3,0.7,0,1l4.9,4.9
	c0.3,0.3,0.7,0.3,1,0l4.9-4.9C16.9,10.3,16.9,9.8,16.6,9.6 M9,10.6c-0.2,0.2-0.4,0.2-0.6,0.2l0,0c-0.2,0-0.4-0.1-0.6-0.2
	c-0.2-0.2-0.2-0.4-0.2-0.6c0-0.2,0.1-0.4,0.2-0.6C8,9.2,8.2,9.2,8.4,9.2S8.8,9.3,9,9.4L8.9,9.7L9,9.5c0.2,0.2,0.2,0.4,0.2,0.6
	C9.3,10.3,9.2,10.5,9,10.6 M11.8,13.4c-0.2,0.2-0.4,0.2-0.6,0.2l0,0c-0.2,0-0.4-0.1-0.6-0.2c-0.2-0.2-0.2-0.4-0.2-0.6
	c0-0.2,0.1-0.4,0.2-0.6C10.8,12,11,12,11.2,12c0.2,0,0.4,0.1,0.6,0.2c0.2,0.2,0.2,0.4,0.2,0.6S11.9,13.2,11.8,13.4 M10.4,10.1
	c0-0.2,0.1-0.4,0.2-0.6c0.2-0.2,0.4-0.2,0.6-0.2c0.2,0,0.4,0.1,0.6,0.2C12,9.7,12,9.9,12,10.1c0,0.2-0.1,0.4-0.2,0.6
	c-0.2,0.2-0.4,0.2-0.6,0.2l0,0c-0.2,0-0.4-0.1-0.6-0.2C10.5,10.5,10.4,10.3,10.4,10.1 M11.8,7.9c-0.2,0.2-0.4,0.2-0.6,0.2l0,0
	c-0.2,0-0.4-0.1-0.6-0.2c-0.2-0.2-0.2-0.4-0.2-0.6s0.1-0.4,0.2-0.6c0.2-0.2,0.4-0.2,0.6-0.2c0.2,0,0.4,0.1,0.6,0.2
	C11.9,6.9,12,7.1,12,7.3C12,7.5,11.9,7.7,11.8,7.9 M14.5,10.6c-0.2,0.2-0.4,0.2-0.6,0.2l0,0c-0.2,0-0.4-0.1-0.6-0.2
	c-0.2-0.2-0.2-0.4-0.2-0.6c0-0.2,0.1-0.4,0.2-0.6c0.2-0.2,0.4-0.2,0.6-0.2c0.2,0,0.4,0.1,0.6,0.2l-0.1,0.1l0.1-0.1
	c0.2,0.2,0.2,0.4,0.2,0.6S14.7,10.5,14.5,10.6"/>
</svg>
