<svg id="Layer_1" data-name="Layer 1" xmlns="http://www.w3.org/2000/svg" xmlns:xlink="http://www.w3.org/1999/xlink" viewBox="0 0 90 30"><defs><style>.cls-1{fill:none;}.cls-2{fill:#fff;}.cls-3{fill:#e70016;}.cls-4{clip-path:url(#clip-path);}</style><clipPath id="clip-path"><path class="cls-1" d="M67.83,123.8H22.17a1.55,1.55,0,0,1-1.54-1.55V107.75a1.55,1.55,0,0,1,1.54-1.55H67.83a1.55,1.55,0,0,1,1.54,1.55v14.49A1.55,1.55,0,0,1,67.83,123.8Zm0-.19a1.36,1.36,0,0,0,1.35-1.36V107.75a1.36,1.36,0,0,0-1.35-1.36H22.17a1.36,1.36,0,0,0-1.35,1.36v14.49a1.36,1.36,0,0,0,1.35,1.36Z"/></clipPath></defs><title>TopTrend</title><polygon class="cls-2" points="46.06 9.64 47.8 9.64 47.8 15.96 48.41 15.96 48.41 9.64 50.14 9.64 50.14 9.06 46.06 9.06 46.06 9.64"/><path class="cls-2" d="M53.72,12.57a1.61,1.61,0,0,0,.72-.63,1.89,1.89,0,0,0,.26-1A1.74,1.74,0,0,0,54,9.41a1.62,1.62,0,0,0-.69-.29,5.52,5.52,0,0,0-.9-.06h-.93V16h.61V12.78h.08L54.34,16h.71l-2.21-3.19A2.41,2.41,0,0,0,53.72,12.57ZM52.08,9.64h.19a3.31,3.31,0,0,1,1.17.14,1,1,0,0,1,.36.27,1.18,1.18,0,0,1,.22.4,1.48,1.48,0,0,1,.07.46,1.19,1.19,0,0,1-.44,1,1,1,0,0,1-.46.23,3.32,3.32,0,0,1-.65.05h-.45Z"/><polygon class="cls-2" points="56.55 15.96 59.94 15.96 59.94 15.38 57.16 15.38 57.16 12.48 59.87 12.48 59.87 11.9 57.16 11.9 57.16 9.64 59.94 9.64 59.94 9.06 56.55 9.06 56.55 15.96"/><polygon class="cls-2" points="67.44 14.78 61.8 8.83 61.8 15.96 62.41 15.96 62.41 10.32 68.05 16.32 68.05 9.06 67.44 9.06 67.44 14.78"/><path class="cls-2" d="M74.72,11.1a3.35,3.35,0,0,0-.82-1.17,3.17,3.17,0,0,0-.77-.53,3.09,3.09,0,0,0-.83-.27,5.85,5.85,0,0,0-1-.07H70V16h1.3a6,6,0,0,0,.74,0,3.68,3.68,0,0,0,.66-.14,2.93,2.93,0,0,0,.62-.28,3.25,3.25,0,0,0,.58-.45,3.41,3.41,0,0,0,.79-1.15A3.55,3.55,0,0,0,75,12.52,3.65,3.65,0,0,0,74.72,11.1ZM70.65,9.64h.69a4,4,0,0,1,1.18.16,2.51,2.51,0,0,1,.94.55,2.84,2.84,0,0,1,.7,1,3,3,0,0,1,.25,1.19,2.89,2.89,0,0,1-.22,1.12,3,3,0,0,1-.64,1,2.5,2.5,0,0,1-1,.61,3.92,3.92,0,0,1-1.22.18h-.69Z"/><path class="cls-3" d="M31.17,10v5.77h-1V10H28.65v-1h4v1Z"/><path class="cls-3" d="M33,12.43A3.49,3.49,0,0,1,36.51,9a3.28,3.28,0,0,1,2.42,1,3.39,3.39,0,0,1,1,2.47,3.33,3.33,0,0,1-1,2.46,3.45,3.45,0,0,1-4.77.11A3.33,3.33,0,0,1,33,12.43Zm1,0a2.45,2.45,0,0,0,.74,1.83,2.41,2.41,0,0,0,3.45,0,2.64,2.64,0,0,0,0-3.6,2.44,2.44,0,0,0-3.48,0A2.44,2.44,0,0,0,34,12.44Z"/><path class="cls-3" d="M42.2,13.09v2.73h-1V9.1h1.13a5,5,0,0,1,1.25.12,1.68,1.68,0,0,1,.75.44,1.93,1.93,0,0,1,.57,1.43,1.86,1.86,0,0,1-.61,1.46,2.38,2.38,0,0,1-1.64.54Zm0-.94h.37q1.37,0,1.37-1.07t-1.42-1H42.2Z"/><path class="cls-3" d="M34.39,19h1a1,1,0,0,1,0,.16.72.72,0,0,1-.09.21.87.87,0,0,1-.16.18,1.15,1.15,0,0,1-.73.28,1.09,1.09,0,0,1-.56-.15,1.15,1.15,0,0,1-.41-.41,1.09,1.09,0,0,1-.15-.56,1.06,1.06,0,0,1,.15-.55,1.2,1.2,0,0,1,.42-.42,1.06,1.06,0,0,1,.55-.16,1.14,1.14,0,0,1,.29,0,1.06,1.06,0,0,1,.26.1,1.19,1.19,0,0,1,.23.17,1.27,1.27,0,0,1,.19.22l.05.08.28-.23-.05-.07a1.83,1.83,0,0,0-.34-.35,1.43,1.43,0,0,0-.9-.31,1.47,1.47,0,0,0-.74.2,1.48,1.48,0,0,0-.54.54,1.44,1.44,0,0,0-.2.74,1.38,1.38,0,0,0,.12.56,1.52,1.52,0,0,0,.79.78,1.41,1.41,0,0,0,.56.12,1.52,1.52,0,0,0,.59-.12,1.4,1.4,0,0,0,.49-.34,1.05,1.05,0,0,0,.19-.29,1.21,1.21,0,0,0,.09-.32,2.48,2.48,0,0,0,0-.35v-.09H34.39Z"/><path class="cls-3" d="M39.82,20.11h.44l.42-.88h1.25l.42.88h.44L41.31,17Zm1-1.22.46-1,.46,1Z"/><polygon class="cls-3" points="48.44 19.45 47.31 16.94 46.58 20.11 46.97 20.11 47.43 18.1 48.44 20.35 49.45 18.1 49.91 20.11 50.29 20.11 49.56 16.94 48.44 19.45"/><rect class="cls-3" x="54.64" y="17.25" width="0.35" height="2.86"/><polygon class="cls-3" points="62.05 19.45 59.79 17.07 59.79 20.11 60.15 20.11 60.15 17.94 62.4 20.33 62.4 17.25 62.05 17.25 62.05 19.45"/><path class="cls-3" d="M68.58,18.64V19h1a1,1,0,0,1,0,.16.72.72,0,0,1-.09.21.87.87,0,0,1-.16.18,1.15,1.15,0,0,1-.73.28,1.09,1.09,0,0,1-.56-.15,1.15,1.15,0,0,1-.41-.41,1.09,1.09,0,0,1-.15-.56,1.06,1.06,0,0,1,.15-.55,1.2,1.2,0,0,1,.42-.42,1.06,1.06,0,0,1,.55-.16,1.14,1.14,0,0,1,.29,0,1.06,1.06,0,0,1,.26.1,1.19,1.19,0,0,1,.23.17,1.27,1.27,0,0,1,.19.22l.05.08.28-.23-.05-.07a1.83,1.83,0,0,0-.34-.35,1.43,1.43,0,0,0-.9-.31,1.47,1.47,0,0,0-.74.2,1.48,1.48,0,0,0-.54.54,1.44,1.44,0,0,0-.2.74,1.38,1.38,0,0,0,.12.56,1.52,1.52,0,0,0,.79.78,1.41,1.41,0,0,0,.56.12A1.52,1.52,0,0,0,69.1,20a1.4,1.4,0,0,0,.49-.34,1.05,1.05,0,0,0,.19-.29,1.21,1.21,0,0,0,.09-.32,2.48,2.48,0,0,0,0-.35v-.09Z"/><polygon class="cls-1" points="16.27 13.46 18.63 12.43 18.63 12.43 16.27 13.46"/><polygon class="cls-2" points="19.35 20.62 18.81 20.62 18.63 20.62 18.63 12.43 16.27 13.46 16.27 10.74 20.44 8.93 20.44 8.11 15.54 8.11 15.54 21.89 20.44 21.89 20.44 20.62 19.35 20.62"/><polygon class="cls-3" points="20.44 8.93 24.61 10.74 24.61 13.46 22.07 12.36 22.07 20.62 20.44 20.62 20.44 21.89 25.34 21.89 25.34 8.11 20.44 8.11 20.44 8.93"/><polygon class="cls-2" points="20.44 20.62 22.07 20.62 22.07 12.36 24.61 13.46 24.61 10.74 20.44 8.93 20.44 11.65 20.44 20.62"/><path d="M15,7.57V22.43H25.88V7.57ZM25.33,21.89H15.54V8.11h9.79Z"/><polygon class="cls-3" points="16.27 13.46 18.63 12.43 18.63 12.43 18.63 20.62 18.81 20.62 19.35 20.62 20.44 20.62 20.44 11.65 20.44 8.93 16.27 10.74 16.27 13.46"/></svg>