<?xml version="1.0" encoding="utf-8"?>
<!DOCTYPE svg PUBLIC "-//W3C//DTD SVG 1.1//EN" "http://www.w3.org/Graphics/SVG/1.1/DTD/svg11.dtd">
<svg version="1.1" id="Layer_1" xmlns="http://www.w3.org/2000/svg" xmlns:xlink="http://www.w3.org/1999/xlink" x="0px" y="0px"
	 width="40px" height="24px" viewBox="0 0 40 24" enable-background="new 0 0 40 24" xml:space="preserve">
<g>
	<path d="M34.745,20.411H5.255c-1.249,0-2.262-1.013-2.262-2.262V5.852c0-1.25,1.013-2.263,2.262-2.263h29.49
		c1.25,0,2.263,1.013,2.263,2.263v12.297C37.008,19.398,35.995,20.411,34.745,20.411z"/>
</g>
<path fill="#F5EB28" d="M5.434,8.88v1.638v0.5h1.542v-0.5h2.349c-0.315,0.369-0.607,0.758-0.876,1.167
	c-0.268,0.41-0.499,0.834-0.693,1.273s-0.347,0.892-0.457,1.357c-0.109,0.466-0.165,0.938-0.165,1.419h2.241v-0.598
	c0-0.513,0.069-1.011,0.207-1.493c0.139-0.482,0.321-0.949,0.551-1.402c0.229-0.452,0.492-0.89,0.789-1.313
	c0.299-0.423,0.608-0.833,0.931-1.231V8.781H5.434V8.88z"/>
<path fill="#F5EB28" d="M16.791,8.88v1.638v0.5h1.543v-0.5h2.349c-0.316,0.369-0.608,0.758-0.877,1.167
	c-0.268,0.41-0.499,0.834-0.693,1.273s-0.346,0.892-0.457,1.357c-0.109,0.466-0.164,0.938-0.164,1.419h2.24v-0.598
	c0-0.513,0.069-1.011,0.207-1.493c0.139-0.482,0.322-0.949,0.551-1.402c0.229-0.452,0.492-0.89,0.79-1.313s0.607-0.833,0.931-1.231
	V8.781h-6.419V8.88z"/>
<path fill="#F5EB28" d="M28.149,8.88v1.638v0.5h1.542v-0.5h2.349c-0.316,0.369-0.608,0.758-0.877,1.167
	c-0.268,0.41-0.499,0.834-0.693,1.273c-0.193,0.439-0.346,0.892-0.456,1.357c-0.11,0.466-0.165,0.938-0.165,1.419h2.24v-0.598
	c0-0.513,0.069-1.011,0.208-1.493c0.138-0.482,0.321-0.949,0.55-1.402c0.229-0.452,0.492-0.89,0.79-1.313s0.608-0.833,0.931-1.231
	V8.781h-6.418V8.88z"/>
<path fill="#F5EB28" d="M35.008,3.089H4.993c-1.379,0-2.5,1.122-2.5,2.5v12.821c0,1.378,1.121,2.5,2.5,2.5h30.015
	c1.379,0,2.5-1.122,2.5-2.5V5.589C37.508,4.211,36.387,3.089,35.008,3.089z M25.101,4.089v15.821H14.685V4.089H25.101z
	 M3.493,18.411V5.589c0-0.827,0.673-1.5,1.5-1.5h8.691v15.821H4.993C4.166,19.911,3.493,19.238,3.493,18.411z M36.508,18.411
	c0,0.827-0.673,1.5-1.5,1.5h-8.907V4.089h8.907c0.827,0,1.5,0.673,1.5,1.5V18.411z"/>
</svg>
