<?xml version="1.0" encoding="utf-8"?>
<!-- Generator: Adobe Illustrator 20.0.0, SVG Export Plug-In . SVG Version: 6.00 Build 0)  -->
<svg version="1.1" id="Layer_1" xmlns="http://www.w3.org/2000/svg" xmlns:xlink="http://www.w3.org/1999/xlink" x="0px" y="0px"
	 viewBox="0 0 18 16" style="enable-background:new 0 0 18 16;" xml:space="preserve">
<style type="text/css">
	.st0{fill:#838589;}
</style>
<path class="st0" d="M12.8,2.5H1.5v11.3h11.3V2.5z M9.3,10.6c-1.1,0-1.8-0.8-2.1-1.5c0,0.3,0.5,2.4,1.8,3.3c0.2,0.1-0.2-0.1-0.9-0.2
	c-0.5-0.1-1-0.1-1.1-0.1s-0.4,0-1,0.1s-1.2,0.3-1,0.2c1.6-0.8,2-3.2,2-3.3c-0.5,1-1.2,1.4-2.2,1.5c-1.1,0-2.6-1.2-1.4-3.3
	c0.3-0.6,0.8-1.1,1.2-1.5c1-0.9,1.1-1.1,2.5-1.9c0.1,0,2.5,1.6,3.3,2.9c0.2,0.3,1.1,1.7,0.6,2.7C11,9.6,10.7,10.6,9.3,10.6z"/>
<polygon class="st0" points="17.7,4.5 13.5,6.5 13.5,9.5 17.7,11.9 "/>
<rect x="0.4" y="2.5" class="st0" width="1.8" height="11.3"/>
<rect x="12.2" y="2.5" class="st0" width="1.8" height="11.3"/>
</svg>
