<svg xmlns="http://www.w3.org/2000/svg" viewBox="0 0 18 16">
	<path d="M12.8,2.5H1.5v11.3h11.3V2.5z M9.3,10.6c-1.1,0-1.8-0.8-2.1-1.5c0,0.3,0.5,2.4,1.8,3.3c0.2,0.1-0.2-0.1-0.9-0.2c-0.5-0.1-1-0.1-1.1-0.1s-0.4,0-1,0.1s-1.2,0.3-1,0.2c1.6-0.8,2-3.2,2-3.3c-0.5,1-1.2,1.4-2.2,1.5c-1.1,0-2.6-1.2-1.4-3.3c0.3-0.6,0.8-1.1,1.2-1.5c1-0.9,1.1-1.1,2.5-1.9c0.1,0,2.5,1.6,3.3,2.9c0.2,0.3,1.1,1.7,0.6,2.7C11,9.6,10.7,10.6,9.3,10.6z"/>
	<polygon points="17.7,4.5 13.5,6.5 13.5,9.5 17.7,11.9 "/>
	<rect x="0.4" y="2.5" width="1.8" height="11.3"/>
	<rect x="12.2" y="2.5" width="1.8" height="11.3"/>
</svg>
