<?xml version="1.0" encoding="utf-8"?>
<!-- Generator: Adobe Illustrator 17.0.0, SVG Export Plug-In . SVG Version: 6.00 Build 0)  -->
<!DOCTYPE svg PUBLIC "-//W3C//DTD SVG 1.1//EN" "http://www.w3.org/Graphics/SVG/1.1/DTD/svg11.dtd">
<svg version="1.1" id="Layer_1" xmlns="http://www.w3.org/2000/svg" xmlns:xlink="http://www.w3.org/1999/xlink" x="0px" y="0px"
	 width="115.333px" height="95px" viewBox="0 0 115.333 95" enable-background="new 0 0 115.333 95" xml:space="preserve">
<path id="XMLID_309_" fill="#D0D0D0" d="M105.197,84.893V23.041c3.933-1.395,6.758-5.151,6.758-9.556
	c0-5.589-4.547-10.137-10.137-10.137c-5.589,0-10.137,4.547-10.137,10.137c0,3.546,1.831,6.67,4.597,8.482
	c-9.505,11.408-23.627,18.098-38.611,18.098s-29.106-6.691-38.611-18.098c2.765-1.812,4.597-4.937,4.597-8.482
	c0-5.589-4.547-10.137-10.137-10.137S3.379,7.896,3.379,13.486c0,4.405,2.825,8.161,6.758,9.556v61.852H0v6.758h27.031v-6.758
	H16.895V29.651c10.639,10.886,25.3,17.173,40.772,17.173S87.8,40.537,98.439,29.651v55.242H88.302v6.758h27.031v-6.758H105.197z
	 M13.516,10.107c1.863,0,3.379,1.516,3.379,3.379s-1.516,3.379-3.379,3.379s-3.379-1.516-3.379-3.379S11.653,10.107,13.516,10.107z
	 M101.818,10.107c1.863,0,3.379,1.516,3.379,3.379s-1.516,3.379-3.379,3.379c-1.863,0-3.379-1.516-3.379-3.379
	S99.955,10.107,101.818,10.107z"/>
</svg>
