<?xml version="1.0" encoding="utf-8"?>
<!-- Generator: Adobe Illustrator 20.0.0, SVG Export Plug-In . SVG Version: 6.00 Build 0)  -->
<svg version="1.1" id="Layer_2" xmlns="http://www.w3.org/2000/svg" xmlns:xlink="http://www.w3.org/1999/xlink" x="0px" y="0px"
	 viewBox="0 0 40 45" style="enable-background:new 0 0 40 45;" xml:space="preserve">
<style type="text/css">
	.st0{fill:#FFFFFF;}
</style>
<g>
	<g>
		<path class="st0" d="M25.4,13.5l-9.1,17.7c-0.6,1.2-1.5,1.7-2.7,1.7c-1.3,0-2.2-0.6-2.7-1.7L2.2,13.5h4L13.6,29L21,13.5H25.4z"/>
		<path class="st0" d="M38.3,28c0,1.5-0.5,2.6-1.5,3.4c-1,0.9-2.5,1.3-4.2,1.3H26c-2.1,0-3.6-0.4-4.7-1.1c-0.7-0.5-1.2-1.1-1.5-1.8
			c-0.1-0.4-0.2-1.1-0.2-2.1V18c0-0.9,0.1-1.6,0.3-2.1c0.3-0.6,0.8-1.1,1.6-1.6c1-0.6,2.5-0.9,4.4-0.9h10.9v2.8H26.7
			c-1.2,0-2,0.1-2.5,0.4c-0.6,0.3-0.8,0.9-0.8,1.8v9.2c0,0.9,0.3,1.5,0.9,1.8c0.5,0.3,1.3,0.4,2.4,0.4h4.9c1.9,0,2.9-0.7,2.9-2.1V22
			h3.8V28z"/>
	</g>
	<rect x="32.5" y="22" class="st0" width="5.8" height="2.9"/>
</g>
</svg>
