<?xml version="1.0" encoding="utf-8"?>
<!-- Generator: Adobe Illustrator 17.0.0, SVG Export Plug-In . SVG Version: 6.00 Build 0)  -->
<!DOCTYPE svg PUBLIC "-//W3C//DTD SVG 1.1//EN" "http://www.w3.org/Graphics/SVG/1.1/DTD/svg11.dtd">
<svg version="1.1" id="Layer_1" xmlns="http://www.w3.org/2000/svg" xmlns:xlink="http://www.w3.org/1999/xlink" x="0px" y="0px"
	 width="84px" height="95px" viewBox="0 0 84 95" enable-background="new 0 0 84 95" xml:space="preserve">
<g id="XMLID_49_">
	<g id="XMLID_57_">
		<path id="XMLID_67_" fill="#D0D0D0" d="M0.439,2.915l-0.008,21.47h10.397L10.82,74.329v17.755h17.763h26.834H73.18V74.329V24.385
			h10.382l0.008-21.47H0.439z M16.183,86.729v-9.581c5.283,0,9.581,4.298,9.581,9.581H16.183z M67.816,86.729h-9.581
			c0-5.283,4.298-9.581,9.581-9.581V86.729z M54.309,86.729H29.691c0-7.46-6.047-13.507-13.507-13.507V24.369h51.633v48.853
			C60.356,73.222,54.309,79.269,54.309,86.729z"/>
		<path id="XMLID_63_" fill="#D0D0D0" d="M42.476,51.178c-1.672-0.66-2.82-1.331-3.445-2.012c-0.625-0.681-0.938-1.57-0.938-2.666
			c0-1.151,0.295-2.075,0.885-2.771c0.59-0.695,1.489-1.043,2.697-1.043c1.18,0,2.11,0.45,2.792,1.349
			c0.681,0.899,1.021,2.177,1.021,3.834h6.005l0.063-0.105c0.028-2.711-0.663-4.917-2.075-6.617
			c-1.412-1.699-3.354-2.732-5.826-3.097v-4.573h-3.351v4.531c-2.557,0.267-4.59,1.156-6.1,2.665
			c-1.51,1.511-2.265,3.446-2.265,5.805c0,2.542,0.755,4.512,2.265,5.91c1.51,1.397,3.824,2.665,6.943,3.803
			c1.587,0.618,2.708,1.285,3.361,2.002c0.653,0.716,0.979,1.643,0.979,2.781c0,1.152-0.34,2.068-1.021,2.749
			c-0.682,0.682-1.662,1.022-2.939,1.022c-1.335,0-2.434-0.407-3.298-1.222c-0.864-0.814-1.296-2.163-1.296-4.045H30.93
			l-0.042,0.106c-0.057,3.09,0.772,5.433,2.486,7.027c1.713,1.594,3.884,2.525,6.511,2.791v4.151h3.35v-4.172
			c2.584-0.268,4.628-1.131,6.132-2.592c1.502-1.461,2.254-3.413,2.254-5.857c0-2.5-0.748-4.446-2.244-5.837
			C47.881,53.707,45.58,52.4,42.476,51.178z"/>
	</g>
</g>
</svg>
