<?xml version="1.0" standalone="no"?>
<!DOCTYPE svg PUBLIC "-//W3C//DTD SVG 1.1//EN" "http://www.w3.org/Graphics/SVG/1.1/DTD/svg11.dtd" >
<svg xmlns="http://www.w3.org/2000/svg">
<metadata>Generated by IcoMoon</metadata>
<defs>
<font id="gog-icons" horiz-adv-x="1024">
<font-face units-per-em="1024" ascent="870.4" descent="-153.6" />
<missing-glyph horiz-adv-x="1024" />
<glyph unicode="&#x20;" horiz-adv-x="0" d="" />
<glyph unicode="&#xe002;" glyph-name="plus" d="M992 480h-352v352c0 17.673-14.327 32-32 32h-192c-17.673 0-32-14.327-32-32v-352h-352c-17.673 0-32-14.327-32-32v-192c0-17.673 14.327-32 32-32h352v-352c0-17.673 14.327-32 32-32h192c17.673 0 32 14.327 32 32v352h352c17.673 0 32 14.327 32 32v192c0 17.673-14.329 32-32 32z" />
<glyph unicode="&#xe003;" glyph-name="apple" d="M791.497 319.909c-1.294 129.682 105.758 191.877 110.542 194.967-60.153 88.021-153.849 100.078-187.241 101.472-79.742 8.073-155.595-46.949-196.066-46.949-40.368 0-102.818 45.753-168.951 44.551-86.917-1.291-167.058-50.537-211.813-128.379-90.304-156.697-23.127-388.839 64.889-515.927 43.008-62.203 94.293-132.075 161.625-129.579 64.841 2.587 89.362 41.959 167.755 41.959s100.427-41.959 169.049-40.67c69.774 1.296 113.982 63.399 156.693 125.797 49.39 72.169 69.726 142.039 70.923 145.625-1.545 0.706-136.057 52.235-137.406 207.134zM662.562 700.478c35.737 43.358 59.861 103.513 53.28 163.522-51.479-2.096-113.879-34.29-150.809-77.55-33.143-38.377-62.149-99.625-54.375-158.437 57.465-4.485 116.128 29.205 151.904 72.464z" />
<glyph unicode="&#xe004;" glyph-name="apple2" d="M812.32 319.872c1.504-154.912 145.888-206.368 147.552-207.136-1.312-3.488-23.136-73.44-76.192-145.664-45.888-62.368-93.376-124.48-168.32-125.728-73.696-1.312-97.376 40.672-181.632 40.672-84.224 0-110.528-39.424-180.224-41.984-72.288-2.56-127.392 67.328-173.664 129.536-94.528 127.168-166.72 359.328-69.696 516 48.096 77.824 134.144 127.104 227.584 128.416 71.040 1.184 138.144-44.608 181.504-44.608 43.488 0 124.992 55.008 210.624 46.944 35.872-1.376 136.576-13.44 201.184-101.408-5.088-3.104-120.16-65.312-118.72-195.040zM510.592 628c-8.352 58.848 22.784 120.032 58.368 158.464 39.712 43.296 106.72 75.488 162.048 77.536 7.072-59.968-18.88-120.16-57.248-163.488-38.432-43.264-101.44-76.96-163.168-72.512z" />
<glyph unicode="&#xe005;" glyph-name="arrow-down" d="M747.52 556.75l-471.040 0.050 235.52-409.6z" />
<glyph unicode="&#xe006;" glyph-name="windows" d="M412.231 352.087c-47.707 24.519-94.087 36.958-137.879 36.958-5.957 0-11.952-0.181-17.947-0.709-55.881-4.624-106.921-19.367-139.751-30.827-8.709-3.198-17.634-6.576-26.83-10.306l-89.824-311.394c61.703 22.832 116.293 33.938 166.27 33.938 80.846 0 139.527-30.208 187.991-61.305 22.962 77.918 78.043 266.089 94.482 322.325-11.95 7.285-24.075 14.569-36.512 21.321zM528.347 272.93l-90.446-314.149c26.832-15.371 117.097-64.050 186.213-64.050 55.792 0 118.251 14.297 190.834 43.792l86.357 301.975c-58.631-18.921-114.875-28.519-167.465-28.519-95.95 0-163.113 31.099-205.493 60.951zM292.823 495.209c77.118-0.798 134.151-30.208 181.417-60.503l92.752 317.344c-19.545 11.195-70.807 39.095-107.858 48.599-24.386 5.685-50.021 8.615-77.205 8.615-51.797-0.976-108.389-13.945-172.889-39.799l-88.439-310.597c64.809 24.437 120.645 36.341 172.087 36.341 0.043 0 0.135 0 0.135 0zM1024 665.877c-58.814-22.832-116.208-34.466-171.029-34.466-91.687 0-159.291 31.801-203.095 62.366l-91.947-318.235c61.746-39.707 128.29-59.879 198.121-59.879 56.949 0 115.941 13.68 175.463 40.688l-0.183 2.222 3.735 0.887 88.935 306.418z" />
<glyph unicode="&#xe007;" glyph-name="arrow-up" d="M276.48 147.2h471.040l-235.57 409.6z" />
<glyph unicode="&#xe008;" glyph-name="arrow-right" d="M307.25 587.52l-0.050-471.040 409.6 235.52z" />
<glyph unicode="&#xe009;" glyph-name="arrow-left2" d="M585.575 632.782c-21.401-20.889-230.503-240.434-230.503-240.434-11.417-11.163-17.102-25.755-17.102-40.347s5.682-29.184 17.102-40.345c0 0 209.102-219.545 230.503-240.384 21.401-20.889 59.904-22.322 82.738 0 22.784 22.272 24.576 53.351-0.050 80.64l-191.847 200.089 191.847 200.089c24.626 27.342 22.834 58.418 0.050 80.69-22.887 22.274-61.387 20.891-82.738 0.002z" />
<glyph unicode="&#xe00a;" glyph-name="cancel" d="M269.984 556.8l37.216 37.216c18.656 18.624 55.872 18.624 74.496 0l130.304-130.304 130.304 130.304c18.624 18.624 55.872 18.624 74.496 0l37.216-37.216c18.624-18.624 18.624-55.872 0-74.496l-130.336-130.304 130.336-130.304c18.624-18.624 18.624-55.872 0-74.496l-37.216-37.216c-18.624-18.624-55.872-18.624-74.496 0l-130.304 130.304-130.336-130.304c-18.624-18.624-55.84-18.624-74.496 0l-37.184 37.216c-18.624 18.624-18.624 55.872 0 74.496l130.304 130.304-130.304 130.304c-18.656 18.624-18.656 55.872 0 74.496zM0 352c0-282.784 229.216-512 512-512 282.752 0 512 229.216 512 512s-229.248 512-512 512c-282.784 0-512-229.216-512-512z" />
<glyph unicode="&#xe00b;" glyph-name="arrow-right2" d="M438.425 632.782c21.401-20.889 230.503-240.434 230.503-240.434 11.47-11.163 17.152-25.755 17.152-40.347s-5.682-29.184-17.152-40.345c0 0-209.102-219.545-230.503-240.384-21.401-20.889-59.854-22.322-82.738 0-22.834 22.272-24.626 53.351 0 80.64l191.897 200.089-191.847 200.089c-24.626 27.342-22.834 58.418 0 80.69 22.837 22.274 61.337 20.891 82.688 0.002z" />
<glyph unicode="&#xe00c;" glyph-name="arrow-left3" d="M634.83 176.999c13.721-13.874 13.721-36.302 0-50.126-13.721-13.874-35.89-13.874-49.614 0l-196.096 200.039c-13.721 13.874-13.721 36.302 0 50.126l196.096 200.089c13.721 13.874 35.89 13.874 49.614 0s13.721-36.249 0-50.126l-160.768-175.001 160.768-175.001z" />
<glyph unicode="&#xe00d;" glyph-name="arrow-right3" d="M389.17 176.999c-13.721-13.874-13.721-36.302 0-50.126 13.671-13.874 35.89-13.874 49.614 0l196.096 200.039c13.721 13.874 13.721 36.302 0 50.126l-196.096 200.089c-13.721 13.874-35.89 13.874-49.614 0s-13.721-36.249-0.050-50.073l160.818-175.054-160.768-175.001z" />
<glyph unicode="&#xe00f;" glyph-name="winsows" d="M929.536 349.472c-0.224-0.096-0.448-0.224-0.576-0.224 0-0.16 0-0.384 0-0.512-66.304-34.24-127.008-47.84-181.568-47.84-82.592 0-151.104 31.2-203.744 69.728-0.32 0.224-0.736 0.512-0.992 0.8l95.744 362.752c30.272-25.824 98.752-74.144 202.528-74.144 52.256 0 113.312 12.224 183.040 45.568l-94.432-356.128zM300.256 490.56c-0.864 0-1.696 0-2.592 0-49.536 0-108.48-14.368-181.184-46.848l93.376 358.912c70.752 31.584 128.32 44.32 176.32 45.344 0.352 0 0.704 0 1.088 0 28.224 0 53.728-3.68 76.288-9.536 47.232-13.184 115.136-57.696 115.136-57.696v-0.256c-19.456-72.96-77.056-289.152-96.48-361.152-50.688 36.768-105.152 70.368-181.952 71.232zM264.16 403.104c6.144 0.576 12.256 0.768 18.368 0.768 53.888 0 103.072-20.64 138.368-40.448 15.104-8.896 29.376-18.592 43.552-28.224-12.544-47.072-78.656-294.112-98.112-366.336-52.448 38.208-108.032 72.128-188.192 72.128-48.672 0-106.528-12.64-178.112-44.256l94.784 359.744c10.784 4.8 21.312 9.216 31.52 13.248 34.56 13.312 83.776 28.416 137.824 33.376zM726.016 216.8c50.304 0 109.856 10.176 178.944 37.28l-91.072-348.48c-78.528-35.456-141.312-49.568-193.824-49.568-82.976 0-193.568 74.656-193.44 74.56l94.496 359.168c28.768-25.12 95.36-72.96 204.896-72.96z" />
<glyph unicode="&#xe010;" glyph-name="close2" d="M734.67 190.617l-141.211 161.383 141.209 161.383c24.014 24.014 24.014 62.926 0 86.887s-62.926 23.961-86.887 0l-135.781-155.189-135.73 155.136c-24.014 24.014-62.926 24.014-86.887 0s-23.961-62.926 0-86.887l141.159-161.33-141.209-161.383c-23.961-24.014-23.961-62.823 0-86.784 24.014-24.014 62.926-24.014 86.887 0l135.781 155.086 135.73-155.086c24.014-24.014 62.926-24.014 86.887 0s24.014 62.773 0.053 86.784z" />
<glyph unicode="&#xe011;" glyph-name="list2" d="M819.2 403.2h-614.4c-28.263 0-51.2-22.937-51.2-51.2s22.937-51.2 51.2-51.2h614.4c28.313 0 51.2 22.937 51.2 51.2s-22.887 51.2-51.2 51.2zM204.8 505.6h614.4c28.313 0 51.2 22.937 51.2 51.2s-22.887 51.2-51.2 51.2h-614.4c-28.263 0-51.2-22.937-51.2-51.2s22.937-51.2 51.2-51.2zM819.2 198.4h-614.4c-28.263 0-51.2-22.887-51.2-51.2s22.937-51.2 51.2-51.2h614.4c28.313 0 51.2 22.887 51.2 51.2s-22.887 51.2-51.2 51.2z" />
<glyph unicode="&#xe012;" glyph-name="arrow-left" d="M716.75 587.52l0.050-471.040-409.6 235.52z" />
<glyph unicode="&#xe013;" glyph-name="big-arrow-right" horiz-adv-x="578" d="M577.826 352l-556.361-512-19.669 21.31 530.528 490.709-530.528 490.709 19.552 21.273 556.478-512z" />
<glyph unicode="&#xe014;" glyph-name="close" d="M1014.663 41.339c-0.005 0.005-0.009 0.009-0.011 0.009l-310.645 310.651 310.645 310.649c0.005 0.005 0.009 0.007 0.011 0.009 3.344 3.346 5.762 7.255 7.312 11.417 4.247 11.376 1.824 24.681-7.323 33.831l-146.747 146.745c-9.147 9.145-22.45 11.566-33.829 7.321-4.16-1.55-8.071-3.968-11.417-7.31 0-0.005-0.005-0.007-0.009-0.009l-310.647-310.654-310.649 310.649c-0.005 0.005-0.007 0.007-0.009 0.009-3.346 3.342-7.255 5.76-11.415 7.31-11.381 4.249-24.681 1.826-33.831-7.321l-146.747-146.745c-9.147-9.147-11.568-22.453-7.321-33.829 1.552-4.16 3.97-8.071 7.312-11.417 0.005-0.002 0.007-0.007 0.009-0.009l310.651-310.647-310.651-310.651c-0.002-0.005-0.007-0.007-0.009-0.009-3.342-3.346-5.76-7.255-7.314-11.415-4.249-11.376-1.826-24.681 7.321-33.831l146.747-146.745c9.15-9.147 22.453-11.568 33.831-7.321 4.16 1.552 8.071 3.97 11.417 7.312 0.002 0.005 0.007 0.007 0.009 0.009l310.649 310.649 310.649-310.649c0.005-0.002 0.009-0.007 0.011-0.009 3.349-3.344 7.255-5.762 11.415-7.314 11.378-4.247 24.683-1.826 33.829 7.321l146.745 146.747c9.147 9.147 11.57 22.455 7.323 33.831-1.552 4.162-3.968 8.069-7.312 11.415z" />
<glyph unicode="&#xe018;" glyph-name="list" d="M0 416v-192h1024v192h-1024zM0 32v-192h1024v192h-1024zM0 800v-192h1024v192h-1024z" />
<glyph unicode="&#xe01e;" glyph-name="search" horiz-adv-x="930" d="M931.561-62.208l-227.794 272.384c57.717 69.026 92.533 158.114 92.533 255.255 0 220.066-178.361 398.569-398.43 398.569s-398.475-178.503-398.475-398.569c0-220.16 178.315-398.521 398.475-398.521 67.63 0 131.351 16.896 187.159 46.686l228.958-273.641 117.575 97.838zM119.296 465.431c0 153.833 124.695 278.528 278.482 278.528s278.482-124.695 278.482-278.528c0-153.785-124.649-278.574-278.482-278.574s-278.482 124.834-278.482 278.574z" />
<glyph unicode="&#xe022;" glyph-name="cart" horiz-adv-x="1131" d="M267.966 35.906c-57.614 0-104.341-46.187-104.341-103.369 0-57.022 46.672-103.369 104.341-103.369 57.559 0 104.286 46.295 104.286 103.369s-46.674 103.369-104.286 103.369zM950.864 874.887l-7.76-24.898-62.734-18.971-163.785-613.431h-464.194l-122.181 463.602-130.21-7.545 128.322-507.15 25.545 7.87v-58.368h657.086v60.523l33.792-10.025 147.726 591.333h105.257l34.007 114.85-180.871 2.21zM702.357 35.906c-57.559 0-104.341-46.187-104.341-103.369 0-57.022 46.782-103.369 104.341-103.369 57.614 0 104.393 46.295 104.393 103.369s-46.779 103.369-104.393 103.369zM665.278 343.054v26.462h-362.011v-26.462h362.011zM692.494 510.827h-416.391v-26.462h416.336l0.055 26.462zM737.712 652.139h-506.88v-26.462h506.935l-0.002 26.462z" />
<glyph unicode="&#xe023;" glyph-name="big-arrow-left" horiz-adv-x="578" d="M1.797 352l556.361 512 19.669-21.31-530.528-490.709 530.528-490.709-19.534-21.273-556.496 512z" />
<glyph unicode="&#xe600;" glyph-name="heart-empty" horiz-adv-x="1021" d="M511.222-160c-18.698 0-35.062 12.698-39.69 30.863-7.311 28.754-70.431 117.699-182.702 217.272-21.197 18.801-45.875 36.884-71.987 56.033-97.096 71.229-217.948 159.867-216.842 343.675 1.536 256.963 155.628 374.006 298.168 374.006 84.029 0 159.621-39.629 210.33-107.131 47.78 68.874 122.921 109.281 209.347 109.281 149.77 0 302.162-128.43 303.636-373.924 1.085-177.766-114.545-264.212-207.442-333.681-29.368-21.955-57.119-42.701-80.138-64.86-110.612-106.435-176.66-192.512-182.682-219.484-4.116-18.514-20.419-31.764-39.363-32.051-0.225 0-0.43 0-0.635 0zM298.168 779.93c-103.301 0-215.040-91.546-216.248-292.577-0.86-141.988 88.617-207.626 183.378-277.115 26.46-19.415 53.821-39.485 77.885-60.805 61.727-54.743 127.263-123.351 168.448-182.477 48.21 67.768 125.768 145.388 165.478 183.603 26.706 25.702 57.815 48.947 87.9 71.455 90.214 67.441 175.411 131.154 174.572 267.571-1.229 200.97-115.794 292.495-221.737 292.495-77.578 0-142.111-48.824-168.468-127.427-5.468-16.302-20.521-27.464-37.724-27.935-16.732-0.307-32.829 9.83-39.178 25.805-31.724 79.79-96.87 127.406-174.305 127.406z" />
<glyph unicode="&#xe601;" glyph-name="star-full" horiz-adv-x="1031" d="M660.927 517.959l369.835-71.211-267.555-250.351 69.242-356.397-317.111 192.15-320.364-192.15 72.495 356.397-267.469 250.351 369.835 71.211 144.476 346.041 146.616-346.041z" />
<glyph unicode="&#xe602;" glyph-name="star-empty" horiz-adv-x="1031" d="M514.91 643.178l84.905-200.623 249.838-48.102-179.397-167.928 8.987-46.475 32.353-166.73-196.001 118.799-198.056-118.799 43.223 212.863-34.835 32.695-144.818 135.575 250.009 48.102 17.717 42.367 66.076 158.256zM514.311 864l-144.476-346.041-369.835-71.211 267.383-250.351-72.409-356.397 320.364 192.15 317.111-192.15-69.157 356.397 267.469 250.351-369.92 71.211-146.53 346.041z" />
<glyph unicode="&#xe603;" glyph-name="star-half" horiz-adv-x="1031" d="M514.91 643.178l84.905-200.623 249.838-48.102-179.397-167.928 8.987-46.475 32.353-166.73-196.001 118.799zM514.311 864l-144.476-346.041-369.835-71.211 267.383-250.351-72.409-356.397 320.364 192.15 317.111-192.15-69.157 356.397 267.469 250.351-369.92 71.211-146.53 346.041z" />
<glyph unicode="&#xe604;" glyph-name="shortcut" d="M1024 398.53v400.277c0 37.155-27.866 65.193-65.193 65.193h-400.277v-139.675h223.446c-139.675-148.964-102.348-111.637-372.411-381.699-37.155-37.155-55.905-74.482-18.578-111.637 18.578-18.578 27.866-18.578 46.616-18.578s46.616 9.289 65.193 27.866c279.179 269.89 232.735 242.024 381.699 390.988v-232.735zM372.411 724.325h-46.616c-102.348 0-186.119-83.771-186.119-186.119v-372.411c0-102.348 83.771-186.119 186.119-186.119h372.411c102.348 0 186.119 83.771 186.119 186.119v46.616h139.675v-186.119c0-102.348-83.771-186.119-186.119-186.119h-651.761c-102.348-0.172-186.119 83.599-186.119 185.947v651.761c0 102.348 83.771 186.119 186.119 186.119h186.119v-139.675z" />
<glyph unicode="&#xe605;" glyph-name="close3" d="M1024 814.279l-49.493 49.721-462.507-465.351-462.507 465.351-49.493-49.721 462.507-465.351-456.476-459.207 49.38-49.721 456.59 459.207 456.59-459.207 49.38 49.721-456.476 459.207z" />
<glyph unicode="&#xe606;" glyph-name="facebook" horiz-adv-x="951" d="M804.571 864h-658.286c-80.75 0-146.286-65.536-146.286-146.286v-731.429c0-80.75 65.536-146.286 146.286-146.286h297.106v460.069h-77.97v145.481h77.97v52.224c0 56.174 6.729 89.819 20.334 117.467s39.79 58.441 76.215 75.849c36.425 17.408 52.663 26.112 108.325 26.112 57.051 0 101.742-18.505 156.453-33.573l-35.547-131.511c-29.696 16.969-53.394 30.501-82.871 30.501-29.038 0-54.053-7.168-66.706-19.090-12.581-11.995-23.625-34.962-23.625-68.901v-49.006h160.037l-33.719-145.554h-126.318v-460.069h208.603c80.75 0 146.286 65.536 146.286 146.286v731.429c0 80.75-65.536 146.286-146.286 146.286z" />
<glyph unicode="&#xe607;" glyph-name="googleplus" horiz-adv-x="1243" d="M1025.902 660.736v203.264h-47.25v-203.264h-208.091v-55.442h208.091v-203.191h47.25v203.191h217.527v55.442h-217.527zM677.303 864c0 0-243.419 0-324.608 0-145.554 0-282.478-107.666-282.478-232.448 0-127.488 99.182-230.4 247.223-230.4 10.313 0 20.334 0.219 30.135 0.951-9.655-18.066-16.53-38.254-16.53-59.319 0-35.474 19.529-64.146 44.178-87.625-18.651 0-36.645-0.585-56.32-0.585-180.224 0-318.903-112.128-318.903-228.425 0-114.469 152.064-186.149 332.361-186.149 205.531 0 318.976 113.883 318.976 228.425 0 91.867-27.794 146.871-113.518 206.043-29.33 20.407-85.358 69.705-85.358 98.743 0 34.011 9.874 50.761 62.318 90.697 53.614 40.96 91.575 96.549 91.575 163.547 0 79.799-36.352 162.67-104.667 181.102h102.912l72.704 55.442zM563.931 88.247c2.56-10.679 3.95-21.577 3.95-32.695 0-92.599-61.001-164.937-236.178-164.937-124.635 0-214.601 77.093-214.601 169.618 0 90.697 111.543 166.181 236.178 164.937 29.111-0.293 56.247-4.827 80.823-12.727 67.584-45.861 116.078-71.826 129.829-124.197zM364.398 433.481c-83.675 2.414-163.109 91.429-177.591 198.656s41.618 189.367 125.294 186.953c83.602-2.414 163.109-88.576 177.591-195.877 14.482-107.227-41.691-192.219-125.294-189.733z" />
<glyph unicode="&#xe608;" glyph-name="email" horiz-adv-x="1025" d="M965.616 647.665c-39.527 69.271-95.149 122.684-166.866 160.16s-153.533 56.174-245.29 56.174c-106.274 0-201.344-22.486-285.29-67.378-84.025-44.971-149.746-109.824-197.084-194.559s-71.086-181.383-71.086-290.024c0-148.641 43.788-264.462 131.363-347.461 87.575-83.078 209.628-124.578 366.238-124.578 104.459 0 201.265 17.91 290.024 53.729v102.408c-101.54-37.476-198.977-56.174-292.549-56.174-122.684 0-216.887 32.427-282.45 97.358-65.642 64.932-98.384 157.793-98.384 278.505 0 89.942 17.594 168.918 52.703 236.927 35.109 68.088 85.997 120.396 152.665 157.083s145.012 54.912 235.191 54.912c70.613 0 133.256-14.596 187.853-43.709s96.648-70.691 126.314-124.578 44.419-116.451 44.419-187.616c0-65.721-9.862-119.923-29.586-162.369-19.566-42.446-46.233-63.67-79.607-63.67-44.024 0-66.037 33.294-66.037 99.883v14.99l14.044 290.34c-30.612 10.020-65.405 17.831-104.538 23.432s-74.715 8.442-106.905 8.442c-88.443 0-158.898-26.746-211.364-80.238-52.466-53.571-78.66-123.158-78.66-208.918 0-74.478 19.724-133.572 59.33-177.36 39.527-43.709 93.808-65.484 162.764-65.484 38.028 0 72.348 8.126 102.881 24.379 30.454 16.174 56.017 40.553 76.766 73.058h7.653c8.442-29.981 24.931-53.729 49.547-71.165 24.537-17.515 53.492-26.194 86.944-26.194 45.287 0 85.13 13.728 119.686 41.105 34.478 27.535 61.224 65.958 80.317 115.268s28.561 103.67 28.561 163.237c-0.158 90.731-20.040 170.732-59.567 240.083zM417.916 472.515c30.296 35.346 72.427 53.019 126.629 53.019 30.454 0 59.015-3.55 85.682-10.572l-7.574-149.194c-7.653-121.974-52.308-182.961-133.967-182.961-77.398 0-116.136 48.443-116.136 145.485 0 60.75 15.148 108.799 45.366 144.223z" />
<glyph unicode="&#xe609;" glyph-name="lock" horiz-adv-x="945" d="M827.077 470.154h-16.935v73.886c0 176.679-151.079 319.961-337.526 319.961s-337.605-143.281-337.605-319.961v-73.886h-16.857c-65.3 0-118.154-57.344-118.154-128v-374.154c0-70.656 52.854-128 118.154-128h708.923c65.221 0 118.154 57.344 118.154 128v374.154c0 70.656-52.933 128-118.154 128zM253.164 514.422c0 122.407 107.599 237.568 219.451 237.568s219.372-115.161 219.372-237.568v-44.268h-438.823v44.268zM835.505 48.817c0-55.926-44.426-99.17-100.273-99.17h-525.154c-55.847 0-100.273 43.244-100.273 99.17v212.519c0 55.926 44.426 99.17 100.273 99.17h525.154c55.847 0 100.273-43.244 100.273-99.17v-212.519z" />
<glyph unicode="&#xe60a;" glyph-name="heart" horiz-adv-x="1021" d="M510.346 695.119c-107.52 270.572-507.904 215.828-510.346-195.663-1.418-226.068 185.423-300.268 298.929-400.935 111.458-98.777 199.207-207.557 212.204-258.521 11.185 50.018 108.308 162.028 211.18 260.884 110.592 106.496 300.268 174.868 298.929 400.857-2.442 412.672-419.21 466.55-510.897 193.378z" />
<glyph unicode="&#xe60b;" glyph-name="twitter" horiz-adv-x="1260" d="M1260.029 742.779c-46.356-20.564-96.184-34.462-148.469-40.705 53.369 31.992 94.364 82.652 113.661 143.020-49.954-29.623-105.275-51.138-164.163-62.731-47.15 50.244-114.335 81.637-188.689 81.637-142.761 0-258.507-115.74-258.507-258.501 0-20.261 2.281-39.993 6.691-58.913-214.847 10.78-405.332 113.699-532.828 270.093-22.252-38.179-35.004-82.576-35.004-129.959 0-89.683 45.632-168.812 115.003-215.169-42.375 1.342-82.242 12.972-117.088 32.339-0.025-1.084-0.025-2.167-0.025-3.257 0-125.247 89.116-229.722 207.363-253.486-21.685-5.91-44.523-9.066-68.105-9.066-16.658 0-32.849 1.625-48.637 4.637 32.893-102.699 128.365-177.437 241.484-179.516-88.473-69.339-199.935-110.668-321.055-110.668-20.866 0-41.442 1.229-61.666 3.616 114.398-73.353 250.286-116.149 396.266-116.149 475.497 0 735.516 393.904 735.516 735.523 0 11.202-0.252 22.353-0.75 33.447 50.521 36.44 94.345 81.971 129.002 133.809z" />
<glyph unicode="&#xe60c;" glyph-name="tick" horiz-adv-x="1136" d="M1136.479 772.215l-168.597 91.785-488.019-738.419-340.846 309.562-139.017-126.235 512.974-468.907z" />
<glyph unicode="&#xe60d;" glyph-name="shield" horiz-adv-x="776" d="M387.964-160c390.623 158.672 387.964 522.822 387.964 522.822v300.077c-217.099 22.299-380.026 192.673-387.964 201.101-7.897-8.429-170.824-178.802-387.964-201.101v-300.036c0-0.041-2.619-364.192 387.964-522.863z" />
<glyph unicode="&#xe60e;" glyph-name="fair-price" d="M266.568 43.366l32.195 108.216c46.49-26.46 113.213-50.668 185.917-50.668 75.080 0 126.321 35.676 126.321 90.931 0 51.814-41.697 85.197-129.925 116.244-125.133 43.745-206.193 99-206.193 206.029 0 99 60.867 174.94 181.248 195.666v154.214h-291.635c-90.481 0-163.84-73.359-163.84-163.84v-696.32c0-90.481 73.359-163.84 163.84-163.84h291.553v152.74c-75.039 2.294-146.596 23.020-189.481 50.627zM860.856 864h-291.594v-148.439c75.080-2.294 121.61-19.579 159.744-37.97l-32.195-105.882c-28.59 12.657-81.060 39.117-162.079 39.117-83.436 0-113.213-41.452-113.213-80.568 0-47.186 42.926-73.687 144.22-112.804 133.489-48.333 193.085-110.51 193.085-212.951 0-97.853-58.491-184.156-189.604-204.882v-159.621h291.635c90.481 0 163.84 73.359 163.84 163.84v696.32c0 90.481-73.359 163.84-163.84 163.84z" />
<glyph unicode="&#xe60f;" glyph-name="drm-free" horiz-adv-x="709" d="M657.329 352h-421.022v231.739c0 76.682 49.073 134.538 114.767 134.538 67.23-0.039 121.541-61.991 121.541-138.161v-26.782c0-17.369 12.052-43.796 34.658-43.796h87.906c22.646 0 35.21 25.758 35.21 43.205-0.118 34.225-0.236 38.991-0.236 38.991s0-0.039 0-0.118c0 147.653-132.529 272.384-275.535 272.384-149.386 0-275.85-128.354-275.85-280.261v-231.739h-27.175c-28.475 0-51.594-23.355-51.594-52.066v-308.618c0-84.834 64.039-151.316 145.802-151.316h385.221c80.542 0 177.9 67.505 177.9 151.316v308.618c0 28.711-23.158 52.066-51.594 52.066z" />
<glyph unicode="&#xe610;" glyph-name="envelope" horiz-adv-x="1396" d="M1298.991 840.541c-26.531 14.429-56.506 23.459-88.809 23.459h-1024c-32.303 0-62.278-9.030-88.809-23.459l600.809-525.777 600.809 525.777zM700.044 171.59l-680.029 588.521c-12.381-24.855-20.015-52.596-20.015-82.292v-651.636c0-102.865 83.409-186.182 186.182-186.182h1024c102.865 0 186.182 83.316 186.182 186.182v651.636c0 29.603-7.54 57.251-19.828 82.106l-676.492-588.335z" />
<glyph unicode="&#xe611;" glyph-name="user" d="M510.055 864c151.064 0 273.526-137.48 273.526-307.111s-122.462-307.111-273.526-307.111-273.526 137.48-273.526 307.111 122.462 307.111 273.526 307.111zM1023.727-39.995c0-160.006-1023.727-160.006-1023.727 0s229.156 289.704 511.829 289.704 511.898-129.698 511.898-289.704z" />
<glyph unicode="&#xe612;" glyph-name="card" horiz-adv-x="1396" d="M1221.818 864h-1047.273c-96.442 0-174.545-89.74-174.545-184.041h1396.364c0 94.301-78.103 184.041-174.545 184.041zM0 10.636c0-94.208 78.103-170.636 174.545-170.636h1047.273c96.442 0 174.545 76.428 174.545 170.636v480.815h-1396.364v-480.815z" />
<glyph unicode="&#xe613;" glyph-name="exclamation" d="M981.532 454.55l-366.914 366.982c-56.669 56.669-148.5 56.669-205.169 0l-366.982-366.982c-56.669-56.669-56.669-148.5 0-205.169l366.914-366.914c56.669-56.669 148.5-56.669 205.169 0l366.914 366.914c56.737 56.669 56.737 148.568 0.068 205.169zM512 53.635c-50.865 0-92.036 41.239-92.036 92.036 0 50.865 41.239 92.104 92.036 92.104 50.865 0 92.036-41.239 92.036-92.104 0.068-50.865-41.17-92.036-92.036-92.036zM574.677 332.063c0-21.643-125.286-21.643-125.286 0l-21.575 290.309c0 21.575 13.519 39.122 30.178 39.122h108.012c16.659 0 30.178-17.479 30.178-39.122l-21.507-290.309z" />
<glyph unicode="&#xe614;" glyph-name="friends" horiz-adv-x="1185" d="M207.984-31.611c0 13.105 1.037 27.988 2.962 43.685-67.008 10.070-105.806 25.989-115.283 36.947 3.85 81.002 79.077 194.656 223.236 210.057 32.949 32.356 73.598 53.384 122.762 52.866-27.84 17.326-44.721 39.316-55.754 64.268-11.254-2.74-22.805-4.443-34.874-4.443-85.963 0-155.932 73.746-155.932 164.373s69.97 164.373 155.932 164.373c15.771 0 30.653-3.184 44.943-7.774 12.957 29.839 29.839 57.827 51.015 82.483-29.469 13.179-61.899 20.51-95.958 20.51-135.793 0-246.263-116.468-246.263-259.591 0-91.886 45.536-172.666 114.025-218.868-130.61 1.555-218.794-174.517-218.794-275.584 0-81.816 112.47-114.025 217.461-126.242-5.701 15.253-9.477 32.282-9.477 52.94zM880.285 312.091c75.227 53.236 125.205 146.455 125.205 252.335 0 165.188-121.577 299.574-270.919 299.574s-270.845-134.386-270.845-299.574c0-105.954 50.052-199.247 125.427-252.483-143.641 1.777-310.384-197.692-310.384-315.863 0-140.828 316.751-156.080 452.989-156.080 136.163 0 452.989 15.253 452.989 156.080-0.074 120.392-153.119 314.012-304.46 316.011zM734.57 762.044c98.55 0 178.663-88.628 178.663-197.618 0-108.916-80.113-197.618-178.663-197.618s-178.663 88.628-178.663 197.618c0 108.99 80.187 197.618 178.663 197.618zM731.682-56.637c-208.428 0-323.859 35.91-343.851 56.716 5.627 106.472 121.651 260.776 347.257 260.776 219.756 0 334.966-154.377 340.445-260.85-19.917-20.732-135.349-56.642-343.851-56.642z" />
<glyph unicode="&#xe615;" glyph-name="friend" horiz-adv-x="878" d="M582.677 312.109c72.835 53.237 121.245 146.474 121.245 252.362 0 165.121-117.662 299.529-262.38 299.529s-262.38-134.408-262.38-299.529c0-106.034 48.483-199.198 121.464-252.508-139.161 1.755-300.626-197.736-300.626-315.909 0-140.843 306.842-156.053 438.763-156.053s438.763 15.21 438.763 156.053c0 120.44-148.229 314.008-294.849 316.056zM441.542 762.061c95.431 0 173.092-88.63 173.092-197.59s-77.661-197.663-173.092-197.663c-95.431 0-173.092 88.63-173.092 197.59s77.661 197.663 173.092 197.663zM438.763-56.598c-201.904 0-313.716 35.905-333.094 56.747 5.411 106.4 117.881 260.772 336.385 260.772 212.873 0 324.465-154.371 329.804-260.845-19.379-20.768-131.19-56.674-333.094-56.674z" />
<glyph unicode="&#xe616;" glyph-name="reddit" horiz-adv-x="1221" d="M514.738 272.599c0-48.388-39.227-87.615-87.615-87.615s-87.615 39.227-87.615 87.615c0 48.388 39.227 87.615 87.615 87.615s87.615-39.227 87.615-87.615zM881.626 272.599c0-48.388-39.227-87.615-87.615-87.615s-87.615 39.227-87.615 87.615c0 48.388 39.227 87.615 87.615 87.615s87.615-39.227 87.615-87.615zM103.38 225.473l-24.532 11.894c-48.637 23.574-78.848 71.696-78.848 125.585 0 76.997 62.639 139.636 139.636 139.636 39.98 0 78.142-17.282 104.7-47.422l16.411-18.624-20.524-13.964c-70.163-47.756-115.296-106.742-130.519-170.581l-6.325-26.525zM139.636 458.781c-52.837 0-95.829-42.992-95.829-95.829 0-27.955 11.866-53.653 32.105-71.521 20.447 55.959 60.312 107.416 117.059 151.021-15.661 10.541-34.197 16.329-53.336 16.329zM1221.134 362.952c0 76.997-62.639 139.636-139.636 139.636-34.832 0-67.934-12.94-93.43-35.955-94.044 60.301-214.93 95.539-345.428 100.872l70.497 231.199 201.378-47.624c0.361-61.588 50.548-111.594 112.218-111.594 61.905 0 112.262 50.357 112.262 112.257s-50.357 112.257-112.262 112.257c-46.896 0-87.117-28.935-103.884-69.873l-239.627 56.67-86.197-282.679c-145.096-1.834-280.209-40.423-381.448-109.333-79.346-53.998-130.689-121.998-148.485-196.635-4.551-19.078-6.856-38.594-6.856-58.001 0-99.076 58.215-191.543 163.922-260.359 102.8-66.932 239.057-103.791 383.671-103.791 144.609 0 280.872 36.859 383.671 103.791 105.707 68.816 163.922 161.283 163.922 260.359 0 12.83-1.084 25.726-3.094 38.54 42.274 24.877 68.805 70.322 68.805 120.263zM1026.732 820.193c37.746 0 68.455-30.704 68.455-68.449s-30.709-68.449-68.455-68.449c-37.74 0-68.444 30.704-68.444 68.449s30.704 68.449 68.444 68.449zM607.829-116.193c-277.789 0-503.786 143.705-503.786 320.342 0 15.99 1.906 32.084 5.668 47.843 15.223 63.844 60.35 122.825 130.519 170.581 96.557 65.722 227.109 101.918 367.6 101.918 140.206 0 275.352-37.959 370.803-104.136 69.15-47.942 113.341-106.907 127.814-170.515l0.011-0.038c3.428-15.092 5.164-30.452 5.164-45.653-0.005-176.637-226.003-320.342-503.792-320.342zM1141.021 287.833c-19.735 56.468-59.195 108.5-115.827 152.647 16.209 11.801 35.829 18.301 56.304 18.301 52.837 0 95.829-42.992 95.829-95.829 0-29.756-13.701-57.224-36.305-75.119zM610.567-31.644c-68.69 0-137.38 20.595-195.995 61.796-9.895 6.954-12.283 20.617-5.323 30.517 6.96 9.895 20.628 12.272 30.517 5.323 102.159-71.8 239.441-71.8 341.611 0 9.895 6.965 23.563 4.572 30.512-5.323 6.96-9.9 4.572-23.563-5.328-30.517-58.614-41.195-127.305-61.796-195.995-61.796z" />
<glyph unicode="&#xe617;" glyph-name="tumblr" horiz-adv-x="589" d="M539.269 46.093c-19.034-9.081-55.461-16.982-82.601-17.7-81.986-2.206-97.839 57.564-98.557 100.969v318.759h205.631v155.044h-204.913v260.836c0 0-147.554 0-150.016 0-2.411 0-6.772-2.155-7.337-7.644-8.773-79.882-46.175-219.997-201.475-275.971v-132.265h103.636v-334.612c0-114.513 84.551-277.253 307.575-273.457 75.265 1.283 158.841 32.835 177.311 59.976l-49.253 146.066z" />
<glyph unicode="&#xe618;" glyph-name="rss" horiz-adv-x="1021" d="M137.013-160c-75.679 0-137.013 61.356-137.013 136.991 0 75.701 61.334 137.125 137.013 137.125s137.058-61.401 137.058-137.125c0-75.634-61.379-136.991-137.058-136.991zM481.244-153.967c0 127.673-49.313 247.437-138.957 337.371-89.42 89.957-208.469 139.448-335.181 139.448v195.241c369.077 0 669.335-301.442 669.335-672.061h-195.197zM826.033-154.213c0 453.895-367.245 823.083-818.637 823.083v195.13c559.045 0 1013.744-456.71 1013.744-1018.213h-195.107z" />
<glyph unicode="&#xe619;" glyph-name="twitch" horiz-adv-x="979" d="M712.165-26.368h-200.291l-133.492-133.632h-133.625v133.632h-244.756v712.277l66.782 178.091h912.497v-623.35l-267.114-267.018zM890.269 285.263v489.745h-734.515v-645.594h200.434v-133.448l133.455 133.448h244.791l155.836 155.849zM645.414 596.825v-267.1h89.016v267.1h-89.016zM400.606 329.725h89.037v267.1h-89.037v-267.1z" />
<glyph unicode="&#xe61a;" glyph-name="fat-arrow-left" horiz-adv-x="654" d="M564.669-160l89.607 85.284-483.596 426.702 483.596 426.702-89.721 85.312-564.555-511.986 564.669-512.014z" />
<glyph unicode="&#xe61b;" glyph-name="fat-arrow-right" horiz-adv-x="654" d="M654.277 352.014l-564.555 511.986-89.721-85.312 483.596-426.702-483.596-426.702 89.607-85.284 564.669 512.014z" />
<glyph unicode="&#xe61c;" glyph-name="linux" horiz-adv-x="1043" d="M521.749 864c-288.182 0-521.749-229.28-521.749-512.051s233.567-512.051 521.749-512.051 521.749 229.28 521.749 512.051-233.669 512.051-521.749 512.051zM712.747 359.911c0-38.383-12.352-73.806-32.973-102.9 1.429 0.102 2.654 0.817 4.185 0.817 56.35 0 102.084-45.733 102.084-102.084s-45.733-102.084-102.084-102.084-102.084 45.733-102.084 102.084c0 12.352 2.96 23.888 7.044 34.913-17.456-5.615-35.729-9.494-55.023-9.494-71.152 0-132.096 41.956-160.884 102.186-17.865-15.313-40.221-25.521-65.64-25.521-56.35 0-102.084 45.733-102.084 102.084s45.733 102.084 102.084 102.084c25.317 0 47.775-10.208 65.64-25.521 28.788 60.229 89.731 102.084 160.884 102.084 20.519 0 39.915-4.185 58.29-10.515-4.185 11.331-7.248 23.377-7.248 36.035 0 56.35 45.733 102.084 102.084 102.084s102.084-45.733 102.084-102.084-45.733-102.084-102.084-102.084c-2.858 0-5.206 1.429-7.963 1.633 21.029-29.298 33.688-64.925 33.688-103.717zM533.897 449.337c49.408 0 89.425-40.017 89.425-89.425s-40.017-89.425-89.425-89.425c-49.408 0-89.425 40.017-89.425 89.425 0.102 49.408 40.119 89.425 89.425 89.425z" />
<glyph unicode="&#xe61d;" glyph-name="youtube" horiz-adv-x="1500" d="M1472.472 668.206c-11.934 95.948-89.106 169.062-197.703 175.347-469.396 27.289-580.222 27.289-1049.618 0-108.677-6.285-185.77-79.4-197.783-175.347-36.438-291.742-36.438-340.75 0-632.412 12.013-95.948 89.185-169.062 197.703-175.347 469.396-27.209 580.222-27.209 1049.618 0 108.598 6.285 185.77 79.4 197.703 175.347 36.517 291.662 36.517 340.67 0.080 632.412zM970.059 326.74l-406.068-217.036c-10.581-5.649-25.22-5.808-35.881-0.398-10.74 5.251-19.333 14.718-19.333 25.618v433.993c0 10.979 8.592 20.287 19.333 25.618 10.661 5.41 24.106 5.251 34.767-0.398l406.624-217.036c10.263-5.49 16.389-14.639 16.389-25.22s-5.569-19.731-15.832-25.141z" />
<glyph unicode="&#xe61e;" glyph-name="circle-gift" d="M511.97 864c-282.746 0-511.97-229.224-511.97-511.97s229.224-512.030 511.97-512.030c282.746 0 511.97 229.224 511.97 512.030 0.061 282.746-229.163 511.97-511.97 511.97zM787.571 445.996v-302.726c0-10.172-50.374-60.545-60.545-60.545h-423.816c-10.172 0-60.545 50.374-60.545 60.545v302.726l60.545 60.545c-30.878-1.393-61.393 14.046-60.545 60.545 0.787 45.833 69.143 77.801 152.513 54.914 21.433-5.873 32.876-45.712 61.151-79.859 4.723 25.732 26.277 72.109 53.401 72.109 27.911 0 51.887-47.528 55.702-74.349 27.79 33.845 47.649 74.834 68.537 81.373 77.679 24.218 151.726-8.9 153.603-54.127 1.574-38.143-26.034-61.817-60.545-60.545l60.545-60.606zM665.694 579.619c-34.026-14.894-123.754-97.235-125.45-97.962-1.635-0.787 58.305 24.702 80.646 22.826l56.186-1.393c6.236 1.029 22.341 0.969 26.337 2.725 34.39 15.015 34.147 36.569 22.826 70.232-9.627 28.759-26.216 18.527-60.545 3.572zM363.755 506.541c9.929-4.299-7.447-5.207 12.775-5.752l29.485 3.814c44.198 1.090 77.982-21.554 75.318-20.283-1.695 0.727-81.554 89.97-118.487 96.993-27.245 5.146-51.403 10.050-59.637-14.168-8.174-24.036 25.671-45.53 60.545-60.606zM486.42 504.362c6.478-5.691 14.894-9.263 24.279-9.263 20.404 0 36.993 16.529 36.993 36.933s-16.529 36.933-36.993 36.933-36.933-16.529-36.933-36.933c0-6.055 1.574-11.685 4.178-16.71 2.967-3.754 5.812-7.447 8.476-10.959zM603.332 157.014l-92.937 80.101-87.972-80.101 1.877 288.982h-121.090v-302.726h423.816v302.726h-121.090z" />
<glyph unicode="&#xe61f;" glyph-name="circle-percentage" d="M372.353 475.179c0 59.092-10.414 88.699-31.241 88.699-10.838 0-18.708-7.265-23.613-21.796s-7.326-36.811-7.326-66.842c0-30.030 2.422-52.432 7.326-67.205s12.714-22.16 23.613-22.16c20.828-0.061 31.241 29.728 31.241 89.304zM511.97 864c-282.746 0-511.97-229.224-511.97-511.97s229.224-512.030 511.97-512.030c282.746 0 511.97 229.224 511.97 512.030 0.061 282.746-229.163 511.97-511.97 511.97zM257.498 354.392c-19.496 28.032-29.304 68.537-29.304 121.514 0 108.073 37.417 162.14 112.251 162.14 36.63 0 64.783-13.986 84.46-42.018 19.617-28.093 29.425-68.113 29.425-120.122 0-54.43-9.627-95.238-28.941-122.604-19.314-27.306-47.588-40.929-84.945-40.929-35.782 0-63.391 13.986-82.947 42.018zM414.31 83.513h-78.103l278.992 545.148h78.103l-278.992-545.148zM773.706 118.144c-19.314-27.306-47.588-40.989-84.945-40.989-35.782 0-63.451 13.986-82.947 42.018s-29.304 68.416-29.304 121.151c0 108.073 37.417 162.14 112.251 162.14 36.63 0 64.783-13.986 84.4-42.018s29.425-68.053 29.425-120.061c0.061-54.188-9.566-94.935-28.88-122.241zM689.428 328.297c-10.838 0-18.708-7.265-23.613-21.796s-7.326-36.811-7.326-66.842 2.422-52.432 7.326-67.205c4.904-14.773 12.775-22.16 23.613-22.16 20.828 0 31.241 29.788 31.241 89.425 0 59.032-10.414 88.578-31.241 88.578z" />
<glyph unicode="&#xe620;" glyph-name="circle-tick" d="M511.97 864c-282.746 0-511.97-229.224-511.97-511.97s229.224-512.030 511.97-512.030 511.97 229.224 511.97 512.030c0.061 282.746-229.163 511.97-511.97 511.97zM796.048 559.095l-304.603-462.141-258.346 231.706 69.143 62.725 169.587-153.966 242.725 367.267 83.855-45.651zM798.348 559.095v0l-218.507-330.637zM714.554 604.746l83.794-45.651z" />
<glyph unicode="&#xe621;" glyph-name="tags" horiz-adv-x="1394" d="M1392.666 351.118l-242.558 425.034c-54.232 104.842-76.426 86.641-128.522 86.548h-835.767c-113.571 0-181.733 7.8-185.726-92.863-3.993-101.221 118.679-419.926 118.679-419.926s-119.050-330.128-118.679-415.84c0.557-108.928 82.184-89.984 185.726-92.863h835.767c52.189 0.093 81.534-18.665 134.466 85.898l237.451 424.012h-0.836zM926.122 186.1c-89.613 0-162.696 78.005-163.253 174.397-0.557 96.485 71.504 174.675 161.117 174.768s162.696-78.005 163.253-174.397-71.504-174.582-161.117-174.768z" />
<glyph unicode="&#xe622;" glyph-name="drag" horiz-adv-x="455" d="M369.778 295.111c47.104 0 85.333-38.229 85.333-85.333s-38.229-85.333-85.333-85.333c-47.104 0-85.333 38.229-85.333 85.333s38.229 85.333 85.333 85.333zM369.778 579.556c47.104 0 85.333-38.229 85.333-85.333s-38.229-85.333-85.333-85.333c-47.104 0-85.333 38.229-85.333 85.333s38.229 85.333 85.333 85.333zM369.778 10.667c47.104 0 85.333-38.229 85.333-85.333s-38.229-85.333-85.333-85.333c-47.104 0-85.333 38.229-85.333 85.333s38.229 85.333 85.333 85.333zM369.778 864c47.104 0 85.333-38.229 85.333-85.333s-38.229-85.333-85.333-85.333c-47.104 0-85.333 38.229-85.333 85.333s38.229 85.333 85.333 85.333zM85.333 295.111c47.104 0 85.333-38.229 85.333-85.333s-38.229-85.333-85.333-85.333-85.333 38.229-85.333 85.333c0 47.104 38.229 85.333 85.333 85.333zM85.333 579.556c47.104 0 85.333-38.229 85.333-85.333s-38.229-85.333-85.333-85.333-85.333 38.229-85.333 85.333c0 47.104 38.229 85.333 85.333 85.333zM85.333 10.667c47.104 0 85.333-38.229 85.333-85.333s-38.229-85.333-85.333-85.333-85.333 38.229-85.333 85.333c0 47.104 38.229 85.333 85.333 85.333zM85.333 864c47.104 0 85.333-38.229 85.333-85.333s-38.229-85.333-85.333-85.333-85.333 38.229-85.333 85.333c0 47.104 38.229 85.333 85.333 85.333z" />
<glyph unicode="&#xe623;" glyph-name="thin-plus" d="M960 288h-384v-384h-128v384h-384v128h384v384h128v-384h384v-128z" />
<glyph unicode="&#xe62a;" glyph-name="mima" d="M137.48 39.93c-31.433 0.034-56.906 25.507-56.94 56.937v508.483c0.034 31.433 25.507 56.906 56.937 56.94h568.943c22.042 0 39.91 17.868 39.91 39.91s-17.868 39.91-39.91 39.91h-568.94c-75.4 0-136.74-61.35-136.74-136.76v-508.47c0-75.41 61.34-136.76 136.74-136.76 22.042 0 39.91 17.868 39.91 39.91s-17.868 39.91-39.91 39.91v0zM694.62 426.93c-6.734-7.129-10.873-16.771-10.873-27.38 0-11.434 4.809-21.746 12.514-29.022l0.019-0.018 20.56-19.39-20.56-19.39c-8.147-7.337-13.247-17.921-13.247-29.697 0-22.042 17.868-39.91 39.91-39.91 10.94 0 20.851 4.402 28.061 11.53l-0.004-0.004 24 22.62 24-22.62c7.1-6.604 16.652-10.658 27.15-10.658 22.042 0 39.91 17.868 39.91 39.91 0 11.326-4.718 21.55-12.296 28.814l-0.014 0.013-20.56 19.39 20.56 19.39c7.994 7.323 12.987 17.809 12.987 29.461 0 22.042-17.868 39.91-39.91 39.91-10.827 0-20.646-4.311-27.836-11.31l0.009 0.009-24-22.58-24 22.61c-7.124 6.716-16.752 10.843-27.344 10.843-11.433 0-21.743-4.809-29.018-12.514l-0.018-0.019zM888 742.11c-22.042 0-39.91-17.868-39.91-39.91s17.868-39.91 39.91-39.91v0c31.433-0.034 56.906-25.507 56.94-56.937v-508.473c-0.028-31.438-25.503-56.916-56.937-56.95h-568.943c-22.042 0-39.91-17.868-39.91-39.91s17.868-39.91 39.91-39.91v0h568.94c75.4 0 136.74 61.35 136.74 136.76v508.48c0 75.41-61.34 136.76-136.74 136.76zM593.13 426.92c-7.293 7.724-17.602 12.532-29.035 12.532-10.607 0-20.248-4.139-27.394-10.89l0.019 0.018-24-22.61-24 22.61c-7.036 6.337-16.397 10.213-26.663 10.213-22.042 0-39.91-17.868-39.91-39.91 0-11.102 4.533-21.145 11.849-28.38l0.004-0.004 20.56-19.39-20.56-19.38c-7.859-7.31-12.76-17.709-12.76-29.252 0-22.042 17.868-39.91 39.91-39.91 10.716 0 20.445 4.223 27.614 11.096l-0.014-0.013 24 22.61 24-22.61c7.1-6.604 16.652-10.658 27.15-10.658 22.042 0 39.91 17.868 39.91 39.91 0 11.326-4.718 21.55-12.296 28.814l-0.014 0.013-20.56 19.39 20.56 19.39c7.712 7.293 12.512 17.596 12.512 29.020 0 10.614-4.143 20.259-10.9 27.409l0.018-0.019zM330.86 275.31c6.734 7.129 10.873 16.771 10.873 27.38 0 11.434-4.809 21.746-12.514 29.022l-0.019 0.018-20.56 19.39 20.56 19.38c7.592 7.278 12.31 17.502 12.31 28.828 0 22.042-17.868 39.91-39.91 39.91-10.498 0-20.049-4.053-27.174-10.68l0.024 0.023-24-22.61-24 22.61c-7.1 6.604-16.652 10.658-27.15 10.658-22.042 0-39.91-17.868-39.91-39.91 0-11.326 4.718-21.55 12.296-28.814l0.014-0.013 20.56-19.39-20.56-19.39c-7.859-7.31-12.76-17.709-12.76-29.252 0-22.042 17.868-39.91 39.91-39.91 10.716 0 20.445 4.223 27.614 11.096l-0.014-0.013 24 22.61 24-22.61c7.128-6.733 16.768-10.872 27.375-10.872 11.433 0 21.742 4.808 29.017 12.513l0.018 0.019z" />
<glyph unicode="&#xe69e;" glyph-name="zaicishurumima" d="M645.027 479.041h-31.415v37.759c0 59.248-24.252 115.017-68.253 156.972-43.694 41.648-100.486 64.672-161.679 64.672s-119.008-22.922-162.702-64.672c-44.001-42.057-68.253-97.724-68.253-156.972v-37.759h-30.289c-32.131 0-58.123-25.991-58.123-58.123v-346.484c0-32.131 25.991-58.123 58.123-58.123h522.591c32.131 0 58.123 25.991 58.123 58.123v346.484c0 32.131-26.094 58.123-58.123 58.123zM207.675 516.8c0 44.001 18.214 85.649 51.267 117.166 33.359 31.824 77.667 49.425 124.738 49.425s90.254-17.6 123.715-49.425c33.052-31.517 51.267-73.165 51.267-117.166v-37.759h-350.986v37.759zM648.199 74.434c0-1.74-1.433-3.172-3.172-3.172h-522.591c-1.74 0-3.172 1.433-3.172 3.172v346.484c0 1.74 1.433 3.172 3.172 3.172h522.591c1.74 0 3.172-1.433 3.172-3.172v-346.484zM383.885 337.214c-51.062 0-89.537-39.294-89.537-90.049s38.475-90.049 89.537-90.049c51.062 0 90.561 39.294 90.561 90.049s-39.499 90.049-90.561 90.049zM383.885 209.917c-20.466 0-36.122 16.68-36.122 37.248s15.656 36.224 36.122 36.224c20.466 0 36.122-15.656 36.122-36.224s-15.656-37.248-36.122-37.248zM856.437 415.802h-0.307v12.177c0 37.861-10.233 74.904-29.675 107.035-18.931 31.415-45.741 56.792-77.463 73.574-13.405 7.061-30.085 1.944-37.145-11.461s-1.944-30.085 11.461-37.145c22.922-12.075 42.262-30.494 56.076-53.313 14.224-23.536 21.796-50.755 21.796-78.691v-12.177h-9.414c-15.145 0-27.526-12.279-27.526-27.526s12.279-27.526 27.526-27.526h64.774c12.791 0 23.638-8.289 23.638-18.010v-229.318c0-9.721-10.847-18.010-23.638-18.010h-66.411c-15.145 0-27.526-12.279-27.526-27.526s12.279-27.526 27.526-27.526h66.411c43.387 0 78.588 32.745 78.588 72.96v229.523c-0.102 40.215-35.303 72.96-78.691 72.96z" />
<glyph unicode="&#xe6e4;" glyph-name="duanxin" horiz-adv-x="1092" d="M553.711 113.067h402.091c0.020 0 0.044 0 0.068 0 25.052 0 45.362 20.302 45.375 45.351v569.208c-0.090 25.043-20.393 45.313-45.439 45.352h-819.341c-0.020 0-0.044 0-0.068 0-25.052 0-45.362-20.302-45.375-45.351v-569.208c0.090-25.043 20.393-45.313 45.439-45.352h159.361v-136.533l257.889 136.533zM576.011 22.044l-291.612-160.882c-43.964-24.257-79.599-3.209-79.599 47.013v113.869h-68.13c-75.475 0.013-136.657 61.194-136.67 136.668v568.617c0 0.020 0 0.044 0 0.068 0 75.443 61.159 136.602 136.602 136.602 0.024 0 0.048 0 0.072 0h818.923c75.475-0.013 136.657-61.194 136.67-136.668v-568.617c0-0.020 0-0.044 0-0.068 0-75.443-61.159-136.602-136.602-136.602-0.024 0-0.048 0-0.072 0h-379.582zM295.822 363.378c-0.002 0-0.005 0-0.008 0-37.703 0-68.267 30.564-68.267 68.267s30.564 68.267 68.267 68.267c0.003 0 0.006 0 0.009 0h-0.001c37.699-0.005 68.258-30.567 68.258-68.267s-30.559-68.262-68.258-68.267h-0.001zM546.133 363.378c-0.002 0-0.005 0-0.008 0-37.703 0-68.267 30.564-68.267 68.267s30.564 68.267 68.267 68.267c0.003 0 0.006 0 0.009 0h-0.001c37.699-0.005 68.258-30.567 68.258-68.267s-30.559-68.262-68.258-68.267h-0.001zM796.444 363.378c-0.002 0-0.005 0-0.008 0-37.703 0-68.267 30.564-68.267 68.267s30.564 68.267 68.267 68.267c0.003 0 0.006 0 0.009 0h-0.001c37.699-0.005 68.258-30.567 68.258-68.267s-30.559-68.262-68.258-68.267h-0.001z" />
<glyph unicode="&#xe800;" glyph-name="globe" horiz-adv-x="878" d="M439.296 791.296q118.784 0 220.16-59.392t159.744-159.744 58.368-220.16-58.368-220.16-159.744-159.744-220.16-59.392-221.184 59.392-158.72 159.744-59.392 220.16 59.392 220.16 158.72 159.744 221.184 59.392zM595.968 493.312q-2.048-1.024-6.144-5.12t-7.168-6.144q1.024 0 2.048 3.072t3.072 6.144 2.048 4.096q3.072 4.096 12.288 8.192 8.192 4.096 29.696 7.168 19.456 5.12 29.696-6.144-1.024 1.024 5.12 7.168t8.192 7.168 8.192 3.072 9.216 4.096l1.024 12.288q-7.168-1.024-10.24 4.096t-3.072 12.288q0-2.048-4.096-5.12 0 4.096-2.048 5.12t-7.168-1.024-5.12-1.024q-5.12 2.048-8.192 5.12t-5.12 9.216-2.048 8.192q-1.024 3.072-5.12 6.144t-5.12 6.144q-1.024 1.024-2.048 3.072t-1.024 4.096-3.072 3.072-3.072 1.024-4.096-3.072-4.096-5.12-2.048-3.072q-2.048 1.024-4.096 1.024t-2.048-1.024-3.072-1.024-3.072-2.048q-1.024-2.048-4.096-2.048t-5.12-1.024q8.192 3.072-1.024 6.144-5.12 2.048-9.216 2.048 6.144 2.048 5.12 6.144t-5.12 8.192h3.072q-1.024 2.048-5.12 5.12t-10.24 5.12-7.168 3.072q-5.12 3.072-19.456 5.12t-18.432 1.024q-3.072-4.096-3.072-6.144t2.048-8.192 2.048-7.168q1.024-3.072-3.072-7.168t-3.072-7.168q0-4.096 7.168-9.216t6.144-12.288q-2.048-4.096-9.216-9.216t-9.216-6.144q-3.072-5.12-1.024-11.264t6.144-9.216q1.024-1.024 1.024-2.048t-2.048-3.072-3.072-2.048-4.096-2.048l-1.024-1.024q-7.168-3.072-12.288 3.072t-7.168 15.36q-4.096 14.336-9.216 17.408-13.312 4.096-16.384-1.024-3.072 7.168-23.552 15.36-14.336 5.12-33.792 2.048 4.096 0 0 8.192-4.096 9.216-10.24 7.168 1.024 3.072 2.048 10.24t0 7.168q2.048 8.192 7.168 13.312 1.024 1.024 4.096 5.12t5.12 7.168 1.024 4.096q19.456-3.072 28.672 6.144 2.048 3.072 6.144 9.216t6.144 10.24q5.12 3.072 8.192 3.072t8.192-3.072 8.192-3.072q8.192-1.024 8.192 6.144t-4.096 11.264q7.168 0 2.048 10.24-2.048 4.096-5.12 5.12-6.144 2.048-15.36-3.072-4.096-2.048 2.048-4.096-1.024 0-6.144-6.144t-9.216-10.24-9.216 3.072q0 0-3.072 7.168t-5.12 8.192q-5.12 0-9.216-9.216 1.024 5.12-6.144 9.216t-14.336 4.096q11.264 7.168-4.096 15.36-4.096 3.072-12.288 3.072t-11.264-2.048q-2.048-4.096-3.072-7.168t3.072-4.096 6.144-3.072 6.144-2.048 5.12-2.048q8.192-6.144 5.12-8.192-1.024 0-5.12-2.048t-6.144-2.048-4.096-2.048q-1.024-3.072 0-8.192t-1.024-8.192q-3.072 3.072-5.12 10.24t-4.096 9.216q4.096-5.12-14.336-3.072h-5.12q-3.072 0-9.216-1.024t-12.288-1.024-7.168 5.12q-3.072 4.096 0 11.264 0 2.048 2.048 1.024-2.048 2.048-6.144 5.12t-6.144 5.12q-25.6-8.192-53.248-23.552 3.072 0 6.144 1.024t8.192 4.096 5.12 3.072q19.456 7.168 24.576 4.096l3.072 2.048q7.168-9.216 11.264-14.336-4.096 3.072-17.408 1.024-11.264-3.072-12.288-7.168 4.096-6.144 2.048-10.24-2.048 2.048-6.144 6.144t-8.192 6.144-8.192 3.072q-9.216 0-13.312-1.024-82.944-46.080-134.144-126.976 4.096-4.096 7.168-4.096 2.048-1.024 3.072-5.12t1.024-6.144 6.144 1.024q5.12-4.096 2.048-10.24 1.024 0 25.6-15.36 10.24-10.24 11.264-12.288 2.048-6.144-5.12-10.24-1.024 1.024-5.12 5.12t-5.12 2.048q-2.048-3.072 0-10.24t6.144-7.168q-4.096 0-5.12-9.216t-2.048-20.48 0-13.312l1.024-1.024q-2.048-6.144 3.072-19.456t12.288-11.264q-7.168-1.024 11.264-24.576 3.072-4.096 4.096-5.12 2.048-1.024 7.168-4.096t9.216-6.144 5.12-5.12q2.048-3.072 6.144-13.312t8.192-13.312q-2.048-3.072 5.12-11.264t6.144-13.312q-1.024 0-2.048-1.024t-1.024 0q2.048-4.096 9.216-8.192t8.192-7.168q1.024-2.048 1.024-6.144t2.048-6.144 4.096-1.024q2.048 11.264-13.312 35.84-8.192 13.312-9.216 16.384-2.048 2.048-4.096 8.192t-2.048 8.192q1.024 0 3.072 0t5.12-2.048 4.096-3.072 1.024-1.024q-1.024-4.096 1.024-10.24t7.168-10.24 10.24-11.264 6.144-7.168q4.096-4.096 8.192-11.264t0-8.192q5.12 0 11.264-5.12t10.24-11.264q3.072-5.12 4.096-15.36t3.072-13.312q1.024-4.096 5.12-8.192t7.168-5.12l9.216-5.12t7.168-3.072q3.072-2.048 10.24-6.144t12.288-7.168q6.144-2.048 9.216-2.048t8.192 1.024 8.192 2.048q8.192 1.024 16.384-8.192t12.288-12.288q20.48-10.24 30.72-6.144-1.024 0 1.024-4.096t4.096-9.216 5.12-8.192 3.072-5.12q3.072-3.072 10.24-8.192t10.24-8.192q4.096 2.048 4.096 5.12-1.024-5.12 4.096-11.264t10.24-6.144q8.192 2.048 8.192 18.432-17.408-8.192-27.648 10.24 0 0-2.048 3.072t-2.048 5.12-1.024 4.096 0 5.12 2.048 1.024q5.12 0 6.144 2.048t-1.024 7.168-2.048 8.192q-1.024 4.096-6.144 11.264t-7.168 8.192q-3.072-5.12-9.216-4.096t-9.216 5.12q0-1.024-1.024-3.072t-1.024-4.096q-7.168 0-8.192 0 1.024 2.048 1.024 10.24t2.048 13.312q1.024 2.048 3.072 6.144t5.12 9.216 2.048 7.168-3.072 5.12-9.216 1.024q-11.264 0-15.36-11.264-1.024-2.048-2.048-6.144t-2.048-6.144-5.12-4.096-14.336-1.024-13.312 3.072q-8.192 4.096-13.312 16.384t-5.12 20.48q0 6.144 1.024 15.36t2.048 14.336-3.072 14.336q2.048 1.024 5.12 5.12t5.12 6.144q2.048 1.024 3.072 1.024t3.072 0 2.048 1.024 1.024 3.072q0 1.024-2.048 2.048-1.024 1.024-2.048 1.024 4.096-1.024 16.384 1.024t15.36-1.024q9.216-6.144 12.288 1.024 0 1.024-1.024 6.144t0 7.168q3.072-15.36 16.384-5.12 2.048-1.024 9.216-3.072t9.216-2.048q2.048-1.024 4.096-3.072t3.072-3.072 3.072 0 5.12 4.096q5.12-8.192 7.168-13.312 6.144-23.552 10.24-25.6t6.144-1.024 3.072 5.12 0 8.192-1.024 7.168l-1.024 5.12v14.336q-8.192 2.048-10.24 7.168t0 10.24 9.216 10.24q0 1.024 4.096 2.048t9.216 4.096 7.168 4.096q12.288 11.264 8.192 20.48 4.096 0 6.144 5.12 0 0-2.048 2.048t-5.12 2.048-2.048 2.048q5.12 2.048 1.024 8.192 3.072 2.048 4.096 7.168t4.096 5.12q5.12-6.144 12.288-1.024 5.12 5.12 1.024 9.216 2.048 4.096 11.264 6.144t10.24 5.12q4.096-1.024 5.12 1.024t0 7.168 2.048 7.168q2.048 2.048 9.216 5.12t7.168 2.048l9.216 7.168q2.048 2.048 0 2.048 10.24-1.024 18.432 6.144 5.12 6.144-4.096 11.264 2.048 4.096-1.024 5.12t-9.216 4.096q2.048 0 7.168 0t5.12 1.024q9.216 5.12-3.072 9.216-10.24 2.048-24.576-7.168zM502.784-8.448q117.76 21.504 199.68 108.544-1.024 2.048-7.168 2.048t-7.168 2.048q-10.24 4.096-13.312 5.12 1.024 4.096-1.024 7.168t-5.12 5.12-7.168 5.12-6.144 4.096q-1.024 1.024-4.096 3.072t-4.096 3.072-4.096 2.048-5.12 2.048-5.12-1.024l-2.048-1.024q-2.048 0-3.072-1.024t-3.072-2.048-2.048-1.024 0-2.048q-12.288 10.24-20.48 13.312-3.072 0-6.144 3.072t-6.144 4.096-6.144 0-6.144-3.072q-3.072-3.072-4.096-9.216t-1.024-7.168q-4.096 3.072 0 10.24t1.024 10.24q-1.024 3.072-6.144 2.048t-6.144-2.048-7.168-5.12-5.12-3.072-4.096-3.072-5.12-5.12q-2.048-2.048-4.096-6.144t-2.048-6.144q-1.024 2.048-7.168 3.072t-5.12 3.072q1.024-5.12 2.048-19.456t3.072-22.528q4.096-17.408-7.168-26.624-15.36-14.336-16.384-23.552-2.048-12.288 7.168-14.336 0-4.096-5.12-12.288t-4.096-12.288q0-3.072 2.048-9.216z" />
<glyph unicode="&#xe801;" glyph-name="th-large" horiz-adv-x="961" d="M0 672.512q0 66.56 47.104 112.64t112.64 47.104h106.496q66.56 0 113.664-47.104t46.080-112.64v-106.496q0-66.56-46.080-113.664t-113.664-46.080h-106.496q-66.56 0-112.64 46.080t-47.104 113.664v106.496zM533.504 672.512q0 66.56 47.104 112.64t113.664 47.104h105.472q66.56 0 113.664-47.104t47.104-112.64v-106.496q0-66.56-47.104-113.664t-113.664-46.080h-105.472q-66.56 0-113.664 46.080t-47.104 113.664v106.496zM0 139.008q0 66.56 47.104 112.64t112.64 47.104h106.496q66.56 0 113.664-47.104t46.080-112.64v-106.496q0-66.56-46.080-113.664t-113.664-47.104h-106.496q-66.56 0-112.64 47.104t-47.104 113.664v106.496zM533.504 139.008q0 66.56 47.104 112.64t113.664 47.104h105.472q66.56 0 113.664-47.104t47.104-112.64v-106.496q0-66.56-47.104-113.664t-113.664-47.104h-105.472q-66.56 0-113.664 47.104t-47.104 113.664v106.496z" />
<glyph unicode="&#xe802;" glyph-name="th-list" horiz-adv-x="987" d="M880.64 85.76q44.032 0 74.752-31.744t31.744-75.776q0-44.032-31.744-74.752t-74.752-31.744h-373.76q-45.056 0-75.776 31.744t-31.744 74.752 31.744 75.776 75.776 31.744h373.76zM880.64 458.496q44.032 0 74.752-31.744t31.744-74.752-31.744-74.752-74.752-31.744h-373.76q-45.056 0-75.776 31.744t-31.744 74.752 31.744 74.752 75.776 31.744h373.76zM880.64 832.256q44.032 0 74.752-31.744t31.744-74.752q0-45.056-31.744-75.776t-74.752-31.744h-373.76q-43.008 0-75.776 31.744t-31.744 75.776 31.744 74.752 75.776 31.744h373.76zM0-21.76q0 133.12 133.12 133.12t133.12-133.12-133.12-133.12-133.12 133.12zM0 352q0 133.12 133.12 133.12t133.12-133.12-133.12-133.12-133.12 133.12zM0 725.76q0 133.12 133.12 133.12t133.12-133.12-133.12-133.12-133.12 133.12z" />
<glyph unicode="&#xe803;" glyph-name="genggaimima" d="M777.951 464.203h-15.042v17.907c0 64.16-25.991 128.831-73.165 177.233-23.229 23.843-48.913 42.671-78.486 55.974-31.21 14.019-63.853 21.182-97.11 21.182h-4.809c-65.286 0-126.785-27.629-173.037-77.667-21.796-23.536-38.987-50.857-50.96-80.839-12.279-30.801-18.726-63.034-18.726-95.779v-17.907h-10.131c-45.638 0-82.784-37.043-82.784-82.579v-330.521c0-45.536 37.145-82.579 82.784-82.579h521.465c45.638 0 82.784 37.043 82.784 82.579v330.521c0 45.434-37.145 82.477-82.784 82.477zM321.874 482.111c0 50.857 20.466 101.612 55.257 139.371 35.508 38.475 82.784 59.76 132.208 59.76h4.809c49.425 0 98.44-22.001 135.687-60.271 37.248-38.168 57.816-88.821 57.816-138.86v-17.907h-385.778v17.907zM804.352 51.103c0-15.042-12.279-27.322-27.424-27.322h-519.214c-15.145 0-27.424 12.279-27.424 27.322v330.521c0 15.042 12.279 27.322 27.424 27.322h519.214c15.145 0 27.424-12.279 27.424-27.322v-330.521zM519.163 311.529c-52.904 0-94.858-42.057-94.858-94.858 0-52.904 42.057-95.882 94.858-95.882 52.904 0 95.882 43.080 95.882 95.882s-42.978 94.858-95.882 94.858zM519.163 175.432c-22.717 0-41.136 18.419-41.136 41.136s18.419 41.136 41.136 41.136c22.717 0 41.136-18.419 41.136-41.136 0-22.615-18.521-41.136-41.136-41.136z" />
<glyph unicode="&#xe900;" glyph-name="clock" d="M542.118 361.216v170.526c0 17.348-14.155 31.383-30.118 31.383s-30.118-14.095-30.118-31.383v-185.705l0.482-1.747 1.205-6.024 1.687-5.722 2.831-4.578 3.915-5.18 1.024-1.265 174.261-114.025c6.325-4.397 13.914-6.626 21.444-6.626 10.12 0 20.119 3.855 26.985 11.324 11.927 13.011 10.481 31.985-4.337 42.466l-169.261 106.556zM512 864c-282.684 0-512-229.256-512-512s229.316-512 512-512c282.805 0 512 229.256 512 512s-229.195 512-512 512zM512-35.253c-213.474 0-387.192 173.658-387.192 387.253 0 213.534 173.779 387.192 387.192 387.192 213.594 0 387.253-173.658 387.253-387.192s-173.719-387.253-387.253-387.253z" />
<glyph unicode="&#xe9ce;" glyph-name="eye" d="M512 704c-223.318 0-416.882-130.042-512-320 95.118-189.958 288.682-320 512-320 223.312 0 416.876 130.042 512 320-95.116 189.958-288.688 320-512 320zM764.45 534.296c60.162-38.374 111.142-89.774 149.434-150.296-38.292-60.522-89.274-111.922-149.436-150.296-75.594-48.218-162.89-73.704-252.448-73.704-89.56 0-176.858 25.486-252.452 73.704-60.158 38.372-111.138 89.772-149.432 150.296 38.292 60.524 89.274 111.924 149.434 150.296 3.918 2.5 7.876 4.922 11.86 7.3-9.96-27.328-15.41-56.822-15.41-87.596 0-141.382 114.616-256 256-256 141.382 0 256 114.618 256 256 0 30.774-5.452 60.268-15.408 87.598 3.978-2.378 7.938-4.802 11.858-7.302v0zM512 480c0-53.020-42.98-96-96-96s-96 42.98-96 96 42.98 96 96 96 96-42.982 96-96z" />
<glyph unicode="&#xe9d1;" glyph-name="eye-blocked" d="M945.942 881.942c-18.746 18.744-49.136 18.744-67.882 0l-202.164-202.164c-51.938 15.754-106.948 24.222-163.896 24.222-223.318 0-416.882-130.042-512-320 41.122-82.124 100.648-153.040 173.022-207.096l-158.962-158.962c-18.746-18.746-18.746-49.136 0-67.882 9.372-9.374 21.656-14.060 33.94-14.060s24.568 4.686 33.942 14.058l864 864c18.744 18.746 18.744 49.138 0 67.884zM416 576c42.24 0 78.082-27.294 90.92-65.196l-121.724-121.724c-37.902 12.838-65.196 48.68-65.196 90.92 0 53.020 42.98 96 96 96zM110.116 384c38.292 60.524 89.274 111.924 149.434 150.296 3.918 2.5 7.876 4.922 11.862 7.3-9.962-27.328-15.412-56.822-15.412-87.596 0-54.89 17.286-105.738 46.7-147.418l-60.924-60.924c-52.446 36.842-97.202 83.882-131.66 138.342zM768 454c0 27.166-4.256 53.334-12.102 77.898l-321.808-321.808c24.568-7.842 50.742-12.090 77.91-12.090 141.382 0 256 114.618 256 256zM830.026 606.026l-69.362-69.362c1.264-0.786 2.53-1.568 3.786-2.368 60.162-38.374 111.142-89.774 149.434-150.296-38.292-60.522-89.274-111.922-149.436-150.296-75.594-48.218-162.89-73.704-252.448-73.704-38.664 0-76.902 4.76-113.962 14.040l-76.894-76.894c59.718-21.462 123.95-33.146 190.856-33.146 223.31 0 416.876 130.042 512 320-45.022 89.916-112.118 166.396-193.974 222.026z" />
<glyph unicode="&#xf00d;" glyph-name="remove" horiz-adv-x="805" d="M741.714 108.571q0-22.857-16-38.857l-77.714-77.714q-16-16-38.857-16t-38.857 16l-168 168-168-168q-16-16-38.857-16t-38.857 16l-77.714 77.714q-16 16-16 38.857t16 38.857l168 168-168 168q-16 16-16 38.857t16 38.857l77.714 77.714q16 16 38.857 16t38.857-16l168-168 168 168q16 16 38.857 16t38.857-16l77.714-77.714q16-16 16-38.857t-16-38.857l-168-168 168-168q16-16 16-38.857z" />
<glyph unicode="&#xf078;" glyph-name="dropdown-down" horiz-adv-x="951" d="M920.571 461.714q0-30.286-21.143-51.429l-372-372q-21.714-21.714-52-21.714-30.857 0-51.429 21.714l-372 372q-21.714 20.571-21.714 51.429 0 30.286 21.714 52l42.286 42.857q22.286 21.143 52 21.143 30.286 0 51.429-21.143l277.714-277.714 277.714 277.714q21.143 21.143 51.429 21.143 29.714 0 52-21.143l42.857-42.857q21.143-22.286 21.143-52z" />
<glyph unicode="&#xf104;" glyph-name="angle-left" horiz-adv-x="366" d="M358.286 553.143q0-7.429-5.714-13.143l-224.571-224.571 224.571-224.571q5.714-5.714 5.714-13.143t-5.714-13.143l-28.571-28.571q-5.714-5.714-13.143-5.714t-13.143 5.714l-266.286 266.286q-5.714 5.714-5.714 13.143t5.714 13.143l266.286 266.286q5.714 5.714 13.143 5.714t13.143-5.714l28.571-28.571q5.714-5.714 5.714-13.143z" />
<glyph unicode="&#xf109;" glyph-name="laptop" horiz-adv-x="1097" d="M237.568 132.864q-37.888 0-64.512 26.624t-26.624 64.512v402.432q0 37.888 26.624 64.512t64.512 26.624h621.568q37.888 0 64.512-26.624t27.648-64.512v-402.432q0-37.888-27.648-64.512t-64.512-26.624h-621.568zM219.136 626.432v-402.432q0-7.168 6.144-13.312t12.288-5.12h621.568q8.192 0 13.312 5.12t5.12 13.312v402.432q0 7.168-5.12 12.288t-13.312 6.144h-621.568q-7.168 0-12.288-6.144t-6.144-12.288zM1005.568 96h91.136v-55.296q0-22.528-26.624-37.888t-64.512-16.384h-914.432q-36.864 0-64.512 16.384t-26.624 37.888v55.296h1005.568zM593.92 40.704q9.216 0 9.216 9.216t-9.216 9.216h-91.136q-9.216 0-9.216-9.216t9.216-9.216h91.136z" />
<glyph unicode="&#xf10a;" glyph-name="tablet" horiz-adv-x="657" d="M365.568 59.136q0 15.36-10.24 25.6t-26.624 11.264-25.6-11.264-10.24-25.6 10.24-25.6 25.6-10.24 26.624 10.24 10.24 25.6zM584.704 151.296v547.84q0 8.192-5.12 13.312t-12.288 5.12h-476.16q-7.168 0-12.288-5.12t-6.144-13.312v-547.84q0-8.192 6.144-13.312t12.288-5.12h476.16q7.168 0 12.288 5.12t5.12 13.312zM658.432 699.136v-621.568q0-37.888-26.624-64.512t-64.512-26.624h-476.16q-36.864 0-64.512 26.624t-26.624 64.512v621.568q0 37.888 26.624 64.512t64.512 27.648h476.16q36.864 0 64.512-27.648t26.624-64.512z" />
<glyph unicode="&#xf10b;" glyph-name="mobile" horiz-adv-x="438" d="M265.216 59.136q0 19.456-13.312 32.768t-32.768 13.312-31.744-13.312-13.312-32.768 13.312-31.744 31.744-13.312 32.768 13.312 13.312 31.744zM384 151.296v401.408q0 8.192-5.12 13.312t-13.312 5.12h-292.864q-7.168 0-12.288-5.12t-5.12-13.312v-401.408q0-8.192 5.12-13.312t12.288-5.12h292.864q7.168 0 13.312 5.12t5.12 13.312zM274.432 635.648q0 9.216-9.216 9.216h-91.136q-9.216 0-9.216-9.216t9.216-9.216h91.136q9.216 0 9.216 9.216zM439.296 644.864v-585.728q0-29.696-22.528-51.2t-51.2-21.504h-292.864q-29.696 0-51.2 21.504t-21.504 51.2v585.728q0 29.696 21.504 51.2t51.2 21.504h292.864q29.696 0 51.2-21.504t22.528-51.2z" />
<glyph unicode="&#xf13b;" glyph-name="html5" horiz-adv-x="804" d="M646.144 523.008l9.216 100.352h-505.856l26.624-305.152h350.208l-12.288-131.072-112.64-29.696-112.64 29.696-7.168 79.872h-99.328l12.288-158.72 206.848-56.32h2.048l204.8 56.32 28.672 311.296h-367.616l-8.192 103.424h385.024zM0 791.296h804.864l-73.728-822.272-329.728-92.16-328.704 92.16z" />
<glyph unicode="&#xf13c;" glyph-name="css3" d="M157.696 791.296h859.136l-151.552-761.856-459.776-152.576-398.336 152.576 39.936 202.752h169.984l-16.384-83.968 240.64-91.136 278.528 91.136 38.912 194.56h-691.2l33.792 168.96h690.176l22.528 109.568h-690.176z" />
<glyph unicode="&#xf16d;" glyph-name="instagram" horiz-adv-x="878" d="M584.704 352q0 60.416-41.984 103.424t-103.424 43.008-103.424-43.008-43.008-103.424 43.008-103.424 103.424-43.008 103.424 43.008 41.984 103.424zM663.552 352q0-93.184-65.536-159.744t-158.72-65.536-159.744 65.536-65.536 159.744 65.536 159.744 159.744 65.536 158.72-65.536 65.536-159.744zM726.016 586.496q0-21.504-15.36-36.864t-37.888-15.36-36.864 15.36-15.36 36.864 15.36 36.864 36.864 15.36 37.888-15.36 15.36-36.864zM439.296 712.448q-4.096 0-44.032 0t-60.416 0-55.296-2.048-58.368-5.12-40.96-11.264q-28.672-11.264-50.176-32.768t-33.792-50.176q-6.144-16.384-10.24-40.96t-6.144-59.392-1.024-54.272 0-60.416 0-44.032 0-44.032 0-60.416 1.024-54.272 6.144-59.392 10.24-40.96q12.288-28.672 33.792-50.176t50.176-32.768q16.384-6.144 40.96-11.264t58.368-5.12 55.296-2.048 60.416 0 44.032 0 43.008 0 60.416 0 55.296 2.048 59.392 5.12 39.936 11.264q28.672 11.264 51.2 32.768t32.768 50.176q6.144 16.384 10.24 40.96t6.144 59.392 1.024 54.272 0 60.416 0 44.032 0 44.032 0 60.416-1.024 54.272-6.144 59.392-10.24 40.96q-11.264 28.672-32.768 50.176t-51.2 32.768q-16.384 6.144-39.936 11.264t-59.392 5.12-55.296 2.048-60.416 0-43.008 0zM877.568 352q0-131.072-3.072-181.248-5.12-118.784-70.656-184.32t-183.296-70.656q-51.2-3.072-181.248-3.072t-181.248 3.072q-118.784 6.144-184.32 70.656t-70.656 184.32q-3.072 50.176-3.072 181.248t3.072 181.248q5.12 118.784 70.656 184.32t184.32 70.656q50.176 3.072 181.248 3.072t181.248-3.072q118.784-6.144 183.296-70.656t70.656-184.32q3.072-50.176 3.072-181.248z" />
<glyph unicode="&#xf17a;" glyph-name="windows2" horiz-adv-x="950" d="M390.144 289.536v-372.736l-390.144 54.272v318.464h390.144zM390.144 713.472v-375.808h-390.144v322.56zM951.296 289.536v-449.536l-519.168 71.68v377.856h519.168zM951.296 791.296v-453.632h-519.168v381.952z" />
<glyph unicode="&#xf17b;" glyph-name="android" horiz-adv-x="804" d="M281.6 588.544q9.216 0 16.384 6.144t6.144 15.36-6.144 16.384-16.384 6.144-15.36-6.144-6.144-16.384 6.144-15.36 15.36-6.144zM523.264 588.544q9.216 0 15.36 6.144t6.144 15.36-6.144 16.384-15.36 6.144-16.384-6.144-6.144-16.384 6.144-15.36 16.384-6.144zM59.392 483.072q23.552 0 40.96-17.408t16.384-40.96v-245.76q0-24.576-16.384-41.984t-40.96-17.408-41.984 17.408-17.408 41.984v245.76q0 23.552 17.408 40.96t41.984 17.408zM664.576 471.808v-379.904q0-26.624-18.432-45.056t-44.032-18.432h-43.008v-130.048q0-24.576-16.384-40.96t-41.984-17.408-41.984 17.408-17.408 40.96v130.048h-78.848v-130.048q0-24.576-16.384-40.96t-41.984-17.408q-24.576 0-40.96 17.408t-17.408 40.96l-1.024 130.048h-41.984q-26.624 0-44.032 18.432t-18.432 45.056v379.904h524.288zM532.48 703.232q60.416-30.72 97.28-87.040t36.864-123.904h-528.384q0 67.584 35.84 123.904t98.304 87.040l-39.936 74.752q-4.096 8.192 2.048 12.288 8.192 3.072 12.288-4.096l40.96-75.776q54.272 24.576 114.688 24.576t114.688-24.576l40.96 75.776q4.096 7.168 11.264 4.096 7.168-4.096 3.072-12.288zM804.864 424.704v-245.76q0-24.576-17.408-41.984t-41.984-17.408q-23.552 0-40.96 17.408t-17.408 41.984v245.76q0 24.576 17.408 40.96t40.96 17.408q24.576 0 41.984-17.408t17.408-40.96z" />
<glyph unicode="&#xf17e;" glyph-name="skype" horiz-adv-x="878" d="M670.72 256.768q0 28.672-11.264 52.224t-27.648 38.912-41.984 27.648-47.104 19.456-50.176 13.312l-59.392 14.336q-17.408 4.096-25.6 6.144t-19.456 6.144-17.408 9.216-9.216 12.288-4.096 16.384q0 44.032 81.92 44.032 24.576 0 44.032-6.144t30.72-16.384 21.504-19.456 23.552-16.384 27.648-7.168q26.624 0 43.008 18.432t16.384 44.032q0 31.744-32.768 56.32t-80.896 38.912-103.424 13.312q-38.912 0-75.776-9.216t-68.608-26.624-50.176-49.152-19.456-73.728q0-34.816 10.24-61.44t32.768-43.008 45.056-27.648 59.392-18.432l82.944-20.48q52.224-12.288 64.512-20.48 18.432-11.264 18.432-34.816 0-21.504-23.552-36.864t-59.392-14.336q-29.696 0-52.224 9.216t-37.888 22.528-25.6 25.6-26.624 21.504-30.72 9.216q-28.672 0-43.008-17.408t-14.336-41.984q0-53.248 69.632-90.112t165.888-37.888q41.984 0 79.872 10.24t70.656 30.72 50.176 53.248 19.456 75.776zM877.568 132.864q0-91.136-64.512-155.648t-154.624-64.512q-74.752 0-134.144 46.080-44.032-9.216-84.992-9.216-81.92 0-156.672 31.744t-129.024 86.016-84.992 128-31.744 156.672q0 41.984 9.216 86.016-46.080 59.392-46.080 133.12 0 91.136 64.512 155.648t154.624 64.512q74.752 0 134.144-46.080 44.032 9.216 86.016 9.216 80.896 0 155.648-31.744t129.024-86.016 86.016-128 30.72-156.672q0-41.984-8.192-86.016 45.056-59.392 45.056-133.12z" />
<glyph unicode="&#xf18a;" glyph-name="weibo" d="M386.048 130.816q11.264 19.456 6.144 38.912t-25.6 28.672q-19.456 8.192-41.984 0t-33.792-25.6q-13.312-19.456-8.192-38.912t24.576-29.696 43.008-1.024 35.84 27.648zM439.296 199.424q5.12 7.168 2.048 15.36t-10.24 10.24q-7.168 3.072-16.384 0t-12.288-10.24q-9.216-18.432 8.192-26.624 8.192-2.048 16.384 1.024t12.288 10.24zM538.624 137.984q-25.6-58.368-90.112-84.992t-128-7.168q-61.44 19.456-83.968 72.704t3.072 106.496q27.648 53.248 87.040 79.872t119.808 10.24q63.488-16.384 91.136-67.584t1.024-109.568zM716.8 230.144q-5.12 54.272-50.176 96.256t-119.808 62.464-156.672 12.288q-126.976-13.312-210.944-80.896t-75.776-151.552q5.12-54.272 51.2-96.256t118.784-62.464 156.672-12.288q128 13.312 210.944 80.896t75.776 151.552zM892.928 227.072q0-38.912-20.48-78.848t-62.464-78.848-96.256-66.56-129.024-48.128-154.624-17.408-157.696 19.456-137.216 53.248-98.304 86.016-36.864 113.664q0 65.536 39.936 140.288t112.64 147.456q96.256 96.256 195.584 134.144t140.288-3.072q36.864-36.864 11.264-119.808-2.048-8.192 0-11.264t5.12-4.096 8.192 0 8.192 2.048l3.072 1.024q79.872 33.792 141.312 33.792t87.040-34.816q25.6-35.84 0-101.376-1.024-7.168-3.072-11.264t3.072-7.168 7.168-5.12 9.216-3.072q32.768-10.24 59.392-26.624t45.056-47.104 19.456-66.56zM850.944 584.448q23.552-27.648 30.72-62.464t-3.072-67.584q-5.12-12.288-17.408-18.432t-25.6-3.072q-12.288 5.12-19.456 17.408t-2.048 25.6q11.264 35.84-13.312 63.488t-61.44 19.456q-13.312-3.072-25.6 5.12t-14.336 20.48q-3.072 14.336 5.12 25.6t20.48 14.336q34.816 7.168 68.608-3.072t57.344-36.864zM954.368 677.632q50.176-55.296 64.512-128t-8.192-137.216q-5.12-15.36-19.456-23.552t-29.696-2.048-22.528 19.456-3.072 29.696q16.384 47.104 6.144 98.304t-46.080 90.112q-35.84 39.936-84.992 55.296t-98.304 4.096q-16.384-3.072-29.696 6.144t-17.408 24.576 5.12 29.696 25.6 16.384q69.632 15.36 139.264-6.144t118.784-76.8z" />
<glyph unicode="&#xf18b;" glyph-name="renren" horiz-adv-x="878" d="M647.168-33.024q-97.28-54.272-209.92-54.272-111.616 0-209.92 54.272 78.848 49.152 135.168 120.832t74.752 152.576q19.456-81.92 75.776-152.576t134.144-120.832zM364.544 783.104v-277.504q0-143.36-72.704-262.144t-188.416-175.104q-103.424 122.88-103.424 282.624 0 106.496 48.128 199.68t131.072 153.6 185.344 78.848zM877.568 350.976q0-159.744-103.424-282.624-116.736 56.32-188.416 175.104t-72.704 262.144v277.504q102.4-17.408 186.368-78.848t131.072-153.6 47.104-199.68z" />
<glyph unicode="&#xf1d5;" glyph-name="tencent-weibo" horiz-adv-x="731" d="M481.28 537.344q0-46.080-32.768-77.824t-77.824-32.768q-33.792 0-63.488 20.48-34.816-38.912-65.536-83.968-141.312-211.968-115.712-490.496 1.024-13.312-7.168-22.528t-19.456-10.24h-3.072q-11.264 0-19.456 7.168t-10.24 19.456q-7.168 71.68-2.048 141.312t17.408 123.904 30.72 106.496 38.912 89.088 43.008 71.68q34.816 51.2 74.752 94.208-8.192 19.456-8.192 44.032 0 45.056 31.744 77.824t77.824 32.768 77.824-32.768 32.768-77.824zM699.392 531.2q0-90.112-45.056-166.912t-121.856-121.856-166.912-44.032q-36.864 0-74.752 8.192-12.288 3.072-18.432 13.312t-4.096 22.528q3.072 11.264 13.312 17.408t22.528 5.12q28.672-8.192 61.44-8.192 55.296 0 106.496 22.528t87.040 58.368 58.368 87.040 21.504 106.496-21.504 106.496-58.368 87.040-87.040 58.368-106.496 21.504-106.496-21.504-87.040-58.368-58.368-87.040-21.504-106.496q0-65.536 29.696-124.928 5.12-11.264 2.048-22.528t-14.336-17.408-22.528-2.048-17.408 15.36q-36.864 69.632-36.864 151.552 0 67.584 26.624 129.024t70.656 106.496 106.496 70.656 129.024 26.624q90.112 0 166.912-44.032t121.856-121.856 45.056-166.912z" />
<glyph unicode="&#xf1d6;" glyph-name="qq" d="M154.624 403.2q-5.12 11.264-5.12 29.696 0 11.264 6.144 28.672t14.336 25.6q-1.024 12.288 4.096 29.696t13.312 24.576q0 79.872 52.224 164.864t124.928 119.808q78.848 37.888 184.32 37.888 76.8 0 152.576-31.744 27.648-11.264 51.2-26.624t40.96-32.768 30.72-38.912 24.576-41.984 18.432-48.128 14.336-51.2 12.288-56.32l1.024-2.048q31.744-48.128 31.744-86.016 0-8.192-5.12-23.552t-5.12-21.504q0 0 0-2.048t2.048-2.048 1.024-2.048q44.032-65.536 69.632-122.88t24.576-118.784q0-24.576-11.264-57.344t-31.744-32.768q-5.12 0-11.264 4.096t-10.24 10.24-11.264 14.336-9.216 15.36-7.168 15.36-5.12 9.216q-1.024 1.024-2.048 1.024l-3.072-2.048q-33.792-88.064-75.776-128 12.288-11.264 35.84-21.504t38.912-23.552 20.48-37.888q-1.024-2.048-2.048-9.216t-4.096-10.24q-36.864-55.296-173.056-55.296-29.696 0-62.464 5.12t-56.32 11.264-59.392 17.408q-9.216 3.072-13.312 4.096-8.192 2.048-26.624 3.072t-22.528 0q-23.552-25.6-72.704-36.864t-96.256-11.264q-20.48 0-39.936 1.024t-53.248 5.12-57.344 11.264-43.008 23.552-18.432 35.84q0 23.552 6.144 33.792t23.552 28.672q6.144 1.024 22.528 7.168t28.672 7.168q2.048 0 8.192 1.024 1.024 1.024 1.024 2.048l-1.024 2.048q-27.648 6.144-61.44 59.392t-41.984 90.112l-3.072 2.048q-2.048 0-7.168-12.288-10.24-23.552-30.72-41.984t-44.032-21.504h-1.024q-2.048 0-3.072 2.048t-3.072 3.072q-13.312 31.744-13.312 57.344 0 157.696 144.384 266.24z" />
<glyph unicode="&#xf1d7;" glyph-name="wechat" horiz-adv-x="1169" d="M331.776 600.832q0 23.552-14.336 37.888t-37.888 14.336q-24.576 0-43.008-15.36t-19.456-36.864q0-22.528 19.456-36.864t43.008-14.336 37.888 13.312 14.336 37.888zM755.712 311.040q0 15.36-14.336 28.672t-36.864 12.288q-16.384 0-28.672-13.312t-13.312-27.648q0-16.384 13.312-28.672t28.672-13.312q22.528 0 36.864 12.288t14.336 29.696zM621.568 600.832q0 23.552-14.336 37.888t-37.888 14.336q-24.576 0-43.008-15.36t-18.432-36.864q0-22.528 18.432-36.864t43.008-14.336q23.552 0 37.888 13.312t14.336 37.888zM984.064 311.040q0 15.36-15.36 28.672t-36.864 12.288q-15.36 0-27.648-13.312t-13.312-27.648q0-16.384 13.312-28.672t27.648-13.312q22.528 0 36.864 12.288t15.36 29.696zM832.512 537.344q-18.432 3.072-40.96 3.072-96.256 0-177.152-44.032t-128-119.808-46.080-163.84q0-45.056 13.312-87.040-20.48-2.048-38.912-2.048-15.36 0-28.672 1.024t-31.744 4.096-25.6 4.096-30.72 6.144-28.672 5.12l-144.384-71.68 40.96 123.904q-165.888 116.736-165.888 280.576 0 96.256 55.296 177.152t151.552 128 207.872 46.080q100.352 0 189.44-36.864t149.504-104.448 78.848-149.504zM1170.432 216.832q0-66.56-38.912-126.976t-106.496-110.592l31.744-103.424-113.664 61.44q-86.016-20.48-124.928-20.48-96.256 0-177.152 39.936t-128 109.568-47.104 150.528 47.104 151.552 128 109.568 177.152 39.936q92.16 0 173.056-39.936t130.048-110.592 49.152-150.528z" />
<glyph unicode="&#xf1ed;" glyph-name="paypal" horiz-adv-x="878" d="M868.352 495.36q10.24-48.128-3.072-116.736-49.152-253.952-322.56-253.952h-24.576q-14.336 0-25.6-9.216t-13.312-24.576l-3.072-11.264-30.72-197.632-1.024-8.192q-3.072-15.36-14.336-24.576t-25.6-9.216h-143.36q-12.288 0-18.432 8.192t-5.12 20.48q5.12 32.768 14.336 96.256t15.36 96.256 15.36 95.232 15.36 96.256q3.072 21.504 24.576 21.504h74.752q76.8-2.048 135.168 11.264 100.352 22.528 163.84 82.944 58.368 54.272 89.088 140.288 13.312 39.936 19.456 75.776 1.024 4.096 2.048 4.096t2.048 1.024 3.072-2.048q45.056-33.792 56.32-92.16zM770.048 656.128q0-61.44-26.624-135.168-46.080-133.12-172.032-180.224-65.536-22.528-144.384-23.552 0-1.024-51.2-1.024l-52.224 1.024q-56.32 0-66.56-55.296-2.048-4.096-49.152-302.080 0-6.144-7.168-6.144h-167.936q-12.288 0-21.504 9.216t-6.144 22.528l133.12 840.704q2.048 16.384 15.36 26.624t29.696 11.264h340.992q19.456 0 56.32-7.168t63.488-18.432q61.44-23.552 93.184-70.656t32.768-111.616z" />
<glyph unicode="&#xf231;" glyph-name="pinterest" horiz-adv-x="731" d="M0 523.008q0 61.44 21.504 115.712t59.392 95.232 87.040 70.656 105.472 45.056 115.712 14.336q90.112 0 167.936-37.888t125.952-110.592 48.128-163.84q0-55.296-10.24-107.52t-34.816-101.376-57.344-84.992-81.92-59.392-108.544-21.504q-38.912 0-76.8 18.432t-55.296 50.176q-5.12-22.528-15.36-64.512t-14.336-54.272-11.264-40.96-15.36-39.936-17.408-35.84-26.624-45.056-35.84-49.152l-7.168-3.072-5.12 6.144q-9.216 90.112-9.216 107.52 0 52.224 12.288 117.76t37.888 164.864 29.696 115.712q-18.432 36.864-18.432 96.256 0 48.128 29.696 89.088t75.776 41.984q34.816 0 54.272-23.552t19.456-58.368q0-37.888-24.576-108.544t-25.6-107.52q0-35.84 25.6-59.392t62.464-23.552q31.744 0 58.368 14.336t45.056 38.912 31.744 54.272 21.504 62.464 11.264 63.488 4.096 57.344q0 98.304-62.464 153.6t-163.84 55.296q-113.664 0-190.464-73.728t-76.8-187.392q0-25.6 7.168-49.152t15.36-36.864 15.36-26.624 7.168-17.408q0-15.36-8.192-40.96t-21.504-25.6q-1.024 0-9.216 1.024-29.696 9.216-52.224 31.744t-34.816 54.272-18.432 61.44-6.144 61.44z" />
<glyph unicode="&#xf232;" glyph-name="whatsapp" horiz-adv-x="878" d="M563.2 307.968q7.168 0 55.296-25.6t51.2-30.72q1.024-2.048 1.024-8.192 0-18.432-9.216-43.008-9.216-22.528-40.96-37.888t-58.368-15.36q-32.768 0-108.544 35.84-56.32 25.6-97.28 67.584t-83.968 105.472q-41.984 61.44-40.96 110.592v5.12q2.048 51.2 41.984 90.112 14.336 12.288 29.696 12.288 4.096 0 10.24-1.024t11.264-1.024q11.264 0 15.36-3.072t8.192-16.384q5.12-11.264 19.456-50.176t14.336-41.984q0-12.288-19.456-33.792t-20.48-26.624q0-3.072 3.072-8.192 19.456-41.984 58.368-77.824 31.744-30.72 86.016-58.368 7.168-4.096 13.312-4.096 8.192 0 30.72 27.648t29.696 28.672zM446.464 4.864q72.704 0 139.264 28.672t114.688 75.776 76.8 114.688 28.672 139.264-28.672 139.264-76.8 114.688-114.688 76.8-139.264 28.672-138.24-28.672-114.688-76.8-76.8-114.688-28.672-139.264q0-115.712 68.608-209.92l-45.056-133.12 138.24 44.032q90.112-59.392 196.608-59.392zM446.464 794.368q88.064 0 167.936-34.816t137.216-91.136 92.16-138.24 33.792-166.912-33.792-166.912-92.16-137.216-137.216-92.16-167.936-34.816q-110.592 0-207.872 54.272l-238.592-76.8 77.824 231.424q-61.44 101.376-61.44 222.208 0 88.064 33.792 166.912t92.16 138.24 137.216 91.136 166.912 34.816z" />
<glyph unicode="&#xf267;" glyph-name="safari" d="M542.72 354.048q0-15.36-10.24-25.6t-23.552-11.264q-14.336 0-25.6 9.216t-10.24 23.552q0 15.36 9.216 25.6t23.552 11.264 25.6-9.216 11.264-23.552zM550.912 320.256l199.68 332.8q-5.12-5.12-37.888-35.84t-71.68-66.56-78.848-72.704-66.56-63.488-28.672-29.696l-199.68-330.752q4.096 4.096 38.912 34.816t71.68 66.56 77.824 72.704 66.56 63.488 28.672 28.672zM920.576 352q0-114.688-59.392-211.968-2.048 1.024-9.216 6.144t-15.36 9.216-9.216 5.12q-8.192 0-8.192-8.192 0-5.12 33.792-24.576-41.984-64.512-105.472-109.568t-138.24-62.464l-8.192 37.888q-1.024 6.144-9.216 6.144-3.072 0-4.096-3.072t-1.024-6.144l9.216-38.912q-41.984-8.192-83.968-8.192-113.664 0-212.992 60.416 1.024 1.024 8.192 11.264t12.288 19.456 5.12 10.24q0 8.192-7.168 8.192-4.096 0-10.24-8.192t-12.288-20.48-8.192-13.312q-64.512 43.008-109.568 107.52t-62.464 140.288l38.912 8.192q6.144 2.048 6.144 8.192 0 3.072-3.072 5.12t-6.144 1.024l-38.912-9.216q-8.192 41.984-8.192 79.872 0 117.76 62.464 217.088 1.024-1.024 10.24-7.168t17.408-11.264 10.24-4.096q7.168 0 7.168 6.144 0 4.096-7.168 9.216t-18.432 12.288l-11.264 7.168q44.032 63.488 107.52 107.52t139.264 61.44l9.216-37.888q1.024-6.144 8.192-6.144 3.072 0 5.12 3.072t1.024 6.144l-9.216 37.888q40.96 7.168 76.8 7.168 116.736 0 217.088-62.464-22.528-31.744-22.528-36.864 0-7.168 6.144-7.168 7.168 0 27.648 35.84 63.488-41.984 107.52-105.472t61.44-138.24l-31.744-7.168q-6.144-1.024-6.144-8.192 0-3.072 3.072-5.12t5.12-1.024l32.768 7.168q8.192-40.96 8.192-79.872zM968.704 352q0 93.184-35.84 178.176t-97.28 145.408-145.408 97.28-178.176 35.84-177.152-35.84-146.432-97.28-97.28-145.408-35.84-178.176 35.84-177.152 97.28-146.432 146.432-97.28 177.152-35.84 178.176 35.84 145.408 97.28 97.28 146.432 35.84 177.152zM1024 352q0-104.448-40.96-198.656t-108.544-163.84-163.84-108.544-198.656-40.96-198.656 40.96-163.84 108.544-108.544 163.84-40.96 198.656 40.96 198.656 108.544 163.84 163.84 108.544 198.656 40.96 198.656-40.96 163.84-108.544 108.544-163.84 40.96-198.656z" />
<glyph unicode="&#xf268;" glyph-name="chrome" d="M509.952 864q137.216 1.024 258.048-68.608 133.12-76.8 200.704-212.992l-423.936 22.528q-91.136 5.12-167.936-41.984t-105.472-131.072l-157.696 241.664q73.728 91.136 178.176 140.288t218.112 50.176zM83.968 632.576l192.512-378.88q40.96-81.92 119.808-123.904t167.936-25.6l-132.096-258.048q-120.832 19.456-219.136 90.112t-155.648 180.224-57.344 235.52q0 152.576 83.968 280.576zM990.208 536.32q32.768-86.016 33.792-178.176t-27.648-174.080-88.064-155.648-140.288-119.808q-131.072-75.776-284.672-67.584l231.424 355.328q50.176 74.752 47.104 165.888t-60.416 158.72zM512 525.056q71.68 0 121.856-51.2t51.2-121.856-51.2-121.856-121.856-50.176-121.856 50.176-50.176 121.856 50.176 121.856 121.856 51.2z" />
<glyph unicode="&#xf269;" glyph-name="firefox" d="M516.096-160q-161.792 0-288.768 86.016t-187.392 227.328q-33.792 75.776-38.912 172.032t15.36 190.464 63.488 178.176 102.4 138.24l-7.168-159.744q7.168 7.168 38.912 8.192t39.936-8.192q24.576 46.080 92.16 78.848t134.144 32.768q-30.72-25.6-68.608-83.968t-33.792-94.208q14.336-4.096 35.84-7.168t36.864-4.096 37.888-3.072 29.696-1.024q8.192-3.072 5.12-26.624t-17.408-43.008q-3.072-4.096-9.216-10.24t-32.768-20.48-57.344-19.456l8.192-107.52-78.848 37.888q-10.24-24.576-5.12-46.080t21.504-38.912 36.864-23.552 46.080-3.072q29.696 5.12 56.32 19.456t48.128 25.6 41.984 10.24q34.816-2.048 51.2-19.456t10.24-36.864q0-1.024-1.024-3.072t-5.12-7.168-10.24-9.216-17.408-5.12-26.624-1.024q-34.816-54.272-82.944-77.824t-119.808-16.384q41.984-34.816 93.184-47.104t96.256-3.072 88.064 29.696 72.704 49.152 46.080 59.392q24.576 52.224 22.528 110.592t-21.504 107.52-45.056 71.68q50.176-21.504 78.848-46.080t44.032-63.488q8.192 97.28-32.768 195.584t-119.808 162.816q151.552-44.032 235.52-159.744t86.016-295.936q1.024-72.704-23.552-146.432t-69.632-135.168-108.544-112.64-141.312-76.8-164.864-28.672z" />
<glyph unicode="&#xf26a;" glyph-name="opera" d="M852.992 733.952q-94.208 62.464-204.8 62.464-89.088 0-167.936-41.984t-137.216-113.664q-41.984-53.248-67.584-124.928t-27.648-151.552v-24.576q2.048-79.872 27.648-151.552t67.584-124.928q58.368-72.704 137.216-113.664t167.936-41.984q110.592 0 204.8 62.464-68.608-61.44-156.672-96.256t-184.32-33.792q-16.384 0-24.576 1.024-100.352 4.096-190.464 46.080t-155.648 110.592-103.424 160.768-37.888 193.536q0 104.448 40.96 198.656t108.544 163.84 163.84 108.544 198.656 40.96h2.048q95.232-1.024 183.296-34.816t155.648-95.232zM1024 352q0-109.568-44.032-206.848t-121.856-169.984q-59.392-35.84-126.976-35.84-77.824 0-145.408 48.128 88.064 31.744 144.384 133.12t57.344 231.424q0 130.048-56.32 230.4t-144.384 134.144q67.584 47.104 144.384 47.104 68.608 0 129.024-36.864 77.824-71.68 120.832-167.936t43.008-206.848z" />
<glyph unicode="&#xf26b;" glyph-name="internet-explorer" d="M1024 328.448q0-31.744-4.096-59.392h-657.408q0-82.944 62.464-139.264t147.456-56.32q56.32 0 105.472 26.624t77.824 74.752h241.664q-31.744-91.136-97.28-160.768t-152.576-108.544-183.296-37.888q-107.52 0-203.776 48.128-130.048-66.56-225.28-66.56-135.168 0-135.168 150.528 0 65.536 25.6 156.672 10.24 34.816 62.464 131.072 113.664 205.824 271.36 346.112-105.472-45.056-243.712-201.728 35.84 156.672 161.792 256t286.72 100.352q17.408 0 25.6 0 145.408 66.56 247.808 66.56 35.84 0 65.536-7.168t54.272-23.552 37.888-43.008 14.336-66.56q0-65.536-43.008-162.816 57.344-104.448 57.344-223.232zM984.064 694.016q0 48.128-30.72 75.776t-77.824 27.648q-61.44 0-145.408-39.936 69.632-26.624 126.976-74.752t98.304-111.616q28.672 76.8 28.672 122.88zM72.704-12.544q0-49.152 28.672-75.776t76.8-26.624q65.536 0 151.552 47.104-69.632 41.984-121.856 105.472t-78.848 139.264q-56.32-116.736-56.32-189.44zM361.472 395.008h415.744q-3.072 80.896-64.512 135.168t-143.36 54.272q-82.944 0-143.36-54.272t-64.512-135.168z" />
<glyph unicode="&#xf282;" glyph-name="edge" d="M39.936 409.344v0q9.216 72.704 33.792 138.24t65.536 123.904 95.232 100.352 128 67.584 157.696 24.576q132.096 0 236.544-60.416t168.96-173.056q59.392-107.52 59.392-252.928v-107.52h-643.072q0-63.488 30.72-109.568t77.824-70.656 108.544-31.744 120.832-2.048 118.784 26.624 99.328 48.128v-215.040q-52.224-31.744-131.072-53.248t-178.176-21.504-181.248 30.72q-107.52 40.96-177.152 142.336t-71.68 211.968q-1.024 138.24 63.488 235.52t185.344 153.6q-26.624-34.816-44.032-71.68t-26.624-91.136h363.52q4.096 44.032-5.12 79.872t-26.624 57.344-39.936 38.912-46.080 22.528-43.008 12.288-31.744 5.12h-13.312q-76.8-3.072-148.48-25.6t-126.976-59.392-100.352-79.872-78.848-94.208z" />
<glyph unicode="&#xf2d0;" glyph-name="window-maximize" d="M146.432 59.136h731.136v439.296h-731.136v-439.296zM1024 699.136v-694.272q0-37.888-26.624-64.512t-64.512-27.648h-841.728q-36.864 0-64.512 27.648t-26.624 64.512v694.272q0 37.888 26.624 64.512t64.512 27.648h841.728q37.888 0 64.512-27.648t26.624-64.512z" />
<glyph unicode="&#xf2d1;" glyph-name="window-minimize" d="M1024 114.432v-109.568q0-37.888-26.624-64.512t-64.512-27.648h-841.728q-36.864 0-64.512 27.648t-26.624 64.512v109.568q0 37.888 26.624 64.512t64.512 26.624h841.728q37.888 0 64.512-26.624t26.624-64.512z" />
<glyph unicode="&#xf2d2;" glyph-name="window-restore" horiz-adv-x="1169" d="M146.432-13.568h438.272v292.864h-438.272v-292.864zM731.136 279.296h292.864v438.272h-439.296v-146.432h55.296q37.888 0 64.512-26.624t26.624-64.512v-200.704zM1170.432 772.864v-548.864q0-37.888-26.624-64.512t-64.512-26.624h-348.16v-201.728q0-37.888-26.624-64.512t-64.512-26.624h-548.864q-36.864 0-64.512 26.624t-26.624 64.512v548.864q0 37.888 26.624 64.512t64.512 26.624h348.16v201.728q0 37.888 26.624 64.512t64.512 26.624h548.864q36.864 0 64.512-26.624t26.624-64.512z" />
<glyph unicode="&#xf2d3;" glyph-name="window-close" d="M671.744 109.312l82.944 82.944q6.144 6.144 6.144 13.312t-6.144 13.312l-133.12 133.12 133.12 133.12q6.144 6.144 6.144 13.312t-6.144 13.312l-82.944 82.944q-6.144 6.144-13.312 6.144t-13.312-6.144l-133.12-133.12-133.12 133.12q-6.144 6.144-13.312 6.144t-13.312-6.144l-82.944-82.944q-6.144-6.144-6.144-13.312t6.144-13.312l133.12-133.12-133.12-133.12q-6.144-6.144-6.144-13.312t6.144-13.312l82.944-82.944q6.144-6.144 13.312-6.144t13.312 6.144l133.12 133.12 133.12-133.12q6.144-6.144 13.312-6.144t13.312 6.144zM1024 699.136v-694.272q0-37.888-26.624-64.512t-64.512-27.648h-841.728q-36.864 0-64.512 27.648t-26.624 64.512v694.272q0 37.888 26.624 64.512t64.512 27.648h841.728q37.888 0 64.512-27.648t26.624-64.512z" />
</font>
</defs>
</svg>
