
<svg width="34px" height="31px" viewBox="0 0 34 31" version="1.1" xmlns="http://www.w3.org/2000/svg" xmlns:xlink="http://www.w3.org/1999/xlink">
    <!-- Generator: Sketch 42 (36781) - http://www.bohemiancoding.com/sketch -->
    <desc>Created with Sketch.</desc>
    <defs></defs>
    <rect id="Rectangle-3" stroke="none" fill="#FFFFFF" fill-rule="evenodd" x="0" y="0" width="34" height="31" rx="2"></rect>
    <path d="M23.6149936,8.53191489 C23.6149936,8.34549046 23.3252256,7.51712135 22.8928116,7 C23.3927204,6.44235962 23.6149936,5.60993009 23.6149936,5.40729483 C23.6149936,5.2208704 23.5605831,5.0567383 23.4517607,4.91489362 C23.3429382,4.77304894 23.2126829,4.70212766 23.060991,4.70212766 L20,4.70212766 L20,3 L22.8928116,3 C23.4600076,3 23.8672614,3.09726347 24.1145852,3.29179331 C24.361909,3.48632316 24.5713067,3.75177137 24.7427845,4.0881459 C24.9142624,4.42452043 25,4.87233763 25,5.43161094 C25,5.69098407 24.9538336,5.96251125 24.8614994,6.24620061 C24.7691651,6.52988997 24.6769271,6.73498999 24.3933292,6.97568389 C24.6769271,7.23838672 24.760921,7.42147781 24.8565529,7.70516717 C24.9521848,7.98885653 25,8.27254164 25,8.556231 C25,8.8642366 24.9620776,9.16413228 24.8862316,9.45592705 C24.8103856,9.74772182 24.6900232,10.0091174 24.5251406,10.2401216 C24.3602581,10.4711258 24.1426164,10.6555211 23.872209,10.7933131 C23.6018017,10.931105 23.2753391,11 22.8928116,11 L20,11 L20,9.29787234 L23.0510981,9.29787234 C23.2093853,9.29787234 23.344587,9.22897739 23.4567071,9.09118541 C23.5622319,8.94934067 23.6149936,8.75886638 23.6149936,8.53191489 Z" id="3" stroke="none" fill="#000000" fill-rule="evenodd"></path>
    <path d="M4.97633136,4.71428571 C4.93688343,4.71428571 4.90138083,4.75481216 4.86982249,4.83586626 L2.75147929,11 L1,11 L3.39053254,4.10638298 C3.5246555,3.72542869 3.73372639,3.44579623 4.01775148,3.2674772 C4.30177657,3.08915818 4.62918947,3 5,3 C5.37870012,3 5.70808538,3.08915818 5.98816568,3.2674772 C6.26824598,3.44579623 6.4753445,3.72542869 6.60946746,4.10638298 L9,11 L7.24852071,11 L5.1183432,4.83586626 C5.07889527,4.75481216 5.0473374,4.71428571 5.02366864,4.71428571 L4.97633136,4.71428571 Z" id="A-Copy" stroke="none" fill="#000000" fill-rule="evenodd"></path>
    <path d="M12,11 C9.790861,11 8,9.209139 8,7 C8,4.790861 9.790861,3 12,3 C14.209139,3 16,4.790861 16,7 C16,9.209139 14.209139,11 12,11 Z M11.98,9.56 C13.4048947,9.56 14.56,8.40489465 14.56,6.98 C14.56,5.55510535 13.4048947,4.4 11.98,4.4 C10.5551053,4.4 9.4,5.55510535 9.4,6.98 C9.4,8.40489465 10.5551053,9.56 11.98,9.56 Z" id="Combined-Shape" stroke="none" fill="#000000" fill-rule="evenodd"></path>
    <path d="M29,11 C26.790861,11 25,9.209139 25,7 C25,4.790861 26.790861,3 29,3 C31.209139,3 33,4.790861 33,7 C33,9.209139 31.209139,11 29,11 Z M28.98,9.56 C30.4048947,9.56 31.56,8.40489465 31.56,6.98 C31.56,5.55510535 30.4048947,4.4 28.98,4.4 C27.5551053,4.4 26.4,5.55510535 26.4,6.98 C26.4,8.40489465 27.5551053,9.56 28.98,9.56 Z" id="Combined-Shape" stroke="none" fill="#000000" fill-rule="evenodd"></path>
    <rect id="Rectangle" stroke="none" fill="#000000" fill-rule="evenodd" x="17" y="3" width="2" height="8"></rect>
    <path d="M7.61157025,16.740771 L7.61157025,22.7471414 L5.76033058,22.7471414 L5.76033058,18.1986279 L5.3553719,18.431885 L5.3553719,15.7494283 C5.77961645,15.3606645 6.12672041,14.7775276 6.39669421,14 L8.53719008,14 L8.30578512,14.8747141 L13.8595041,14.8747141 C15.0165347,14.8747141 15.5950413,15.5161648 15.5950413,16.7990852 L15.5950413,21.5808559 C15.5950413,22.3583835 15.2865045,22.7471414 14.6694215,22.7471414 L13.7438017,22.7471414 L13.7438017,17.8487422 C13.820937,17.0712146 13.5124002,16.7018946 12.8181818,16.740771 L7.61157025,16.740771 Z M9.69421488,22.5721986 L9.75206612,22.5138843 L11.661157,22.5138843 L11.661157,23.3885984 L16,23.3885984 L16,25.2546553 L11.4297521,25.2546553 C10.1184507,27.1595978 8.11296116,28.073179 5.41322314,27.9954262 L5.41322314,26.1293694 C6.87879521,26.090493 7.99724132,25.7600488 8.76859504,25.1380267 L5.29752066,25.1380267 L5.29752066,23.3302842 L9.69421488,23.3302842 L9.69421488,22.5721986 Z M4.08264463,27.937112 L2,27.937112 L2.75206612,24.0300555 C3.0606076,21.7752255 2.8099214,20.4728864 2,20.122999 L2,17.4988566 C4.39119653,18.2763841 5.29752355,20.5311803 4.71900826,24.2633126 L4.08264463,27.937112 Z M11.5454545,20.0063704 L11.5454545,22.2223129 L9.75206612,22.2223129 L9.75206612,20.7061417 C9.75206612,20.2396252 9.53994702,20.0063704 9.11570248,20.0063704 L7.90082645,20.0063704 L7.90082645,18.6068278 L9.75206612,18.6068278 L9.75206612,17.9070565 L9.2892562,18.3152564 C8.71074091,18.5873911 8.28650273,18.5290774 8.01652893,18.1403136 L7.84297521,17.2655995 L8.94214876,17.2655995 L9,17.6737994 C9.11570306,17.7515521 9.23140438,17.7126764 9.34710744,17.5571708 L9.46280992,17.4988566 L9.75206612,17.0906566 L11.5454545,17.0906566 L11.5454545,18.6068278 C11.6611576,18.6068278 11.8347096,18.1597562 12.0661157,17.2655995 L13.338843,17.2655995 L12.9917355,18.6068278 L13.3966942,18.6068278 L13.3966942,20.0063704 L11.5454545,20.0063704 Z M13.2231405,25.837798 C13.531682,25.837798 13.8016517,25.9155496 14.0330579,26.0710551 L15.8842975,27.9954262 L13.0495868,27.9954262 L11.0247934,25.837798 L13.2231405,25.837798 Z M2.11570248,15.4578569 C2.15427017,15.0690931 2.28925504,14.7580868 2.52066116,14.5248285 C2.79063496,14.2915702 3.09917182,14.1749428 3.44628099,14.1749428 C3.83195785,14.1749428 4.14049471,14.2915702 4.37190083,14.5248285 C4.64187463,14.7580868 4.7768595,15.0690931 4.7768595,15.4578569 C4.7768595,15.8077443 4.64187463,16.1187507 4.37190083,16.3908853 C4.14049471,16.6241436 3.83195785,16.740771 3.44628099,16.740771 C3.09917182,16.740771 2.79063496,16.6241436 2.52066116,16.3908853 C2.28925504,16.1187507 2.15427017,15.8077443 2.11570248,15.4578569 Z M8.30578512,20.3562561 L9.52066116,20.3562561 L9.11570248,22.2223129 L7.90082645,22.2223129 L8.30578512,20.3562561 Z M11.7768595,20.3562561 L12.4710744,20.3562561 C12.7796159,20.3562561 12.9531679,20.5117593 12.9917355,20.8227703 L13.2231405,22.2223129 L12.1239669,22.2223129 L11.7768595,20.3562561 Z" id="澳" stroke="none" fill="#000000" fill-rule="evenodd"></path>
    <path d="M22.107438,18.4916667 L21.2975207,18.4916667 L21.2975207,28 L19.0991736,28 L19.0991736,19.425 C19.0991736,18.8027747 18.732786,18.4916667 18,18.4916667 L18,16.5666667 L19.0991736,16.5666667 L19.0991736,14 L21.2975207,14 L21.2975207,16.5666667 L22.107438,16.5666667 L22.107438,18.4916667 Z M31.7107438,22.925 L29.7438017,22.925 C29.7438017,22.4194419 29.5509661,22.1666667 29.1652893,22.1666667 L28.2975207,22.1666667 L28.2975207,22.9833333 L25.8677686,22.9833333 C25.8677686,22.4388862 25.6749331,22.1666667 25.2892562,22.1666667 L24.5371901,22.1666667 L24.5371901,22.925 L22.5702479,22.925 L22.5702479,18.4333333 C22.5702479,17.5388844 23.0523368,17.0722224 24.0165289,17.0333333 L25.8677686,17.0333333 L25.8677686,16.9166667 C25.8677686,16.6444431 25.5977988,16.5083333 25.0578512,16.5083333 L22.5123967,16.5083333 L22.5123967,14.7583333 L25.8677686,14.7583333 L25.8677686,14.175 L28.2975207,14.175 L28.2975207,14.7583333 L29.5702479,14.7583333 L29.3966942,14.2916667 L31.3636364,14.2916667 C32.0578547,15.5361173 31.9035863,16.2749988 30.9008264,16.5083333 L28.2975207,16.5083333 L28.2975207,17.0333333 L30.322314,17.0333333 C31.2479385,17.0333333 31.7107438,17.5583281 31.7107438,18.6083333 L31.7107438,22.925 Z M25.8677686,21 L25.8677686,20.8833333 C25.8677686,20.6111098 25.6749331,20.475 25.2892562,20.475 L24.5371901,20.475 L24.5371901,21 L25.8677686,21 Z M28.2975207,20.475 L28.2975207,21 L29.7438017,21 L29.7438017,20.8833333 C29.7438017,20.6111098 29.5509661,20.475 29.1652893,20.475 L28.2975207,20.475 Z M25.8677686,19.25 L25.8677686,19.1333333 C25.8677686,18.8611098 25.6749331,18.725 25.2892562,18.725 L24.5371901,18.725 L24.5371901,19.25 L25.8677686,19.25 Z M28.2975207,18.725 L28.2975207,19.25 L29.7438017,19.25 L29.7438017,19.1333333 C29.7438017,18.8611098 29.5509661,18.725 29.1652893,18.725 L28.2975207,18.725 Z M28.7603306,23.6833333 L28.7603306,23.275 L31.2479339,23.275 L31.2479339,23.6833333 L32,23.6833333 L32,25.4916667 L31.2479339,25.4916667 L31.2479339,26.8916667 C31.1707985,27.513892 30.7851274,27.825 30.0909091,27.825 L28.7024793,27.825 L28.7024793,26.775 C28.7024793,25.8805511 28.2589576,25.4527776 27.3719008,25.4916667 L22.2809917,25.4916667 L22.2809917,23.6833333 L28.7603306,23.6833333 Z M25.3471074,25.9 C25.6170812,25.9 25.8677674,25.9583327 26.0991736,26.075 L27.6033058,27.5333333 L25,27.5333333 L23.2644628,25.9 L25.3471074,25.9 Z" id="博" stroke="none" fill="#000000" fill-rule="evenodd"></path>
</svg>