
<svg width="1013px" height="756px" viewBox="6 134 1013 756" version="1.1" xmlns="http://www.w3.org/2000/svg" xmlns:xlink="http://www.w3.org/1999/xlink">
    <!-- Generator: Sketch 42 (36781) - http://www.bohemiancoding.com/sketch -->
    <desc>Created with Sketch.</desc>
    <defs></defs>
    <path d="M712.359453,308.255319 C712.359453,302.382949 702.036198,276.289322 686.631048,260 C704.440765,242.434328 712.359453,216.212798 712.359453,209.829787 C712.359453,203.957417 710.42103,198.787256 706.544128,194.319149 C702.667226,189.851041 698.026761,187.617021 692.622594,187.617021 L583.571936,187.617021 L583.571936,134 L686.631048,134 C706.837932,134 721.346728,137.063799 730.157869,143.191489 C738.969011,149.31918 746.428999,157.680798 752.538057,168.276596 C758.647115,178.872393 761.701599,192.978635 761.701599,210.595745 C761.701599,218.765998 760.056877,227.319104 756.767384,236.255319 C753.477891,245.191534 750.191826,251.652185 740.088384,259.234043 C750.191826,267.509182 753.184187,273.276551 756.591162,282.212766 C759.998137,291.148981 761.701599,300.085062 761.701599,309.021277 C761.701599,318.723453 760.350577,328.170167 757.648494,337.361702 C754.94641,346.553237 750.658386,354.787198 744.784291,362.06383 C738.910197,369.340462 731.156509,375.148914 721.522994,379.489362 C711.889479,383.829809 700.258947,386 686.631048,386 L583.571936,386 L583.571936,332.382979 L692.27015,332.382979 C697.909281,332.382979 702.725966,330.212788 706.72035,325.87234 C710.479771,321.404231 712.359453,315.404291 712.359453,308.255319 Z" id="3" stroke="none" fill="#342771" fill-rule="evenodd"></path>
    <path d="M131.204999,188 C129.962879,188 128.844989,189.276583 127.851293,191.829787 L61.1498208,386 L6,386 L81.2720527,168.851064 C85.4952583,156.851004 92.0783918,148.042581 101.021651,142.425532 C109.96491,136.808483 120.274345,134 131.950266,134 C143.874612,134 154.246152,136.808483 163.065199,142.425532 C171.884246,148.042581 178.405275,156.851004 182.62848,168.851064 L257.900533,386 L202.750712,386 L135.676606,191.829787 C134.434486,189.276583 133.440806,188 132.695534,188 L131.204999,188 Z" id="A-Copy" stroke="none" fill="#F62619" fill-rule="evenodd"></path>
    <path d="M360.460036,386 C290.899624,386 234.509769,329.587878 234.509769,260 C234.509769,190.412122 290.899624,134 360.460036,134 C430.020447,134 486.410302,190.412122 486.410302,260 C486.410302,329.587878 430.020447,386 360.460036,386 Z M359.830284,340.64 C404.69675,340.64 441.068206,304.254182 441.068206,259.37 C441.068206,214.485818 404.69675,178.1 359.830284,178.1 C314.963819,178.1 278.592362,214.485818 278.592362,259.37 C278.592362,304.254182 314.963819,340.64 359.830284,340.64 Z" id="Combined-Shape" stroke="none" fill="#F62619" fill-rule="evenodd"></path>
    <path d="M893.049734,386 C823.489322,386 767.099467,329.587878 767.099467,260 C767.099467,190.412122 823.489322,134 893.049734,134 C962.610145,134 1019,190.412122 1019,260 C1019,329.587878 962.610145,386 893.049734,386 Z M892.419982,340.64 C937.286448,340.64 973.657904,304.254182 973.657904,259.37 C973.657904,214.485818 937.286448,178.1 892.419982,178.1 C847.553517,178.1 811.18206,214.485818 811.18206,259.37 C811.18206,304.254182 847.553517,340.64 892.419982,340.64 Z" id="Combined-Shape" stroke="none" fill="#342771" fill-rule="evenodd"></path>
    <rect id="Rectangle" stroke="none" fill="#342771" fill-rule="evenodd" x="516.998224" y="134" width="52.1793961" height="252"></rect>
    <path d="M219.525061,536.3 L219.525061,724.596875 L161.048152,724.596875 L161.048152,582.003125 L148.256328,589.315625 L148.256328,505.221875 C161.657353,493.034314 172.621664,474.753247 181.149589,450.378125 L248.763516,450.378125 L241.453902,477.8 L416.88463,477.8 C453.432881,477.8 471.706733,497.909174 471.706733,538.128125 L471.706733,688.034375 C471.706733,712.409497 461.960679,724.596875 442.468278,724.596875 L413.229823,724.596875 L413.229823,571.034375 C415.666374,546.659253 405.920319,535.081244 383.991369,536.3 L219.525061,536.3 Z M285.311584,719.1125 L287.138988,717.284375 L347.4433,717.284375 L347.4433,744.70625 L484.498557,744.70625 L484.498557,803.20625 L340.133687,803.20625 C298.712335,862.925299 235.362984,891.565637 150.083731,889.128125 L150.083731,830.628125 C196.378183,829.409369 231.707629,819.050098 256.073129,799.55 L146.428924,799.55 L146.428924,742.878125 L285.311584,742.878125 L285.311584,719.1125 Z M108.053452,887.3 L42.2669294,887.3 L66.0231738,764.815625 C75.7693741,694.127772 67.8507052,653.300055 42.2669294,642.33125 L42.2669294,560.065625 C117.799982,584.440747 146.429016,655.12754 128.15489,772.128125 L108.053452,887.3 Z M343.788494,638.675 L343.788494,708.14375 L287.138988,708.14375 L287.138988,660.6125 C287.138988,645.987427 280.438575,638.675 267.03755,638.675 L228.662078,638.675 L228.662078,594.8 L287.138988,594.8 L287.138988,572.8625 L272.51976,585.659375 C254.245635,594.190668 240.84481,592.362561 232.316885,580.175 L226.834675,552.753125 L261.55534,552.753125 L263.382743,565.55 C267.037568,567.987512 270.692339,566.768774 274.347164,561.89375 L278.00197,560.065625 L287.138988,547.26875 L343.788494,547.26875 L343.788494,594.8 C347.443319,594.8 352.925474,580.784515 360.235124,552.753125 L400.438,552.753125 L389.473579,594.8 L402.265403,594.8 L402.265403,638.675 L343.788494,638.675 Z M396.783193,821.4875 C406.529393,821.4875 415.05719,823.924976 422.366841,828.8 L480.84375,889.128125 L391.300982,889.128125 L327.341863,821.4875 L396.783193,821.4875 Z M45.9217362,496.08125 C47.1400113,483.893689 51.4039099,474.143787 58.7135602,466.83125 C67.2414854,459.518713 76.9875395,455.8625 87.9520149,455.8625 C100.134765,455.8625 109.880819,459.518713 117.19047,466.83125 C125.718395,474.143787 129.982294,483.893689 129.982294,496.08125 C129.982294,507.050055 125.718395,516.799957 117.19047,525.33125 C109.880819,532.643787 100.134765,536.3 87.9520149,536.3 C76.9875395,536.3 67.2414854,532.643787 58.7135602,525.33125 C51.4039099,516.799957 47.1400113,507.050055 45.9217362,496.08125 Z M241.453902,649.64375 L279.829374,649.64375 L267.03755,708.14375 L228.662078,708.14375 L241.453902,649.64375 Z M351.098107,649.64375 L373.026948,649.64375 C382.773149,649.64375 388.255304,654.518701 389.473579,664.26875 L396.783193,708.14375 L362.062528,708.14375 L351.098107,649.64375 Z" id="澳" stroke="none" fill="#F62619" fill-rule="evenodd"></path>
    <path d="M674.014348,591.14375 L648.4307,591.14375 L648.4307,889.128125 L578.989371,889.128125 L578.989371,620.39375 C578.989371,600.893653 567.415931,591.14375 544.268706,591.14375 L544.268706,530.815625 L578.989371,530.815625 L578.989371,450.378125 L648.4307,450.378125 L648.4307,530.815625 L674.014348,530.815625 L674.014348,591.14375 Z M977.363316,730.08125 L915.2316,730.08125 C915.2316,714.237421 909.140316,706.315625 896.957565,706.315625 L869.546514,706.315625 L869.546514,731.909375 L792.795571,731.909375 C792.795571,714.84679 786.704287,706.315625 774.521536,706.315625 L750.765292,706.315625 L750.765292,730.08125 L688.633576,730.08125 L688.633576,589.315625 C688.633576,561.284235 703.861785,546.659381 734.318661,545.440625 L792.795571,545.440625 L792.795571,541.784375 C792.795571,533.253082 784.267773,528.9875 767.211923,528.9875 L686.806172,528.9875 L686.806172,474.14375 L792.795571,474.14375 L792.795571,455.8625 L869.546514,455.8625 L869.546514,474.14375 L909.749389,474.14375 L904.267179,459.51875 L966.398895,459.51875 C988.327846,498.518945 983.454819,521.674963 951.779668,528.9875 L869.546514,528.9875 L869.546514,545.440625 L933.505634,545.440625 C962.744235,545.440625 977.363316,561.893585 977.363316,594.8 L977.363316,730.08125 Z M792.795571,669.753125 L792.795571,666.096875 C792.795571,657.565582 786.704287,653.3 774.521536,653.3 L750.765292,653.3 L750.765292,669.753125 L792.795571,669.753125 Z M869.546514,653.3 L869.546514,669.753125 L915.2316,669.753125 L915.2316,666.096875 C915.2316,657.565582 909.140316,653.3 896.957565,653.3 L869.546514,653.3 Z M792.795571,614.909375 L792.795571,611.253125 C792.795571,602.721832 786.704287,598.45625 774.521536,598.45625 L750.765292,598.45625 L750.765292,614.909375 L792.795571,614.909375 Z M869.546514,598.45625 L869.546514,614.909375 L915.2316,614.909375 L915.2316,611.253125 C915.2316,602.721832 909.140316,598.45625 896.957565,598.45625 L869.546514,598.45625 Z M884.165742,753.846875 L884.165742,741.05 L962.744089,741.05 L962.744089,753.846875 L986.500333,753.846875 L986.500333,810.51875 L962.744089,810.51875 L962.744089,854.39375 C960.307539,873.893848 948.124971,883.64375 926.19602,883.64375 L882.338338,883.64375 L882.338338,850.7375 C882.338338,822.70611 868.328385,809.299994 840.30806,810.51875 L679.496559,810.51875 L679.496559,753.846875 L884.165742,753.846875 Z M776.34894,823.315625 C784.876865,823.315625 792.795534,825.143732 800.105184,828.8 L847.617673,874.503125 L765.384519,874.503125 L710.562417,823.315625 L776.34894,823.315625 Z" id="博" stroke="none" fill="#342771" fill-rule="evenodd"></path>
</svg>